<svg width="450" height="300" viewBox="0 0 450 300" fill="none" xmlns="http://www.w3.org/2000/svg">
<rect width="450" height="300" fill="white"/>
<path d="M332.997 139.667H332.698C330.099 138.53 327.643 137.088 325.382 135.372C324.881 134.883 324.483 134.299 324.211 133.654C323.939 133.008 323.799 132.314 323.799 131.613C323.799 130.913 323.939 130.219 324.211 129.573C324.483 128.928 324.881 128.344 325.382 127.855C326.568 126.834 328.1 126.311 329.66 126.395C331.159 126.385 332.634 126.77 333.938 127.512C335.381 128.507 336.569 129.832 337.404 131.377C338.054 132.503 338.861 133.53 339.799 134.427C340.353 134.934 341.062 135.237 341.81 135.286C342.161 135.289 342.509 135.214 342.827 135.066C343.145 134.917 343.427 134.699 343.65 134.427C344.147 133.712 344.388 132.849 344.334 131.979C344.34 129.34 343.614 126.753 342.238 124.505C340.826 122.143 339.414 120.94 337.96 120.94L336.548 121.198C335.818 121.44 335.104 121.726 334.409 122.057C333.371 121.784 332.312 121.597 331.243 121.499C330.188 121.499 329.118 121.499 328.034 121.499C324.122 121.231 320.259 122.493 317.253 125.021C315.888 126.208 314.799 127.681 314.06 129.335C313.321 130.989 312.951 132.786 312.975 134.599C313.006 137.107 313.915 139.524 315.542 141.428C318.27 144.182 321.512 146.371 325.082 147.87L327.649 149.159C332.655 151.564 335.222 154.055 335.222 156.589C335.242 157.35 335.095 158.106 334.792 158.804C334.489 159.501 334.037 160.124 333.468 160.627C332.132 161.679 330.456 162.199 328.762 162.087C327.104 162.088 325.463 161.767 323.927 161.142C322.487 160.515 321.223 159.542 320.248 158.307C319.614 157.438 319.028 156.535 318.494 155.601C317.125 153.196 315.699 151.994 314.215 151.994C313.851 151.997 313.492 152.084 313.165 152.247C312.839 152.411 312.554 152.648 312.333 152.938C311.794 153.622 311.507 154.472 311.52 155.344C311.598 157.703 312.09 160.029 312.975 162.216C313.512 164.051 314.48 165.731 315.798 167.112C316.089 167.347 316.405 167.549 316.74 167.714C317.033 167.855 317.355 167.928 317.681 167.928C318.13 167.884 318.574 167.798 319.007 167.671C319.506 167.45 319.979 167.177 320.419 166.854L325.168 167.671C326.323 167.671 327.521 167.885 328.719 167.928C333.119 168.05 337.406 166.518 340.741 163.633C342.274 162.378 343.506 160.791 344.343 158.992C345.18 157.192 345.601 155.225 345.575 153.239C345.575 148.343 341.297 143.876 332.74 139.71M394.69 161.185L393.535 160.713C392.903 160.34 392.396 159.787 392.08 159.123C391.767 158.05 391.623 156.934 391.652 155.816V141.084C392.085 135.789 390.826 130.494 388.058 125.965C386.681 124.265 384.916 122.92 382.914 122.046C380.911 121.172 378.729 120.792 376.55 120.94C374.646 120.898 372.758 121.295 371.031 122.1C369.233 122.898 367.594 124.019 366.196 125.407C365.624 125.967 365.095 126.57 364.613 127.211C364.057 127.898 363.758 128.242 363.629 128.242C363.491 128.245 363.355 128.211 363.234 128.143C363.114 128.075 363.014 127.975 362.945 127.855C362.86 127.502 362.86 127.134 362.945 126.782V124.634C362.945 118.492 362.945 112.522 363.287 106.638V104.748C363.366 103.74 363.126 102.733 362.603 101.87C362.348 101.567 362.025 101.331 361.66 101.182C361.295 101.032 360.899 100.973 360.506 101.011C359.069 101.003 357.635 101.147 356.228 101.441C354.77 101.736 353.339 102.153 351.95 102.686C350.072 103.316 348.288 104.198 346.645 105.306C346.308 105.534 346.03 105.841 345.837 106.2C345.643 106.559 345.539 106.96 345.532 107.368C345.532 108.442 346.431 109.215 348.185 109.73C349.334 109.902 350.423 110.36 351.351 111.062C352.081 112.933 352.416 114.937 352.335 116.946C352.335 120.21 352.634 127.039 352.634 137.476V151.564C352.721 153.853 352.548 156.144 352.121 158.393C351.89 159.436 351.279 160.355 350.41 160.97L349.169 161.486C347.714 162.044 347.03 162.817 347.03 163.762C347.006 164.4 347.208 165.026 347.599 165.529C347.991 166.032 348.547 166.38 349.169 166.511C352.224 167.119 355.34 167.365 358.453 167.241C361.236 167.415 364.029 167.198 366.753 166.597C368.25 166.124 368.977 165.308 368.977 164.149C368.977 162.989 368.207 162.13 366.667 161.615C366.079 161.416 365.507 161.171 364.956 160.884C364.275 160.423 363.8 159.715 363.629 158.909C363.366 156.916 363.252 154.906 363.287 152.896C363.287 147.011 363.287 142.888 363.672 140.569C363.824 138.709 364.302 136.892 365.084 135.2C365.812 133.501 367.035 132.063 368.592 131.077C369.854 130.202 371.339 129.71 372.871 129.659C374.186 129.558 375.502 129.852 376.652 130.501C377.802 131.151 378.734 132.129 379.331 133.31C380.972 139.172 381.58 145.277 381.128 151.349C381.198 153.591 381.055 155.835 380.7 158.05C380.647 158.551 380.49 159.035 380.24 159.471C379.989 159.908 379.65 160.287 379.245 160.584C378.713 160.878 378.154 161.123 377.577 161.314C376.079 161.872 375.309 162.731 375.309 163.848C375.309 164.965 376.036 165.824 377.491 166.296C380.145 166.881 382.862 167.127 385.577 167.026C388.69 167.171 391.809 166.926 394.861 166.296C395.472 166.143 396.014 165.789 396.401 165.291C396.789 164.793 397 164.179 397 163.547C397 162.516 396.273 161.743 394.775 161.228M288.631 109.129C288.589 107.952 288.254 106.805 287.656 105.792C287.058 104.779 286.216 103.933 285.209 103.33C282.668 101.682 279.672 100.884 276.652 101.054C272.462 100.781 268.327 102.134 265.101 104.834C263.66 106.191 262.531 107.847 261.792 109.686C261.053 111.526 260.723 113.505 260.823 115.485C260.823 116.516 260.823 117.59 260.823 118.621C260.993 119.929 261.265 121.221 261.635 122.486H256.544C256.003 122.443 255.466 122.613 255.047 122.959C254.732 123.442 254.582 124.015 254.619 124.591V125.665C254.574 126.263 254.708 126.862 255.004 127.383C255.193 127.569 255.423 127.709 255.676 127.791C255.928 127.873 256.196 127.895 256.459 127.855H261.635V154.012C261.727 155.784 261.583 157.561 261.208 159.295C261.114 159.719 260.937 160.119 260.687 160.473C260.437 160.827 260.12 161.127 259.753 161.357C259.378 161.57 258.974 161.729 258.555 161.829C257.143 162.388 256.416 163.118 256.416 164.063C256.48 164.664 256.728 165.231 257.126 165.685C257.525 166.139 258.054 166.458 258.641 166.597C261.454 167.174 264.328 167.404 267.197 167.284C270.067 167.404 272.94 167.174 275.754 166.597C277.251 166.167 277.978 165.351 277.978 164.192C277.978 163.032 277.08 162.087 275.326 161.529L273.572 160.841C273.203 160.595 272.898 160.264 272.682 159.876C272.466 159.487 272.346 159.053 272.331 158.608C272.003 156.103 271.888 153.574 271.989 151.049V127.598H278.749C279.021 127.632 279.297 127.604 279.557 127.514C279.816 127.425 280.052 127.277 280.246 127.082C280.592 126.595 280.758 126.003 280.717 125.407V124.333C280.774 123.742 280.623 123.149 280.289 122.658C280.075 122.485 279.828 122.357 279.563 122.283C279.298 122.209 279.021 122.191 278.749 122.229L272.246 122.486C272.082 120.005 271.681 117.546 271.048 115.142C270.636 113.505 270.35 111.84 270.192 110.16C270.17 109.633 270.253 109.106 270.437 108.612C270.621 108.118 270.901 107.666 271.262 107.282C271.616 106.916 272.043 106.628 272.514 106.435C272.985 106.243 273.491 106.151 274 106.165C274.954 106.223 275.871 106.565 276.632 107.146C277.394 107.727 277.966 108.521 278.278 109.429L279.134 111.062C279.594 111.789 280.224 112.392 280.97 112.819C281.716 113.246 282.554 113.483 283.412 113.51C284.022 113.578 284.64 113.514 285.223 113.321C285.806 113.128 286.341 112.812 286.792 112.393C287.189 111.969 287.496 111.469 287.694 110.923C287.893 110.377 287.979 109.795 287.947 109.215M207.087 155C206.614 156.39 205.815 157.646 204.758 158.663C203.701 159.679 202.416 160.426 201.012 160.841C199.114 161.351 197.114 161.328 195.228 160.775C193.342 160.222 191.643 159.161 190.317 157.706C186.484 154.052 183.806 149.347 182.616 144.177C181.462 140.809 181.462 137.15 182.616 133.782C183.122 132.384 183.958 131.129 185.054 130.127C186.149 129.124 187.471 128.404 188.905 128.027C190.804 127.546 192.797 127.583 194.678 128.134C196.558 128.685 198.258 129.731 199.6 131.162C203.424 134.772 206.102 139.433 207.301 144.563C208.415 147.952 208.415 151.611 207.301 155M209.74 126.309C207.722 124.348 205.302 122.852 202.65 121.925C199.998 120.998 197.176 120.662 194.381 120.94C191.42 121.087 188.522 121.85 185.871 123.181C183.22 124.512 180.873 126.382 178.979 128.671C175.038 133.483 173.106 139.641 173.589 145.852C173.637 151.981 176.062 157.85 180.348 162.216C182.364 164.249 184.799 165.815 187.482 166.802C190.165 167.789 193.031 168.173 195.878 167.928C198.899 167.833 201.86 167.063 204.547 165.673C207.234 164.284 209.578 162.31 211.408 159.896C215.383 154.84 217.267 148.442 216.671 142.029C216.541 136.102 214.135 130.454 209.954 126.266M170.508 153.368C169.567 153.368 168.583 154.27 167.513 156.117L166.615 157.663C165.967 158.871 165.006 159.88 163.834 160.584C161.943 161.192 159.955 161.44 157.973 161.314H149.844C149.452 161.424 149.038 161.424 148.646 161.314C148.515 161.268 148.402 161.18 148.325 161.063C148.248 160.947 148.211 160.809 148.218 160.67C148.175 160.486 148.175 160.295 148.218 160.111C148.345 159.845 148.487 159.586 148.646 159.338L170.038 126.567C170.305 126.137 170.548 125.693 170.765 125.235C170.808 124.936 170.808 124.632 170.765 124.333C170.849 123.969 170.805 123.586 170.642 123.25C170.478 122.914 170.204 122.644 169.866 122.486C168.961 122.108 167.976 121.961 167 122.057H146.122C144.671 122.064 143.228 121.847 141.844 121.413L139.619 120.768C138.336 120.768 137.138 121.971 135.983 124.376C134.835 126.819 134.264 129.494 134.314 132.193C134.23 132.973 134.444 133.756 134.913 134.384C135.061 134.65 135.279 134.871 135.543 135.023C135.806 135.174 136.106 135.25 136.41 135.243C137.651 135.243 138.849 134.126 140.047 131.936C140.209 131.635 140.395 131.348 140.603 131.077C141.2 129.911 142.103 128.931 143.213 128.242C144.701 127.68 146.288 127.431 147.876 127.512H154.336C154.731 127.426 155.14 127.426 155.534 127.512C155.654 127.557 155.756 127.64 155.825 127.749C155.895 127.857 155.928 127.985 155.919 128.113C155.962 128.369 155.962 128.63 155.919 128.886C155.777 129.279 155.591 129.653 155.363 130.003L135.298 161.142C134.863 161.8 134.477 162.489 134.143 163.204C133.977 163.583 133.889 163.992 133.886 164.406C133.842 164.715 133.882 165.03 134.003 165.318C134.123 165.605 134.32 165.854 134.571 166.038C135.645 166.394 136.778 166.54 137.908 166.468H160.711C162.742 166.457 164.767 166.687 166.743 167.155H167.77C169.096 167.155 170.251 166.038 171.321 163.805C172.42 161.517 172.962 159 172.904 156.46C172.953 155.603 172.744 154.75 172.305 154.012C172.153 153.721 171.926 153.476 171.647 153.302C171.369 153.128 171.05 153.033 170.722 153.024M112.794 158.737C111.925 159.46 110.921 160.002 109.842 160.334C108.763 160.666 107.629 160.78 106.505 160.67C104.181 160.771 101.905 159.989 100.131 158.479C99.3491 157.757 98.7366 156.871 98.3371 155.883C97.9377 154.895 97.7612 153.831 97.8203 152.767C97.7612 151.628 97.9751 150.491 98.4441 149.452C98.9131 148.413 99.6235 147.503 100.516 146.797C102.712 145.211 105.388 144.437 108.088 144.606C109.128 144.541 110.171 144.541 111.211 144.606C112.37 144.684 113.517 144.886 114.634 145.207V151.865C114.885 154.245 114.211 156.63 112.751 158.522M128.068 159.854H126.699C126.369 159.723 126.076 159.514 125.845 159.245C125.614 158.976 125.452 158.654 125.372 158.307C125.04 157.062 124.896 155.773 124.945 154.485V139.667C125.029 136.589 124.815 133.511 124.303 130.475C124 128.921 123.357 127.454 122.42 126.18C120.941 124.457 119.016 123.179 116.859 122.486C114.1 121.567 111.208 121.117 108.302 121.155C103.622 120.963 98.9698 121.968 94.7827 124.076C93.376 124.673 92.1541 125.637 91.2438 126.868C90.3336 128.099 89.768 129.552 89.606 131.077C89.5394 131.64 89.5845 132.21 89.7387 132.756C89.8929 133.301 90.1531 133.811 90.5045 134.255C90.8795 134.654 91.3403 134.962 91.8519 135.156C92.3634 135.349 92.9122 135.423 93.4565 135.372C94.6292 135.283 95.7665 134.928 96.7821 134.333C97.7976 133.737 98.6648 132.918 99.3177 131.936C99.5681 131.5 99.8697 131.096 100.216 130.733C101.27 129.535 102.513 128.519 103.895 127.726C105.228 127.075 106.691 126.737 108.174 126.739C109.109 126.694 110.042 126.865 110.902 127.237C111.762 127.609 112.526 128.173 113.137 128.886C114.38 130.665 114.983 132.816 114.848 134.985V139.667C113.265 139.409 111.725 139.194 110.313 139.065C109.03 139.001 107.745 139.001 106.462 139.065C101.265 138.618 96.0675 139.934 91.7024 142.802C89.9451 144.098 88.5282 145.803 87.5741 147.771C86.6201 149.739 86.1574 151.91 86.2262 154.098C86.1821 155.983 86.5412 157.856 87.2792 159.589C88.0172 161.323 89.1171 162.878 90.5045 164.149C93.4172 166.75 97.219 168.12 101.115 167.971C105.223 167.829 109.204 166.502 112.58 164.149C113.16 163.71 113.812 163.376 114.506 163.161C115.332 163.905 116.118 164.693 116.859 165.523C117.374 166.189 118.019 166.742 118.755 167.148C119.49 167.554 120.301 167.805 121.137 167.885C123.603 167.925 126.036 167.318 128.196 166.124C130.164 164.965 131.191 163.633 131.191 162.216C131.191 160.798 130.25 160.455 128.367 159.939M79.0815 120.94C77.2201 121.011 75.4326 121.69 73.9903 122.873C72.0499 124.614 70.4029 126.659 69.1131 128.929V127.297C68.2147 123.26 67.2307 121.456 65.776 121.456C64.3254 121.521 62.8884 121.766 61.4978 122.186C59.4376 122.747 57.4096 123.421 55.4226 124.204C54.4687 124.542 53.5843 125.051 52.8129 125.708C52.346 126.129 52.0556 126.712 52 127.34C52 128.371 52.8984 129.187 54.6953 129.745C55.3934 129.965 56.0789 130.223 56.7489 130.518C57.3906 130.905 57.8185 131.936 58.0751 133.568C58.417 137.179 58.5456 140.808 58.4602 144.434V153.755C58.5438 155.418 58.3706 157.084 57.9468 158.694C57.8341 159.143 57.632 159.565 57.3526 159.934C57.0732 160.304 56.7223 160.612 56.3211 160.841L55.1231 161.357C53.6685 161.829 52.9412 162.602 52.9412 163.633C52.9461 164.277 53.169 164.9 53.5733 165.399C53.9777 165.899 54.5393 166.246 55.1659 166.382C58.1345 166.991 61.1657 167.236 64.1931 167.112C67.0638 167.201 69.9351 166.956 72.7496 166.382C74.4609 165.867 75.2738 165.051 75.2738 163.934C75.2738 162.817 74.3754 161.829 72.5357 161.271L70.7816 160.67C70.3367 160.394 69.9569 160.025 69.6688 159.587C69.3806 159.15 69.191 158.654 69.1131 158.136C68.6862 156.205 68.5136 154.227 68.5997 152.251C68.335 146.221 68.7801 140.18 69.926 134.255C70.6961 131.42 72.1507 129.96 74.2042 129.96C74.5465 129.96 74.8888 130.346 75.1882 131.12C75.4354 131.767 75.7978 132.364 76.2578 132.881C76.7704 133.469 77.4159 133.925 78.1403 134.212C78.8732 134.516 79.6574 134.677 80.4505 134.684C81.2193 134.724 81.9862 134.576 82.6862 134.255C83.3863 133.933 83.9988 133.447 84.4721 132.838C85.6216 131.435 86.2426 129.671 86.2262 127.855C86.2993 126.917 86.1669 125.975 85.8382 125.094C85.5096 124.213 84.9928 123.414 84.324 122.755C83.6553 122.096 82.8509 121.592 81.9674 121.279C81.0838 120.965 80.1426 120.85 79.2098 120.94M244.522 120.94C242.572 120.954 240.686 121.636 239.174 122.873C237.111 124.586 235.347 126.633 233.955 128.929V128.242C233.998 127.928 233.998 127.61 233.955 127.297C233.484 123.002 232.5 121.241 231.046 121.241C229.682 121.334 228.334 121.579 227.024 121.971C224.973 122.514 222.958 123.189 220.992 123.99C219.961 124.299 219.002 124.81 218.168 125.493C217.914 125.728 217.71 126.014 217.571 126.332C217.431 126.649 217.357 126.993 217.355 127.34C217.355 128.371 218.254 129.187 220.051 129.745C220.765 129.958 221.465 130.216 222.147 130.518C222.789 130.905 223.217 131.936 223.43 133.568C223.748 137.181 223.862 140.808 223.773 144.434V153.755C223.815 155.424 223.599 157.091 223.131 158.694C222.905 159.591 222.336 160.362 221.548 160.841L220.307 161.357C218.853 161.829 218.125 162.602 218.125 163.633C218.122 164.279 218.342 164.906 218.748 165.407C219.154 165.908 219.72 166.253 220.35 166.382C223.333 166.991 226.378 167.236 229.42 167.112C232.291 167.198 235.162 166.953 237.977 166.382C239.645 165.867 240.501 165.051 240.501 163.934C240.501 162.817 239.602 161.829 237.805 161.271L235.966 160.67C235.505 160.404 235.109 160.039 234.805 159.6C234.502 159.162 234.299 158.662 234.212 158.136C233.792 156.204 233.605 154.228 233.656 152.251C233.476 146.217 233.964 140.181 235.11 134.255C235.966 131.42 237.42 129.96 239.388 129.96C239.731 129.96 240.03 130.346 240.372 131.12C240.621 131.757 240.967 132.351 241.399 132.881C241.947 133.448 242.601 133.9 243.324 134.212C244.036 134.537 244.811 134.698 245.592 134.684C246.361 134.727 247.129 134.581 247.83 134.26C248.531 133.938 249.143 133.45 249.613 132.838C250.628 131.399 251.126 129.658 251.025 127.898C251.077 127.041 250.96 126.181 250.681 125.369C250.401 124.557 249.965 123.808 249.396 123.166C248.828 122.523 248.139 122 247.369 121.625C246.598 121.251 245.762 121.032 244.907 120.983H244.18M293.38 116.989C294.6 117.939 296.116 118.426 297.658 118.363C299.381 118.434 301.075 117.903 302.45 116.86C303.419 116.082 304.047 114.955 304.199 113.719C304.351 112.483 304.015 111.236 303.263 110.245C303.037 109.996 302.778 109.78 302.493 109.601C301.283 108.623 299.768 108.106 298.215 108.141C296.497 108.068 294.815 108.651 293.509 109.773C292.914 110.227 292.432 110.811 292.098 111.481C291.764 112.151 291.588 112.889 291.583 113.639C291.575 114.324 291.73 115.001 292.035 115.613C292.34 116.226 292.786 116.756 293.337 117.161M306.728 161.615L305.017 160.884C304.641 160.614 304.326 160.268 304.09 159.869C303.854 159.47 303.704 159.026 303.648 158.565C303.341 156.576 303.227 154.563 303.306 152.552V140.955L303.605 129.487V124.806C303.719 123.789 303.541 122.761 303.092 121.842C302.904 121.55 302.643 121.313 302.335 121.155C302.027 120.997 301.683 120.922 301.338 120.94C299.703 121.076 298.085 121.364 296.503 121.799C294.185 122.36 291.912 123.092 289.701 123.99C288.71 124.35 287.785 124.873 286.963 125.536C286.455 126.003 286.148 126.65 286.107 127.34C286.107 128.371 287.006 129.187 288.845 129.745C289.557 129.965 290.257 130.223 290.942 130.518C291.324 130.84 291.633 131.24 291.847 131.692C292.061 132.144 292.175 132.638 292.182 133.138C292.524 136.218 292.653 139.318 292.567 142.416V153.755C292.651 155.418 292.478 157.084 292.054 158.694C291.941 159.143 291.739 159.565 291.46 159.934C291.18 160.304 290.829 160.612 290.428 160.841L289.23 161.314C287.818 161.829 287.048 162.602 287.048 163.633C287.045 164.279 287.265 164.906 287.671 165.407C288.077 165.908 288.643 166.253 289.273 166.382C292.271 166.988 295.33 167.233 298.386 167.112C301.102 167.238 303.822 166.993 306.472 166.382C307.969 165.91 308.696 165.094 308.696 163.934C308.696 162.774 307.926 161.915 306.386 161.4" fill="black"/>
</svg>
