<svg width="95" height="65" viewBox="0 0 95 65" fill="none" xmlns="http://www.w3.org/2000/svg">
<rect width="95" height="65" fill="white"/>
<path d="M55.6492 36.7018V27.3401C55.6492 27.3401 55.6492 24.1448 52.5099 24.1448C49.3707 24.1448 49.3707 27.3401 49.3707 27.3401V40.738M55.6492 36.7018V39.3926ZM55.6492 36.7018L61.0376 37.3699L65.2893 37.9039C67.981 38.2421 70.0001 40.5309 70.0001 43.2435V50.1558C70.0001 54.1187 66.7875 57.3313 62.8247 57.3313H53.4009C49.6341 57.3313 46.2686 54.9776 44.9761 51.4394L40.4604 39.0771C40.0879 38.0573 40.7014 36.9429 41.7795 36.8146C42.7402 36.7003 43.8125 36.6477 44.4375 36.856C46.3173 37.4825 49.3707 40.738 49.3707 40.738M49.3707 40.738V43.5971Z" fill="#FEC005"/>
<path d="M55.6492 36.7018V27.3401C55.6492 27.3401 55.6492 24.1448 52.5099 24.1448C49.3707 24.1448 49.3707 27.3401 49.3707 27.3401V40.738M55.6492 36.7018V39.3926M55.6492 36.7018L61.0376 37.3699L65.2893 37.9039C67.981 38.2421 70.0001 40.5309 70.0001 43.2435V50.1558C70.0001 54.1187 66.7875 57.3313 62.8247 57.3313H53.4009C49.6341 57.3313 46.2686 54.9776 44.9761 51.4394L40.4604 39.0771C40.0879 38.0573 40.7014 36.9429 41.7795 36.8146C42.7402 36.7003 43.8125 36.6477 44.4375 36.856C46.3173 37.4825 49.3707 40.738 49.3707 40.738M49.3707 40.738V43.5971" stroke="#0F172A" stroke-width="1.5" stroke-linecap="round" stroke-linejoin="round"/>
<path d="M55.6492 36.7018V27.3401C55.6492 27.3401 55.6492 24.1448 52.5099 24.1448C49.3707 24.1448 49.3707 27.3401 49.3707 27.3401V40.738M55.6492 36.7018V39.3926ZM55.6492 36.7018L61.0376 37.3699L65.2893 37.9039C67.981 38.2421 70.0001 40.5309 70.0001 43.2435V50.1558C70.0001 54.1187 66.7875 57.3313 62.8247 57.3313H53.4009C49.6341 57.3313 46.2686 54.9776 44.9761 51.4394L40.4604 39.0771C40.0879 38.0573 40.7014 36.9429 41.7795 36.8146C42.7402 36.7003 43.8125 36.6477 44.4375 36.856C46.3173 37.4825 49.3707 40.738 49.3707 40.738M49.3707 40.738V43.5971Z" fill="#FEC005"/>
<path d="M55.6492 36.7018V27.3401C55.6492 27.3401 55.6492 24.1448 52.5099 24.1448C49.3707 24.1448 49.3707 27.3401 49.3707 27.3401V40.738M55.6492 36.7018V39.3926M55.6492 36.7018L61.0376 37.3699L65.2893 37.9039C67.981 38.2421 70.0001 40.5309 70.0001 43.2435V50.1558C70.0001 54.1187 66.7875 57.3313 62.8247 57.3313H53.4009C49.6341 57.3313 46.2686 54.9776 44.9761 51.4394L40.4604 39.0771C40.0879 38.0573 40.7014 36.9429 41.7795 36.8146C42.7402 36.7003 43.8125 36.6477 44.4375 36.856C46.3173 37.4825 49.3707 40.738 49.3707 40.738M49.3707 40.738V43.5971" stroke="#0F172A" stroke-width="1.5" stroke-linecap="round" stroke-linejoin="round"/>
<rect x="26.5" y="8.5" width="20.5264" height="2.58773" rx="0.5" stroke="black"/>
<mask id="path-7-inside-1_1822_42" fill="white">
<rect x="26" y="8" width="21.5264" height="3.58773" rx="1"/>
</mask>
<rect x="26" y="8" width="21.5264" height="3.58773" rx="1" stroke="black" stroke-width="3.58773" mask="url(#path-7-inside-1_1822_42)"/>
<rect x="42.645" y="17.4692" width="20.5264" height="2.58773" rx="0.5" stroke="#FCA625"/>
<mask id="path-9-inside-2_1822_42" fill="white">
<rect x="42.145" y="16.9692" width="21.5264" height="3.58773" rx="1"/>
</mask>
<rect x="42.145" y="16.9692" width="21.5264" height="3.58773" rx="1" stroke="#FCA625" stroke-width="3.58773" mask="url(#path-9-inside-2_1822_42)"/>
<rect x="51.6143" y="8.5" width="11.5571" height="2.58773" rx="0.5" stroke="black"/>
<mask id="path-11-inside-3_1822_42" fill="white">
<rect x="51.1143" y="8" width="12.5571" height="3.58773" rx="1"/>
</mask>
<rect x="51.1143" y="8" width="12.5571" height="3.58773" rx="1" stroke="black" stroke-width="3.58773" mask="url(#path-11-inside-3_1822_42)"/>
<rect x="26.5" y="17.4692" width="11.5571" height="2.58773" rx="0.5" stroke="black"/>
<mask id="path-13-inside-4_1822_42" fill="white">
<rect x="26" y="16.9692" width="12.5571" height="3.58773" rx="1"/>
</mask>
<rect x="26" y="16.9692" width="12.5571" height="3.58773" rx="1" stroke="black" stroke-width="3.58773" mask="url(#path-13-inside-4_1822_42)"/>
<rect x="26.5" y="26.4387" width="11.5571" height="2.58773" rx="0.5" stroke="black"/>
<mask id="path-15-inside-5_1822_42" fill="white">
<rect x="26" y="25.9387" width="12.5571" height="3.58773" rx="1"/>
</mask>
<rect x="26" y="25.9387" width="12.5571" height="3.58773" rx="1" stroke="black" stroke-width="3.58773" mask="url(#path-15-inside-5_1822_42)"/>
</svg>
