<svg width="16" height="16" viewBox="0 0 16 16" fill="none" xmlns="http://www.w3.org/2000/svg">
  <style>
    .outline { fill: #656871; }
    @media (prefers-color-scheme: dark) {
      .outline { fill: #DEDEE3; }
    }
</style>
  <rect width="16" height="16" fill="#161D26"/>
  <path class="outline" d="M3.85596 0V3.10249H12.144V0H12.8975V3.10249H16V3.85596H12.8975V12.144H16V12.8975H12.8975V16H12.144V12.8975H3.85596V16H3.10249V12.8975H0V12.144H3.10249V3.85596H0V3.10249H3.10249V0H3.85596ZM3.85596 12.144H12.144V3.85596H3.85596V12.144Z"/>
  <mask id="mask0" style="mask-type:alpha" maskUnits="userSpaceOnUse" x="3" y="3" width="10" height="10">
    <rect x="3.85596" y="3.85583" width="8.28809" height="8.28809" fill="#D9D9D9"/>
  </mask>
  <g mask="url(#mask0)">
    <rect width="9.8018" height="9.51351" transform="translate(2.45068 2.59442)" fill="url(#paint0_linear)"/>
    <rect width="9.8018" height="9.51351" transform="translate(2.45068 2.59442)" fill="url(#paint1_radial)"/>
    <rect width="9.8018" height="9.51351" transform="translate(2.45068 2.59442)" fill="url(#paint2_radial)"/>
    <rect width="9.8018" height="9.51351" transform="translate(2.45068 2.59442)" fill="url(#paint3_radial)"/>
    <rect width="9.8018" height="9.51351" transform="translate(2.45068 2.59442)" fill="url(#paint4_radial)"/>
  </g>
  <defs>
    <linearGradient id="paint0_linear" x1="1.46058e-07" y1="9.51351" x2="11.6652" y2="5.70002" gradientUnits="userSpaceOnUse">
      <stop offset="0.254808" stop-color="#F2ADE5"/>
      <stop offset="0.625" stop-color="#ED24E7"/>
    </linearGradient>
    <radialGradient id="paint1_radial" cx="0" cy="0" r="1" gradientUnits="userSpaceOnUse" gradientTransform="translate(0.868522 0.801684) rotate(75.0051) scale(3.59652 108.141)">
      <stop stop-color="#BF88F4"/>
      <stop offset="1" stop-color="#BF88F4" stop-opacity="0"/>
    </radialGradient>
    <radialGradient id="paint2_radial" cx="0" cy="0" r="1" gradientUnits="userSpaceOnUse" gradientTransform="translate(9.8018 9.51351) rotate(-90) scale(8.65837 8.03703)">
      <stop offset="0.177885" stop-color="#6F6CFA"/>
      <stop offset="0.769231" stop-color="#6F6CFA" stop-opacity="0"/>
    </radialGradient>
    <radialGradient id="paint3_radial" cx="0" cy="0" r="1" gradientUnits="userSpaceOnUse" gradientTransform="translate(4.28053 5.61191) rotate(-100.521) scale(5.43606 5.98432)">
      <stop offset="0.206731" stop-color="#FE96CE"/>
      <stop offset="1" stop-color="#FE96CE" stop-opacity="0"/>
    </radialGradient>
    <radialGradient id="paint4_radial" cx="0" cy="0" r="1" gradientUnits="userSpaceOnUse" gradientTransform="translate(2.3574 9.51351) rotate(-58.0843) scale(7.74474 3.07372)">
      <stop stop-color="#EFE0F0"/>
      <stop offset="1" stop-color="#EFE0F0" stop-opacity="0"/>
    </radialGradient>
  </defs>
</svg>
