<?xml version="1.0" encoding="UTF-8" standalone="no"?>
<svg
   xmlns:dc="http://purl.org/dc/elements/1.1/"
   xmlns:cc="http://creativecommons.org/ns#"
   xmlns:rdf="http://www.w3.org/1999/02/22-rdf-syntax-ns#"
   xmlns:svg="http://www.w3.org/2000/svg"
   xmlns="http://www.w3.org/2000/svg"
   xmlns:sodipodi="http://sodipodi.sourceforge.net/DTD/sodipodi-0.dtd"
   xmlns:inkscape="http://www.inkscape.org/namespaces/inkscape"
   version="1.1"
   id="svg95"
   sodipodi:docname="BogleheadsWikiLogo_before_conversion_to_pathyesterdayworking1.svg"
   inkscape:version="1.0.1 (3bc2e813f5, 2020-09-07)"
   width="135.011"
   height="135.118"
   viewBox="0 0 135.011 135.118"
   overflow="visible"
   enable-background="new 0 0 135.011 135.118"
   xml:space="preserve"><metadata
   id="metadata119"><rdf:RDF><cc:Work
       rdf:about=""><dc:format>image/svg+xml</dc:format><dc:type
         rdf:resource="http://purl.org/dc/dcmitype/StillImage" /></cc:Work></rdf:RDF></metadata><defs
   id="defs117" />
<sodipodi:namedview
   inkscape:window-height="1129"
   inkscape:window-width="1482"
   id="namedview97"
   fit-margin-left="0"
   fit-margin-right="0"
   fit-margin-bottom="0"
   inkscape:window-x="0"
   inkscape:window-y="162"
   inkscape:current-layer="g103"
   inkscape:snap-bbox="true"
   inkscape:object-paths="true"
   inkscape:snap-grids="false"
   inkscape:guide-bbox="true"
   objecttolerance="10"
   inkscape:pageopacity="0"
   inkscape:pageshadow="2"
   inkscape:zoom="5.9185185"
   showgrid="false"
   fit-margin-top="0"
   inkscape:snap-intersection-paths="true"
   inkscape:snap-page="false"
   inkscape:snap-others="true"
   gridtolerance="10"
   guidetolerance="10"
   inkscape:window-maximized="0"
   inkscape:snap-object-midpoints="true"
   inkscape:document-rotation="0"
   inkscape:snap-to-guides="true"
   pagecolor="#ffffff"
   inkscape:cx="66.345015"
   inkscape:cy="71.935481"
   bordercolor="#666666"
   showguides="true"
   borderopacity="1">
	<inkscape:grid
   id="grid225"
   type="xygrid"
   originx="0.10188203"
   originy="0" />
<sodipodi:guide
   position="67.601883,95.643997"
   orientation="1,0"
   id="guide944" /><sodipodi:guide
   position="76.95811,67.674687"
   orientation="0,-1"
   id="guide946" /></sodipodi:namedview>
<g
   id="g103"
   transform="translate(0.10188203)"
   inkscape:groupmode="layer"
   inkscape:label="Image">
	
		<rect
   style="fill:#ffffff;stroke:none;stroke-width:1.25;paint-order:markers stroke fill"
   id="rect941"
   width="135.00099"
   height="135"
   x="-0.090999998"
   y="0.118" /><path
   id="path1288"
   sodipodi:type="arc"
   sodipodi:cx="67.480103"
   sodipodi:cy="67.417404"
   sodipodi:rx="0.019895"
   sodipodi:ry="0.019895"
   sodipodi:start="0"
   sodipodi:end="6.2779319"
   sodipodi:arc-type="slice"
   fill="none"
   stroke="#000000"
   stroke-width="0.5"
   d="m 67.499998,67.417404 a 0.019895,0.019895 0 0 1 -0.01987,0.01989 0.019895,0.019895 0 0 1 -0.01992,-0.01984 0.019895,0.019895 0 0 1 0.01982,-0.01995 0.019895,0.019895 0 0 1 0.01997,0.01979 l -0.01989,1.04e-4 z" />
	<path
   id="path1290"
   sodipodi:nodetypes="csssccc"
   fill="none"
   stroke="#000000"
   stroke-width="2"
   d="M 95.503,67.478 C 95.503,82.929 82.987,95.46 67.537,95.479 52.086,95.5 39.538,83.002 39.498,67.551 39.457,52.1 51.939,39.536 67.39,39.475 82.841,39.414 95.421,51.879 95.502,67.33 Z" />
	<path
   id="path1299"
   fill="none"
   stroke="#000000"
   stroke-width="0.5"
   d="M 61.853,40.05 67.5,13.646 73.329,40.088" />
	<path
   id="path1301"
   fill="none"
   stroke="#000000"
   stroke-width="0.5"
   d="M 67.5,13.646 V 39.474" />
	<path
   id="path1303"
   fill="none"
   stroke="#000000"
   stroke-width="0.5"
   d="m 67.5,95.479 v 25.672 L 61.853,94.905" />
	<path
   id="path1305"
   fill="none"
   stroke="#000000"
   stroke-width="0.5"
   d="M 67.5,121.151 73.329,94.866" />
	<path
   id="path1311"
   fill="none"
   stroke="#000000"
   stroke-width="0.5"
   d="m 14.109,67.397 25.895,-5.22" />
	<path
   id="path1313"
   fill="none"
   stroke="#000000"
   stroke-width="0.5"
   d="m 14.109,67.397 26.044,6.101" />
	<path
   id="path1317"
   fill="none"
   stroke="#000000"
   stroke-width="0.5"
   d="m 95.503,67.478 v 0 0 l 24.741,-0.08 -25.248,-5.22" />
	<path
   id="path1319"
   fill="none"
   stroke="#000000"
   stroke-width="0.5"
   d="M 120.244,67.397 94.847,73.498" />
	<path
   id="path1329"
   fill="none"
   stroke="#000000"
   stroke-width="0.5"
   d="M 49.819,45.763 35.377,35.314 47.719,47.656" />
	<path
   id="path1331"
   fill="none"
   stroke="#000000"
   stroke-width="0.5"
   d="m 35.377,35.314 9.957,15.052" />
	<path
   id="path1333"
   fill="none"
   stroke="#000000"
   stroke-width="0.5"
   d="M 84.521,45.241 98.195,36.783 87.3,47.677" />
	<path
   id="path1335"
   fill="none"
   stroke="#000000"
   stroke-width="0.5"
   d="M 98.195,36.783 89.31,49.914" />
	<path
   id="path1337"
   fill="none"
   stroke="#000000"
   stroke-width="0.5"
   d="M 89.214,85.159 98.792,98.729 87.32,87.258" />
	<path
   id="path1339"
   fill="none"
   stroke="#000000"
   stroke-width="0.5"
   d="M 98.792,98.729 84.61,89.644" />
	<path
   id="path1341"
   fill="none"
   stroke="#000000"
   stroke-width="0.5"
   d="M 45.264,84.499 36.051,98.927 47.699,87.279" />
	<path
   id="path1343"
   fill="none"
   stroke="#000000"
   stroke-width="0.5"
   d="M 36.051,98.926 49.937,89.287" />
	<path
   id="path1345"
   fill="none"
   stroke="#000000"
   stroke-width="0.5"
   d="M 81.71,43.348 67.5,67.478" />
	<path
   id="path1347"
   fill="none"
   stroke="#000000"
   stroke-width="0.5"
   d="m 39.498,67.359 v -10e-4 0 l 28.002,0.12 -27.348,6.021" />
	<path
   id="path1349"
   fill="none"
   stroke="#000000"
   stroke-width="0.5"
   d="M 67.5,67.478 45.264,84.499" />
	<path
   id="path1351"
   fill="none"
   stroke="#000000"
   stroke-width="0.5"
   d="M 67.5,67.478 57.903,93.784" />
	<path
   id="path1353"
   fill="none"
   stroke="#000000"
   stroke-width="0.5"
   d="M 81.9,91.494 67.5,67.478 95.368,70.215" />
	<path
   id="path1367"
   fill="none"
   stroke="#000000"
   stroke-width="0.5"
   d="m 14.308,67.357 h 25.19 v 0" />
	<path
   id="path977"
   fill="#c7c5bd"
   fill-opacity="0.8235"
   stroke="#000000"
   stroke-width="0.5"
   d="m 75.255,79.557 c -3.644,-6.09 -6.625,-11.145 -6.625,-11.23 0,-0.085 0.351,-0.155 0.779,-0.155 1.064,0 25.096,2.378 25.213,2.495 0.16,0.161 -0.674,3.904 -1.245,5.58 -1.749,5.133 -5.51,10.249 -9.771,13.289 -0.845,0.604 -1.58,1.097 -1.632,1.097 -0.052,0 -3.075,-4.984 -6.719,-11.076 z" />
	<path
   id="path1312"
   fill="none"
   d="m 128.314,23.149 6.596,-0.211" />
	<path
   id="path1314"
   fill="none"
   d="m 128.314,31.911 6.596,0.052 v -0.078" />
	<path
   id="path1316"
   fill="none"
   d="M 128.314,48.268 134.91,48.22" />
	<path
   id="path1318"
   fill="none"
   d="M 134.909,31.963 V 48.22" />
	<path
   id="path1320"
   fill="none"
   d="M 128.314,31.911 V 48.268" />
	<rect
   id="rect1026"
   x="-0.093999997"
   y="45.731998"
   fill="#103483"
   width="6.928"
   height="9.4630003" />
	<rect
   id="rect1028"
   x="31.718"
   fill="#103483"
   width="9.2679996"
   height="6.7969999"
   y="0" />
	<rect
   id="rect1030"
   x="128.314"
   y="18.004"
   fill="#103483"
   width="6.5960002"
   height="8.7360001" />
	<rect
   id="rect1032"
   x="-0.090999998"
   y="127.983"
   fill="#103483"
   width="12.253"
   height="7.0560002" />
	<rect
   id="rect1034"
   x="59.993999"
   y="127.983"
   fill="#103483"
   width="9.0430002"
   height="7.0560002" />
	<rect
   id="rect1036"
   x="100.702"
   y="127.983"
   fill="#103483"
   width="9.6490002"
   height="7.0560002" />
	<rect
   id="rect1071"
   x="-0.093999997"
   y="6.7969999"
   fill="#ba0305"
   width="6.928"
   height="12.423" />
	<rect
   id="rect1075"
   x="16.146999"
   fill="#ba0305"
   width="9.0150003"
   height="6.7969999"
   y="0" />
	<rect
   id="rect1077"
   x="60.158001"
   fill="#ba0305"
   width="9.9390001"
   height="6.7969999"
   y="0" />
	<rect
   id="rect1079"
   x="99.361"
   fill="#ba0305"
   width="10.568"
   height="6.7969999"
   y="0" />
	<rect
   id="rect1081"
   x="128.314"
   y="85.640999"
   fill="#ba0305"
   width="6.5960002"
   height="8.1140003" />
	<rect
   id="rect1083"
   x="128.314"
   y="127.983"
   fill="#ba0305"
   width="6.5960002"
   height="7.1350002" />
	<rect
   id="rect1085"
   x="85.242996"
   y="127.983"
   fill="#ba0305"
   width="8.6459999"
   height="7.0560002" />
	<rect
   id="rect1087"
   x="22.330999"
   y="127.983"
   fill="#ba0305"
   width="8.5710001"
   height="7.0560002" />
	<rect
   id="rect1089"
   x="-0.102"
   y="115.151"
   fill="#ba0305"
   width="6.927"
   height="7.7360001" />
	<rect
   id="rect1091"
   x="-0.090999998"
   y="0.118"
   fill="#dea905"
   width="16.238001"
   height="6.6789999" />
	<rect
   id="rect1095"
   x="25.160999"
   fill="#dea905"
   width="6.5570002"
   height="6.7969999"
   y="0" />
	<rect
   id="rect1097"
   x="40.986"
   fill="#dea905"
   width="19.171"
   height="6.7969999"
   y="0" />
	<rect
   id="rect1099"
   x="70.097"
   fill="#dea905"
   width="6.7399998"
   height="6.7969999"
   y="0" />
	<rect
   id="rect1101"
   x="109.929"
   fill="#dea905"
   width="7.381"
   height="6.7969999"
   y="0" />
	<rect
   id="rect1103"
   x="128.314"
   y="26.74"
   fill="#dea905"
   width="6.5960002"
   height="14.166" />
	<rect
   id="rect1105"
   x="128.314"
   y="57.174"
   fill="#dea905"
   width="6.5960002"
   height="7.711" />
	<rect
   id="rect1107"
   x="128.314"
   y="73.220001"
   fill="#dea905"
   width="6.5960002"
   height="12.421" />
	<rect
   id="rect1109"
   x="128.314"
   y="102.64"
   fill="#dea905"
   width="6.5960002"
   height="9.7290001" />
	<rect
   id="rect1111"
   x="128.314"
   y="122.797"
   fill="#dea905"
   width="6.5960002"
   height="5.1859999" />
	<rect
   id="rect1113"
   x="110.352"
   y="127.983"
   fill="#dea905"
   width="17.962"
   height="7.0560002" />
	<rect
   id="rect1115"
   x="93.889"
   y="127.983"
   fill="#dea905"
   width="6.8130002"
   height="7.0560002" />
	<rect
   id="rect1117"
   x="69.037003"
   y="127.983"
   fill="#dea905"
   width="10.556"
   height="7.0560002" />
	<rect
   id="rect1119"
   x="30.902"
   y="127.983"
   fill="#dea905"
   width="6.5279999"
   height="7.0560002" />
	<rect
   id="rect1121"
   x="12.162"
   y="127.983"
   fill="#dea905"
   width="10.169"
   height="7.0560002" />
	<rect
   id="rect1127"
   x="-0.090999998"
   y="102.292"
   fill="#dea905"
   width="6.928"
   height="12.859" />
	<rect
   id="rect1129"
   x="-0.090999998"
   y="83.125999"
   fill="#dea905"
   width="6.928"
   height="12.927" />
	<rect
   id="rect1131"
   x="-0.093999997"
   y="55.195"
   fill="#dea905"
   width="6.928"
   height="21.157" />
	<rect
   id="rect1133"
   x="-0.093999997"
   y="24.988001"
   fill="#c5c3bd"
   width="6.928"
   height="20.743999" />
	<rect
   id="rect1137"
   x="-0.102"
   y="96.053001"
   fill="#c5c3bd"
   width="6.927"
   height="6.2379999" />
	<rect
   id="rect1141"
   x="128.314"
   y="93.754997"
   fill="#c5c3bd"
   width="6.5960002"
   height="8.8850002" />
	<rect
   id="rect1143"
   x="128.314"
   y="64.886002"
   fill="#c5c3bd"
   width="6.5960002"
   height="8.3339996" />
	<rect
   id="rect1145"
   x="128.314"
   y="48.220001"
   fill="#c5c3bd"
   width="6.5960002"
   height="8.9540005" />
	<rect
   id="rect1147"
   x="128.314"
   y="6.7969999"
   fill="#c5c3bd"
   width="6.5960002"
   height="11.208" />
	<path
   id="path1177"
   fill="#2b2928"
   d="m 71.73,39.727 c -0.371,-0.075 -1.455,-0.19 -2.408,-0.257 l -1.731,-0.122 0.014,-12.269 c 0.007,-6.748 0.044,-12.193 0.081,-12.1 0.07,0.174 5.48,24.698 5.48,24.842 -10e-4,0.11 -0.623,0.069 -1.436,-0.094 z"
   style="fill:#1a1a1a" />
	<path
   id="path1179"
   fill="#2b2928"
   d="m 88.361,48.674 -0.889,-1.027 4.709,-4.711 c 2.59,-2.591 4.738,-4.682 4.775,-4.646 0.062,0.062 -7.553,11.411 -7.657,11.411 -0.026,0 -0.448,-0.462 -0.938,-1.027 z"
   style="fill:#1a1a1a" />
	<path
   id="path1183"
   fill="#2b2928"
   d="m 91.085,93.7 c -3.386,-2.18 -6.178,-3.984 -6.203,-4.01 -0.025,-0.026 0.509,-0.55 1.188,-1.164 l 1.234,-1.119 5.138,5.141 c 2.825,2.826 5.062,5.133 4.97,5.127 -0.093,-0.008 -2.94,-1.796 -6.327,-3.975 z"
   style="fill:#1a1a1a" />
	<path
   id="path1185"
   fill="#2b2928"
   d="m 67.22,119.397 c -0.306,-1.328 -5.206,-24.146 -5.206,-24.239 0,-0.059 0.627,-0.012 1.394,0.104 0.767,0.116 1.948,0.214 2.624,0.22 0.821,0.006 1.257,0.078 1.311,0.22 0.044,0.116 0.061,5.61 0.037,12.208 -0.024,6.598 -0.096,11.766 -0.16,11.487 z"
   style="fill:#1a1a1a" />
	<path
   id="path1187"
   fill="#2b2928"
   d="m 37.177,97.465 c 0,-0.211 7.956,-12.62 8.091,-12.62 0.066,0 0.603,0.54 1.193,1.198 l 1.074,1.199 -5.179,5.18 c -2.849,2.848 -5.179,5.118 -5.179,5.043 z"
   style="fill:#1a1a1a" />
	<path
   id="path1189"
   fill="#2b2928"
   d="m 15.733,67.208 c 0.126,-0.117 23.989,-4.881 24.065,-4.805 0.041,0.041 0.005,0.526 -0.078,1.078 -0.084,0.552 -0.204,1.631 -0.267,2.397 l -0.114,1.394 H 27.501 C 20.99,67.273 15.695,67.244 15.733,67.208 Z"
   style="fill:#1a1a1a" />
	<path
   id="path1195"
   fill="#2b2928"
   d="m 42.257,42.032 c -2.985,-2.992 -5.367,-5.421 -5.293,-5.398 0.074,0.024 2.957,2.086 6.406,4.583 l 6.272,4.54 -0.78,0.717 c -0.429,0.394 -0.87,0.78 -0.979,0.858 -0.171,0.122 -0.945,-0.607 -5.626,-5.3 z"
   style="fill:#1a1a1a" />
	<path
   id="path1197"
   fill="#2b2928"
   d="m 95.215,72.071 c 0.116,-0.673 0.248,-1.963 0.292,-2.867 l 0.082,-1.643 h 10.117 c 5.564,0 10.865,-0.034 11.779,-0.075 1.055,-0.048 1.618,-0.034 1.542,0.039 -0.108,0.103 -23.606,5.78 -23.899,5.774 -0.081,-0.002 -0.051,-0.433 0.087,-1.228 z"
   style="fill:#1a1a1a" />
	<path
   id="path1201"
   fill="#305fad"
   d="m 53.389,67.352 -13.788,-0.03 0.072,-1.523 c 0.039,-0.837 0.187,-2.195 0.328,-3.016 2.096,-12.177 11.984,-21.569 24.213,-22.999 4.099,-0.479 8.205,-0.053 12.162,1.265 1.703,0.567 5.248,2.192 5.172,2.371 -0.232,0.556 -14.062,23.828 -14.192,23.885 -0.099,0.042 -6.384,0.063 -13.967,0.047 z" />
	<path
   id="path1203"
   sodipodi:nodetypes="sscsssssss"
   fill="#d1d7a6"
   d="m 40.182,73.193 c -0.192,-0.625 -0.447,-2.69 -0.509,-4.128 l -0.073,-1.663 8.82,0.079 c 4.851,0.044 11.366,0.08 13.863,0.08 2.497,0 4.014,0.024 3.985,0.052 -0.029,0.029 -5.669,1.29 -12.535,2.8 -6.865,1.511 -12.709,2.799 -12.986,2.861 -0.427,0.097 -0.514,0.084 -0.565,-0.081 z" />
	<path
   id="path1207"
   fill="#8c9cda"
   d="m 56.961,93.322 c -4.215,-1.761 -8.004,-4.524 -10.802,-7.879 -0.375,-0.448 -0.664,-0.866 -0.644,-0.928 0.04,-0.119 21.637,-16.694 21.696,-16.65 0.087,0.064 -9.362,25.741 -9.471,25.737 -0.066,-0.004 -0.418,-0.129 -0.779,-0.28 z" />
	<path
   id="path1211"
   fill="#c2beb3"
   d="m 64.906,95.272 c -1.673,-0.174 -3.593,-0.547 -5.21,-1.012 -0.814,-0.234 -1.518,-0.465 -1.564,-0.511 -0.071,-0.071 8.79,-24.601 9.264,-25.646 0.16,-0.353 0.197,-0.293 7.229,11.436 3.887,6.485 7.068,11.844 7.068,11.908 0,0.218 -3.634,1.91 -5.258,2.449 -2.937,0.975 -5.184,1.359 -8.362,1.437 -1.15,0.029 -2.575,0 -3.167,-0.061 z" />
	<path
   id="path1213"
   sodipodi:nodetypes="sssssscs"
   fill="#b91e27"
   d="M 74.781,79.496 C 67.342,67.739 66.916,66.847 67.736,67.619 c 0.063,0.06 27.439,2.633 27.513,2.707 0.104,0.104 -0.406,2.976 -0.78,4.384 -0.807,3.035 -2.21,6.061 -4.026,8.682 -1.37,1.977 -3.42,4.201 -5.227,5.673 -0.969,0.79 -3.09,2.274 -3.242,2.269 -0.057,-0.003 -3.136,-5.427 -7.193,-11.838 z" />
	<path
   id="path1215"
   fill="#ddae22"
   d="m 82.042,68.817 c -6.806,-0.675 -12.817,-1.266 -13.359,-1.314 -0.661,-0.058 -0.967,-0.132 -0.93,-0.223 0.148,-0.372 13.93,-23.669 14.02,-23.699 0.154,-0.052 1.975,1.185 3.246,2.204 4.861,3.897 8.314,9.455 9.707,15.624 0.528,2.344 0.791,5.329 0.649,7.399 l -0.086,1.264 -0.437,-0.014 c -0.24,-0.007 -6.004,-0.565 -12.81,-1.241 z" />
	<rect
   id="rect929"
   x="-0.093999997"
   y="19.219999"
   fill="#103483"
   width="6.928"
   height="5.7680001" />
	<rect
   id="rect935"
   x="-0.102"
   y="122.887"
   fill="#c5c3bd"
   width="6.927"
   height="5.0960002" />
	<rect
   id="rect937"
   x="-0.102"
   y="76.172997"
   fill="#103483"
   width="6.927"
   height="6.9530001" />
	<rect
   id="rect939"
   x="76.804001"
   y="0.118"
   fill="#c5c3bd"
   width="15.818"
   height="6.6789999" />
	<rect
   id="rect943"
   x="92.622002"
   fill="#dea905"
   width="6.7379999"
   height="6.7969999"
   y="0" />
	<rect
   id="rect945"
   x="125.781"
   y="0.118"
   fill="#dea905"
   width="9.1280003"
   height="6.6789999" />
	<rect
   id="rect947"
   x="121.48"
   y="0.118"
   fill="#c5c3bd"
   width="4.302"
   height="6.6789999" />
	<rect
   id="rect951"
   x="37.429001"
   y="127.983"
   fill="#c5c3bd"
   width="6.4860001"
   height="7.0560002" />
	<rect
   id="rect953"
   x="43.915001"
   y="127.983"
   fill="#dea905"
   width="16.079"
   height="7.0560002" />
	<rect
   id="rect955"
   x="79.593002"
   y="127.983"
   fill="#c5c3bd"
   width="5.6500001"
   height="7.0560002" />
	<rect
   id="rect936"
   x="117.216"
   y="0.118"
   fill="#103483"
   width="4.2639999"
   height="6.6789999" />
	<rect
   id="rect938"
   x="128.314"
   y="40.905998"
   fill="#ba0305"
   width="6.5960002"
   height="7.3140001" />
	<rect
   id="rect940"
   x="128.314"
   y="112.37"
   fill="#103483"
   width="6.5960002"
   height="10.428" />
	<path
   id="path937"
   fill="#da7c7b"
   d="m 44.502,83.013 c -1.326,-2.037 -2.665,-4.79 -3.509,-7.214 -0.411,-1.179 -0.712,-2.175 -0.669,-2.215 0.043,-0.039 4.104,-0.952 9.024,-2.026 4.92,-1.074 10.771,-2.356 13,-2.85 2.229,-0.491 4.133,-0.869 4.231,-0.836 0.097,0.033 -0.125,0.277 -0.496,0.542 C 63.805,70.061 46.96,82.97 46.256,83.612 L 45.4,84.393 Z" />
</g>
<line
   fill="none"
   stroke="#000000"
   x1="67.505"
   y1="67.809"
   x2="58.005"
   y2="94.059"
   id="line102" />
<line
   fill="none"
   stroke="#000000"
   x1="45.501"
   y1="84.393"
   x2="66.922"
   y2="68.059"
   id="line104" />
<line
   fill="none"
   stroke="#000000"
   x1="40.254"
   y1="73.499"
   x2="66.922"
   y2="68.059"
   id="line106" />
<line
   fill="none"
   stroke="#000000"
   x1="39.6"
   y1="67.551"
   x2="67.297"
   y2="67.601"
   id="line108" />
<line
   fill="none"
   stroke="#000000"
   x1="81.644"
   y1="43.474"
   x2="67.338"
   y2="67.935"
   id="line110" />
<line
   fill="none"
   stroke="#000000"
   x1="95.47"
   y1="70.214"
   x2="67.505"
   y2="67.809"
   id="line112" />
<line
   fill="none"
   stroke="#000000"
   x1="67.497"
   y1="68.104"
   x2="82.339"
   y2="91.725"
   id="line114" />
</svg>
