<svg width="450" height="284" viewBox="0 0 450 284" fill="none" xmlns="http://www.w3.org/2000/svg">
<path d="M0 0H450V284H0V0Z" fill="white"/>
<path d="M397.864 168.033C398.155 173.502 402.91 177.062 410.321 177.062C416.646 177.062 421.349 174.221 421.349 169.785C421.349 164.105 416.195 163.391 409.66 162.51C401.105 161.396 393.691 159.776 393.691 151.545C393.691 144.455 400.255 139.783 409.314 139.836C418.242 139.888 424.776 143.952 425.466 152.024H420.472C419.832 147.137 415.478 144.031 409.314 144.031C402.858 144.031 398.554 146.845 398.554 151.173C398.554 156.43 403.708 157.095 409.873 157.917C418.745 159.085 426.212 160.784 426.212 169.468C426.212 176.77 419.118 181.256 410.321 181.256C400.068 181.256 393.135 176.582 392.87 168.042L397.864 168.033Z" fill="#0572E6"/>
<path d="M382.116 140.193H387.005V180.779H382.738L382.074 173.291C379.728 177.752 375.301 181.256 368.286 181.256C359.358 181.256 352.585 175.866 352.585 162.926V140.193H357.471V162.643C357.471 171.885 361.827 176.77 369.081 176.77C377.13 176.77 382.124 170.423 382.124 160.307L382.116 140.193Z" fill="#0572E6"/>
<path d="M330.776 133.24C329.241 130.636 326.987 128.531 324.284 127.176C321.513 125.746 318.224 125.021 314.529 125.021H294.304V150.928H299.487V129.764H314.201C318.382 129.764 321.749 130.927 324.208 133.225C326.667 135.523 327.908 138.568 327.908 142.296C327.908 146.024 326.648 149.038 324.168 151.329C321.686 153.62 318.298 154.793 314.117 154.793H294.306V180.779H299.489V159.574H314.535C318.172 159.574 321.442 158.847 324.247 157.419C326.974 156.064 329.246 153.94 330.782 151.31C332.298 148.695 333.07 145.664 333.07 142.296C333.065 138.873 332.306 135.827 330.776 133.24Z" fill="#0572E6"/>
<path fill-rule="evenodd" clip-rule="evenodd" d="M70.6753 124.983C72.2577 124.983 73.4733 125.867 73.789 127.662L77.9157 150.916H39.8625C45.8575 141.294 51.2063 132.745 51.2063 132.745C54.165 127.928 59.4125 124.989 65.0684 124.983H70.6753ZM166.865 165.501H186.699C188.39 165.501 189.529 166.432 189.529 168.351V177.891C189.529 179.799 188.39 180.73 186.699 180.73H144.784C143.06 180.73 141.896 179.709 141.896 177.833V176.211C141.896 173.34 142.18 169.203 145.116 165.105L152.969 154.791H175.004L166.865 165.501ZM136.475 127.822C136.475 125.914 135.336 124.983 133.634 124.983H122.222C120.533 124.983 119.392 125.914 119.392 127.822V149.436L108.588 130.004C106.425 126.424 102.787 125.062 98.5386 124.983H90.0954C88.419 124.983 87.2761 125.914 87.2761 127.822V150.928H101.452L103.632 154.791H87.2761V177.891C87.2761 179.799 88.419 180.747 90.0954 180.747H101.533C103.239 180.747 104.359 179.799 104.359 177.891V156.15L115.269 175.732C117.402 179.293 121.062 180.655 125.28 180.747H133.634C135.34 180.747 136.475 179.799 136.475 177.891V154.791H122.399L120.226 150.928H136.475V127.822ZM59.7986 154.791H78.6025L82.6119 177.467C82.7888 178.513 82.6311 179.227 82.2514 179.698C81.6863 180.374 81.089 180.745 79.9055 180.745H66.975C65.3671 180.745 64.2709 179.85 63.951 178.089C63.8804 177.699 63.4212 175.117 62.8304 171.794L62.8296 171.789C61.7083 165.483 60.113 156.512 59.7986 154.791ZM23.4132 177.249C22.9013 178.125 22.9013 179.044 23.2148 179.641C23.5753 180.338 24.3772 180.747 25.243 180.747H38.6788C40.333 180.739 41.8655 179.877 42.7309 178.469L57.5508 154.791H37.4398C34.4554 159.567 31.4643 164.361 29.0151 168.286C25.7954 173.446 23.5125 177.105 23.4132 177.249ZM164.057 140.193H145.161V140.197C143.47 140.197 142.337 139.267 142.337 137.366V127.822C142.337 125.914 143.47 124.983 145.161 124.983H186.149C187.887 124.983 189.028 126.012 189.028 127.896V131.575C189.028 134.169 188.452 137.085 185.972 140.35L177.936 150.916H155.908L164.057 140.193Z" fill="#0572E6"/>
<path d="M239.011 124.983C242.871 124.983 247.263 128.329 247.263 132.954C247.263 135.559 246.431 137.571 245.209 139.408C244.485 140.481 243.937 141.662 243.586 142.908C243.319 144.01 242.733 146.679 246.002 146.723C248.135 146.776 253.351 144.929 257.574 139.841C260.943 135.598 262.769 130.337 262.752 124.921C262.752 111.706 252.138 101 239.015 101C225.893 101 215.258 111.713 215.258 124.921C215.24 130.337 217.066 135.599 220.436 139.841C224.665 144.929 229.886 146.776 232.008 146.723C235.273 146.679 234.68 144.01 234.428 142.908C234.078 141.662 233.527 140.481 232.797 139.412C231.579 137.575 230.745 135.563 230.745 132.958C230.745 128.333 235.138 124.987 239.015 124.987" fill="#0572E6"/>
<path d="M280.999 149.159C280.027 148.354 278.319 147.179 274.815 146.64C269.954 145.913 265.614 147.052 263.002 148.089C259.566 149.447 255.324 152.536 252.413 156.558C249.329 160.81 247.734 167.215 249.263 173.914C249.583 175.406 250.122 176.842 250.862 178.177C251.775 179.969 254.183 182.474 256.29 182.925C257.956 183.269 259.257 182.311 259.897 181.589C264.14 176.674 280.234 157.634 281.978 155.202C283.684 152.785 282.573 150.466 280.999 149.159Z" fill="#0572E6"/>
<path d="M215.008 148.089C212.396 147.052 208.06 145.913 203.197 146.64C199.693 147.179 197.972 148.345 197.013 149.159C195.439 150.466 194.311 152.783 196.034 155.204C197.757 157.625 213.859 176.674 218.105 181.591C218.744 182.314 220.045 183.273 221.713 182.927C223.833 182.476 226.232 179.971 227.141 178.177C227.884 176.842 228.428 175.406 228.753 173.914C230.278 167.225 228.659 160.808 225.603 156.558C222.686 152.536 218.442 149.447 215.008 148.089Z" fill="#0572E6"/>
<path d="M338.888 125.021H343.777V180.779H338.888V125.021Z" fill="#0572E6"/>
</svg>
