<svg width="450" height="300" viewBox="0 0 450 300" fill="none" xmlns="http://www.w3.org/2000/svg">
<rect width="450" height="300" fill="white"/>
<path d="M146.256 77.6309H136.563L137.888 66.8815H148.096C152.661 66.8815 154.965 68.8819 154.582 72.0268V72.145C154.104 75.848 150.821 77.6309 146.256 77.6309ZM154.724 89.1795V89.0754C155.145 85.6562 152.723 83.6369 147.055 83.6369H135.825L134.463 94.7362H146.232C151.039 94.7362 154.284 92.8209 154.724 89.1795ZM215.746 95.6017C218.332 95.5151 220.792 94.4653 222.643 92.6584C224.494 90.8515 225.603 88.4181 225.751 85.836V85.713C226.413 79.8299 222.913 76.0277 218.164 76.0277C215.602 76.1777 213.18 77.2455 211.341 79.0356C209.503 80.8257 208.371 83.2181 208.154 85.7745V85.8927C207.336 91.6812 211.101 95.6017 215.746 95.6017ZM251.059 95.6017C253.623 95.4473 256.045 94.3754 257.883 92.5822C259.721 90.789 260.852 88.3943 261.069 85.836V85.713C261.826 79.8299 258.145 76.0277 253.457 76.0277C250.873 76.1096 248.414 77.1554 246.562 78.9592C244.711 80.7629 243.601 83.1942 243.453 85.7745V85.8927C242.752 91.719 246.319 95.6017 251.14 95.6017H251.059ZM195.945 128.744L195.183 135.033H251.518C255.752 135.12 259.944 134.184 263.738 132.305C267.533 130.427 270.819 127.66 273.316 124.242L280.222 136.991C280.451 137.408 280.77 137.768 281.157 138.044C281.543 138.32 281.987 138.506 282.456 138.586C282.924 138.667 283.404 138.642 283.861 138.511C284.318 138.381 284.74 138.149 285.095 137.833C285.568 137.408 285.899 136.849 286.05 136.23L300.242 74.1833L306.85 149.339C306.917 150.141 307.244 150.899 307.782 151.496C308.321 152.094 309.04 152.499 309.83 152.65C310.621 152.8 311.439 152.687 312.159 152.328C312.879 151.969 313.462 151.385 313.818 150.663L324.49 128.644C326.491 131.728 329.594 135.09 334.339 135.09H338V263H111V36H338V128.744H334.339C331.496 128.744 329.315 124.544 328.132 122.279C327.73 121.362 327.189 120.512 326.529 119.758C326.174 119.424 325.749 119.175 325.284 119.029C324.82 118.883 324.328 118.845 323.846 118.916C323.364 118.999 322.906 119.192 322.511 119.481C322.115 119.77 321.792 120.146 321.566 120.581L312.276 140.396L305.19 61.3767C305.221 60.3381 304.848 59.3277 304.15 58.5581C303.452 57.7884 302.482 57.3194 301.445 57.2496C300.408 57.1798 299.384 57.5146 298.589 58.1837C297.794 58.8529 297.289 59.8041 297.181 60.8376L281.868 126.885L276.381 116.878C276.173 116.494 275.888 116.158 275.543 115.89C275.198 115.622 274.801 115.43 274.377 115.324C273.953 115.219 273.512 115.203 273.082 115.277C272.651 115.352 272.241 115.515 271.878 115.757C271.178 116.278 270.615 116.968 270.236 117.758C268.438 121.156 265.742 123.996 262.442 125.969C259.142 127.942 255.363 128.972 251.518 128.947L195.945 128.744ZM248.632 101.664C250.79 101.645 252.913 101.127 254.837 100.151C256.762 99.176 258.434 97.7695 259.725 96.0415L259.143 101.026H266.13L269.877 70.5229H262.847L262.266 75.2663C261.281 73.5763 259.857 72.1849 258.144 71.2404C256.432 70.296 254.495 69.8339 252.54 69.9034C245.255 69.9034 237.686 75.6068 236.423 85.713V85.836C235.122 96.0415 241.466 101.664 248.632 101.664ZM198.225 110.272H205.231L206.933 96.2638C207.919 97.9592 209.346 99.3553 211.063 100.303C212.78 101.251 214.723 101.715 216.683 101.646C223.911 101.646 231.537 95.9233 232.7 85.817V85.6941C233.94 75.5264 227.653 69.8845 220.486 69.8845C218.319 69.9116 216.188 70.4407 214.26 71.4303C212.332 72.4199 210.659 73.843 209.374 75.5879L209.994 70.504H203.088L198.225 110.276V110.272ZM126.696 101.026H145.414C154.421 101.026 160.849 97.1623 161.729 89.9361V89.8179C162.411 84.3321 159.449 81.6128 154.903 80.0096C156.747 79.2497 158.357 78.0139 159.567 76.4286C160.777 74.8433 161.544 72.9653 161.791 70.9864V70.8823C161.989 69.6943 161.922 68.477 161.593 67.3182C161.264 66.1594 160.682 65.088 159.889 64.1811C157.879 61.8591 154.378 60.5917 149.757 60.5917H131.658L126.691 101.021L126.696 101.026ZM196.422 70.5229H189.374L187.255 87.7371C187.182 89.7579 186.328 91.6717 184.872 93.0752C183.416 94.4788 181.472 95.2625 179.45 95.2612C175.301 95.2612 173.262 92.5987 173.839 87.8553L175.963 70.5229H169.057L166.597 90.0402C165.712 97.1434 169.137 101.769 176.006 101.769C178.01 101.745 179.98 101.244 181.752 100.308C183.524 99.3708 185.047 98.0251 186.195 96.382L185.613 101.125H192.662L196.422 70.5229Z" fill="#0079C8"/>
</svg>
