<svg width="350" height="190" viewBox="0 0 350 190" fill="none" xmlns="http://www.w3.org/2000/svg">
<path d="M350 0H0V189.72H350V0Z" fill="white"/>
<rect x="13.584" y="93.7244" width="80.7757" height="80.7757" stroke="#C8C8C8"/>
<rect x="13.584" y="13.5842" width="80.7757" height="80.7757" stroke="#C8C8C8"/>
<rect x="173.865" y="13.5842" width="80.7757" height="80.7757" stroke="#C8C8C8"/>
<rect x="173.865" y="93.7244" width="80.7757" height="80.7757" stroke="#C8C8C8"/>
<rect x="93.7246" y="93.7244" width="80.7757" height="80.7757" stroke="#C8C8C8"/>
<rect x="93.7246" y="13.5842" width="80.7757" height="80.7757" stroke="#C8C8C8"/>
<rect x="254.004" y="13.5842" width="80.7757" height="80.7757" stroke="#C8C8C8"/>
<rect x="254.004" y="93.7244" width="80.7757" height="80.7757" stroke="#C8C8C8"/>
<path d="M19.627 158.52L36.6451 156.764L50.2597 154.537L62.0177 151.758L72.2286 148.487L81.8207 144.51L90.7939 139.859L99.7671 134.208L108.74 127.516L118.642 118.98L130.4 107.578L167.53 70.5722L177.432 62.5474L186.715 56.1606L195.688 51.0331L204.97 46.7324L214.872 43.1281L225.392 40.22L237.46 37.7992L251.693 35.8633L269.33 34.3862L292.846 33.3446L328.739 32.7102" stroke="#C74440" stroke-width="5" stroke-miterlimit="10" stroke-linecap="round" stroke-linejoin="round"/>
<path d="M328.738 22.0793L22.8972 22.0793" stroke="#4047C7" stroke-width="5" stroke-linecap="round"/>
<path d="M33.4503 110.12C32.8903 110.12 32.3536 110.047 31.8403 109.9C31.327 109.747 30.9136 109.55 30.6003 109.31L31.1503 108.09C31.4503 108.303 31.8036 108.48 32.2103 108.62C32.6236 108.753 33.0403 108.82 33.4603 108.82C33.7803 108.82 34.037 108.79 34.2303 108.73C34.4303 108.663 34.577 108.573 34.6703 108.46C34.7636 108.347 34.8103 108.217 34.8103 108.07C34.8103 107.883 34.737 107.737 34.5903 107.63C34.4436 107.517 34.2503 107.427 34.0103 107.36C33.7703 107.287 33.5036 107.22 33.2103 107.16C32.9236 107.093 32.6336 107.013 32.3403 106.92C32.0536 106.827 31.7903 106.707 31.5503 106.56C31.3103 106.413 31.1136 106.22 30.9603 105.98C30.8136 105.74 30.7403 105.433 30.7403 105.06C30.7403 104.66 30.847 104.297 31.0603 103.97C31.2803 103.637 31.607 103.373 32.0403 103.18C32.4803 102.98 33.0303 102.88 33.6903 102.88C34.1303 102.88 34.5636 102.933 34.9903 103.04C35.417 103.14 35.7936 103.293 36.1203 103.5L35.6203 104.73C35.2936 104.543 34.967 104.407 34.6403 104.32C34.3136 104.227 33.9936 104.18 33.6803 104.18C33.367 104.18 33.1103 104.217 32.9103 104.29C32.7103 104.363 32.567 104.46 32.4803 104.58C32.3936 104.693 32.3503 104.827 32.3503 104.98C32.3503 105.16 32.4236 105.307 32.5703 105.42C32.717 105.527 32.9103 105.613 33.1503 105.68C33.3903 105.747 33.6536 105.813 33.9403 105.88C34.2336 105.947 34.5236 106.023 34.8103 106.11C35.1036 106.197 35.3703 106.313 35.6103 106.46C35.8503 106.607 36.0436 106.8 36.1903 107.04C36.3436 107.28 36.4203 107.583 36.4203 107.95C36.4203 108.343 36.3103 108.703 36.0903 109.03C35.8703 109.357 35.5403 109.62 35.1003 109.82C34.667 110.02 34.117 110.12 33.4503 110.12ZM40.0873 110.08C39.4739 110.08 38.9339 109.96 38.4673 109.72C38.0073 109.48 37.6506 109.153 37.3973 108.74C37.1439 108.32 37.0173 107.843 37.0173 107.31C37.0173 106.77 37.1406 106.293 37.3873 105.88C37.6406 105.46 37.9839 105.133 38.4173 104.9C38.8506 104.66 39.3406 104.54 39.8873 104.54C40.4139 104.54 40.8873 104.653 41.3073 104.88C41.7339 105.1 42.0706 105.42 42.3173 105.84C42.5639 106.253 42.6873 106.75 42.6873 107.33C42.6873 107.39 42.6839 107.46 42.6773 107.54C42.6706 107.613 42.6639 107.683 42.6573 107.75H38.2873V106.84H41.8373L41.2373 107.11C41.2373 106.83 41.1806 106.587 41.0673 106.38C40.9539 106.173 40.7973 106.013 40.5973 105.9C40.3973 105.78 40.1639 105.72 39.8973 105.72C39.6306 105.72 39.3939 105.78 39.1873 105.9C38.9873 106.013 38.8306 106.177 38.7173 106.39C38.6039 106.597 38.5473 106.843 38.5473 107.13V107.37C38.5473 107.663 38.6106 107.923 38.7373 108.15C38.8706 108.37 39.0539 108.54 39.2873 108.66C39.5273 108.773 39.8073 108.83 40.1273 108.83C40.4139 108.83 40.6639 108.787 40.8773 108.7C41.0973 108.613 41.2973 108.483 41.4773 108.31L42.3073 109.21C42.0606 109.49 41.7506 109.707 41.3773 109.86C41.0039 110.007 40.5739 110.08 40.0873 110.08ZM46.3959 110.08C45.7825 110.08 45.2425 109.96 44.7759 109.72C44.3159 109.48 43.9592 109.153 43.7059 108.74C43.4525 108.32 43.3259 107.843 43.3259 107.31C43.3259 106.77 43.4492 106.293 43.6959 105.88C43.9492 105.46 44.2925 105.133 44.7259 104.9C45.1592 104.66 45.6492 104.54 46.1959 104.54C46.7225 104.54 47.1959 104.653 47.6159 104.88C48.0425 105.1 48.3792 105.42 48.6259 105.84C48.8725 106.253 48.9959 106.75 48.9959 107.33C48.9959 107.39 48.9925 107.46 48.9859 107.54C48.9792 107.613 48.9725 107.683 48.9659 107.75H44.5959V106.84H48.1459L47.5459 107.11C47.5459 106.83 47.4892 106.587 47.3759 106.38C47.2625 106.173 47.1059 106.013 46.9059 105.9C46.7059 105.78 46.4725 105.72 46.2059 105.72C45.9392 105.72 45.7025 105.78 45.4959 105.9C45.2959 106.013 45.1392 106.177 45.0259 106.39C44.9125 106.597 44.8559 106.843 44.8559 107.13V107.37C44.8559 107.663 44.9192 107.923 45.0459 108.15C45.1792 108.37 45.3625 108.54 45.5959 108.66C45.8359 108.773 46.1159 108.83 46.4359 108.83C46.7225 108.83 46.9725 108.787 47.1859 108.7C47.4059 108.613 47.6059 108.483 47.7859 108.31L48.6159 109.21C48.3692 109.49 48.0592 109.707 47.6859 109.86C47.3125 110.007 46.8825 110.08 46.3959 110.08ZM56.9245 104.54C57.3511 104.54 57.7278 104.627 58.0545 104.8C58.3878 104.967 58.6478 105.227 58.8345 105.58C59.0278 105.927 59.1245 106.373 59.1245 106.92V110H57.5645V107.16C57.5645 106.727 57.4745 106.407 57.2945 106.2C57.1145 105.993 56.8611 105.89 56.5345 105.89C56.3078 105.89 56.1045 105.943 55.9245 106.05C55.7445 106.15 55.6045 106.303 55.5045 106.51C55.4045 106.717 55.3545 106.98 55.3545 107.3V110H53.7945V107.16C53.7945 106.727 53.7045 106.407 53.5245 106.2C53.3511 105.993 53.1011 105.89 52.7745 105.89C52.5478 105.89 52.3445 105.943 52.1645 106.05C51.9845 106.15 51.8445 106.303 51.7445 106.51C51.6445 106.717 51.5945 106.98 51.5945 107.3V110H50.0345V104.62H51.5245V106.09L51.2445 105.66C51.4311 105.293 51.6945 105.017 52.0345 104.83C52.3811 104.637 52.7745 104.54 53.2145 104.54C53.7078 104.54 54.1378 104.667 54.5045 104.92C54.8778 105.167 55.1245 105.547 55.2445 106.06L54.6945 105.91C54.8745 105.49 55.1611 105.157 55.5545 104.91C55.9545 104.663 56.4111 104.54 56.9245 104.54ZM62.3327 110.08C61.8727 110.08 61.4294 110.027 61.0027 109.92C60.5827 109.807 60.2494 109.667 60.0027 109.5L60.5227 108.38C60.7694 108.533 61.0594 108.66 61.3927 108.76C61.7327 108.853 62.0661 108.9 62.3927 108.9C62.7527 108.9 63.0061 108.857 63.1527 108.77C63.3061 108.683 63.3827 108.563 63.3827 108.41C63.3827 108.283 63.3227 108.19 63.2027 108.13C63.0894 108.063 62.9361 108.013 62.7427 107.98C62.5494 107.947 62.3361 107.913 62.1027 107.88C61.8761 107.847 61.6461 107.803 61.4127 107.75C61.1794 107.69 60.9661 107.603 60.7727 107.49C60.5794 107.377 60.4227 107.223 60.3027 107.03C60.1894 106.837 60.1327 106.587 60.1327 106.28C60.1327 105.94 60.2294 105.64 60.4227 105.38C60.6227 105.12 60.9094 104.917 61.2827 104.77C61.6561 104.617 62.1027 104.54 62.6227 104.54C62.9894 104.54 63.3627 104.58 63.7427 104.66C64.1227 104.74 64.4394 104.857 64.6927 105.01L64.1727 106.12C63.9127 105.967 63.6494 105.863 63.3827 105.81C63.1227 105.75 62.8694 105.72 62.6227 105.72C62.2761 105.72 62.0227 105.767 61.8627 105.86C61.7027 105.953 61.6227 106.073 61.6227 106.22C61.6227 106.353 61.6794 106.453 61.7927 106.52C61.9127 106.587 62.0694 106.64 62.2627 106.68C62.4561 106.72 62.6661 106.757 62.8927 106.79C63.1261 106.817 63.3594 106.86 63.5927 106.92C63.8261 106.98 64.0361 107.067 64.2227 107.18C64.4161 107.287 64.5727 107.437 64.6927 107.63C64.8127 107.817 64.8727 108.063 64.8727 108.37C64.8727 108.703 64.7727 109 64.5727 109.26C64.3727 109.513 64.0827 109.713 63.7027 109.86C63.3294 110.007 62.8727 110.08 62.3327 110.08ZM70.8673 110.08C70.2339 110.08 69.7406 109.92 69.3873 109.6C69.0339 109.273 68.8573 108.79 68.8573 108.15V103.43H70.4173V108.13C70.4173 108.357 70.4773 108.533 70.5973 108.66C70.7173 108.78 70.8806 108.84 71.0873 108.84C71.3339 108.84 71.5439 108.773 71.7173 108.64L72.1373 109.74C71.9773 109.853 71.7839 109.94 71.5573 110C71.3373 110.053 71.1073 110.08 70.8673 110.08ZM68.0273 105.94V104.74H71.7573V105.94H68.0273ZM75.407 110.08C74.8336 110.08 74.3236 109.96 73.877 109.72C73.437 109.48 73.087 109.153 72.827 108.74C72.5736 108.32 72.447 107.843 72.447 107.31C72.447 106.77 72.5736 106.293 72.827 105.88C73.087 105.46 73.437 105.133 73.877 104.9C74.3236 104.66 74.8336 104.54 75.407 104.54C75.9736 104.54 76.4803 104.66 76.927 104.9C77.3736 105.133 77.7236 105.457 77.977 105.87C78.2303 106.283 78.357 106.763 78.357 107.31C78.357 107.843 78.2303 108.32 77.977 108.74C77.7236 109.153 77.3736 109.48 76.927 109.72C76.4803 109.96 75.9736 110.08 75.407 110.08ZM75.407 108.8C75.667 108.8 75.9003 108.74 76.107 108.62C76.3136 108.5 76.477 108.33 76.597 108.11C76.717 107.883 76.777 107.617 76.777 107.31C76.777 106.997 76.717 106.73 76.597 106.51C76.477 106.29 76.3136 106.12 76.107 106C75.9003 105.88 75.667 105.82 75.407 105.82C75.147 105.82 74.9136 105.88 74.707 106C74.5003 106.12 74.3336 106.29 74.207 106.51C74.087 106.73 74.027 106.997 74.027 107.31C74.027 107.617 74.087 107.883 74.207 108.11C74.3336 108.33 74.5003 108.5 74.707 108.62C74.9136 108.74 75.147 108.8 75.407 108.8ZM28.3951 122.08C27.9218 122.08 27.5151 121.98 27.1751 121.78C26.8351 121.58 26.5751 121.277 26.3951 120.87C26.2151 120.457 26.1251 119.937 26.1251 119.31C26.1251 118.677 26.2185 118.157 26.4051 117.75C26.5985 117.343 26.8651 117.04 27.2051 116.84C27.5451 116.64 27.9418 116.54 28.3951 116.54C28.9018 116.54 29.3551 116.653 29.7551 116.88C30.1618 117.107 30.4818 117.427 30.7151 117.84C30.9551 118.253 31.0751 118.743 31.0751 119.31C31.0751 119.87 30.9551 120.357 30.7151 120.77C30.4818 121.183 30.1618 121.507 29.7551 121.74C29.3551 121.967 28.9018 122.08 28.3951 122.08ZM25.2151 122V114.58H26.7751V117.71L26.6751 119.3L26.7051 120.9V122H25.2151ZM28.1251 120.8C28.3851 120.8 28.6151 120.74 28.8151 120.62C29.0218 120.5 29.1851 120.33 29.3051 120.11C29.4318 119.883 29.4951 119.617 29.4951 119.31C29.4951 118.997 29.4318 118.73 29.3051 118.51C29.1851 118.29 29.0218 118.12 28.8151 118C28.6151 117.88 28.3851 117.82 28.1251 117.82C27.8651 117.82 27.6318 117.88 27.4251 118C27.2185 118.12 27.0551 118.29 26.9351 118.51C26.8151 118.73 26.7551 118.997 26.7551 119.31C26.7551 119.617 26.8151 119.883 26.9351 120.11C27.0551 120.33 27.2185 120.5 27.4251 120.62C27.6318 120.74 27.8651 120.8 28.1251 120.8ZM34.7894 122.08C34.1761 122.08 33.6361 121.96 33.1694 121.72C32.7094 121.48 32.3527 121.153 32.0994 120.74C31.8461 120.32 31.7194 119.843 31.7194 119.31C31.7194 118.77 31.8427 118.293 32.0894 117.88C32.3427 117.46 32.6861 117.133 33.1194 116.9C33.5527 116.66 34.0427 116.54 34.5894 116.54C35.1161 116.54 35.5894 116.653 36.0094 116.88C36.4361 117.1 36.7727 117.42 37.0194 117.84C37.2661 118.253 37.3894 118.75 37.3894 119.33C37.3894 119.39 37.3861 119.46 37.3794 119.54C37.3727 119.613 37.3661 119.683 37.3594 119.75H32.9894V118.84H36.5394L35.9394 119.11C35.9394 118.83 35.8827 118.587 35.7694 118.38C35.6561 118.173 35.4994 118.013 35.2994 117.9C35.0994 117.78 34.8661 117.72 34.5994 117.72C34.3327 117.72 34.0961 117.78 33.8894 117.9C33.6894 118.013 33.5327 118.177 33.4194 118.39C33.3061 118.597 33.2494 118.843 33.2494 119.13V119.37C33.2494 119.663 33.3127 119.923 33.4394 120.15C33.5727 120.37 33.7561 120.54 33.9894 120.66C34.2294 120.773 34.5094 120.83 34.8294 120.83C35.1161 120.83 35.3661 120.787 35.5794 120.7C35.7994 120.613 35.9994 120.483 36.1794 120.31L37.0094 121.21C36.7627 121.49 36.4527 121.707 36.0794 121.86C35.7061 122.007 35.2761 122.08 34.7894 122.08ZM43.79 124.02C43.2834 124.02 42.7934 123.957 42.32 123.83C41.8534 123.71 41.4634 123.527 41.15 123.28L41.77 122.16C41.9967 122.347 42.2834 122.493 42.63 122.6C42.9834 122.713 43.33 122.77 43.67 122.77C44.2234 122.77 44.6234 122.647 44.87 122.4C45.1234 122.153 45.25 121.787 45.25 121.3V120.49L45.35 119.14L45.33 117.78V116.62H46.81V121.1C46.81 122.1 46.55 122.837 46.03 123.31C45.51 123.783 44.7634 124.02 43.79 124.02ZM43.55 121.74C43.05 121.74 42.5967 121.633 42.19 121.42C41.79 121.2 41.4667 120.897 41.22 120.51C40.98 120.117 40.86 119.66 40.86 119.14C40.86 118.613 40.98 118.157 41.22 117.77C41.4667 117.377 41.79 117.073 42.19 116.86C42.5967 116.647 43.05 116.54 43.55 116.54C44.0034 116.54 44.4034 116.633 44.75 116.82C45.0967 117 45.3667 117.283 45.56 117.67C45.7534 118.05 45.85 118.54 45.85 119.14C45.85 119.733 45.7534 120.223 45.56 120.61C45.3667 120.99 45.0967 121.273 44.75 121.46C44.4034 121.647 44.0034 121.74 43.55 121.74ZM43.86 120.46C44.1334 120.46 44.3767 120.407 44.59 120.3C44.8034 120.187 44.97 120.03 45.09 119.83C45.21 119.63 45.27 119.4 45.27 119.14C45.27 118.873 45.21 118.643 45.09 118.45C44.97 118.25 44.8034 118.097 44.59 117.99C44.3767 117.877 44.1334 117.82 43.86 117.82C43.5867 117.82 43.3434 117.877 43.13 117.99C42.9167 118.097 42.7467 118.25 42.62 118.45C42.5 118.643 42.44 118.873 42.44 119.14C42.44 119.4 42.5 119.63 42.62 119.83C42.7467 120.03 42.9167 120.187 43.13 120.3C43.3434 120.407 43.5867 120.46 43.86 120.46ZM48.262 122V116.62H49.752V118.14L49.542 117.7C49.702 117.32 49.9587 117.033 50.312 116.84C50.6653 116.64 51.0953 116.54 51.602 116.54V117.98C51.5353 117.973 51.4753 117.97 51.422 117.97C51.3687 117.963 51.312 117.96 51.252 117.96C50.8253 117.96 50.4787 118.083 50.212 118.33C49.952 118.57 49.822 118.947 49.822 119.46V122H48.262ZM55.0505 122.08C54.4772 122.08 53.9672 121.96 53.5205 121.72C53.0805 121.48 52.7305 121.153 52.4705 120.74C52.2172 120.32 52.0905 119.843 52.0905 119.31C52.0905 118.77 52.2172 118.293 52.4705 117.88C52.7305 117.46 53.0805 117.133 53.5205 116.9C53.9672 116.66 54.4772 116.54 55.0505 116.54C55.6172 116.54 56.1238 116.66 56.5705 116.9C57.0172 117.133 57.3672 117.457 57.6205 117.87C57.8738 118.283 58.0005 118.763 58.0005 119.31C58.0005 119.843 57.8738 120.32 57.6205 120.74C57.3672 121.153 57.0172 121.48 56.5705 121.72C56.1238 121.96 55.6172 122.08 55.0505 122.08ZM55.0505 120.8C55.3105 120.8 55.5438 120.74 55.7505 120.62C55.9572 120.5 56.1205 120.33 56.2405 120.11C56.3605 119.883 56.4205 119.617 56.4205 119.31C56.4205 118.997 56.3605 118.73 56.2405 118.51C56.1205 118.29 55.9572 118.12 55.7505 118C55.5438 117.88 55.3105 117.82 55.0505 117.82C54.7905 117.82 54.5572 117.88 54.3505 118C54.1438 118.12 53.9772 118.29 53.8505 118.51C53.7305 118.73 53.6705 118.997 53.6705 119.31C53.6705 119.617 53.7305 119.883 53.8505 120.11C53.9772 120.33 54.1438 120.5 54.3505 120.62C54.5572 120.74 54.7905 120.8 55.0505 120.8ZM60.1268 122L58.1868 116.62H59.6568L61.2668 121.25H60.5668L62.2468 116.62H63.5668L65.1968 121.25H64.4968L66.1568 116.62H67.5368L65.5868 122H64.0768L62.6468 118.03H63.1068L61.6268 122H60.1268ZM68.262 122V116.62H69.822V122H68.262ZM69.042 115.87C68.7553 115.87 68.522 115.787 68.342 115.62C68.162 115.453 68.072 115.247 68.072 115C68.072 114.753 68.162 114.547 68.342 114.38C68.522 114.213 68.7553 114.13 69.042 114.13C69.3287 114.13 69.562 114.21 69.742 114.37C69.922 114.523 70.012 114.723 70.012 114.97C70.012 115.23 69.922 115.447 69.742 115.62C69.5687 115.787 69.3353 115.87 69.042 115.87ZM74.5398 116.54C74.9665 116.54 75.3465 116.627 75.6798 116.8C76.0198 116.967 76.2865 117.227 76.4798 117.58C76.6731 117.927 76.7698 118.373 76.7698 118.92V122H75.2098V119.16C75.2098 118.727 75.1131 118.407 74.9198 118.2C74.7331 117.993 74.4665 117.89 74.1198 117.89C73.8731 117.89 73.6498 117.943 73.4498 118.05C73.2565 118.15 73.1031 118.307 72.9898 118.52C72.8831 118.733 72.8298 119.007 72.8298 119.34V122H71.2698V116.62H72.7598V118.11L72.4798 117.66C72.6731 117.3 72.9498 117.023 73.3098 116.83C73.6698 116.637 74.0798 116.54 74.5398 116.54ZM80.7529 124.02C80.2463 124.02 79.7563 123.957 79.2829 123.83C78.8163 123.71 78.4263 123.527 78.1129 123.28L78.7329 122.16C78.9596 122.347 79.2463 122.493 79.5929 122.6C79.9463 122.713 80.2929 122.77 80.6329 122.77C81.1863 122.77 81.5863 122.647 81.8329 122.4C82.0863 122.153 82.2129 121.787 82.2129 121.3V120.49L82.3129 119.14L82.2929 117.78V116.62H83.7729V121.1C83.7729 122.1 83.5129 122.837 82.9929 123.31C82.4729 123.783 81.7263 124.02 80.7529 124.02ZM80.5129 121.74C80.0129 121.74 79.5596 121.633 79.1529 121.42C78.7529 121.2 78.4296 120.897 78.1829 120.51C77.9429 120.117 77.8229 119.66 77.8229 119.14C77.8229 118.613 77.9429 118.157 78.1829 117.77C78.4296 117.377 78.7529 117.073 79.1529 116.86C79.5596 116.647 80.0129 116.54 80.5129 116.54C80.9663 116.54 81.3663 116.633 81.7129 116.82C82.0596 117 82.3296 117.283 82.5229 117.67C82.7163 118.05 82.8129 118.54 82.8129 119.14C82.8129 119.733 82.7163 120.223 82.5229 120.61C82.3296 120.99 82.0596 121.273 81.7129 121.46C81.3663 121.647 80.9663 121.74 80.5129 121.74ZM80.8229 120.46C81.0963 120.46 81.3396 120.407 81.5529 120.3C81.7663 120.187 81.9329 120.03 82.0529 119.83C82.1729 119.63 82.2329 119.4 82.2329 119.14C82.2329 118.873 82.1729 118.643 82.0529 118.45C81.9329 118.25 81.7663 118.097 81.5529 117.99C81.3396 117.877 81.0963 117.82 80.8229 117.82C80.5496 117.82 80.3063 117.877 80.0929 117.99C79.8796 118.097 79.7096 118.25 79.5829 118.45C79.4629 118.643 79.4029 118.873 79.4029 119.14C79.4029 119.4 79.4629 119.63 79.5829 119.83C79.7096 120.03 79.8796 120.187 80.0929 120.3C80.3063 120.407 80.5496 120.46 80.8229 120.46ZM41.6356 134V128.5C41.6356 127.893 41.8156 127.41 42.1756 127.05C42.5356 126.683 43.0489 126.5 43.7156 126.5C43.9423 126.5 44.1589 126.523 44.3656 126.57C44.5789 126.617 44.7589 126.69 44.9056 126.79L44.4956 127.92C44.4089 127.86 44.3123 127.813 44.2056 127.78C44.0989 127.747 43.9856 127.73 43.8656 127.73C43.6389 127.73 43.4623 127.797 43.3356 127.93C43.2156 128.057 43.1556 128.25 43.1556 128.51V129.01L43.1956 129.68V134H41.6356ZM40.8056 129.94V128.74H44.5356V129.94H40.8056ZM48.5151 134V132.95L48.4151 132.72V130.84C48.4151 130.507 48.3118 130.247 48.1051 130.06C47.9051 129.873 47.5951 129.78 47.1751 129.78C46.8885 129.78 46.6051 129.827 46.3251 129.92C46.0518 130.007 45.8185 130.127 45.6251 130.28L45.0651 129.19C45.3585 128.983 45.7118 128.823 46.1251 128.71C46.5385 128.597 46.9585 128.54 47.3851 128.54C48.2051 128.54 48.8418 128.733 49.2951 129.12C49.7485 129.507 49.9751 130.11 49.9751 130.93V134H48.5151ZM46.8751 134.08C46.4551 134.08 46.0951 134.01 45.7951 133.87C45.4951 133.723 45.2651 133.527 45.1051 133.28C44.9451 133.033 44.8651 132.757 44.8651 132.45C44.8651 132.13 44.9418 131.85 45.0951 131.61C45.2551 131.37 45.5051 131.183 45.8451 131.05C46.1851 130.91 46.6285 130.84 47.1751 130.84H48.6051V131.75H47.3451C46.9785 131.75 46.7251 131.81 46.5851 131.93C46.4518 132.05 46.3851 132.2 46.3851 132.38C46.3851 132.58 46.4618 132.74 46.6151 132.86C46.7751 132.973 46.9918 133.03 47.2651 133.03C47.5251 133.03 47.7585 132.97 47.9651 132.85C48.1718 132.723 48.3218 132.54 48.4151 132.3L48.6551 133.02C48.5418 133.367 48.3351 133.63 48.0351 133.81C47.7351 133.99 47.3485 134.08 46.8751 134.08ZM53.197 134.08C52.737 134.08 52.2937 134.027 51.867 133.92C51.447 133.807 51.1137 133.667 50.867 133.5L51.387 132.38C51.6337 132.533 51.9237 132.66 52.257 132.76C52.597 132.853 52.9303 132.9 53.257 132.9C53.617 132.9 53.8703 132.857 54.017 132.77C54.1703 132.683 54.247 132.563 54.247 132.41C54.247 132.283 54.187 132.19 54.067 132.13C53.9537 132.063 53.8003 132.013 53.607 131.98C53.4137 131.947 53.2003 131.913 52.967 131.88C52.7403 131.847 52.5103 131.803 52.277 131.75C52.0437 131.69 51.8303 131.603 51.637 131.49C51.4437 131.377 51.287 131.223 51.167 131.03C51.0537 130.837 50.997 130.587 50.997 130.28C50.997 129.94 51.0937 129.64 51.287 129.38C51.487 129.12 51.7737 128.917 52.147 128.77C52.5203 128.617 52.967 128.54 53.487 128.54C53.8537 128.54 54.227 128.58 54.607 128.66C54.987 128.74 55.3037 128.857 55.557 129.01L55.037 130.12C54.777 129.967 54.5137 129.863 54.247 129.81C53.987 129.75 53.7337 129.72 53.487 129.72C53.1403 129.72 52.887 129.767 52.727 129.86C52.567 129.953 52.487 130.073 52.487 130.22C52.487 130.353 52.5437 130.453 52.657 130.52C52.777 130.587 52.9337 130.64 53.127 130.68C53.3203 130.72 53.5303 130.757 53.757 130.79C53.9903 130.817 54.2237 130.86 54.457 130.92C54.6903 130.98 54.9003 131.067 55.087 131.18C55.2803 131.287 55.437 131.437 55.557 131.63C55.677 131.817 55.737 132.063 55.737 132.37C55.737 132.703 55.637 133 55.437 133.26C55.237 133.513 54.947 133.713 54.567 133.86C54.1937 134.007 53.737 134.08 53.197 134.08ZM58.8995 134.08C58.2662 134.08 57.7728 133.92 57.4195 133.6C57.0662 133.273 56.8895 132.79 56.8895 132.15V127.43H58.4495V132.13C58.4495 132.357 58.5095 132.533 58.6295 132.66C58.7495 132.78 58.9128 132.84 59.1195 132.84C59.3662 132.84 59.5762 132.773 59.7495 132.64L60.1695 133.74C60.0095 133.853 59.8162 133.94 59.5895 134C59.3695 134.053 59.1395 134.08 58.8995 134.08ZM56.0595 129.94V128.74H59.7895V129.94H56.0595ZM61.7329 134.08C61.4662 134.08 61.2362 133.99 61.0429 133.81C60.8562 133.623 60.7629 133.387 60.7629 133.1C60.7629 132.813 60.8562 132.583 61.0429 132.41C61.2362 132.23 61.4662 132.14 61.7329 132.14C62.0062 132.14 62.2362 132.23 62.4229 132.41C62.6095 132.583 62.7029 132.813 62.7029 133.1C62.7029 133.387 62.6095 133.623 62.4229 133.81C62.2362 133.99 62.0062 134.08 61.7329 134.08ZM64.35 134.08C64.0834 134.08 63.8534 133.99 63.66 133.81C63.4734 133.623 63.38 133.387 63.38 133.1C63.38 132.813 63.4734 132.583 63.66 132.41C63.8534 132.23 64.0834 132.14 64.35 132.14C64.6234 132.14 64.8534 132.23 65.04 132.41C65.2267 132.583 65.32 132.813 65.32 133.1C65.32 133.387 65.2267 133.623 65.04 133.81C64.8534 133.99 64.6234 134.08 64.35 134.08ZM66.9672 134.08C66.7006 134.08 66.4706 133.99 66.2772 133.81C66.0906 133.623 65.9972 133.387 65.9972 133.1C65.9972 132.813 66.0906 132.583 66.2772 132.41C66.4706 132.23 66.7006 132.14 66.9672 132.14C67.2406 132.14 67.4706 132.23 67.6572 132.41C67.8439 132.583 67.9372 132.813 67.9372 133.1C67.9372 133.387 67.8439 133.623 67.6572 133.81C67.4706 133.99 67.2406 134.08 66.9672 134.08Z" fill="#C74440"/>
<path d="M115.18 40.1547C114.913 40.1547 114.683 40.0647 114.49 39.8847C114.303 39.698 114.21 39.4614 114.21 39.1747C114.21 38.888 114.303 38.658 114.49 38.4847C114.683 38.3047 114.913 38.2147 115.18 38.2147C115.453 38.2147 115.683 38.3047 115.87 38.4847C116.057 38.658 116.15 38.888 116.15 39.1747C116.15 39.4614 116.057 39.698 115.87 39.8847C115.683 40.0647 115.453 40.1547 115.18 40.1547ZM117.797 40.1547C117.53 40.1547 117.3 40.0647 117.107 39.8847C116.92 39.698 116.827 39.4614 116.827 39.1747C116.827 38.888 116.92 38.658 117.107 38.4847C117.3 38.3047 117.53 38.2147 117.797 38.2147C118.07 38.2147 118.3 38.3047 118.487 38.4847C118.674 38.658 118.767 38.888 118.767 39.1747C118.767 39.4614 118.674 39.698 118.487 39.8847C118.3 40.0647 118.07 40.1547 117.797 40.1547ZM120.414 40.1547C120.148 40.1547 119.918 40.0647 119.724 39.8847C119.538 39.698 119.444 39.4614 119.444 39.1747C119.444 38.888 119.538 38.658 119.724 38.4847C119.918 38.3047 120.148 38.2147 120.414 38.2147C120.688 38.2147 120.918 38.3047 121.104 38.4847C121.291 38.658 121.384 38.888 121.384 39.1747C121.384 39.4614 121.291 39.698 121.104 39.8847C120.918 40.0647 120.688 40.1547 120.414 40.1547ZM124.653 40.1547C124.206 40.1547 123.806 40.068 123.453 39.8947C123.106 39.7214 122.836 39.458 122.643 39.1047C122.45 38.7447 122.353 38.288 122.353 37.7347V34.6947H123.913V37.5047C123.913 37.9514 124.006 38.2814 124.193 38.4947C124.386 38.7014 124.656 38.8047 125.003 38.8047C125.243 38.8047 125.456 38.7547 125.643 38.6547C125.83 38.548 125.976 38.388 126.083 38.1747C126.19 37.9547 126.243 37.6814 126.243 37.3547V34.6947H127.803V40.0747H126.323V38.5947L126.593 39.0247C126.413 39.398 126.146 39.6814 125.793 39.8747C125.446 40.0614 125.066 40.1547 124.653 40.1547ZM132.518 34.6147C132.945 34.6147 133.325 34.7014 133.658 34.8747C133.998 35.0414 134.265 35.3014 134.458 35.6547C134.651 36.0014 134.748 36.448 134.748 36.9947V40.0747H133.188V37.2347C133.188 36.8014 133.091 36.4814 132.898 36.2747C132.711 36.068 132.445 35.9647 132.098 35.9647C131.851 35.9647 131.628 36.018 131.428 36.1247C131.235 36.2247 131.081 36.3814 130.968 36.5947C130.861 36.808 130.808 37.0814 130.808 37.4147V40.0747H129.248V34.6947H130.738V36.1847L130.458 35.7347C130.651 35.3747 130.928 35.098 131.288 34.9047C131.648 34.7114 132.058 34.6147 132.518 34.6147ZM138.362 40.1547C137.729 40.1547 137.235 39.9947 136.882 39.6747C136.529 39.348 136.352 38.8647 136.352 38.2247V33.5047H137.912V38.2047C137.912 38.4314 137.972 38.608 138.092 38.7347C138.212 38.8547 138.375 38.9147 138.582 38.9147C138.829 38.9147 139.039 38.848 139.212 38.7147L139.632 39.8147C139.472 39.928 139.279 40.0147 139.052 40.0747C138.832 40.128 138.602 40.1547 138.362 40.1547ZM135.522 36.0147V34.8147H139.252V36.0147H135.522ZM140.508 40.0747V34.6947H142.068V40.0747H140.508ZM141.288 33.9447C141.001 33.9447 140.768 33.8614 140.588 33.6947C140.408 33.528 140.318 33.3214 140.318 33.0747C140.318 32.828 140.408 32.6214 140.588 32.4547C140.768 32.288 141.001 32.2047 141.288 32.2047C141.575 32.2047 141.808 32.2847 141.988 32.4447C142.168 32.598 142.258 32.798 142.258 33.0447C142.258 33.3047 142.168 33.5214 141.988 33.6947C141.815 33.8614 141.581 33.9447 141.288 33.9447ZM143.516 40.0747V32.6547H145.076V40.0747H143.516ZM149.356 40.0747V34.6947H150.916V40.0747H149.356ZM150.136 33.9447C149.849 33.9447 149.616 33.8614 149.436 33.6947C149.256 33.528 149.166 33.3214 149.166 33.0747C149.166 32.828 149.256 32.6214 149.436 32.4547C149.616 32.288 149.849 32.2047 150.136 32.2047C150.422 32.2047 150.656 32.2847 150.836 32.4447C151.016 32.598 151.106 32.798 151.106 33.0447C151.106 33.3047 151.016 33.5214 150.836 33.6947C150.662 33.8614 150.429 33.9447 150.136 33.9447ZM154.563 40.1547C153.93 40.1547 153.437 39.9947 153.083 39.6747C152.73 39.348 152.553 38.8647 152.553 38.2247V33.5047H154.113V38.2047C154.113 38.4314 154.173 38.608 154.293 38.7347C154.413 38.8547 154.577 38.9147 154.783 38.9147C155.03 38.9147 155.24 38.848 155.413 38.7147L155.833 39.8147C155.673 39.928 155.48 40.0147 155.253 40.0747C155.033 40.128 154.803 40.1547 154.563 40.1547ZM151.723 36.0147V34.8147H155.453V36.0147H151.723ZM123.101 52.0747V46.6947H124.661V52.0747H123.101ZM123.881 45.9447C123.594 45.9447 123.361 45.8614 123.181 45.6947C123.001 45.528 122.911 45.3214 122.911 45.0747C122.911 44.828 123.001 44.6214 123.181 44.4547C123.361 44.288 123.594 44.2047 123.881 44.2047C124.167 44.2047 124.401 44.2847 124.581 44.4447C124.761 44.598 124.851 44.798 124.851 45.0447C124.851 45.3047 124.761 45.5214 124.581 45.6947C124.407 45.8614 124.174 45.9447 123.881 45.9447ZM127.918 52.1547C127.458 52.1547 127.015 52.1014 126.588 51.9947C126.168 51.8814 125.835 51.7414 125.588 51.5747L126.108 50.4547C126.355 50.608 126.645 50.7347 126.978 50.8347C127.318 50.928 127.652 50.9747 127.978 50.9747C128.338 50.9747 128.592 50.9314 128.738 50.8447C128.892 50.758 128.968 50.638 128.968 50.4847C128.968 50.358 128.908 50.2647 128.788 50.2047C128.675 50.138 128.522 50.088 128.328 50.0547C128.135 50.0214 127.922 49.988 127.688 49.9547C127.462 49.9214 127.232 49.878 126.998 49.8247C126.765 49.7647 126.552 49.678 126.358 49.5647C126.165 49.4514 126.008 49.298 125.888 49.1047C125.775 48.9114 125.718 48.6614 125.718 48.3547C125.718 48.0147 125.815 47.7147 126.008 47.4547C126.208 47.1947 126.495 46.9914 126.868 46.8447C127.242 46.6914 127.688 46.6147 128.208 46.6147C128.575 46.6147 128.948 46.6547 129.328 46.7347C129.708 46.8147 130.025 46.9314 130.278 47.0847L129.758 48.1947C129.498 48.0414 129.235 47.938 128.968 47.8847C128.708 47.8247 128.455 47.7947 128.208 47.7947C127.862 47.7947 127.608 47.8414 127.448 47.9347C127.288 48.028 127.208 48.148 127.208 48.2947C127.208 48.428 127.265 48.528 127.378 48.5947C127.498 48.6614 127.655 48.7147 127.848 48.7547C128.042 48.7947 128.252 48.8314 128.478 48.8647C128.712 48.8914 128.945 48.9347 129.178 48.9947C129.412 49.0547 129.622 49.1414 129.808 49.2547C130.002 49.3614 130.158 49.5114 130.278 49.7047C130.398 49.8914 130.458 50.138 130.458 50.4447C130.458 50.778 130.358 51.0747 130.158 51.3347C129.958 51.588 129.668 51.788 129.288 51.9347C128.915 52.0814 128.458 52.1547 127.918 52.1547ZM134.691 46.6147C135.118 46.6147 135.498 46.7014 135.831 46.8747C136.171 47.0414 136.438 47.3014 136.631 47.6547C136.824 48.0014 136.921 48.448 136.921 48.9947V52.0747H135.361V49.2347C135.361 48.8014 135.264 48.4814 135.071 48.2747C134.884 48.068 134.618 47.9647 134.271 47.9647C134.024 47.9647 133.801 48.018 133.601 48.1247C133.408 48.2247 133.254 48.3814 133.141 48.5947C133.034 48.808 132.981 49.0814 132.981 49.4147V52.0747H131.421V46.6947H132.911V48.1847L132.631 47.7347C132.824 47.3747 133.101 47.098 133.461 46.9047C133.821 46.7114 134.231 46.6147 134.691 46.6147ZM138.036 47.9747L138.696 45.5747L138.916 46.4847C138.629 46.4847 138.392 46.4014 138.206 46.2347C138.026 46.0614 137.936 45.828 137.936 45.5347C137.936 45.248 138.029 45.018 138.216 44.8447C138.402 44.6647 138.632 44.5747 138.906 44.5747C139.186 44.5747 139.416 44.6647 139.596 44.8447C139.776 45.018 139.866 45.248 139.866 45.5347C139.866 45.6214 139.859 45.708 139.846 45.7947C139.839 45.8747 139.816 45.9714 139.776 46.0847C139.742 46.198 139.686 46.348 139.606 46.5347L139.026 47.9747H138.036ZM143.162 52.1547C142.529 52.1547 142.035 51.9947 141.682 51.6747C141.329 51.348 141.152 50.8647 141.152 50.2247V45.5047H142.712V50.2047C142.712 50.4314 142.772 50.608 142.892 50.7347C143.012 50.8547 143.175 50.9147 143.382 50.9147C143.629 50.9147 143.839 50.848 144.012 50.7147L144.432 51.8147C144.272 51.928 144.079 52.0147 143.852 52.0747C143.632 52.128 143.402 52.1547 143.162 52.1547ZM140.322 48.0147V46.8147H144.052V48.0147H140.322ZM145.418 49.6447L145.108 45.0747H146.968L146.658 49.6447H145.418ZM146.038 52.1547C145.758 52.1547 145.528 52.0647 145.348 51.8847C145.168 51.7047 145.078 51.4914 145.078 51.2447C145.078 50.9914 145.168 50.7814 145.348 50.6147C145.528 50.4414 145.758 50.3547 146.038 50.3547C146.324 50.3547 146.554 50.4414 146.728 50.6147C146.908 50.7814 146.998 50.9914 146.998 51.2447C146.998 51.4914 146.908 51.7047 146.728 51.8847C146.554 52.0647 146.324 52.1547 146.038 52.1547Z" fill="#4047C7"/>
</svg>
