<svg width="450" height="300" viewBox="0 0 450 300" fill="none" xmlns="http://www.w3.org/2000/svg">
<rect width="450" height="300" fill="white"/>
<path d="M296.71 205.625L237.942 75H195.429L128.533 225H174.797L216.685 123.75L234.19 166.25H209.808L196.679 198.125H247.32L258.573 225H283.581C291.708 225 297.96 218.75 297.96 211.25C297.96 209.375 297.335 208.125 296.71 206.25V205.625ZM161.043 103.75L173.547 75.625H21V112.5H68.5146V225H112.278V112.5H147.914C153.541 112.5 159.167 108.75 161.043 103.75ZM351.101 188.75V76.25H307.338V225H401.742C407.994 225 412.995 221.25 415.496 216.875L428 189.375H351.101V188.75Z" fill="#80C342"/>
</svg>
