<svg width="450" height="300" viewBox="0 0 450 300" fill="none" xmlns="http://www.w3.org/2000/svg">
<rect width="450" height="300" fill="white"/>
<g filter="url(#filter0_d_2071_20)">
<path d="M83.6298 113C87.8053 113 91.4678 113.616 94.6165 114.848C97.7653 116.012 100.196 117.655 101.907 119.777C103.687 121.83 104.576 124.124 104.576 126.656C104.576 129.394 103.618 131.653 101.701 133.433C99.8532 135.213 97.3205 136.103 94.1031 136.103C90.8174 136.103 88.2504 135.281 86.4022 133.639C84.5539 131.927 83.6298 129.634 83.6298 126.759C83.6298 125.39 83.8352 123.952 84.2459 122.447C81.3709 123.2 78.8039 124.705 76.5449 126.964C74.3543 129.155 72.8828 132.064 72.1297 135.692C71.719 137.746 71.5136 139.594 71.5136 141.237C71.5136 144.933 72.5404 147.74 74.594 149.657C76.6476 151.573 79.591 152.532 83.4245 152.532C85.615 152.532 87.4973 152.326 89.0718 151.916C90.6463 151.436 92.2549 150.82 93.8978 150.067C95.2669 149.383 96.2594 149.041 96.8755 149.041C97.2862 149.041 97.5599 149.143 97.6969 149.349C97.8339 149.486 97.9023 149.828 97.9023 150.375C97.9706 152.908 96.9098 155.578 94.7192 158.384C92.5973 161.122 89.6195 163.45 85.7861 165.367C82.0213 167.215 77.7771 168.139 73.0538 168.139C68.1252 168.139 63.7442 167.249 59.9108 165.469C56.1459 163.621 53.2024 161.02 51.0804 157.666C49.0268 154.243 48 150.273 48 145.755C48 143.633 48.2738 141.271 48.8214 138.67C50.6697 130.182 54.7426 123.781 61.0403 119.469C67.4064 115.156 74.9364 113 83.6298 113ZM141.746 113.513C151.055 113.513 157.901 115.396 162.281 119.161C166.731 122.926 168.956 127.854 168.956 133.947C168.956 136 168.682 138.293 168.134 140.826C166.834 146.439 164.404 151.368 160.844 155.612C157.284 159.788 152.904 163.039 147.701 165.367C142.567 167.626 136.988 168.755 130.964 168.755C121.449 168.755 114.399 166.872 109.812 163.108C105.294 159.274 103.035 154.209 103.035 147.911C103.035 145.789 103.309 143.427 103.857 140.826C105.158 135.487 107.622 130.764 111.25 126.656C114.946 122.481 119.43 119.263 124.701 117.005C130.04 114.677 135.722 113.513 141.746 113.513ZM141.438 122.652C140 122.652 138.46 123.952 136.817 126.554C135.243 129.086 133.36 133.912 131.17 141.032C128.979 148.151 127.884 153.148 127.884 156.023C127.884 157.529 128.123 158.555 128.603 159.103C129.082 159.582 129.732 159.822 130.553 159.822C131.991 159.959 133.463 158.727 134.969 156.125C136.543 153.524 138.494 148.459 140.821 140.929C142.944 134.289 144.005 129.463 144.005 126.451C144.005 125.014 143.765 124.021 143.286 123.473C142.875 122.926 142.259 122.652 141.438 122.652ZM232.951 153.661C232.814 153.935 232.745 154.346 232.745 154.893C232.745 155.372 232.848 155.749 233.053 156.023C233.327 156.296 233.67 156.433 234.08 156.433C234.902 156.433 235.586 156.091 236.134 155.407C236.75 154.654 237.161 154.277 237.366 154.277C237.708 154.277 237.982 154.517 238.187 154.996C238.393 155.407 238.496 155.92 238.496 156.536C238.564 158.521 237.913 160.472 236.545 162.389C235.175 164.237 233.156 165.777 230.487 167.009C227.885 168.173 224.736 168.755 221.04 168.755C216.522 168.755 212.928 167.728 210.259 165.675C207.589 163.553 206.22 160.746 206.151 157.255C206.151 154.722 206.768 151.881 208 148.732L213.647 133.947C213.989 133.057 214.16 132.338 214.16 131.79C214.16 130.9 213.852 130.216 213.236 129.737C212.689 129.189 212.004 128.915 211.183 128.915C209.677 128.915 208.239 129.634 206.87 131.072C205.501 132.441 204.509 134.152 203.893 136.206L197.526 157.152C197.252 157.905 197.116 158.624 197.116 159.308C197.116 160.13 197.287 160.814 197.629 161.362C197.971 161.841 198.45 162.355 199.067 162.902C199.546 163.313 199.888 163.689 200.093 164.032C200.299 164.374 200.333 164.785 200.196 165.264C199.922 166.154 199.272 166.804 198.245 167.215C197.218 167.626 195.609 167.831 193.419 167.831H170.008C168.228 167.831 166.962 167.557 166.209 167.009C165.388 166.393 165.08 165.606 165.285 164.648C165.559 163.826 166.277 163.108 167.441 162.492C168.468 161.944 169.324 161.294 170.008 160.541C170.693 159.788 171.274 158.59 171.754 156.947L180.892 127.272C181.029 126.93 181.098 126.451 181.098 125.835C181.098 125.082 180.926 124.5 180.584 124.089C180.31 123.679 179.831 123.165 179.147 122.549C178.462 122.002 177.983 121.522 177.709 121.112C177.435 120.701 177.401 120.153 177.607 119.469C178.017 117.894 180.174 116.525 184.075 115.362C187.977 114.129 192.05 113.513 196.294 113.513C199.717 113.513 202.421 114.472 204.406 116.388C206.391 118.237 207.281 120.838 207.076 124.192C209.882 120.153 212.86 117.381 216.009 115.875C219.157 114.301 222.58 113.513 226.277 113.513C230.452 113.513 233.806 114.78 236.339 117.313C238.94 119.845 240.241 123.131 240.241 127.17C240.241 129.292 239.899 131.38 239.214 133.433L232.951 153.661ZM339.308 128.094C339.308 134.186 337.187 140.415 332.942 146.782C328.7 153.148 323.325 158.419 316.822 162.594C310.387 166.701 304.055 168.755 297.826 168.755C292.897 168.755 288.722 167.899 285.299 166.188C281.876 164.477 279.652 162.012 278.625 158.795C276.092 161.875 273.285 164.203 270.205 165.777C267.125 167.352 263.907 168.139 260.553 168.139C255.898 168.139 252.099 167.009 249.156 164.75C246.281 162.423 244.843 159.035 244.843 154.585C244.843 152.258 245.22 149.862 245.973 147.398L251.723 127.272C251.86 126.725 251.928 126.314 251.928 126.04C251.928 125.356 251.757 124.774 251.415 124.295C251.072 123.816 250.593 123.302 249.977 122.755C248.95 121.865 248.437 121.077 248.437 120.393C248.369 119.435 248.95 118.408 250.183 117.313C251.415 116.217 253.126 115.327 255.317 114.643C257.575 113.89 260.108 113.513 262.915 113.513C267.501 113.513 271.061 114.643 273.593 116.902C276.195 119.092 277.495 121.967 277.495 125.527C277.495 127.101 277.222 128.813 276.674 130.661L271.437 148.116C271.163 149.075 271.026 149.725 271.026 150.067C271.026 150.957 271.266 151.642 271.745 152.121C272.293 152.6 273.012 152.84 273.902 152.84C275.134 152.84 276.16 152.429 276.982 151.608C277.872 150.718 278.727 149.314 279.549 147.398L285.402 127.272C285.539 126.725 285.607 126.314 285.607 126.04C285.607 125.356 285.436 124.774 285.094 124.295C284.751 123.816 284.272 123.302 283.656 122.755C282.629 121.865 282.116 121.077 282.116 120.393C282.047 119.435 282.629 118.408 283.861 117.313C285.094 116.217 286.805 115.327 288.995 114.643C291.254 113.89 293.787 113.513 296.594 113.513C301.249 113.513 304.842 114.609 307.375 116.799C309.908 118.99 311.174 121.899 311.174 125.527C311.174 126.964 310.9 128.676 310.353 130.661L303.679 152.634C303.542 152.977 303.473 153.49 303.473 154.175C303.473 155.064 303.781 155.749 304.397 156.228C305.013 156.707 305.869 156.947 306.964 156.947C308.47 156.947 310.216 156.296 312.201 154.996C314.255 153.627 316.24 151.71 318.156 149.246C320.142 146.713 321.75 143.736 322.982 140.313C320.244 137.917 318.293 135.555 317.13 133.228C316.034 130.9 315.487 128.505 315.487 126.04C315.487 122.549 316.445 119.606 318.362 117.21C320.278 114.746 323.051 113.513 326.679 113.513C330.307 113.513 333.32 114.814 335.714 117.415C338.111 120.016 339.308 123.576 339.308 128.094ZM392.472 113.513C395.482 113.513 397.879 114.746 399.66 117.21C401.508 119.606 402.432 122.891 402.432 127.067C402.432 130.695 401.781 134.597 400.481 138.773C397.947 147.192 393.875 155.133 388.262 162.594C382.718 170.056 376.316 176.045 369.061 180.563C361.874 185.081 354.686 187.34 347.499 187.34C343.937 187.34 340.857 186.724 338.258 185.492C335.723 184.26 333.807 182.617 332.507 180.563C331.137 178.51 330.454 176.319 330.454 173.992C330.454 172.965 330.624 171.835 330.967 170.603C331.583 168.687 332.61 167.215 334.048 166.188C335.485 165.161 337.196 164.648 339.182 164.648C342.33 164.648 344.897 165.709 346.883 167.831C348.936 170.021 350.236 172.999 350.784 176.764C355.164 176.559 359.204 174.676 362.901 171.117C359.41 170.501 356.807 169.337 355.097 167.626C353.454 165.846 352.325 163.108 351.709 159.411L347.601 134.255C347.396 132.954 347.088 132.064 346.677 131.585C346.334 131.037 345.856 130.764 345.24 130.764C344.759 130.764 344.178 131.003 343.494 131.482C342.878 131.961 342.432 132.201 342.159 132.201C341.611 132.201 341.338 131.619 341.338 130.456C341.338 129.497 341.508 128.47 341.851 127.375C343.083 123.473 345.375 120.188 348.731 117.518C352.084 114.78 355.986 113.411 360.436 113.411C364.816 113.411 368.035 114.711 370.088 117.313C372.209 119.914 373.579 123.918 374.195 129.326L377.276 151.916C377.481 153.627 378.097 154.483 379.124 154.483C380.356 154.483 381.794 153.387 383.437 151.197C385.079 148.938 386.687 145.755 388.262 141.648C386.209 139.799 384.633 137.677 383.539 135.281C382.442 132.886 381.896 130.319 381.896 127.581C381.896 125.458 382.169 123.542 382.718 121.83C383.539 119.092 384.804 117.039 386.517 115.67C388.295 114.232 390.281 113.513 392.472 113.513Z" fill="url(#paint0_linear_2071_20)"/>
</g>
<defs>
<filter id="filter0_d_2071_20" x="44" y="113" width="362.432" height="82.3398" filterUnits="userSpaceOnUse" color-interpolation-filters="sRGB">
<feFlood flood-opacity="0" result="BackgroundImageFix"/>
<feColorMatrix in="SourceAlpha" type="matrix" values="0 0 0 0 0 0 0 0 0 0 0 0 0 0 0 0 0 0 127 0" result="hardAlpha"/>
<feOffset dy="4"/>
<feGaussianBlur stdDeviation="2"/>
<feComposite in2="hardAlpha" operator="out"/>
<feColorMatrix type="matrix" values="0 0 0 0 0 0 0 0 0 0 0 0 0 0 0 0 0 0 0.25 0"/>
<feBlend mode="normal" in2="BackgroundImageFix" result="effect1_dropShadow_2071_20"/>
<feBlend mode="normal" in="SourceGraphic" in2="effect1_dropShadow_2071_20" result="shape"/>
</filter>
<linearGradient id="paint0_linear_2071_20" x1="330.926" y1="132.626" x2="330.926" y2="244.107" gradientUnits="userSpaceOnUse">
<stop stop-color="#72B9FF"/>
<stop offset="1" stop-color="#E644FF"/>
</linearGradient>
</defs>
</svg>
