<svg width="106" height="13" viewBox="0 0 106 13" fill="none" xmlns="http://www.w3.org/2000/svg">
<path fill-rule="evenodd" clip-rule="evenodd" d="M76.4574 0.0498605C75.3767 0.0857184 74.4314 0.127921 74.3569 0.143735C74.2824 0.159457 74.7397 0.198349 75.3733 0.23007C76.5219 0.287626 76.5201 0.28781 74.7635 0.316129C73.7945 0.331759 72.3614 0.377087 71.5788 0.416807C70.5943 0.466824 71.0954 0.475927 73.205 0.446321C78.0264 0.378743 82.9772 0.318979 83.6139 0.320542C83.9692 0.321462 84.165 0.285971 84.1141 0.23007C84.0591 0.169663 85.2447 0.138126 87.5698 0.138126C90.0822 0.138126 91.0828 0.167088 91.0182 0.237977C90.9609 0.300866 91.0458 0.32992 91.2474 0.316313C91.4234 0.30436 91.659 0.319163 91.7708 0.349229C91.8826 0.379202 92.8888 0.447976 94.0068 0.502039C95.1248 0.556102 96.2683 0.636828 96.5477 0.681421C96.8273 0.725921 97.0559 0.728128 97.0559 0.686294C97.0559 0.581846 96.6971 0.521071 94.6166 0.272915C94.3558 0.241838 93.8679 0.173616 93.5325 0.121393C92.8099 0.00885362 79.3919 -0.0473239 76.4574 0.0498605ZM35.1926 0.146677C34.5557 0.197889 34.574 0.202027 35.4976 0.215634C36.4703 0.229886 36.7642 0.190994 36.1751 0.125898C36.0074 0.107325 35.5653 0.116703 35.1926 0.146677ZM33.702 0.191913C33.5529 0.207635 32.8974 0.247079 32.2452 0.279535C31.5931 0.311991 31.0594 0.368996 31.0594 0.406326C31.0594 0.443563 31.2575 0.45763 31.4998 0.437494C31.8375 0.409452 31.8928 0.423519 31.737 0.497993C31.5825 0.571732 31.6801 0.592787 32.1435 0.585524C32.6997 0.576881 32.7176 0.569893 32.3468 0.5059L31.9402 0.435747L32.4372 0.424806C32.7104 0.41883 32.9543 0.450826 32.9792 0.49597C33.0049 0.542586 33.521 0.548286 34.1763 0.509118C35.4187 0.435012 35.3971 0.399614 34.1085 0.397683C33.6613 0.396947 33.4479 0.376168 33.6342 0.351435C33.9543 0.308957 34.3877 0.122864 34.1017 0.150631C34.031 0.157526 33.851 0.176099 33.702 0.191913ZM80.427 0.206072C79.9642 0.224001 79.1714 0.224093 78.6652 0.206348C78.159 0.188695 78.5376 0.173984 79.5065 0.173892C80.4755 0.173708 80.8896 0.188235 80.427 0.206072ZM82.3185 0.198993C82.2254 0.224553 82.0729 0.224553 81.9797 0.198993C81.8866 0.173524 81.9628 0.152653 82.1491 0.152653C82.3354 0.152653 82.4117 0.173524 82.3185 0.198993ZM92.6178 0.290936C92.5247 0.316497 92.3722 0.316497 92.279 0.290936C92.1859 0.265468 92.262 0.244597 92.4484 0.244597C92.6347 0.244597 92.711 0.265468 92.6178 0.290936ZM93.5689 0.290385C93.4772 0.315577 93.2942 0.31714 93.1624 0.293787C93.0305 0.270433 93.1056 0.249838 93.3292 0.247999C93.5528 0.24616 93.6607 0.265192 93.5689 0.290385ZM35.5653 0.385362C35.6957 0.408532 35.9092 0.408532 36.0396 0.385362C36.17 0.362285 36.0633 0.343344 35.8025 0.343344C35.5416 0.343344 35.4349 0.362285 35.5653 0.385362ZM36.8527 0.38288C36.9459 0.40844 37.0984 0.40844 37.1915 0.38288C37.2847 0.357411 37.2084 0.33654 37.0221 0.33654C36.8358 0.33654 36.7596 0.357411 36.8527 0.38288ZM10.9089 0.534771C10.8699 0.577616 10.1585 0.604188 9.3281 0.593799C7.82129 0.575134 5.1821 0.710475 4.73788 0.829266C4.58922 0.868985 4.51374 0.976743 4.53162 1.12358C4.56212 1.37348 4.58312 1.3824 5.34513 1.46827C5.96878 1.53861 6.01905 1.68738 5.41289 1.66871C5.00932 1.6563 4.97571 1.67634 5.01149 1.90804C5.04564 2.12944 5.00349 2.16107 4.6727 2.16226C4.1988 2.1641 4.03184 2.24584 3.99444 2.49446C3.97018 2.65618 4.05813 2.70013 4.50262 2.74831C5.22208 2.82637 5.18319 2.95353 4.42199 3.01173C3.82071 3.0577 3.07306 3.38888 3.21617 3.54592C3.25167 3.585 3.09772 3.6443 2.87399 3.67768C2.52232 3.73009 2.49332 3.75601 2.65987 3.86901C2.76584 3.94091 2.93321 4.0004 3.03173 4.00113C3.1667 4.00224 3.16196 4.02348 3.01249 4.08765C2.87358 4.14723 3.032 4.18116 3.54222 4.20111C4.2614 4.22925 4.27021 4.23311 4.28241 4.52843C4.28932 4.69283 4.24907 4.82725 4.19324 4.82725C4.13741 4.82725 4.0916 4.91 4.0916 5.01114C4.0916 5.1474 3.99511 5.19824 3.71893 5.20753C3.3941 5.21847 3.38583 5.22518 3.6547 5.26021C4.04756 5.31133 4.76214 5.56151 4.51753 5.56224C4.41413 5.56252 4.36616 5.62017 4.4079 5.694C4.51821 5.88901 4.24989 5.9942 3.35805 6.10563C2.56013 6.2053 2.21632 6.29835 2.64605 6.29835C2.77032 6.29835 2.87195 6.36041 2.87195 6.43626C2.87195 6.54356 2.69131 6.57418 2.05886 6.57418C1.18206 6.57418 0.909404 6.74979 1.75394 6.77057C2.06848 6.77829 2.14599 6.79824 1.95722 6.82298C1.78945 6.84486 1.65231 6.89846 1.65231 6.94213C1.65231 6.98581 1.52939 7.04796 1.37924 7.08033C1.22909 7.1126 1.13992 7.17595 1.18084 7.22091C1.2219 7.26596 1.05508 7.342 0.810206 7.3899C0.425474 7.4652 0.503126 7.47853 1.38127 7.4881C2.42489 7.4995 2.46364 7.59631 1.47302 7.71713C1.03381 7.77064 0.980279 7.80116 1.12216 7.9171C1.25687 8.02725 1.31229 8.03065 1.4058 7.93466C1.49606 7.84189 1.5672 7.85569 1.72548 7.99654C1.91209 8.1625 1.90328 8.18521 1.62127 8.26796C1.35783 8.34519 1.42098 8.36542 2.05886 8.40863C2.72776 8.45387 2.77465 8.47051 2.51622 8.57101C2.35794 8.63261 1.96155 8.71058 1.63537 8.74423C0.621567 8.84886 0.56316 8.95846 1.51679 8.96682L2.39765 8.97445L1.24576 9.2684L0.0938661 9.56234L0.771449 9.60831L1.44903 9.65429L0.650568 9.77868C0.0926466 9.86566 -0.0909782 9.92754 0.0407438 9.98418C0.144549 10.0288 0.351347 10.0688 0.500416 10.0731C0.769551 10.0809 0.769552 10.0815 0.502856 10.1522C0.307983 10.2037 0.475481 10.2451 1.11268 10.3028C1.90857 10.3747 1.94014 10.3852 1.44903 10.4151C1.15089 10.4332 0.8491 10.4867 0.778225 10.5339C0.698406 10.5871 1.26486 10.6225 2.26891 10.627C3.51959 10.6326 3.80349 10.6553 3.51566 10.7265C3.29964 10.7801 3.14299 10.8877 3.14299 10.9826C3.14299 11.1154 2.9061 11.179 1.89122 11.3187C1.2028 11.4135 0.754373 11.5061 0.894633 11.5244C1.09872 11.5511 1.11187 11.574 0.960495 11.639C0.821455 11.6987 0.861025 11.7209 1.11024 11.723C1.29658 11.7246 1.53874 11.7644 1.64851 11.8115C1.87022 11.9065 1.81262 11.9298 1.09127 12.0364C0.894498 12.0654 0.700438 12.1478 0.659919 12.2195C0.598123 12.3286 0.832296 12.3429 2.10181 12.3074C3.22186 12.2761 3.56431 12.2914 3.41402 12.3659C3.24259 12.4509 3.2533 12.4644 3.48178 12.4521C3.93467 12.4275 4.03387 12.4569 3.82057 12.5525C3.68234 12.6145 3.87735 12.6226 4.43039 12.5779C5.4427 12.496 5.39093 12.4951 7.68279 12.637C9.08728 12.724 11.1462 12.7382 15.6105 12.6917C19.3162 12.6531 22.7903 12.6664 24.6224 12.7259C30.6603 12.9226 31.2609 12.9364 31.1746 12.8759C31.1262 12.842 30.4554 12.7918 29.6839 12.7644C28.9125 12.7371 28.2233 12.6777 28.1526 12.6326C27.9761 12.5202 39.6452 12.5289 43.7607 12.6443C46.1214 12.7105 63.9525 12.84 70.1559 12.8361C71.5399 12.8352 77.5762 12.7189 77.8532 12.6879C78.0818 12.6621 78.1999 12.6812 78.1501 12.7358C78.1048 12.7856 78.1286 12.8263 78.2031 12.8263C78.2777 12.8263 78.3763 12.785 78.4224 12.7344C78.5322 12.6139 79.0322 12.6152 79.0322 12.736C79.0322 12.84 82.2335 12.8462 84.5713 12.7468C85.6418 12.7013 85.9929 12.7146 86.0426 12.8026C86.0787 12.8662 86.1966 12.9183 86.3048 12.9183C86.4131 12.9183 86.4639 12.8769 86.4179 12.8263C86.3718 12.7758 86.4444 12.7273 86.5793 12.7187C86.7141 12.71 86.9159 12.6938 87.0277 12.6824C87.1395 12.6712 87.5664 12.657 87.9763 12.6508C88.4304 12.644 88.6523 12.6097 88.5439 12.5632C88.3681 12.4875 89.3293 12.4171 92.0418 12.3071C93.4055 12.2519 94.0225 12.1009 92.9836 12.0768C92.652 12.0691 92.3196 12.0532 92.2451 12.0414C92.1705 12.0296 91.5302 12.0096 90.8222 11.9969L89.5348 11.9737L90.4156 11.9021C90.9001 11.8628 91.896 11.8176 92.6287 11.8019C93.3615 11.7861 93.9901 11.7412 94.0258 11.7021C94.0614 11.6631 94.2125 11.6311 94.3616 11.6311C94.5106 11.6311 94.5998 11.5951 94.5598 11.5511C94.5193 11.5067 94.2296 11.5049 93.9081 11.5471C93.2593 11.6323 92.6409 11.6537 92.7382 11.5877C92.8687 11.499 95.6764 11.1708 95.8707 11.2214C95.9843 11.2509 96.1077 11.2113 96.1534 11.1306C96.2108 11.029 96.4419 10.9831 96.9501 10.9725L97.6657 10.9575L96.9204 10.9032C96.334 10.8605 96.2528 10.8372 96.5399 10.7941C96.7406 10.7639 97.1979 10.7699 97.5562 10.8074C97.9146 10.845 98.2216 10.8673 98.2386 10.8571C98.2555 10.8468 98.1722 10.7444 98.0535 10.6293C97.9105 10.4909 97.7922 10.4512 97.703 10.5117C97.6137 10.5722 97.4247 10.5707 97.1426 10.5069C96.3855 10.3358 96.505 10.2972 97.6895 10.3308C98.5157 10.3542 98.8248 10.3342 98.7589 10.2618C98.7018 10.1991 98.7866 10.1568 98.979 10.1517C99.2576 10.1443 97.9259 9.96073 96.8526 9.85849C96.629 9.83716 96.9035 9.81289 97.4625 9.80461C98.0215 9.79625 98.5703 9.74926 98.6821 9.70026C98.8507 9.62633 98.8392 9.61061 98.6144 9.60831C98.4653 9.60675 98.2518 9.56179 98.14 9.50837C97.9914 9.43739 98.1097 9.42691 98.5801 9.46948C99.4211 9.54542 99.5989 9.46516 99.2108 9.18491C99.0391 9.06079 98.9789 8.96471 99.0731 8.96471C99.165 8.96471 99.2025 8.92333 99.1564 8.87276C99.1103 8.8222 98.8171 8.78018 98.5047 8.77944C98.1924 8.77861 97.8453 8.73485 97.7335 8.68207C97.5873 8.61312 97.7297 8.603 98.2417 8.64622C98.9656 8.70717 99.2395 8.58471 98.6482 8.46435C98.3509 8.40385 98.35 8.40018 98.6144 8.31402C98.8291 8.24415 98.7862 8.23376 98.4076 8.26428C97.862 8.30832 97.289 8.11009 97.6728 8.01015C97.793 7.97889 98.0007 7.95333 98.1345 7.95333C98.2684 7.95333 98.4538 7.89127 98.5466 7.81541C98.6791 7.7071 98.6795 7.6775 98.5486 7.6775C98.4562 7.6775 98.4168 7.61608 98.4601 7.53958C98.5101 7.45095 98.4548 7.39937 98.3052 7.39523C98.112 7.38981 98.1185 7.37592 98.3433 7.3134C98.5951 7.24334 98.5874 7.23084 98.2329 7.13595C98.0231 7.07987 97.7639 7.03389 97.6569 7.03389C97.55 7.03389 97.4625 6.99252 97.4625 6.94195C97.4625 6.89138 97.813 6.84596 98.2417 6.84109L99.0209 6.83217L98.5127 6.69067C97.9617 6.53731 97.8618 6.35664 98.2501 6.21569C98.3851 6.16668 99.1778 6.09726 100.012 6.06141C100.846 6.02564 101.528 5.96431 101.528 5.92515C101.528 5.88598 101.36 5.81242 101.155 5.76158C100.843 5.68435 100.943 5.66807 101.765 5.662C102.323 5.65787 102.748 5.61493 102.748 5.5628C102.748 5.51223 102.622 5.47085 102.469 5.47085C102.315 5.47085 102.226 5.43132 102.27 5.38295C102.314 5.33459 102.439 5.31832 102.549 5.34682C102.658 5.37523 102.748 5.35969 102.748 5.31225C102.748 5.26472 102.458 5.17976 102.104 5.1234C101.558 5.03642 101.767 5.02539 103.493 5.05021L105.526 5.07954L103.764 4.91147C100.681 4.61734 100.736 4.62497 101.121 4.54673C101.435 4.48301 101.438 4.47713 101.163 4.46867C100.75 4.45589 100.645 4.29729 101.018 4.24874C101.188 4.2264 101.074 4.20314 100.76 4.19615C100.45 4.18925 100.175 4.14282 100.15 4.09299C100.125 4.04315 99.4037 3.96849 98.5466 3.92721C97.0201 3.85366 96.9999 3.8498 97.56 3.73919C97.925 3.6672 98.8756 3.63373 100.186 3.64669C102.081 3.66554 102.254 3.65331 102.431 3.48864C102.6 3.33169 102.827 3.3065 104.312 3.27965C105.658 3.25538 106 3.22274 106 3.11875C106 3.04704 105.947 2.98838 105.882 2.98838C105.692 2.98838 103.379 2.71135 103.12 2.65756C102.631 2.55569 102.91 2.43635 103.662 2.42614C104.433 2.41566 104.436 2.41474 103.899 2.33953C103.601 2.2977 102.87 2.25798 102.273 2.25136C101.211 2.2394 99.7713 2.11445 100.173 2.06894C100.555 2.02564 99.1576 1.89866 98.2234 1.89186C97.4091 1.88588 97.2502 1.85582 96.9762 1.65519L96.6622 1.42534L97.2318 1.41706L97.8013 1.40879L97.3379 1.31841C97.083 1.26876 96.7629 1.24798 96.6265 1.27216C96.49 1.29634 96.3783 1.28172 96.3783 1.23961C96.3783 1.1975 96.2715 1.14408 96.1412 1.12091C96.0108 1.09783 96.1784 1.06887 96.5138 1.05673L97.1237 1.03458L96.5138 0.964883C94.5207 0.737231 80.3461 0.611544 75.7798 0.781088C74.4755 0.829542 72.7883 0.870181 72.0305 0.871376C71.058 0.873031 70.6325 0.90751 70.584 0.988604C70.5322 1.07512 70.4874 1.07705 70.4023 0.996144C70.3067 0.905487 67.4926 0.801131 67.2423 0.878915C66.9977 0.954953 31.2994 0.944931 28.8911 0.868158C27.2886 0.817037 25.4592 0.759113 24.8256 0.739437C24.1921 0.719761 22.3064 0.682064 20.6353 0.65586C18.9641 0.629565 16.9822 0.582122 16.231 0.550493C14.059 0.458917 10.9863 0.449815 10.9089 0.534771ZM79.6845 0.476754C79.7822 0.503326 79.8991 0.500016 79.9441 0.469491C79.9891 0.438966 79.9091 0.417267 79.7663 0.42122C79.6084 0.425634 79.5763 0.447424 79.6845 0.476754ZM76.0255 0.568698C76.1232 0.595269 76.2402 0.59196 76.2852 0.561434C76.3302 0.530909 76.2502 0.50921 76.1074 0.513164C75.9495 0.517577 75.9174 0.539368 76.0255 0.568698ZM77.1096 0.568698C77.2074 0.595269 77.3243 0.59196 77.3693 0.561434C77.4143 0.530909 77.3343 0.50921 77.1915 0.513164C77.0336 0.517577 77.0015 0.539368 77.1096 0.568698ZM33.6003 0.7547C33.7681 0.776582 34.0424 0.776582 34.2101 0.7547C34.3779 0.732725 34.2406 0.714796 33.9052 0.714796C33.5698 0.714796 33.4325 0.732725 33.6003 0.7547ZM61.045 1.11788C60.9532 1.14307 60.7703 1.14463 60.6384 1.12128C60.5066 1.09793 60.5817 1.07733 60.8053 1.07549C61.0289 1.07365 61.1367 1.09268 61.045 1.11788ZM95.7995 1.1131C95.7545 1.14362 95.6376 1.14693 95.5399 1.12036C95.4317 1.09103 95.4639 1.06924 95.6217 1.06483C95.7646 1.06087 95.8445 1.08257 95.7995 1.1131ZM75.6054 1.27639C75.6516 1.30774 75.2067 1.33808 74.6167 1.34387C74.0265 1.34957 71.9888 1.37532 70.0881 1.40097C68.1875 1.42672 61.4599 1.47958 55.1381 1.51866C48.8161 1.55773 43.3112 1.61777 42.9047 1.65225C42.1581 1.71551 41.2643 1.64251 41.4282 1.53153C41.5225 1.46763 42.8053 1.45053 49.9978 1.4177C52.743 1.40511 54.5037 1.36281 54.5037 1.3094C54.5037 1.26122 54.5895 1.24411 54.6944 1.27142C54.9841 1.34682 59.4971 1.33404 62.7702 1.24853C65.9703 1.16486 75.4715 1.18555 75.6054 1.27639ZM79.1451 1.19557C79.0477 1.26168 76.7248 1.26968 76.6284 1.20421C76.584 1.17415 77.1475 1.14951 77.8803 1.14951C78.6132 1.14951 79.1824 1.17019 79.1451 1.19557ZM79.6731 1.20504C79.6281 1.23556 79.5111 1.23887 79.4134 1.2123C79.3053 1.18297 79.3374 1.16118 79.4953 1.15677C79.6381 1.15282 79.7181 1.17451 79.6731 1.20504ZM69.3783 1.30645C69.5469 1.32843 69.7908 1.3276 69.9204 1.30461C70.0499 1.28163 69.912 1.26361 69.6138 1.26462C69.3157 1.26563 69.2097 1.28448 69.3783 1.30645ZM87.8874 1.31041C87.9218 1.34829 87.1072 1.37936 86.0773 1.37936C85.0474 1.37936 84.159 1.34829 84.103 1.31041C84.047 1.27253 84.8615 1.24145 85.9129 1.24145C86.9645 1.24145 87.853 1.27253 87.8874 1.31041ZM88.5861 1.33339C88.216 1.44133 88.1118 1.44133 88.1118 1.33339C88.1118 1.28282 88.2795 1.24439 88.4845 1.24788C88.8148 1.25368 88.8263 1.26333 88.5861 1.33339ZM63.829 1.39619C63.9267 1.42276 64.0437 1.41945 64.0887 1.38893C64.1337 1.3584 64.0537 1.3367 63.9109 1.34066C63.753 1.34507 63.7209 1.36686 63.829 1.39619ZM64.636 1.40005C64.8796 1.42046 65.2455 1.42009 65.4491 1.39913C65.6528 1.37808 65.4535 1.36134 65.0063 1.36189C64.5591 1.36235 64.3925 1.37955 64.636 1.40005ZM37.2803 1.61465C37.1827 1.65556 37.0476 1.66586 36.9802 1.63763C36.9129 1.60941 36.9375 1.55277 37.035 1.51186C37.1326 1.47094 37.2677 1.46064 37.335 1.48887C37.4024 1.5171 37.3777 1.57373 37.2803 1.61465ZM39.7324 1.53723C39.7324 1.57686 39.2904 1.60435 38.7499 1.59837C38.0207 1.59028 37.8722 1.56978 38.174 1.51884C38.6942 1.43094 39.7324 1.44327 39.7324 1.53723ZM41.0876 1.47361C41.0876 1.5718 40.356 1.7065 40.1496 1.64628C39.9807 1.59699 40.0069 1.56914 40.2745 1.51379C40.6884 1.42809 41.0876 1.40842 41.0876 1.47361ZM36.6786 1.61446C36.6351 1.66209 36.1306 1.70052 35.5573 1.69979C34.9841 1.69896 34.5863 1.66798 34.6735 1.63083C34.9147 1.52795 36.7711 1.51277 36.6786 1.61446ZM80.0173 1.57759C79.9255 1.60279 79.7426 1.60435 79.6107 1.581C79.4789 1.55764 79.554 1.53705 79.7776 1.53521C80.0012 1.53337 80.109 1.5524 80.0173 1.57759ZM89.5009 1.67414C89.3332 1.69602 89.0587 1.69602 88.891 1.67414C88.7234 1.65216 88.8606 1.63423 89.196 1.63423C89.5314 1.63423 89.6685 1.65216 89.5009 1.67414ZM5.44677 2.89643C5.44677 2.947 5.41994 2.98838 5.38701 2.98838C5.35407 2.98838 5.28957 2.947 5.24349 2.89643C5.19742 2.84586 5.22438 2.80449 5.30325 2.80449C5.38213 2.80449 5.44677 2.84586 5.44677 2.89643ZM1.76248 6.2692C1.86019 6.29577 1.97714 6.29246 2.02213 6.26194C2.06712 6.23141 1.98717 6.20971 1.84433 6.21367C1.68646 6.21808 1.65434 6.23987 1.76248 6.2692ZM98.1033 7.82498C98.0583 7.8555 97.9414 7.85881 97.8437 7.83224C97.7355 7.80291 97.7676 7.78112 97.9255 7.77671C98.0684 7.77275 98.1483 7.79445 98.1033 7.82498ZM2.87195 8.04527C2.87195 8.09584 2.80731 8.13722 2.72844 8.13722C2.64957 8.13722 2.6226 8.09584 2.66868 8.04527C2.71476 7.9947 2.77926 7.95333 2.81219 7.95333C2.84512 7.95333 2.87195 7.9947 2.87195 8.04527ZM43.1937 9.43059C43.3395 9.59066 43.1735 9.62459 42.9875 9.4726C42.8806 9.38526 42.8703 9.33248 42.9603 9.33248C43.0395 9.33248 43.1446 9.37662 43.1937 9.43059ZM51.787 9.65695C51.8675 9.62321 51.8983 9.5571 51.8553 9.51003C51.8106 9.46084 52.1219 9.42443 52.5873 9.42443C53.0549 9.42443 53.418 9.46709 53.4466 9.52538C53.4739 9.58091 53.7827 9.64831 54.1328 9.67506C55.005 9.74182 54.8062 9.88341 53.8893 9.84838C53.3378 9.82732 53.1486 9.85178 53.1486 9.94409C53.1486 10.1002 52.6527 10.1078 52.5607 9.9531C52.5211 9.88644 52.4879 9.90805 52.4817 10.0045C52.4759 10.096 52.4208 10.1499 52.3596 10.1241C52.2983 10.0985 52.1466 10.158 52.0222 10.2566C51.7568 10.467 51.1158 10.5002 51.1158 10.3037C51.1158 10.2031 50.9982 10.1845 50.6234 10.2257C50.2369 10.2683 50.1451 10.2522 50.1974 10.1511C50.2342 10.0801 50.3507 10.0263 50.4564 10.0314C50.5622 10.0366 50.732 9.98022 50.834 9.9063C50.9948 9.78944 50.9589 9.78006 50.5593 9.83486C50.3064 9.86953 49.9978 9.91715 49.8737 9.94069C49.7495 9.96432 49.6123 9.94437 49.5686 9.89656C49.525 9.84865 49.7977 9.78071 50.1745 9.74558C50.5514 9.71037 50.9326 9.62762 51.0216 9.56161C51.1544 9.46323 51.2248 9.46654 51.4122 9.5799C51.538 9.65603 51.7067 9.6907 51.787 9.65695ZM70.9012 9.55195C70.9012 9.62744 70.0724 9.66541 70.0064 9.59296C69.9681 9.55085 70.1537 9.51637 70.4189 9.51637C70.6841 9.51637 70.9012 9.53237 70.9012 9.55195ZM46.1555 10.1055C46.0391 10.3114 45.8685 10.2085 45.9094 9.95696C45.9602 9.64417 45.9635 9.6416 46.1061 9.80728C46.1784 9.89141 46.2006 10.0256 46.1555 10.1055ZM55.7598 9.76057C55.6681 9.78576 55.4851 9.78733 55.3533 9.76397C55.2214 9.74062 55.2965 9.72003 55.5201 9.71819C55.7437 9.71635 55.8516 9.73538 55.7598 9.76057ZM60.3309 9.79689C59.4619 9.9018 56.3721 9.8984 56.1299 9.7922C55.9951 9.73308 56.7709 9.70651 58.4337 9.71313C60.1484 9.72012 60.7481 9.7465 60.3309 9.79689ZM63.1429 9.76609C62.9379 9.78714 62.6026 9.78714 62.3976 9.76609C62.1925 9.74503 62.3603 9.72784 62.7702 9.72784C63.1802 9.72784 63.348 9.74503 63.1429 9.76609ZM64.4303 9.76112C64.3372 9.78668 64.1848 9.78668 64.0915 9.76112C63.9984 9.73566 64.0746 9.71478 64.2609 9.71478C64.4473 9.71478 64.5236 9.73566 64.4303 9.76112ZM65.7855 9.76112C65.6924 9.78668 65.5399 9.78668 65.4467 9.76112C65.3536 9.73566 65.4298 9.71478 65.6161 9.71478C65.8024 9.71478 65.8787 9.73566 65.7855 9.76112ZM42.7138 9.83716C42.7138 9.97103 42.2086 10.2515 41.9723 10.2489C41.708 10.2459 41.7094 10.239 42.0075 10.0704L42.3174 9.89509L41.7365 9.85969C41.2262 9.82861 41.2504 9.82236 41.9346 9.80829C42.3632 9.79946 42.7138 9.81243 42.7138 9.83716ZM43.3547 9.84773C43.3097 9.87826 43.1927 9.88157 43.095 9.855C42.9869 9.82567 43.019 9.80388 43.1769 9.79946C43.3197 9.79551 43.3997 9.81721 43.3547 9.84773ZM51.6579 9.88414C51.6579 9.93471 51.7225 9.97609 51.8014 9.97609C51.8803 9.97609 51.9072 9.93471 51.8612 9.88414C51.8151 9.83358 51.7506 9.7922 51.7177 9.7922C51.6847 9.7922 51.6579 9.83358 51.6579 9.88414ZM94.0378 9.84773C93.9928 9.87826 93.8759 9.88157 93.7782 9.855C93.67 9.82567 93.7021 9.80388 93.86 9.79946C94.0029 9.79551 94.0828 9.81721 94.0378 9.84773ZM95.057 9.85307C94.9639 9.87863 94.8115 9.87863 94.7183 9.85307C94.6252 9.8276 94.7013 9.80673 94.8876 9.80673C95.074 9.80673 95.1503 9.8276 95.057 9.85307ZM36.8499 9.93968C36.8049 9.9702 36.6879 9.97351 36.5902 9.94694C36.4821 9.91761 36.5142 9.89582 36.6721 9.89141C36.8149 9.88745 36.8949 9.90915 36.8499 9.93968ZM40.65 9.99337C40.6205 10.0534 40.5155 10.1208 40.4165 10.1431C40.3154 10.166 40.2756 10.1413 40.3255 10.0865C40.3752 10.0319 40.2795 9.97167 40.1071 9.94924C39.8886 9.92074 39.9303 9.90557 40.2519 9.89665C40.5466 9.88847 40.685 9.92212 40.65 9.99337ZM44.9498 10.068C44.9005 10.1735 44.9254 10.2519 45.0085 10.2519C45.0881 10.2519 45.1531 10.2864 45.1531 10.3285C45.1531 10.4479 44.6021 10.3908 44.4819 10.2589C44.3987 10.1676 44.3088 10.1648 44.0835 10.2467C43.9233 10.3048 43.7264 10.3247 43.6458 10.2909C43.4831 10.2227 44.3977 9.90345 44.7895 9.89159C44.9758 9.88598 45.0149 9.92892 44.9498 10.068ZM70.5624 9.97609C70.6085 10.0267 70.5816 10.068 70.5027 10.068C70.4238 10.068 70.3592 10.0267 70.3592 9.97609C70.3592 9.92552 70.386 9.88414 70.4189 9.88414C70.4519 9.88414 70.5164 9.92552 70.5624 9.97609ZM71.8498 9.92469C71.8498 9.94703 71.7889 9.9908 71.7143 10.0221C71.6398 10.0533 71.5788 10.035 71.5788 9.98151C71.5788 9.928 71.6398 9.88414 71.7143 9.88414C71.7889 9.88414 71.8498 9.90235 71.8498 9.92469ZM91.6717 9.94446C91.58 9.96965 91.397 9.97121 91.2652 9.94786C91.1333 9.92451 91.2084 9.90391 91.432 9.90207C91.6556 9.90024 91.7635 9.91927 91.6717 9.94446ZM92.4116 9.93968C92.3666 9.9702 92.2497 9.97351 92.152 9.94694C92.0438 9.91761 92.076 9.89582 92.2338 9.89141C92.3767 9.88745 92.4566 9.90915 92.4116 9.93968ZM38.8516 10.068C38.8977 10.1186 38.8707 10.16 38.7918 10.16C38.7129 10.16 38.6483 10.1186 38.6483 10.068C38.6483 10.0175 38.6751 9.97609 38.7081 9.97609C38.741 9.97609 38.8055 10.0175 38.8516 10.068ZM54.8736 10.0316C54.8286 10.0621 54.7116 10.0655 54.6139 10.0389C54.5058 10.0096 54.5379 9.98776 54.6958 9.98335C54.8386 9.9794 54.9186 10.0011 54.8736 10.0316ZM55.5511 10.0316C55.5062 10.0621 55.3892 10.0655 55.2915 10.0389C55.1834 10.0096 55.2155 9.98776 55.3733 9.98335C55.5162 9.9794 55.5961 10.0011 55.5511 10.0316ZM56.8075 10.114C56.8075 10.1899 56.8685 10.2519 56.943 10.2519C57.0176 10.2519 57.0784 10.2002 57.0783 10.137C57.078 10.0517 57.3756 10.0298 58.2319 10.0518C58.9298 10.0699 59.354 10.1168 59.305 10.1705C59.2605 10.2194 59.1165 10.2362 58.9849 10.2079C58.8534 10.1796 58.5688 10.2191 58.3527 10.2956C58.0045 10.4188 57.9544 10.419 57.9156 10.2973C57.8666 10.1438 57.2765 10.1089 57.1463 10.2519C57.0555 10.3517 56.4966 10.3782 56.3652 10.2889C56.2332 10.1994 56.4144 9.97609 56.6187 9.97609C56.7225 9.97609 56.8075 10.0381 56.8075 10.114ZM69.275 10.114C69.1322 10.2308 69.162 10.2519 69.4698 10.2519C69.6775 10.2519 69.7972 10.2913 69.7493 10.3439C69.7033 10.3944 69.5371 10.4358 69.3799 10.4358C69.2229 10.4358 69.1379 10.4654 69.1911 10.5015C69.2445 10.5377 69.7817 10.5545 70.3849 10.5391C71.3648 10.5139 71.4726 10.5273 71.3948 10.6649C71.3375 10.7663 71.3656 10.8045 71.477 10.7768C71.5703 10.7536 71.6314 10.6881 71.6127 10.6312C71.594 10.5743 71.7349 10.5277 71.9256 10.5277C72.1222 10.5277 72.2362 10.5676 72.1886 10.6197C72.1426 10.6703 72.1695 10.7116 72.2484 10.7116C72.3273 10.7116 72.3919 10.6703 72.3919 10.6197C72.3919 10.4667 72.8987 10.5167 72.9905 10.6788C73.0374 10.7619 73.0555 10.8438 73.0306 10.8607C73.0057 10.8775 72.3843 10.9026 71.6498 10.9164C70.6748 10.9347 70.299 10.9105 70.2577 10.8266C70.2265 10.7634 70.0805 10.7116 69.9334 10.7116C69.7861 10.7116 69.7033 10.753 69.7493 10.8036C69.7983 10.8572 69.6604 10.8955 69.4185 10.8955C69.1906 10.8955 69.004 10.8541 69.004 10.8036C69.004 10.753 68.7784 10.7116 68.5026 10.7116C67.9544 10.7116 68.0245 10.5646 68.5975 10.5126C68.8522 10.4894 68.9468 10.4191 68.9791 10.2289C69.0054 10.0739 69.1036 9.97609 69.2329 9.97609C69.405 9.97609 69.4127 10.0015 69.275 10.114ZM82.7589 10.1881C82.908 10.2145 82.7402 10.2319 82.3863 10.2268C82.0323 10.2218 81.7426 10.1811 81.7426 10.1366C81.7426 10.092 81.8721 10.0836 82.0305 10.1177C82.2507 10.165 82.2925 10.1503 82.2078 10.0549C82.1208 9.95678 82.1388 9.95255 82.2925 10.0351C82.3999 10.0929 82.6099 10.1617 82.7589 10.1881ZM65.8194 10.16C65.7733 10.2105 65.6783 10.2519 65.6081 10.2519C65.5379 10.2519 65.4806 10.2105 65.4806 10.16C65.4806 10.1094 65.5757 10.068 65.6918 10.068C65.808 10.068 65.8654 10.1094 65.8194 10.16ZM51.3869 10.2519C51.6496 10.3671 51.7934 10.3671 51.7934 10.2519C51.7934 10.2013 51.6561 10.1606 51.4885 10.1614C51.242 10.1625 51.2225 10.1798 51.3869 10.2519ZM64.1254 10.2918C64.1254 10.3665 64.2869 10.4376 64.4981 10.4559C64.797 10.4819 64.7602 10.4969 64.3117 10.5323C63.8022 10.5725 63.7527 10.558 63.7527 10.3682C63.7527 10.2528 63.8358 10.16 63.9391 10.16C64.0415 10.16 64.1254 10.2193 64.1254 10.2918ZM68.3264 10.2382C68.3264 10.2844 68.0813 10.3245 67.7816 10.3273C67.4819 10.3301 67.2642 10.3022 67.2977 10.2654C67.3888 10.1656 68.3264 10.1408 68.3264 10.2382ZM26.113 10.3439C26.1591 10.3944 26.1016 10.4358 25.9855 10.4358C25.8694 10.4358 25.7742 10.3944 25.7742 10.3439C25.7742 10.2933 25.8316 10.2519 25.9018 10.2519C25.972 10.2519 26.067 10.2933 26.113 10.3439ZM53.0131 10.3493C53.0131 10.4028 52.9453 10.4182 52.8624 10.3835C52.7796 10.3487 52.6585 10.3773 52.5935 10.447C52.4999 10.5472 52.4747 10.5401 52.473 10.4128C52.4718 10.3128 52.5734 10.2519 52.742 10.2519C52.8911 10.2519 53.0131 10.2958 53.0131 10.3493ZM54.9103 10.3209C54.9103 10.3588 54.7637 10.3898 54.5844 10.3898C54.4052 10.3898 54.2869 10.3588 54.3215 10.3209C54.3559 10.283 54.5025 10.2519 54.6473 10.2519C54.792 10.2519 54.9103 10.283 54.9103 10.3209ZM80.7262 10.3439C80.6801 10.3944 80.5088 10.4329 80.3455 10.4294C80.0593 10.4231 80.0583 10.4201 80.3196 10.3439C80.6926 10.2351 80.8252 10.2351 80.7262 10.3439ZM90.6866 10.3439C90.6866 10.3944 90.8239 10.4364 90.9916 10.4372C91.1592 10.438 91.3879 10.4787 91.4997 10.5277C91.6496 10.5935 91.543 10.622 91.0932 10.6362C90.7578 10.6469 90.2699 10.672 90.0091 10.692C89.7482 10.712 87.4309 10.7405 84.8594 10.7553C82.288 10.7701 80.55 10.7514 80.9972 10.7136C81.4444 10.6759 82.1152 10.6192 82.4879 10.5878C83.9198 10.4671 85.6564 10.4356 85.7412 10.5288C85.7883 10.5804 85.8894 10.5964 85.9658 10.5643C86.0424 10.5323 86.2474 10.5578 86.4217 10.6211C86.5958 10.6843 86.8492 10.706 86.9847 10.6693C87.1201 10.6325 87.6692 10.5951 88.2048 10.5863C88.7403 10.5775 89.2183 10.5432 89.2671 10.5101C89.3158 10.4771 89.5636 10.4729 89.8178 10.5009C90.1855 10.5414 90.2801 10.5211 90.2801 10.4019C90.2801 10.3194 90.3716 10.2519 90.4834 10.2519C90.5952 10.2519 90.6866 10.2933 90.6866 10.3439ZM94.6731 10.3668C94.7363 10.4588 94.768 10.4588 94.8311 10.3668C94.9162 10.2433 96.0475 10.2039 96.1542 10.3209C96.1886 10.3588 95.9483 10.3753 95.6201 10.3576C95.2473 10.3374 95.0232 10.3634 95.0232 10.4265C95.0232 10.5799 94.3858 10.5477 94.2965 10.3898C94.2017 10.2221 94.5586 10.2003 94.6731 10.3668ZM63.2446 10.4358C63.1985 10.4864 62.9967 10.5248 62.7961 10.5213C62.4705 10.5155 62.4605 10.5063 62.7025 10.4358C63.079 10.326 63.3446 10.326 63.2446 10.4358ZM75.9831 10.4358C75.937 10.4864 76.025 10.5277 76.1784 10.5277C76.3318 10.5277 76.4574 10.4864 76.4574 10.4358C76.4574 10.3272 76.72 10.3518 76.9431 10.4812C77.1479 10.5999 76.452 10.8095 76.0751 10.7426C75.9296 10.7168 75.7694 10.7406 75.7194 10.7956C75.6692 10.8506 75.5368 10.8955 75.425 10.8955C75.3132 10.8955 75.2624 10.8509 75.312 10.7965C75.3745 10.7279 75.2104 10.717 74.778 10.7609C74.3992 10.7994 74.1536 10.7892 74.1536 10.7349C74.1536 10.6857 74.5033 10.6209 74.9307 10.591C75.3581 10.5611 75.729 10.4933 75.755 10.4402C75.781 10.3873 75.862 10.3439 75.9346 10.3439C76.0074 10.3439 76.0292 10.3852 75.9831 10.4358ZM79.8577 10.4286C79.7528 10.4738 79.4873 10.4953 79.2679 10.4764C78.9607 10.4501 78.8529 10.4837 78.7993 10.6229C78.7609 10.7223 78.6776 10.8036 78.6142 10.8036C78.4678 10.8036 78.6254 10.5042 78.8191 10.4142C78.899 10.3771 79.2084 10.3467 79.5065 10.3467C79.8764 10.3467 79.988 10.3727 79.8577 10.4286ZM32.1435 10.517C32.1435 10.6265 31.6196 10.7139 31.533 10.619C31.4952 10.5774 31.5409 10.5225 31.6345 10.4969C31.9121 10.4209 32.1435 10.4301 32.1435 10.517ZM33.9052 10.5277C33.9052 10.5783 33.8479 10.6197 33.7777 10.6197C33.7075 10.6197 33.6125 10.5783 33.5664 10.5277C33.5204 10.4772 33.5778 10.4358 33.694 10.4358C33.8101 10.4358 33.9052 10.4772 33.9052 10.5277ZM36.3445 10.5177C36.3445 10.6567 35.355 10.6864 34.993 10.5582C34.6759 10.4459 34.7133 10.4369 35.4976 10.4364C35.9635 10.4361 36.3445 10.4727 36.3445 10.5177ZM36.7612 10.553C36.7444 10.663 36.5586 10.6417 36.5004 10.5232C36.4706 10.4625 36.5193 10.4294 36.6088 10.4496C36.6982 10.4698 36.7668 10.5163 36.7612 10.553ZM37.9612 10.8427C37.9664 10.8895 37.8577 10.8481 37.7195 10.7507C37.5491 10.6307 37.5163 10.5526 37.6178 10.5082C37.7535 10.4486 37.9371 10.6274 37.9612 10.8427ZM39.1115 10.4916C39.3873 10.5634 39.3895 10.7116 39.1146 10.7116C38.9985 10.7116 38.9387 10.7505 38.9821 10.798C39.0253 10.8455 38.9378 10.8781 38.7875 10.8704C38.5064 10.8561 38.4627 10.6325 38.7161 10.5061C38.8821 10.4234 38.8535 10.4244 39.1115 10.4916ZM92.3128 10.5277C92.3128 10.5783 92.206 10.619 92.0757 10.6183C91.8729 10.6171 91.8681 10.6039 92.0418 10.5277C92.2975 10.4156 92.3128 10.4156 92.3128 10.5277ZM40.4831 10.6709C40.1364 10.7674 40.118 10.7889 40.3475 10.8284C40.5623 10.8655 40.5481 10.8762 40.2733 10.8849C40.0771 10.891 39.8675 10.8242 39.778 10.727C39.6358 10.5725 39.6758 10.5585 40.2536 10.5588C40.8785 10.5592 40.8805 10.5602 40.4831 10.6709ZM42.3459 10.7769C42.4005 10.9707 42.3684 10.9956 42.1212 10.9505C41.9626 10.9216 41.589 10.8962 41.2909 10.894C40.8522 10.8907 40.7946 10.8718 40.9888 10.7951C41.1208 10.743 41.1948 10.663 41.1532 10.6173C41.1116 10.5717 41.3486 10.538 41.6798 10.5426C42.2076 10.5497 42.29 10.5787 42.3459 10.7769ZM46.3279 10.7634C46.4687 10.894 46.5455 10.907 46.6714 10.8216C46.8971 10.6685 47.1858 10.6841 47.1858 10.8496C47.1858 10.957 47.0137 10.9859 46.4066 10.9802C45.978 10.9763 45.7037 10.9521 45.7968 10.9266C46.1952 10.8175 45.9116 10.7116 45.2209 10.7116C44.4147 10.7116 44.1978 10.8605 44.9159 10.921C45.1898 10.944 45.0647 10.9636 44.5852 10.9728C44.1523 10.981 43.774 10.9436 43.7229 10.8875C43.6573 10.8155 43.5906 10.8155 43.4845 10.8875C43.4035 10.9425 43.2457 10.9875 43.1339 10.9875C42.9836 10.9875 42.9703 10.9605 43.0827 10.8843C43.1663 10.8276 43.201 10.7215 43.1597 10.6485C43.0962 10.5363 43.3213 10.522 44.6156 10.5555C45.9003 10.5888 46.1758 10.6222 46.3279 10.7634ZM49.3534 10.7346C49.3545 10.8373 48.4348 10.8181 48.3394 10.7134C48.2898 10.659 48.4745 10.6316 48.805 10.6444C49.1063 10.6561 49.353 10.6967 49.3534 10.7346ZM54.2327 10.7062C54.2327 10.7538 54.1719 10.8182 54.0976 10.8494C53.8611 10.9485 50.2006 10.903 49.8962 10.7971C49.7414 10.7434 51.4201 10.6487 52.7759 10.6347C53.6115 10.6261 54.2327 10.6566 54.2327 10.7062ZM60.1756 10.7595C60.3185 10.8564 60.0621 10.8893 58.7981 10.9359C57.502 10.9838 56.1299 10.8667 56.1299 10.7081C56.1299 10.6273 60.0544 10.6772 60.1756 10.7595ZM65.0063 10.8003C64.132 10.8532 63.4748 10.8142 63.6924 10.7223C63.7662 10.6911 64.2749 10.6849 64.8229 10.7083L65.8194 10.751L65.0063 10.8003ZM67.3778 10.7116C67.3778 10.7622 67.351 10.8036 67.318 10.8036C67.2851 10.8036 67.2206 10.7622 67.1745 10.7116C67.1285 10.6611 67.1554 10.6197 67.2343 10.6197C67.3132 10.6197 67.3778 10.6611 67.3778 10.7116ZM70.4269 10.7116C70.3808 10.7622 70.4383 10.8036 70.5544 10.8036C70.6706 10.8036 70.7657 10.7622 70.7657 10.7116C70.7657 10.6611 70.7084 10.6197 70.6382 10.6197C70.568 10.6197 70.473 10.6611 70.4269 10.7116ZM98.5213 10.6825C98.619 10.7091 98.7359 10.7058 98.7809 10.6752C98.8259 10.6447 98.7459 10.623 98.6031 10.627C98.4452 10.6314 98.4131 10.6532 98.5213 10.6825ZM66.7758 10.7949C66.7341 10.8407 66.578 10.8566 66.4291 10.8302C66.0561 10.764 66.0897 10.7116 66.5049 10.7116C66.6956 10.7116 66.8176 10.7491 66.7758 10.7949ZM73.781 10.7725C73.6879 10.7981 73.5354 10.7981 73.4422 10.7725C73.3491 10.747 73.4252 10.7262 73.6116 10.7262C73.7979 10.7262 73.8742 10.747 73.781 10.7725ZM80.0147 10.7725C79.9216 10.7981 79.7692 10.7981 79.6759 10.7725C79.5828 10.747 79.659 10.7262 79.8453 10.7262C80.0317 10.7262 80.1079 10.747 80.0147 10.7725ZM97.5302 11.1714C97.5763 11.2219 97.6408 11.2633 97.6737 11.2633C97.7067 11.2633 97.7335 11.2219 97.7335 11.1714C97.7335 11.1208 97.6689 11.0794 97.59 11.0794C97.5111 11.0794 97.4841 11.1208 97.5302 11.1714ZM101.096 11.1422C101.194 11.1688 101.311 11.1655 101.356 11.1349C101.401 11.1044 101.321 11.0827 101.178 11.0867C101.02 11.0911 100.988 11.1129 101.096 11.1422ZM45.6949 12.2977C45.695 12.3355 44.4602 12.3589 42.951 12.3495C41.0513 12.3377 40.5613 12.3164 41.3586 12.2806C43.0133 12.2061 45.6946 12.2167 45.6949 12.2977ZM47.0503 12.3314C47.0503 12.3507 46.7607 12.3617 46.4066 12.3558C45.853 12.3464 45.8198 12.3361 46.1695 12.2822C46.5493 12.2236 47.0503 12.2517 47.0503 12.3314ZM40.0374 12.3355C39.9443 12.3611 39.7918 12.3611 39.6986 12.3355C39.6055 12.3101 39.6816 12.2892 39.868 12.2892C40.0543 12.2892 40.1306 12.3101 40.0374 12.3355ZM27.7727 12.5316C27.8666 12.5735 27.3106 12.6102 26.5208 12.6141C25.7393 12.6181 25.1244 12.5944 25.1545 12.5614C25.2366 12.4713 27.5778 12.4447 27.7727 12.5316ZM89.7127 12.6133C89.8104 12.6399 89.9273 12.6366 89.9723 12.606C90.0173 12.5755 89.9374 12.5538 89.7945 12.5578C89.6367 12.5622 89.6045 12.584 89.7127 12.6133ZM79.8086 12.698C79.7636 12.7285 79.6467 12.7318 79.5489 12.7052C79.4408 12.6759 79.4729 12.6541 79.6308 12.6497C79.7736 12.6458 79.8536 12.6675 79.8086 12.698ZM32.712 12.8949C33.5091 12.9111 34.8507 12.9112 35.6934 12.895C36.536 12.8788 35.8838 12.8656 34.244 12.8655C32.6043 12.8654 31.9149 12.8787 32.712 12.8949ZM44.8574 12.9383C44.9296 12.9873 45.102 13.0112 45.2404 12.9913C45.4267 12.9645 45.3926 12.9414 45.1089 12.9022C44.8616 12.8679 44.7726 12.8808 44.8574 12.9383ZM86.8668 12.8891C86.9645 12.9157 87.0815 12.9124 87.1265 12.8819C87.1715 12.8513 87.0915 12.8296 86.9487 12.8336C86.7908 12.838 86.7587 12.8598 86.8668 12.8891ZM45.9339 12.9833C46.1025 13.0053 46.3465 13.0044 46.476 12.9814C46.6056 12.9585 46.4676 12.9404 46.1695 12.9415C45.8713 12.9425 45.7654 12.9613 45.9339 12.9833ZM47.8312 12.9833C47.9998 13.0053 48.2437 13.0044 48.3732 12.9814C48.5028 12.9585 48.3648 12.9404 48.0667 12.9415C47.7686 12.9425 47.6626 12.9613 47.8312 12.9833ZM52.033 12.9849C52.2765 13.0054 52.6424 13.005 52.8461 12.984C53.0498 12.963 52.8504 12.9462 52.4032 12.9468C51.956 12.9472 51.7895 12.9644 52.033 12.9849ZM53.9974 12.9843C54.2034 13.0054 54.5083 13.0048 54.675 12.983C54.8417 12.9612 54.6731 12.9439 54.3005 12.9446C53.9278 12.9453 53.7915 12.9632 53.9974 12.9843ZM71.7482 12.9816C71.8786 13.0048 72.0921 13.0048 72.2225 12.9816C72.3529 12.9586 72.2462 12.9396 71.9854 12.9396C71.7245 12.9396 71.6178 12.9586 71.7482 12.9816ZM73.9842 12.9791C74.0775 13.0047 74.2299 13.0047 74.323 12.9791C74.4163 12.9537 74.34 12.9328 74.1536 12.9328C73.9673 12.9328 73.8911 12.9537 73.9842 12.9791Z" fill="#D9D9D9"/>
</svg>
