<svg width="220" height="271" viewBox="0 0 220 271" fill="none" xmlns="http://www.w3.org/2000/svg">
<rect width="220" height="271" fill="#ECECEC"/>
<path d="M133.294 29.5H197.706C199.784 29.5001 201.5 31.2544 201.5 33.458V209.542C201.5 211.746 199.784 213.5 197.706 213.5H133.294C131.216 213.5 129.5 211.746 129.5 209.542V33.458C129.5 31.2544 131.216 29.5001 133.294 29.5Z" fill="white" fill-opacity="0.75" stroke="black"/>
<path d="M21.2939 30.5H85.7061C86.8247 30.5 87.8125 30.7482 88.5029 31.124C89.2123 31.5101 89.4998 31.9608 89.5 32.3369V124.663C89.4998 125.039 89.2123 125.49 88.5029 125.876C87.8125 126.252 86.8247 126.5 85.7061 126.5H21.2939C20.1753 126.5 19.1875 126.252 18.4971 125.876C17.7877 125.49 17.5002 125.039 17.5 124.663V32.3369C17.5002 31.9608 17.7877 31.5101 18.4971 31.124C19.1875 30.7482 20.1753 30.5 21.2939 30.5Z" fill="white" fill-opacity="0.75" stroke="black"/>
<path d="M148.026 21.096C147.386 21.096 146.774 21 146.19 20.808C145.606 20.608 145.146 20.352 144.81 20.04L145.254 19.104C145.574 19.384 145.982 19.616 146.478 19.8C146.974 19.984 147.49 20.076 148.026 20.076C148.514 20.076 148.91 20.02 149.214 19.908C149.518 19.796 149.742 19.644 149.886 19.452C150.03 19.252 150.102 19.028 150.102 18.78C150.102 18.492 150.006 18.26 149.814 18.084C149.63 17.908 149.386 17.768 149.082 17.664C148.786 17.552 148.458 17.456 148.098 17.376C147.738 17.296 147.374 17.204 147.006 17.1C146.646 16.988 146.314 16.848 146.01 16.68C145.714 16.512 145.474 16.288 145.29 16.008C145.106 15.72 145.014 15.352 145.014 14.904C145.014 14.472 145.126 14.076 145.35 13.716C145.582 13.348 145.934 13.056 146.406 12.84C146.886 12.616 147.494 12.504 148.23 12.504C148.718 12.504 149.202 12.568 149.682 12.696C150.162 12.824 150.578 13.008 150.93 13.248L150.534 14.208C150.174 13.968 149.794 13.796 149.394 13.692C148.994 13.58 148.606 13.524 148.23 13.524C147.758 13.524 147.37 13.584 147.066 13.704C146.762 13.824 146.538 13.984 146.394 14.184C146.258 14.384 146.19 14.608 146.19 14.856C146.19 15.152 146.282 15.388 146.466 15.564C146.658 15.74 146.902 15.88 147.198 15.984C147.502 16.088 147.834 16.184 148.194 16.272C148.554 16.352 148.914 16.444 149.274 16.548C149.642 16.652 149.974 16.788 150.27 16.956C150.574 17.124 150.818 17.348 151.002 17.628C151.186 17.908 151.278 18.268 151.278 18.708C151.278 19.132 151.162 19.528 150.93 19.896C150.698 20.256 150.338 20.548 149.85 20.772C149.37 20.988 148.762 21.096 148.026 21.096ZM152.863 21V14.64H154.015V21H152.863ZM153.439 13.416C153.215 13.416 153.027 13.344 152.875 13.2C152.731 13.056 152.659 12.88 152.659 12.672C152.659 12.456 152.731 12.276 152.875 12.132C153.027 11.988 153.215 11.916 153.439 11.916C153.663 11.916 153.847 11.988 153.991 12.132C154.143 12.268 154.219 12.44 154.219 12.648C154.219 12.864 154.147 13.048 154.003 13.2C153.859 13.344 153.671 13.416 153.439 13.416ZM156.215 21V14.64H157.319V16.332L157.139 15.9C157.339 15.484 157.647 15.16 158.063 14.928C158.479 14.696 158.963 14.58 159.515 14.58C160.123 14.58 160.647 14.732 161.087 15.036C161.527 15.332 161.815 15.784 161.951 16.392L161.483 16.2C161.675 15.712 162.011 15.32 162.491 15.024C162.971 14.728 163.531 14.58 164.171 14.58C164.683 14.58 165.135 14.68 165.527 14.88C165.919 15.08 166.223 15.384 166.439 15.792C166.663 16.2 166.775 16.716 166.775 17.34V21H165.623V17.472C165.623 16.856 165.479 16.392 165.191 16.08C164.903 15.768 164.499 15.612 163.979 15.612C163.595 15.612 163.259 15.692 162.971 15.852C162.683 16.012 162.459 16.248 162.299 16.56C162.147 16.872 162.071 17.26 162.071 17.724V21H160.919V17.472C160.919 16.856 160.775 16.392 160.487 16.08C160.207 15.768 159.803 15.612 159.275 15.612C158.899 15.612 158.567 15.692 158.279 15.852C157.991 16.012 157.767 16.248 157.607 16.56C157.447 16.872 157.367 17.26 157.367 17.724V21H156.215ZM172.267 21.072C171.739 21.072 171.255 20.952 170.815 20.712C170.383 20.464 170.035 20.1 169.771 19.62C169.515 19.14 169.387 18.54 169.387 17.82C169.387 17.1 169.511 16.5 169.759 16.02C170.015 15.54 170.359 15.18 170.791 14.94C171.231 14.7 171.723 14.58 172.267 14.58C172.891 14.58 173.443 14.716 173.923 14.988C174.403 15.26 174.783 15.64 175.063 16.128C175.343 16.608 175.483 17.172 175.483 17.82C175.483 18.468 175.343 19.036 175.063 19.524C174.783 20.012 174.403 20.392 173.923 20.664C173.443 20.936 172.891 21.072 172.267 21.072ZM168.895 23.328V14.64H169.999V16.356L169.927 17.832L170.047 19.308V23.328H168.895ZM172.171 20.064C172.579 20.064 172.943 19.972 173.263 19.788C173.591 19.604 173.847 19.344 174.031 19.008C174.223 18.664 174.319 18.268 174.319 17.82C174.319 17.364 174.223 16.972 174.031 16.644C173.847 16.308 173.591 16.048 173.263 15.864C172.943 15.68 172.579 15.588 172.171 15.588C171.771 15.588 171.407 15.68 171.079 15.864C170.759 16.048 170.503 16.308 170.311 16.644C170.127 16.972 170.035 17.364 170.035 17.82C170.035 18.268 170.127 18.664 170.311 19.008C170.503 19.344 170.759 19.604 171.079 19.788C171.407 19.972 171.771 20.064 172.171 20.064ZM177.074 21V12.096H178.226V21H177.074ZM183.258 21.072C182.578 21.072 181.978 20.932 181.458 20.652C180.946 20.372 180.546 19.988 180.258 19.5C179.978 19.012 179.838 18.452 179.838 17.82C179.838 17.188 179.974 16.628 180.246 16.14C180.526 15.652 180.906 15.272 181.386 15C181.874 14.72 182.422 14.58 183.03 14.58C183.646 14.58 184.19 14.716 184.662 14.988C185.134 15.26 185.502 15.644 185.766 16.14C186.038 16.628 186.174 17.2 186.174 17.856C186.174 17.904 186.17 17.96 186.162 18.024C186.162 18.088 186.158 18.148 186.15 18.204H180.738V17.376H185.55L185.082 17.664C185.09 17.256 185.006 16.892 184.83 16.572C184.654 16.252 184.41 16.004 184.098 15.828C183.794 15.644 183.438 15.552 183.03 15.552C182.63 15.552 182.274 15.644 181.962 15.828C181.65 16.004 181.406 16.256 181.23 16.584C181.054 16.904 180.966 17.272 180.966 17.688V17.88C180.966 18.304 181.062 18.684 181.254 19.02C181.454 19.348 181.73 19.604 182.082 19.788C182.434 19.972 182.838 20.064 183.294 20.064C183.67 20.064 184.01 20 184.314 19.872C184.626 19.744 184.898 19.552 185.13 19.296L185.766 20.04C185.478 20.376 185.118 20.632 184.686 20.808C184.262 20.984 183.786 21.072 183.258 21.072Z" fill="black"/>
<path d="M31.5629 22.096C30.9229 22.096 30.3309 21.992 29.7869 21.784C29.2509 21.568 28.7829 21.268 28.3829 20.884C27.9909 20.492 27.6829 20.036 27.4589 19.516C27.2349 18.996 27.1229 18.424 27.1229 17.8C27.1229 17.176 27.2349 16.604 27.4589 16.084C27.6829 15.564 27.9949 15.112 28.3949 14.728C28.7949 14.336 29.2629 14.036 29.7989 13.828C30.3429 13.612 30.9349 13.504 31.5749 13.504C32.2229 13.504 32.8189 13.616 33.3629 13.84C33.9149 14.056 34.3829 14.38 34.7669 14.812L33.9869 15.568C33.6669 15.232 33.3069 14.984 32.9069 14.824C32.5069 14.656 32.0789 14.572 31.6229 14.572C31.1509 14.572 30.7109 14.652 30.3029 14.812C29.9029 14.972 29.5549 15.196 29.2589 15.484C28.9629 15.772 28.7309 16.116 28.5629 16.516C28.4029 16.908 28.3229 17.336 28.3229 17.8C28.3229 18.264 28.4029 18.696 28.5629 19.096C28.7309 19.488 28.9629 19.828 29.2589 20.116C29.5549 20.404 29.9029 20.628 30.3029 20.788C30.7109 20.948 31.1509 21.028 31.6229 21.028C32.0789 21.028 32.5069 20.948 32.9069 20.788C33.3069 20.62 33.6669 20.364 33.9869 20.02L34.7669 20.776C34.3829 21.208 33.9149 21.536 33.3629 21.76C32.8189 21.984 32.2189 22.096 31.5629 22.096ZM38.648 22.072C38.008 22.072 37.44 21.932 36.944 21.652C36.448 21.372 36.056 20.988 35.768 20.5C35.48 20.004 35.336 19.444 35.336 18.82C35.336 18.188 35.48 17.628 35.768 17.14C36.056 16.652 36.448 16.272 36.944 16C37.44 15.72 38.008 15.58 38.648 15.58C39.28 15.58 39.844 15.72 40.34 16C40.844 16.272 41.236 16.652 41.516 17.14C41.804 17.62 41.948 18.18 41.948 18.82C41.948 19.452 41.804 20.012 41.516 20.5C41.236 20.988 40.844 21.372 40.34 21.652C39.844 21.932 39.28 22.072 38.648 22.072ZM38.648 21.064C39.056 21.064 39.42 20.972 39.74 20.788C40.068 20.604 40.324 20.344 40.508 20.008C40.692 19.664 40.784 19.268 40.784 18.82C40.784 18.364 40.692 17.972 40.508 17.644C40.324 17.308 40.068 17.048 39.74 16.864C39.42 16.68 39.056 16.588 38.648 16.588C38.24 16.588 37.876 16.68 37.556 16.864C37.236 17.048 36.98 17.308 36.788 17.644C36.596 17.972 36.5 18.364 36.5 18.82C36.5 19.268 36.596 19.664 36.788 20.008C36.98 20.344 37.236 20.604 37.556 20.788C37.876 20.972 38.24 21.064 38.648 21.064ZM43.5412 22V15.64H44.6452V17.332L44.4652 16.9C44.6652 16.484 44.9732 16.16 45.3892 15.928C45.8052 15.696 46.2892 15.58 46.8412 15.58C47.4492 15.58 47.9732 15.732 48.4132 16.036C48.8532 16.332 49.1412 16.784 49.2772 17.392L48.8092 17.2C49.0012 16.712 49.3372 16.32 49.8172 16.024C50.2972 15.728 50.8572 15.58 51.4972 15.58C52.0092 15.58 52.4612 15.68 52.8532 15.88C53.2452 16.08 53.5492 16.384 53.7652 16.792C53.9892 17.2 54.1012 17.716 54.1012 18.34V22H52.9492V18.472C52.9492 17.856 52.8052 17.392 52.5172 17.08C52.2292 16.768 51.8252 16.612 51.3052 16.612C50.9212 16.612 50.5852 16.692 50.2972 16.852C50.0092 17.012 49.7852 17.248 49.6252 17.56C49.4732 17.872 49.3972 18.26 49.3972 18.724V22H48.2452V18.472C48.2452 17.856 48.1012 17.392 47.8132 17.08C47.5332 16.768 47.1292 16.612 46.6012 16.612C46.2252 16.612 45.8932 16.692 45.6052 16.852C45.3172 17.012 45.0932 17.248 44.9332 17.56C44.7732 17.872 44.6932 18.26 44.6932 18.724V22H43.5412ZM59.5929 22.072C59.0649 22.072 58.5809 21.952 58.1409 21.712C57.7089 21.464 57.3609 21.1 57.0969 20.62C56.8409 20.14 56.7129 19.54 56.7129 18.82C56.7129 18.1 56.8369 17.5 57.0849 17.02C57.3409 16.54 57.6849 16.18 58.1169 15.94C58.5569 15.7 59.0489 15.58 59.5929 15.58C60.2169 15.58 60.7689 15.716 61.2489 15.988C61.7289 16.26 62.1089 16.64 62.3889 17.128C62.6689 17.608 62.8089 18.172 62.8089 18.82C62.8089 19.468 62.6689 20.036 62.3889 20.524C62.1089 21.012 61.7289 21.392 61.2489 21.664C60.7689 21.936 60.2169 22.072 59.5929 22.072ZM56.2209 24.328V15.64H57.3249V17.356L57.2529 18.832L57.3729 20.308V24.328H56.2209ZM59.4969 21.064C59.9049 21.064 60.2689 20.972 60.5889 20.788C60.9169 20.604 61.1729 20.344 61.3569 20.008C61.5489 19.664 61.6449 19.268 61.6449 18.82C61.6449 18.364 61.5489 17.972 61.3569 17.644C61.1729 17.308 60.9169 17.048 60.5889 16.864C60.2689 16.68 59.9049 16.588 59.4969 16.588C59.0969 16.588 58.7329 16.68 58.4049 16.864C58.0849 17.048 57.8289 17.308 57.6369 17.644C57.4529 17.972 57.3609 18.364 57.3609 18.82C57.3609 19.268 57.4529 19.664 57.6369 20.008C57.8289 20.344 58.0849 20.604 58.4049 20.788C58.7329 20.972 59.0969 21.064 59.4969 21.064ZM64.4006 22V13.096H65.5526V22H64.4006ZM70.5842 22.072C69.9042 22.072 69.3042 21.932 68.7842 21.652C68.2722 21.372 67.8722 20.988 67.5842 20.5C67.3042 20.012 67.1642 19.452 67.1642 18.82C67.1642 18.188 67.3002 17.628 67.5722 17.14C67.8522 16.652 68.2322 16.272 68.7122 16C69.2002 15.72 69.7482 15.58 70.3562 15.58C70.9722 15.58 71.5162 15.716 71.9882 15.988C72.4602 16.26 72.8282 16.644 73.0922 17.14C73.3642 17.628 73.5002 18.2 73.5002 18.856C73.5002 18.904 73.4962 18.96 73.4882 19.024C73.4882 19.088 73.4842 19.148 73.4762 19.204H68.0642V18.376H72.8762L72.4082 18.664C72.4162 18.256 72.3322 17.892 72.1562 17.572C71.9802 17.252 71.7362 17.004 71.4242 16.828C71.1202 16.644 70.7642 16.552 70.3562 16.552C69.9562 16.552 69.6002 16.644 69.2882 16.828C68.9762 17.004 68.7322 17.256 68.5562 17.584C68.3802 17.904 68.2922 18.272 68.2922 18.688V18.88C68.2922 19.304 68.3882 19.684 68.5802 20.02C68.7802 20.348 69.0562 20.604 69.4082 20.788C69.7602 20.972 70.1642 21.064 70.6202 21.064C70.9962 21.064 71.3362 21 71.6402 20.872C71.9522 20.744 72.2242 20.552 72.4562 20.296L73.0922 21.04C72.8042 21.376 72.4442 21.632 72.0122 21.808C71.5882 21.984 71.1122 22.072 70.5842 22.072ZM74 22L76.736 18.448L76.724 19.036L74.12 15.64H75.404L77.396 18.256H76.904L78.896 15.64H80.156L77.516 19.06L77.528 18.448L80.288 22H78.98L76.88 19.216L77.348 19.288L75.284 22H74Z" fill="black"/>
<path d="M161.8 251.792C161.8 251.636 161.77 251.558 161.71 251.558L161.296 251.756C161.296 251.672 161.248 251.612 161.152 251.576L161.008 251.558C160.912 251.558 160.792 251.6 160.648 251.684C160.624 251.624 160.594 251.564 160.558 251.504C160.522 251.444 160.492 251.39 160.468 251.342C160.312 251.042 160.156 250.712 160 250.352C159.856 249.98 159.718 249.626 159.586 249.29C159.466 248.954 159.37 248.69 159.298 248.498C159.25 248.342 159.196 248.108 159.136 247.796C159.076 247.484 159.016 247.088 158.956 246.608C159.088 246.692 159.19 246.734 159.262 246.734C159.346 246.734 159.424 246.608 159.496 246.356C159.532 246.404 159.598 246.428 159.694 246.428C159.766 246.428 159.82 246.404 159.856 246.356L160.144 245.924L160.468 246.032H160.486C160.51 246.032 160.534 246.02 160.558 245.996C160.582 245.972 160.618 245.948 160.666 245.924C160.762 245.864 160.834 245.834 160.882 245.834L160.936 245.852C161.236 245.996 161.428 246.26 161.512 246.644C161.728 247.556 161.944 248.012 162.16 248.012C162.376 248.012 162.628 247.784 162.916 247.328C163.06 247.1 163.204 246.836 163.348 246.536C163.504 246.236 163.66 245.9 163.816 245.528C163.84 245.672 163.864 245.744 163.888 245.744C163.948 245.744 164.05 245.594 164.194 245.294C164.35 244.994 164.596 244.58 164.932 244.052C165.124 243.728 165.364 243.362 165.652 242.954C165.952 242.546 166.27 242.126 166.606 241.694C166.942 241.262 167.266 240.854 167.578 240.47C167.902 240.086 168.19 239.756 168.442 239.48C168.694 239.204 168.88 239.024 169 238.94C169.456 238.628 169.816 238.328 170.08 238.04C170.068 238.124 170.05 238.202 170.026 238.274C170.014 238.334 170.008 238.376 170.008 238.4C170.008 238.448 170.032 238.472 170.08 238.472L170.584 238.22V238.292C170.584 238.388 170.608 238.436 170.656 238.436C170.692 238.436 170.764 238.382 170.872 238.274C170.98 238.166 171.04 238.088 171.052 238.04L171.016 238.292L171.628 237.932L171.484 238.256C171.676 238.124 171.814 238.058 171.898 238.058C171.946 238.058 171.982 238.088 172.006 238.148C172.03 238.196 172.042 238.244 172.042 238.292C172.042 238.364 172.012 238.448 171.952 238.544C171.892 238.64 171.814 238.754 171.718 238.886C171.646 238.982 171.526 239.126 171.358 239.318C171.202 239.498 170.962 239.768 170.638 240.128C170.314 240.476 169.882 240.962 169.342 241.586C169.198 241.742 168.976 242.018 168.676 242.414C168.376 242.798 168.034 243.248 167.65 243.764C167.278 244.268 166.906 244.778 166.534 245.294C166.162 245.81 165.832 246.278 165.544 246.698C165.256 247.106 165.052 247.412 164.932 247.616L163.816 249.506C163.576 249.914 163.378 250.25 163.222 250.514C163.066 250.766 162.946 250.94 162.862 251.036C162.682 251.252 162.484 251.444 162.268 251.612L162.106 251.522L161.962 251.612L161.8 251.792Z" fill="#00B03F"/>
<path d="M49.3414 255.232L49.1614 255.052L49.0534 255.16C48.8614 254.968 48.7654 254.812 48.7654 254.692C48.7654 254.596 48.7174 254.548 48.6214 254.548L48.4414 254.296L48.6934 253.864V253.81L48.7114 253.738C48.7114 253.654 48.6934 253.612 48.6574 253.612C48.5734 253.612 48.5014 253.54 48.4414 253.396C48.5134 253.252 48.6274 253.048 48.7834 252.784C48.9514 252.52 49.1314 252.232 49.3234 251.92C49.5154 251.608 49.7014 251.314 49.8814 251.038C50.0614 250.762 50.2054 250.552 50.3134 250.408L50.9794 249.508C51.4834 248.812 52.0294 248.128 52.6174 247.456L52.3294 246.808L52.1134 246.268C51.9574 245.872 51.8134 245.512 51.6814 245.188C51.5494 244.864 51.4414 244.576 51.3574 244.324C51.1894 243.796 51.1054 243.502 51.1054 243.442C51.1294 243.31 51.1534 243.196 51.1774 243.1C51.2134 243.004 51.2374 242.932 51.2494 242.884H51.5014C51.5374 242.788 51.5674 242.74 51.5914 242.74C51.6274 242.752 51.6754 242.788 51.7354 242.848C51.8074 242.896 51.8494 242.92 51.8614 242.92L52.0774 242.704L52.2214 242.884L52.2934 242.452C52.4374 242.452 52.5214 242.476 52.5454 242.524C52.5574 242.572 52.6054 242.602 52.6894 242.614L52.7614 242.632H52.7974L53.5534 244.18L54.2374 245.512C54.5614 245.104 54.8554 244.744 55.1194 244.432C55.3834 244.108 55.6234 243.832 55.8394 243.604C56.0674 243.364 56.2894 243.118 56.5054 242.866C56.7334 242.602 56.9734 242.32 57.2254 242.02L57.3334 242.236L57.4234 242.164L57.5674 242.092C57.5914 242.104 57.6034 242.146 57.6034 242.218C57.6034 242.29 57.6334 242.344 57.6934 242.38L57.7654 242.416C57.8374 242.416 57.9514 242.344 58.1074 242.2C58.2754 242.056 58.3654 241.984 58.3774 241.984C58.4014 241.984 58.4134 241.996 58.4134 242.02C58.4254 242.056 58.4314 242.092 58.4314 242.128C58.4314 242.164 58.4314 242.2 58.4314 242.236C58.4314 242.32 58.4554 242.392 58.5034 242.452C58.5394 242.5 58.5574 242.566 58.5574 242.65C58.5574 242.854 58.4914 243.04 58.3594 243.208C58.2154 243.388 57.3694 244.504 55.8214 246.556L55.1734 247.42L55.6414 248.392C55.9894 249.1 56.2534 249.664 56.4334 250.084C56.6254 250.492 56.7454 250.756 56.7934 250.876L56.9194 251.2C57.0994 251.668 57.1894 251.932 57.1894 251.992C57.1894 252.04 57.1654 252.082 57.1174 252.118C57.0694 252.142 57.0154 252.154 56.9554 252.154L56.9014 252.136H56.8654C56.8174 252.136 56.7574 252.184 56.6854 252.28L56.6134 252.676L56.3614 252.604L56.3434 252.658L56.2894 252.928C56.0974 252.916 55.9474 252.88 55.8394 252.82C55.7434 252.76 55.5754 252.586 55.3354 252.298C55.2154 252.154 55.0654 251.944 54.8854 251.668C54.7174 251.38 54.5134 251.032 54.2734 250.624L53.6254 249.508L52.7254 250.804C52.2814 251.452 51.8674 252.082 51.4834 252.694C51.0994 253.306 50.7694 253.864 50.4934 254.368C50.2174 254.884 49.9294 255.16 49.6294 255.196L49.4134 255.088L49.3414 255.232Z" fill="#DC0019"/>
<path d="M151 42L159.66 57H142.34L151 42Z" fill="#008CFF"/>
<path d="M151 70L159.66 85H142.34L151 70Z" fill="#008CFF"/>
<path d="M39 71L47.6603 86H30.3397L39 71Z" fill="#7F8AFF"/>
<path d="M151 98L159.66 113H142.34L151 98Z" fill="#008CFF"/>
<path d="M151 126L159.66 141H142.34L151 126Z" fill="#008CFF"/>
<path d="M151 154L159.66 169H142.34L151 154Z" fill="#008CFF"/>
<path d="M151 182L159.66 197H142.34L151 182Z" fill="#008CFF"/>
<path d="M179 42L187.66 57H170.34L179 42Z" fill="#008CFF"/>
<path d="M67 43L75.6603 58H58.3397L67 43Z" fill="#008CFF"/>
<path d="M36.0001 43L43 47.5V54L36.0001 58L29 54V47.5L36.0001 43Z" fill="#DC0019"/>
<path d="M179 70L187.66 85H170.34L179 70Z" fill="#008CFF"/>
<path d="M179 98L187.66 113H170.34L179 98Z" fill="#008CFF"/>
<path d="M179 126L187.66 141H170.34L179 126Z" fill="#008CFF"/>
<path d="M179 154L187.66 169H170.34L179 154Z" fill="#008CFF"/>
<path d="M179 182L187.66 197H170.34L179 182Z" fill="#008CFF"/>
<circle cx="66.5" cy="78.5" r="7.5" fill="#20AF20"/>
<path d="M39 99L40.7961 104.528H46.6085L41.9062 107.944L43.7023 113.472L39 110.056L34.2977 113.472L36.0938 107.944L31.3915 104.528H37.2039L39 99Z" fill="#FF7300"/>
</svg>
