<svg width="95" height="65" viewBox="0 0 95 65" fill="none" xmlns="http://www.w3.org/2000/svg">
<path d="M0 5C0 2.23858 2.23858 0 5 0H90C92.7614 0 95 2.23858 95 5V60C95 62.7614 92.7614 65 90 65H5C2.23857 65 0 62.7614 0 60V5Z" fill="white"/>
<path d="M16.9791 30.1951H17.4669V30.6829H16.9791V30.1951ZM16.9791 29.7073H17.4669V30.1951H16.9791V29.7073ZM16.9791 29.2195H17.4669V29.7073H16.9791V29.2195ZM17.4669 29.2195H17.9547V29.7073H17.4669V29.2195ZM17.4669 29.7073H17.9547V30.1951H17.4669V29.7073ZM17.9547 29.7073H18.4425V30.1951H17.9547V29.7073ZM17.9547 30.1951H18.4425V30.6829H17.9547V30.1951ZM17.4669 30.1951H17.9547V30.6829H17.4669V30.1951ZM18.4425 30.1951H18.9303V30.6829H18.4425V30.1951ZM18.4425 29.7073H18.9303V30.1951H18.4425V29.7073ZM18.4425 29.2195H18.9303V29.7073H18.4425V29.2195ZM18.4425 28.7317H18.9303V29.2195H18.4425V28.7317ZM17.9547 28.7317H18.4425V29.2195H17.9547V28.7317ZM17.9547 29.2195H18.4425V29.7073H17.9547V29.2195ZM18.9303 28.7317H19.4181V29.2195H18.9303V28.7317ZM19.4181 28.7317H19.9059V29.2195H19.4181V28.7317ZM19.9059 28.7317H20.3937V29.2195H19.9059V28.7317ZM19.9059 29.2195H20.3937V29.7073H19.9059V29.2195ZM19.9059 29.7073H20.3937V30.1951H19.9059V29.7073ZM19.9059 30.1951H20.3937V30.6829H19.9059V30.1951ZM19.4181 30.1951H19.9059V30.6829H19.4181V30.1951ZM18.9303 30.1951H19.4181V30.6829H18.9303V30.1951ZM18.9303 29.7073H19.4181V30.1951H18.9303V29.7073ZM18.9303 29.2195H19.4181V29.7073H18.9303V29.2195ZM19.4181 29.2195H19.9059V29.7073H19.4181V29.2195ZM19.4181 29.7073H19.9059V30.1951H19.4181V29.7073ZM20.3937 29.7073H20.8815V30.1951H20.3937V29.7073ZM20.3937 29.2195H20.8815V29.7073H20.3937V29.2195ZM20.8815 29.2195H21.3693V29.7073H20.8815V29.2195ZM20.8815 29.7073H21.3693V30.1951H20.8815V29.7073ZM21.3693 29.7073H21.8571V30.1951H21.3693V29.7073ZM21.3693 30.1951H21.8571V30.6829H21.3693V30.1951ZM21.3693 30.6829H21.8571V31.1707H21.3693V30.6829ZM20.8815 30.6829H21.3693V31.1707H20.8815V30.6829ZM20.8815 30.1951H21.3693V30.6829H20.8815V30.1951ZM20.3937 30.1951H20.8815V30.6829H20.3937V30.1951ZM20.3937 30.6829H20.8815V31.1707H20.3937V30.6829ZM19.9059 30.6829H20.3937V31.1707H19.9059V30.6829ZM19.4181 30.6829H19.9059V31.1707H19.4181V30.6829ZM21.8571 30.6829H22.3449V31.1707H21.8571V30.6829ZM21.8571 31.1707H22.3449V31.6585H21.8571V31.1707ZM21.8571 31.6585H22.3449V32.1463H21.8571V31.6585ZM21.8571 32.1463H22.3449V32.6341H21.8571V32.1463ZM21.8571 32.6341H22.3449V33.122H21.8571V32.6341ZM21.8571 33.122H22.3449V33.6098H21.8571V33.122ZM21.8571 33.6098H22.3449V34.0976H21.8571V33.6098ZM21.8571 34.0976H22.3449V34.5854H21.8571V34.0976ZM21.8571 34.5854H22.3449V35.0732H21.8571V34.5854ZM21.8571 35.0732H22.3449V35.561H21.8571V35.0732ZM21.3693 35.0732H21.8571V35.561H21.3693V35.0732ZM21.3693 35.561H21.8571V36.0488H21.3693V35.561ZM21.8571 35.561H22.3449V36.0488H21.8571V35.561ZM20.8815 35.561H21.3693V36.0488H20.8815V35.561ZM20.3937 35.561H20.8815V36.0488H20.3937V35.561ZM19.9059 35.561H20.3937V36.0488H19.9059V35.561ZM19.4181 35.561H19.9059V36.0488H19.4181V35.561ZM19.9059 35.0732H20.3937V35.561H19.9059V35.0732ZM19.9059 34.5854H20.3937V35.0732H19.9059V34.5854ZM19.9059 34.0976H20.3937V34.5854H19.9059V34.0976ZM19.9059 33.6098H20.3937V34.0976H19.9059V33.6098ZM19.9059 33.122H20.3937V33.6098H19.9059V33.122ZM19.9059 32.6341H20.3937V33.122H19.9059V32.6341ZM19.9059 32.1463H20.3937V32.6341H19.9059V32.1463ZM19.9059 31.6585H20.3937V32.1463H19.9059V31.6585ZM19.9059 31.1707H20.3937V31.6585H19.9059V31.1707ZM20.3937 31.1707H20.8815V31.6585H20.3937V31.1707ZM20.8815 31.1707H21.3693V31.6585H20.8815V31.1707ZM21.3693 31.1707H21.8571V31.6585H21.3693V31.1707ZM21.3693 31.6585H21.8571V32.1463H21.3693V31.6585ZM21.3693 32.1463H21.8571V32.6341H21.3693V32.1463ZM21.3693 32.6341H21.8571V33.122H21.3693V32.6341ZM21.3693 33.122H21.8571V33.6098H21.3693V33.122ZM21.3693 33.6098H21.8571V34.0976H21.3693V33.6098ZM21.3693 34.0976H21.8571V34.5854H21.3693V34.0976ZM21.3693 34.5854H21.8571V35.0732H21.3693V34.5854ZM20.8815 35.0732H21.3693V35.561H20.8815V35.0732ZM20.3937 35.0732H20.8815V35.561H20.3937V35.0732ZM20.3937 34.5854H20.8815V35.0732H20.3937V34.5854ZM20.3937 34.0976H20.8815V34.5854H20.3937V34.0976ZM20.3937 33.6098H20.8815V34.0976H20.3937V33.6098ZM20.3937 33.122H20.8815V33.6098H20.3937V33.122ZM20.8815 33.122H21.3693V33.6098H20.8815V33.122ZM20.8815 32.6341H21.3693V33.122H20.8815V32.6341ZM20.8815 32.1463H21.3693V32.6341H20.8815V32.1463ZM20.8815 31.6585H21.3693V32.1463H20.8815V31.6585ZM20.3937 31.6585H20.8815V32.1463H20.3937V31.6585ZM20.3937 32.1463H20.8815V32.6341H20.3937V32.1463ZM20.3937 32.6341H20.8815V33.122H20.3937V32.6341ZM20.8815 34.0976H21.3693V34.5854H20.8815V34.0976ZM20.8815 34.5854H21.3693V35.0732H20.8815V34.5854ZM20.8815 33.6098H21.3693V34.0976H20.8815V33.6098ZM16.9791 36.0488H17.4669V36.5366H16.9791V36.0488ZM17.4669 37.5122H17.9547V38H17.4669V37.5122ZM17.9547 37.5122H18.4425V38H17.9547V37.5122ZM18.4425 37.5122H18.9303V38H18.4425V37.5122ZM18.9303 37.5122H19.4181V38H18.9303V37.5122ZM19.4181 37.5122H19.9059V38H19.4181V37.5122ZM19.9059 37.5122H20.3937V38H19.9059V37.5122ZM19.4181 37.0244H19.9059V37.5122H19.4181V37.0244ZM18.9303 37.0244H19.4181V37.5122H18.9303V37.0244ZM18.4425 37.0244H18.9303V37.5122H18.4425V37.0244ZM17.9547 37.0244H18.4425V37.5122H17.9547V37.0244ZM17.4669 37.0244H17.9547V37.5122H17.4669V37.0244ZM16.9791 37.0244H17.4669V37.5122H16.9791V37.0244ZM16.9791 36.5366H17.4669V37.0244H16.9791V36.5366ZM17.4669 36.5366H17.9547V37.0244H17.4669V36.5366ZM17.9547 36.5366H18.4425V37.0244H17.9547V36.5366ZM18.4425 36.5366H18.9303V37.0244H18.4425V36.5366ZM18.9303 36.5366H19.4181V37.0244H18.9303V36.5366ZM19.4181 36.5366H19.9059V37.0244H19.4181V36.5366ZM19.9059 37.0244H20.3937V37.5122H19.9059V37.0244ZM20.3937 37.0244H20.8815V37.5122H20.3937V37.0244ZM20.8815 37.0244H21.3693V37.5122H20.8815V37.0244ZM20.8815 36.5366H21.3693V37.0244H20.8815V36.5366ZM21.3693 36.5366H21.8571V37.0244H21.3693V36.5366ZM21.3693 36.0488H21.8571V36.5366H21.3693V36.0488ZM20.8815 36.0488H21.3693V36.5366H20.8815V36.0488ZM20.3937 36.0488H20.8815V36.5366H20.3937V36.0488ZM19.9059 36.0488H20.3937V36.5366H19.9059V36.0488ZM19.4181 36.0488H19.9059V36.5366H19.4181V36.0488ZM18.9303 36.0488H19.4181V36.5366H18.9303V36.0488ZM18.4425 36.0488H18.9303V36.5366H18.4425V36.0488ZM17.9547 36.0488H18.4425V36.5366H17.9547V36.0488ZM17.4669 36.0488H17.9547V36.5366H17.4669V36.0488ZM19.9059 36.5366H20.3937V37.0244H19.9059V36.5366ZM20.3937 36.5366H20.8815V37.0244H20.3937V36.5366ZM16.4913 36.5366H16.9791V37.0244H16.4913V36.5366ZM16.4913 36.0488H16.9791V36.5366H16.4913V36.0488ZM16.4913 35.561H16.9791V36.0488H16.4913V35.561ZM16.4913 35.0732H16.9791V35.561H16.4913V35.0732ZM16.4913 34.5854H16.9791V35.0732H16.4913V34.5854ZM16.4913 34.0976H16.9791V34.5854H16.4913V34.0976ZM16.4913 33.6098H16.9791V34.0976H16.4913V33.6098ZM16.4913 33.122H16.9791V33.6098H16.4913V33.122ZM16.4913 32.6341H16.9791V33.122H16.4913V32.6341ZM16.4913 32.1463H16.9791V32.6341H16.4913V32.1463ZM16.4913 31.6585H16.9791V32.1463H16.4913V31.6585ZM16.4913 31.1707H16.9791V31.6585H16.4913V31.1707ZM16.4913 30.6829H16.9791V31.1707H16.4913V30.6829ZM16.0035 30.6829H16.4913V31.1707H16.0035V30.6829ZM16.0035 31.1707H16.4913V31.6585H16.0035V31.1707ZM16.0035 31.6585H16.4913V32.1463H16.0035V31.6585ZM16.0035 32.1463H16.4913V32.6341H16.0035V32.1463ZM16.0035 32.6341H16.4913V33.122H16.0035V32.6341ZM16.0035 33.122H16.4913V33.6098H16.0035V33.122ZM16.0035 33.6098H16.4913V34.0976H16.0035V33.6098ZM15.5157 34.0976H16.0035V34.5854H15.5157V34.0976ZM15.5157 34.5854H16.0035V35.0732H15.5157V34.5854ZM15.5157 35.0732H16.0035V35.561H15.5157V35.0732ZM15.5157 35.561H16.0035V36.0488H15.5157V35.561ZM15.5157 36.0488H16.0035V36.5366H15.5157V36.0488ZM15.5157 36.5366H16.0035V37.0244H15.5157V36.5366ZM15.5157 37.0244H16.0035V37.5122H15.5157V37.0244ZM15.5157 37.5122H16.0035V38H15.5157V37.5122ZM15.0279 37.5122H15.5157V38H15.0279V37.5122ZM14.5401 37.5122H15.0279V38H14.5401V37.5122ZM14.5401 37.0244H15.0279V37.5122H14.5401V37.0244ZM14.5401 36.5366H15.0279V37.0244H14.5401V36.5366ZM14.5401 36.0488H15.0279V36.5366H14.5401V36.0488ZM14.5401 35.561H15.0279V36.0488H14.5401V35.561ZM14.5401 35.0732H15.0279V35.561H14.5401V35.0732ZM14.5401 34.5854H15.0279V35.0732H14.5401V34.5854ZM14.5401 34.0976H15.0279V34.5854H14.5401V34.0976ZM15.0279 34.0976H15.5157V34.5854H15.0279V34.0976ZM15.0279 33.6098H15.5157V34.0976H15.0279V33.6098ZM15.0279 34.5854H15.5157V35.0732H15.0279V34.5854ZM15.0279 35.0732H15.5157V35.561H15.0279V35.0732ZM15.0279 35.561H15.5157V36.0488H15.0279V35.561ZM15.0279 36.0488H15.5157V36.5366H15.0279V36.0488ZM15.0279 36.5366H15.5157V37.0244H15.0279V36.5366ZM15.0279 37.0244H15.5157V37.5122H15.0279V37.0244ZM16.0035 36.5366H16.4913V37.0244H16.0035V36.5366ZM16.0035 36.0488H16.4913V36.5366H16.0035V36.0488ZM16.0035 35.561H16.4913V36.0488H16.0035V35.561ZM16.0035 35.0732H16.4913V35.561H16.0035V35.0732ZM16.0035 34.5854H16.4913V35.0732H16.0035V34.5854ZM16.0035 34.0976H16.4913V34.5854H16.0035V34.0976ZM16.4913 25.8049H16.9791V26.2927H16.4913V25.8049ZM16.4913 26.2927H16.9791V26.7805H16.4913V26.2927ZM16.4913 26.7805H16.9791V27.2683H16.4913V26.7805ZM16.4913 27.2683H16.9791V27.7561H16.4913V27.2683ZM16.4913 27.7561H16.9791V28.2439H16.4913V27.7561ZM16.4913 28.2439H16.9791V28.7317H16.4913V28.2439ZM16.4913 29.2195H16.9791V29.7073H16.4913V29.2195ZM16.4913 30.1951H16.9791V30.6829H16.4913V30.1951ZM15.0279 25.8049H15.5157V26.2927H15.0279V25.8049ZM15.0279 26.2927H15.5157V26.7805H15.0279V26.2927ZM15.0279 26.7805H15.5157V27.2683H15.0279V26.7805ZM15.0279 27.2683H15.5157V27.7561H15.0279V27.2683ZM15.0279 27.7561H15.5157V28.2439H15.0279V27.7561ZM15.0279 28.2439H15.5157V28.7317H15.0279V28.2439ZM15.0279 29.2195H15.5157V29.7073H15.0279V29.2195ZM15.0279 29.7073H15.5157V30.1951H15.0279V29.7073ZM15.0279 30.1951H15.5157V30.6829H15.0279V30.1951ZM15.0279 31.1707H15.5157V31.6585H15.0279V31.1707ZM15.0279 31.6585H15.5157V32.1463H15.0279V31.6585ZM15.0279 32.1463H15.5157V32.6341H15.0279V32.1463ZM14.5401 32.6341H15.0279V33.122H14.5401V32.6341ZM14.5401 33.122H15.0279V33.6098H14.5401V33.122ZM14.5401 33.6098H15.0279V34.0976H14.5401V33.6098ZM14.5401 32.1463H15.0279V32.6341H14.5401V32.1463ZM14.5401 31.6585H15.0279V32.1463H14.5401V31.6585ZM14.5401 30.6829H15.0279V31.1707H14.5401V30.6829ZM14.5401 30.1951H15.0279V30.6829H14.5401V30.1951ZM14.5401 29.7073H15.0279V30.1951H14.5401V29.7073ZM14.5401 29.2195H15.0279V29.7073H14.5401V29.2195ZM14.5401 28.7317H15.0279V29.2195H14.5401V28.7317ZM14.5401 28.2439H15.0279V28.7317H14.5401V28.2439ZM14.5401 27.7561H15.0279V28.2439H14.5401V27.7561ZM15.0279 28.7317H15.5157V29.2195H15.0279V28.7317ZM14.5401 27.2683H15.0279V27.7561H14.5401V27.2683ZM14.5401 26.7805H15.0279V27.2683H14.5401V26.7805ZM14.5401 26.2927H15.0279V26.7805H14.5401V26.2927ZM14.5401 25.8049H15.0279V26.2927H14.5401V25.8049ZM15.5157 25.8049H16.0035V26.2927H15.5157V25.8049ZM16.0035 25.8049H16.4913V26.2927H16.0035V25.8049ZM16.0035 26.2927H16.4913V26.7805H16.0035V26.2927ZM15.5157 26.2927H16.0035V26.7805H15.5157V26.2927ZM15.5157 26.7805H16.0035V27.2683H15.5157V26.7805ZM15.5157 27.2683H16.0035V27.7561H15.5157V27.2683ZM15.5157 27.7561H16.0035V28.2439H15.5157V27.7561ZM15.5157 28.2439H16.0035V28.7317H15.5157V28.2439ZM15.5157 28.7317H16.0035V29.2195H15.5157V28.7317ZM15.5157 29.2195H16.0035V29.7073H15.5157V29.2195ZM16.0035 29.7073H16.4913V30.1951H16.0035V29.7073ZM16.0035 30.1951H16.4913V30.6829H16.0035V30.1951ZM16.0035 29.2195H16.4913V29.7073H16.0035V29.2195ZM16.0035 28.7317H16.4913V29.2195H16.0035V28.7317ZM16.0035 28.2439H16.4913V28.7317H16.0035V28.2439ZM16.0035 27.7561H16.4913V28.2439H16.0035V27.7561ZM16.0035 27.2683H16.4913V27.7561H16.0035V27.2683ZM16.0035 26.7805H16.4913V27.2683H16.0035V26.7805ZM15.5157 30.1951H16.0035V30.6829H15.5157V30.1951ZM15.5157 31.1707H16.0035V31.6585H15.5157V31.1707ZM15.5157 31.6585H16.0035V32.1463H15.5157V31.6585ZM15.5157 32.1463H16.0035V32.6341H15.5157V32.1463ZM15.5157 32.6341H16.0035V33.122H15.5157V32.6341ZM15.5157 33.122H16.0035V33.6098H15.5157V33.122ZM15.5157 33.6098H16.0035V34.0976H15.5157V33.6098ZM15.0279 33.122H15.5157V33.6098H15.0279V33.122ZM15.0279 32.6341H15.5157V33.122H15.0279V32.6341ZM16.4913 28.7317H16.9791V29.2195H16.4913V28.7317ZM14.5401 31.1707H15.0279V31.6585H14.5401V31.1707ZM16.4913 29.7073H16.9791V30.1951H16.4913V29.7073ZM15.5157 29.7073H16.0035V30.1951H15.5157V29.7073ZM15.5157 30.6829H16.0035V31.1707H15.5157V30.6829ZM15.0279 30.6829H15.5157V31.1707H15.0279V30.6829ZM16.9791 37.5122H17.4669V38H16.9791V37.5122ZM16.4913 37.0244H16.9791V37.5122H16.4913V37.0244ZM16.0035 37.0244H16.4913V37.5122H16.0035V37.0244ZM16.0035 37.5122H16.4913V38H16.0035V37.5122ZM17.9547 28.7317V29.2195H17.4669V28.7317H17.9547ZM16.9791 37.5122V38H16.4913V37.5122H16.9791ZM17.4669 30.6829V31.1707H16.9791V30.6829H17.4669Z" fill="#B22222"/>
<path d="M24.3052 37.5122V38H23.8174V37.5122H24.3052ZM24.3052 37.0244V37.5122H23.8174V37.0244H24.3052ZM24.3052 36.5366V37.0244H23.8174V36.5366H24.3052ZM24.3052 36.0488V36.5366H23.8174V36.0488H24.3052ZM24.3052 35.561V36.0488H23.8174V35.561H24.3052ZM24.3052 35.0732V35.561H23.8174V35.0732H24.3052ZM24.3052 34.5854V35.0732H23.8174V34.5854H24.3052ZM24.3052 34.0976V34.5854H23.8174V34.0976H24.3052ZM24.3052 33.6098V34.0976H23.8174V33.6098H24.3052ZM24.3052 33.122V33.6098H23.8174V33.122H24.3052ZM24.3052 32.6341V33.122H23.8174V32.6341H24.3052ZM24.3052 32.1463V32.6341H23.8174V32.1463H24.3052ZM24.3052 31.6585V32.1463H23.8174V31.6585H24.3052ZM24.3052 31.1707V31.6585H23.8174V31.1707H24.3052ZM24.3052 30.6829V31.1707H23.8174V30.6829H24.3052ZM24.793 30.6829V31.1707H24.3052V30.6829H24.793ZM24.793 31.1707V31.6585H24.3052V31.1707H24.793ZM24.793 31.6585V32.1463H24.3052V31.6585H24.793ZM24.793 32.1463V32.6341H24.3052V32.1463H24.793ZM24.793 32.6341V33.122H24.3052V32.6341H24.793ZM24.793 33.122V33.6098H24.3052V33.122H24.793ZM24.793 33.6098V34.0976H24.3052V33.6098H24.793ZM25.2808 34.0976V34.5854H24.793V34.0976H25.2808ZM25.2808 34.5854V35.0732H24.793V34.5854H25.2808ZM25.2808 35.0732V35.561H24.793V35.0732H25.2808ZM25.2808 35.561V36.0488H24.793V35.561H25.2808ZM25.2808 36.0488V36.5366H24.793V36.0488H25.2808ZM25.2808 36.5366V37.0244H24.793V36.5366H25.2808ZM25.2808 37.0244V37.5122H24.793V37.0244H25.2808ZM25.2808 37.5122V38H24.793V37.5122H25.2808ZM25.7686 37.5122V38H25.2808V37.5122H25.7686ZM26.2564 37.5122V38H25.7686V37.5122H26.2564ZM26.2564 37.0244V37.5122H25.7686V37.0244H26.2564ZM26.2564 36.5366V37.0244H25.7686V36.5366H26.2564ZM26.2564 36.0488V36.5366H25.7686V36.0488H26.2564ZM26.2564 35.561V36.0488H25.7686V35.561H26.2564ZM26.2564 35.0732V35.561H25.7686V35.0732H26.2564ZM26.2564 34.5854V35.0732H25.7686V34.5854H26.2564ZM26.2564 34.0976V34.5854H25.7686V34.0976H26.2564ZM25.7686 34.0976V34.5854H25.2808V34.0976H25.7686ZM25.7686 33.6098V34.0976H25.2808V33.6098H25.7686ZM25.7686 34.5854V35.0732H25.2808V34.5854H25.7686ZM25.7686 35.0732V35.561H25.2808V35.0732H25.7686ZM25.7686 35.561V36.0488H25.2808V35.561H25.7686ZM25.7686 36.0488V36.5366H25.2808V36.0488H25.7686ZM25.7686 36.5366V37.0244H25.2808V36.5366H25.7686ZM25.7686 37.0244V37.5122H25.2808V37.0244H25.7686ZM24.793 37.5122V38H24.3052V37.5122H24.793ZM24.793 37.0244V37.5122H24.3052V37.0244H24.793ZM24.793 36.5366V37.0244H24.3052V36.5366H24.793ZM24.793 36.0488V36.5366H24.3052V36.0488H24.793ZM24.793 35.561V36.0488H24.3052V35.561H24.793ZM24.793 35.0732V35.561H24.3052V35.0732H24.793ZM24.793 34.5854V35.0732H24.3052V34.5854H24.793ZM24.793 34.0976V34.5854H24.3052V34.0976H24.793ZM24.3052 28.7317V29.2195H23.8174V28.7317H24.3052ZM24.3052 29.2195V29.7073H23.8174V29.2195H24.3052ZM24.3052 29.7073V30.1951H23.8174V29.7073H24.3052ZM24.3052 30.1951V30.6829H23.8174V30.1951H24.3052ZM25.7686 29.2195V29.7073H25.2808V29.2195H25.7686ZM25.7686 29.7073V30.1951H25.2808V29.7073H25.7686ZM25.7686 30.1951V30.6829H25.2808V30.1951H25.7686ZM25.7686 30.6829V31.1707H25.2808V30.6829H25.7686ZM25.7686 31.1707V31.6585H25.2808V31.1707H25.7686ZM25.7686 31.6585V32.1463H25.2808V31.6585H25.7686ZM25.7686 32.1463V32.6341H25.2808V32.1463H25.7686ZM26.2564 32.6341V33.122H25.7686V32.6341H26.2564ZM26.2564 33.122V33.6098H25.7686V33.122H26.2564ZM26.2564 33.6098V34.0976H25.7686V33.6098H26.2564ZM26.2564 32.1463V32.6341H25.7686V32.1463H26.2564ZM26.2564 31.6585V32.1463H25.7686V31.6585H26.2564ZM26.2564 31.1707V31.6585H25.7686V31.1707H26.2564ZM26.2564 30.6829V31.1707H25.7686V30.6829H26.2564ZM26.2564 30.1951V30.6829H25.7686V30.1951H26.2564ZM26.2564 29.7073V30.1951H25.7686V29.7073H26.2564ZM26.2564 29.2195V29.7073H25.7686V29.2195H26.2564ZM26.2564 28.7317V29.2195H25.7686V28.7317H26.2564ZM25.7686 28.7317V29.2195H25.2808V28.7317H25.7686ZM25.2808 28.7317V29.2195H24.793V28.7317H25.2808ZM25.2808 29.2195V29.7073H24.793V29.2195H25.2808ZM24.793 29.7073V30.1951H24.3052V29.7073H24.793ZM24.793 30.1951V30.6829H24.3052V30.1951H24.793ZM24.793 29.2195V29.7073H24.3052V29.2195H24.793ZM24.793 28.7317V29.2195H24.3052V28.7317H24.793ZM25.2808 29.7073V30.1951H24.793V29.7073H25.2808ZM25.2808 30.1951V30.6829H24.793V30.1951H25.2808ZM25.2808 30.6829V31.1707H24.793V30.6829H25.2808ZM25.2808 31.1707V31.6585H24.793V31.1707H25.2808ZM25.2808 31.6585V32.1463H24.793V31.6585H25.2808ZM25.2808 32.1463V32.6341H24.793V32.1463H25.2808ZM25.2808 32.6341V33.122H24.793V32.6341H25.2808ZM25.2808 33.122V33.6098H24.793V33.122H25.2808ZM25.2808 33.6098V34.0976H24.793V33.6098H25.2808ZM25.7686 33.122V33.6098H25.2808V33.122H25.7686ZM25.7686 32.6341V33.122H25.2808V32.6341H25.7686ZM29.6711 30.6829V31.1707H29.1833V30.6829H29.6711ZM29.6711 28.7317V29.2195H29.1833V28.7317H29.6711ZM29.6711 29.2195V29.7073H29.1833V29.2195H29.6711ZM30.1589 29.2195V29.7073H29.6711V29.2195H30.1589ZM30.6467 29.7073V30.1951H30.1589V29.7073H30.6467ZM30.1589 30.1951V30.6829H29.6711V30.1951H30.1589ZM30.1589 29.7073V30.1951H29.6711V29.7073H30.1589ZM29.6711 29.7073V30.1951H29.1833V29.7073H29.6711ZM29.1833 29.7073V30.1951H28.6955V29.7073H29.1833ZM29.1833 30.1951V30.6829H28.6955V30.1951H29.1833ZM29.6711 30.1951V30.6829H29.1833V30.1951H29.6711ZM29.1833 30.6829V31.1707H28.6955V30.6829H29.1833ZM28.6955 30.1951V30.6829H28.2076V30.1951H28.6955ZM28.6955 29.7073V30.1951H28.2076V29.7073H28.6955ZM28.6955 29.2195V29.7073H28.2076V29.2195H28.6955ZM28.6955 28.7317V29.2195H28.2076V28.7317H28.6955ZM29.1833 28.7317V29.2195H28.6955V28.7317H29.1833ZM29.1833 29.2195V29.7073H28.6955V29.2195H29.1833ZM28.2076 28.7317V29.2195H27.7198V28.7317H28.2076ZM28.2076 29.2195V29.7073H27.7198V29.2195H28.2076ZM28.2076 29.7073V30.1951H27.7198V29.7073H28.2076ZM28.2076 30.1951V30.6829H27.7198V30.1951H28.2076ZM27.7198 28.7317V29.2195H27.232V28.7317H27.7198ZM27.7198 29.2195V29.7073H27.232V29.2195H27.7198ZM27.232 29.2195V29.7073H26.7442V29.2195H27.232ZM27.232 29.7073V30.1951H26.7442V29.7073H27.232ZM26.7442 29.7073V30.1951H26.2564V29.7073H26.7442ZM26.7442 30.1951V30.6829H26.2564V30.1951H26.7442ZM27.232 30.1951V30.6829H26.7442V30.1951H27.232ZM27.7198 30.1951V30.6829H27.232V30.1951H27.7198ZM27.7198 29.7073V30.1951H27.232V29.7073H27.7198ZM26.7442 30.6829V31.1707H26.2564V30.6829H26.7442ZM27.232 28.7317V29.2195H26.7442V28.7317H27.232ZM26.7442 29.2195V29.7073H26.2564V29.2195H26.7442ZM28.6955 30.6829V31.1707H28.2076V30.6829H28.6955ZM29.1833 31.1707V31.6585H28.6955V31.1707H29.1833Z" fill="#B22222"/>
<path d="M33.0933 35.0732V34.5854H33.5811V35.0732H33.0933ZM32.6055 35.0732V34.5854H33.0933V35.0732H32.6055ZM32.1177 35.0732V34.5854H32.6055V35.0732H32.1177ZM31.6299 35.0732V34.5854H32.1177V35.0732H31.6299ZM31.1421 35.0732V34.5854H31.6299V35.0732H31.1421ZM31.1421 35.561V35.0732H31.6299V35.561H31.1421ZM31.1421 36.0488V35.561H31.6299V36.0488H31.1421ZM31.6299 36.0488V35.561H32.1177V36.0488H31.6299ZM32.1177 36.0488V35.561H32.6055V36.0488H32.1177ZM32.6055 36.0488V35.561H33.0933V36.0488H32.6055ZM32.6055 35.561V35.0732H33.0933V35.561H32.6055ZM33.0933 35.561V35.0732H33.5811V35.561H33.0933ZM32.1177 35.561V35.0732H32.6055V35.561H32.1177ZM31.6299 35.561V35.0732H32.1177V35.561H31.6299ZM33.0933 36.0488V35.561H33.5811V36.0488H33.0933ZM33.5811 36.0488V35.561H34.0689V36.0488H33.5811ZM33.5811 36.5366V36.0488H34.0689V36.5366H33.5811ZM33.0933 36.5366V36.0488H33.5811V36.5366H33.0933ZM32.6055 36.5366V36.0488H33.0933V36.5366H32.6055ZM32.1177 36.5366V36.0488H32.6055V36.5366H32.1177ZM31.6299 36.5366V36.0488H32.1177V36.5366H31.6299ZM31.6299 37.0244V36.5366H32.1177V37.0244H31.6299ZM32.1177 37.0244V36.5366H32.6055V37.0244H32.1177ZM32.6055 37.0244V36.5366H33.0933V37.0244H32.6055ZM33.0933 37.0244V36.5366H33.5811V37.0244H33.0933ZM33.5811 37.0244V36.5366H34.0689V37.0244H33.5811ZM32.6055 37.5122V37.0244H33.0933V37.5122H32.6055ZM32.1177 37.5122V37.0244H32.6055V37.5122H32.1177ZM33.0933 37.5122V37.0244H33.5811V37.5122H33.0933ZM33.0933 38V37.5122H33.5811V38H33.0933ZM33.5811 38V37.5122H34.0689V38H33.5811ZM33.5811 37.5122V37.0244H34.0689V37.5122H33.5811ZM34.0689 37.5122V37.0244H34.5567V37.5122H34.0689ZM34.0689 38V37.5122H34.5567V38H34.0689ZM34.0689 37.0244V36.5366H34.5567V37.0244H34.0689ZM34.5567 37.0244V36.5366H35.0445V37.0244H34.5567ZM34.5567 36.5366V36.0488H35.0445V36.5366H34.5567ZM34.0689 36.5366V36.0488H34.5567V36.5366H34.0689ZM35.0445 36.5366V36.0488H35.5323V36.5366H35.0445ZM35.0445 37.0244V36.5366H35.5323V37.0244H35.0445ZM35.0445 37.5122V37.0244H35.5323V37.5122H35.0445ZM35.0445 38V37.5122H35.5323V38H35.0445ZM34.5567 38V37.5122H35.0445V38H34.5567ZM34.5567 37.5122V37.0244H35.0445V37.5122H34.5567ZM35.5323 38V37.5122H36.0201V38H35.5323ZM36.508 37.5122V37.0244H36.9958V37.5122H36.508ZM36.508 37.0244V36.5366H36.9958V37.0244H36.508ZM36.508 36.5366V36.0488H36.9958V36.5366H36.508ZM36.0201 36.5366V36.0488H36.508V36.5366H36.0201ZM35.5323 36.5366V36.0488H36.0201V36.5366H35.5323ZM35.5323 37.0244V36.5366H36.0201V37.0244H35.5323ZM35.5323 37.5122V37.0244H36.0201V37.5122H35.5323ZM36.0201 37.5122V37.0244H36.508V37.5122H36.0201ZM36.0201 37.0244V36.5366H36.508V37.0244H36.0201ZM36.9958 37.0244V36.5366H37.4836V37.0244H36.9958ZM36.9958 37.5122V37.0244H37.4836V37.5122H36.9958ZM37.4836 37.5122V37.0244H37.9714V37.5122H37.4836ZM37.4836 37.0244V36.5366H37.9714V37.0244H37.4836ZM37.9714 37.0244V36.5366H38.4592V37.0244H37.9714ZM37.9714 36.5366V36.0488H38.4592V36.5366H37.9714ZM37.9714 36.0488V35.561H38.4592V36.0488H37.9714ZM37.4836 36.0488V35.561H37.9714V36.0488H37.4836ZM37.4836 36.5366V36.0488H37.9714V36.5366H37.4836ZM36.9958 36.5366V36.0488H37.4836V36.5366H36.9958ZM36.9958 36.0488V35.561H37.4836V36.0488H36.9958ZM36.508 36.0488V35.561H36.9958V36.0488H36.508ZM38.4592 36.0488V35.561H38.947V36.0488H38.4592ZM38.4592 35.561V35.0732H38.947V35.561H38.4592ZM38.4592 35.0732V34.5854H38.947V35.0732H38.4592ZM38.4592 34.5854V34.0976H38.947V34.5854H38.4592ZM38.4592 34.0976V33.6098H38.947V34.0976H38.4592ZM38.4592 33.6098V33.122H38.947V33.6098H38.4592ZM38.4592 33.122V32.6341H38.947V33.122H38.4592ZM38.4592 32.6341V32.1463H38.947V32.6341H38.4592ZM38.4592 32.1463V31.6585H38.947V32.1463H38.4592ZM38.4592 31.6585V31.1707H38.947V31.6585H38.4592ZM37.9714 31.6585V31.1707H38.4592V31.6585H37.9714ZM37.9714 31.1707V30.6829H38.4592V31.1707H37.9714ZM38.4592 31.1707V30.6829H38.947V31.1707H38.4592ZM37.4836 31.1707V30.6829H37.9714V31.1707H37.4836ZM36.9958 31.1707V30.6829H37.4836V31.1707H36.9958ZM36.508 31.1707V30.6829H36.9958V31.1707H36.508ZM36.0201 31.1707V30.6829H36.508V31.1707H36.0201ZM36.508 31.6585V31.1707H36.9958V31.6585H36.508ZM36.508 32.1463V31.6585H36.9958V32.1463H36.508ZM36.508 32.6341V32.1463H36.9958V32.6341H36.508ZM36.508 33.122V32.6341H36.9958V33.122H36.508ZM36.508 33.6098V33.122H36.9958V33.6098H36.508ZM36.508 34.0976V33.6098H36.9958V34.0976H36.508ZM36.508 34.5854V34.0976H36.9958V34.5854H36.508ZM36.508 35.0732V34.5854H36.9958V35.0732H36.508ZM36.508 35.561V35.0732H36.9958V35.561H36.508ZM36.9958 35.561V35.0732H37.4836V35.561H36.9958ZM37.4836 35.561V35.0732H37.9714V35.561H37.4836ZM37.9714 35.561V35.0732H38.4592V35.561H37.9714ZM37.9714 35.0732V34.5854H38.4592V35.0732H37.9714ZM37.9714 34.5854V34.0976H38.4592V34.5854H37.9714ZM37.9714 34.0976V33.6098H38.4592V34.0976H37.9714ZM37.9714 33.6098V33.122H38.4592V33.6098H37.9714ZM37.9714 33.122V32.6341H38.4592V33.122H37.9714ZM37.9714 32.6341V32.1463H38.4592V32.6341H37.9714ZM37.9714 32.1463V31.6585H38.4592V32.1463H37.9714ZM37.4836 31.6585V31.1707H37.9714V31.6585H37.4836ZM36.9958 31.6585V31.1707H37.4836V31.6585H36.9958ZM36.9958 32.1463V31.6585H37.4836V32.1463H36.9958ZM36.9958 32.6341V32.1463H37.4836V32.6341H36.9958ZM36.9958 33.122V32.6341H37.4836V33.122H36.9958ZM36.9958 33.6098V33.122H37.4836V33.6098H36.9958ZM37.4836 33.6098V33.122H37.9714V33.6098H37.4836ZM37.4836 34.0976V33.6098H37.9714V34.0976H37.4836ZM37.4836 34.5854V34.0976H37.9714V34.5854H37.4836ZM37.4836 35.0732V34.5854H37.9714V35.0732H37.4836ZM36.9958 35.0732V34.5854H37.4836V35.0732H36.9958ZM36.9958 34.5854V34.0976H37.4836V34.5854H36.9958ZM36.9958 34.0976V33.6098H37.4836V34.0976H36.9958ZM37.4836 32.6341V32.1463H37.9714V32.6341H37.4836ZM37.4836 32.1463V31.6585H37.9714V32.1463H37.4836ZM37.4836 33.122V32.6341H37.9714V33.122H37.4836ZM33.0933 31.6585V31.1707H33.5811V31.6585H33.0933ZM32.6055 31.6585V31.1707H33.0933V31.6585H32.6055ZM32.1177 31.6585V31.1707H32.6055V31.6585H32.1177ZM31.6299 31.6585V31.1707H32.1177V31.6585H31.6299ZM31.1421 31.6585V31.1707H31.6299V31.6585H31.1421ZM31.1421 31.1707V30.6829H31.6299V31.1707H31.1421ZM31.6299 31.1707V30.6829H32.1177V31.1707H31.6299ZM32.1177 31.1707V30.6829H32.6055V31.1707H32.1177ZM32.6055 31.1707V30.6829H33.0933V31.1707H32.6055ZM33.0933 31.1707V30.6829H33.5811V31.1707H33.0933ZM33.5811 31.1707V30.6829H34.0689V31.1707H33.5811ZM33.5811 30.6829V30.1951H34.0689V30.6829H33.5811ZM33.0933 30.6829V30.1951H33.5811V30.6829H33.0933ZM32.6055 30.6829V30.1951H33.0933V30.6829H32.6055ZM32.1177 30.6829V30.1951H32.6055V30.6829H32.1177ZM32.1177 30.1951V29.7073H32.6055V30.1951H32.1177ZM31.6299 30.1951V29.7073H32.1177V30.1951H31.6299ZM31.6299 30.6829V30.1951H32.1177V30.6829H31.6299ZM32.1177 29.7073V29.2195H32.6055V29.7073H32.1177ZM32.6055 29.7073V29.2195H33.0933V29.7073H32.6055ZM32.6055 30.1951V29.7073H33.0933V30.1951H32.6055ZM33.0933 30.1951V29.7073H33.5811V30.1951H33.0933ZM33.0933 29.7073V29.2195H33.5811V29.7073H33.0933ZM33.0933 29.2195V28.7317H33.5811V29.2195H33.0933ZM33.5811 29.2195V28.7317H34.0689V29.2195H33.5811ZM34.0689 29.2195V28.7317H34.5567V29.2195H34.0689ZM34.5567 29.2195V28.7317H35.0445V29.2195H34.5567ZM35.0445 29.2195V28.7317H35.5323V29.2195H35.0445ZM35.5323 29.2195V28.7317H36.0201V29.2195H35.5323ZM36.0201 29.2195V28.7317H36.508V29.2195H36.0201ZM36.508 29.2195V28.7317H36.9958V29.2195H36.508ZM36.0201 29.7073V29.2195H36.508V29.7073H36.0201ZM35.5323 29.7073V29.2195H36.0201V29.7073H35.5323ZM35.0445 29.7073V29.2195H35.5323V29.7073H35.0445ZM34.5567 29.7073V29.2195H35.0445V29.7073H34.5567ZM34.0689 29.7073V29.2195H34.5567V29.7073H34.0689ZM33.5811 29.7073V29.2195H34.0689V29.7073H33.5811ZM33.5811 30.1951V29.7073H34.0689V30.1951H33.5811ZM34.0689 30.1951V29.7073H34.5567V30.1951H34.0689ZM34.5567 30.1951V29.7073H35.0445V30.1951H34.5567ZM35.0445 30.1951V29.7073H35.5323V30.1951H35.0445ZM35.5323 30.1951V29.7073H36.0201V30.1951H35.5323ZM36.0201 30.1951V29.7073H36.508V30.1951H36.0201ZM36.508 29.7073V29.2195H36.9958V29.7073H36.508ZM36.9958 29.7073V29.2195H37.4836V29.7073H36.9958ZM37.4836 29.7073V29.2195H37.9714V29.7073H37.4836ZM37.4836 30.1951V29.7073H37.9714V30.1951H37.4836ZM37.9714 30.1951V29.7073H38.4592V30.1951H37.9714ZM37.9714 30.6829V30.1951H38.4592V30.6829H37.9714ZM37.4836 30.6829V30.1951H37.9714V30.6829H37.4836ZM36.9958 30.6829V30.1951H37.4836V30.6829H36.9958ZM36.508 30.6829V30.1951H36.9958V30.6829H36.508ZM36.0201 30.6829V30.1951H36.508V30.6829H36.0201ZM35.5323 30.6829V30.1951H36.0201V30.6829H35.5323ZM35.0445 30.6829V30.1951H35.5323V30.6829H35.0445ZM34.5567 30.6829V30.1951H35.0445V30.6829H34.5567ZM34.0689 30.6829V30.1951H34.5567V30.6829H34.0689ZM36.508 30.1951V29.7073H36.9958V30.1951H36.508ZM36.9958 30.1951V29.7073H37.4836V30.1951H36.9958ZM31.6299 34.5854V34.0976H32.1177V34.5854H31.6299ZM32.1177 34.5854V34.0976H32.6055V34.5854H32.1177ZM32.6055 34.5854V34.0976H33.0933V34.5854H32.6055ZM33.0933 34.5854V34.0976H33.5811V34.5854H33.0933ZM32.1177 34.0976V33.6098H32.6055V34.0976H32.1177ZM32.6055 34.0976V33.6098H33.0933V34.0976H32.6055ZM33.5811 34.0976V33.6098H34.0689V34.0976H33.5811ZM34.0689 34.0976V33.6098H34.5567V34.0976H34.0689ZM34.5567 34.0976V33.6098H35.0445V34.0976H34.5567ZM35.0445 34.0976V33.6098H35.5323V34.0976H35.0445ZM35.5323 34.0976V33.6098H36.0201V34.0976H35.5323ZM36.0201 34.0976V33.6098H36.508V34.0976H36.0201ZM33.0933 34.0976V33.6098H33.5811V34.0976H33.0933ZM31.6299 34.0976V33.6098H32.1177V34.0976H31.6299ZM32.1177 33.6098V33.122H32.6055V33.6098H32.1177ZM32.6055 33.6098V33.122H33.0933V33.6098H32.6055ZM33.0933 33.6098V33.122H33.5811V33.6098H33.0933ZM33.5811 33.6098V33.122H34.0689V33.6098H33.5811ZM34.0689 33.6098V33.122H34.5567V33.6098H34.0689ZM34.5567 33.6098V33.122H35.0445V33.6098H34.5567ZM35.0445 33.6098V33.122H35.5323V33.6098H35.0445ZM35.5323 33.6098V33.122H36.0201V33.6098H35.5323ZM36.0201 33.6098V33.122H36.508V33.6098H36.0201ZM36.0201 33.122V32.6341H36.508V33.122H36.0201ZM35.5323 33.122V32.6341H36.0201V33.122H35.5323ZM35.0445 33.122V32.6341H35.5323V33.122H35.0445ZM34.0689 33.122V32.6341H34.5567V33.122H34.0689ZM33.5811 33.122V32.6341H34.0689V33.122H33.5811ZM33.0933 33.122V32.6341H33.5811V33.122H33.0933ZM34.5567 33.122V32.6341H35.0445V33.122H34.5567ZM38.947 36.0488V36.5366H38.4592V36.0488H38.947ZM38.947 36.5366V37.0244H38.4592V36.5366H38.947ZM38.947 37.0244V37.5122H38.4592V37.0244H38.947ZM38.947 37.5122V38H38.4592V37.5122H38.947ZM38.4592 37.5122V38H37.9714V37.5122H38.4592ZM38.4592 37.0244V37.5122H37.9714V37.0244H38.4592ZM37.9714 37.5122V38H37.4836V37.5122H37.9714ZM37.4836 37.5122V38H36.9958V37.5122H37.4836ZM36.9958 37.5122V38H36.508V37.5122H36.9958ZM36.508 35.561V36.0488H36.0201V35.561H36.508ZM33.0933 37.5122V38H32.6055V37.5122H33.0933ZM34.0689 34.0976V34.5854H33.5811V34.0976H34.0689Z" fill="#B22222"/>
<path d="M48.2243 28.7317V29.2195H47.7365V28.7317H48.2243ZM47.7365 28.7317V29.2195H47.2487V28.7317H47.7365ZM47.2487 28.7317V29.2195H46.7609V28.7317H47.2487ZM46.7609 28.7317V29.2195H46.2731V28.7317H46.7609ZM46.2731 28.7317V29.2195H45.7853V28.7317H46.2731ZM46.2731 29.2195V29.7073H45.7853V29.2195H46.2731ZM46.2731 29.7073V30.1951H45.7853V29.7073H46.2731ZM46.2731 30.1951V30.6829H45.7853V30.1951H46.2731ZM46.2731 30.6829V31.1707H45.7853V30.6829H46.2731ZM46.2731 31.1707V31.6585H45.7853V31.1707H46.2731ZM46.2731 31.6585V32.1463H45.7853V31.6585H46.2731ZM46.2731 32.1463V32.6341H45.7853V32.1463H46.2731ZM46.2731 32.6341V33.122H45.7853V32.6341H46.2731ZM46.2731 33.122V33.6098H45.7853V33.122H46.2731ZM46.2731 33.6098V34.0976H45.7853V33.6098H46.2731ZM46.2731 34.0976V34.5854H45.7853V34.0976H46.2731ZM46.2731 34.5854V35.0732H45.7853V34.5854H46.2731ZM46.2731 35.0732V35.561H45.7853V35.0732H46.2731ZM46.2731 35.561V36.0488H45.7853V35.561H46.2731ZM46.7609 36.0488V36.5366H46.2731V36.0488H46.7609ZM47.2487 36.0488V36.5366H46.7609V36.0488H47.2487ZM47.7365 36.0488V36.5366H47.2487V36.0488H47.7365ZM48.2243 36.0488V36.5366H47.7365V36.0488H48.2243ZM48.2243 35.561V36.0488H47.7365V35.561H48.2243ZM48.2243 35.0732V35.561H47.7365V35.0732H48.2243ZM48.2243 34.5854V35.0732H47.7365V34.5854H48.2243ZM48.2243 34.0976V34.5854H47.7365V34.0976H48.2243ZM48.2243 33.6098V34.0976H47.7365V33.6098H48.2243ZM48.2243 33.122V33.6098H47.7365V33.122H48.2243ZM48.2243 32.6341V33.122H47.7365V32.6341H48.2243ZM48.2243 32.1463V32.6341H47.7365V32.1463H48.2243ZM48.2243 31.6585V32.1463H47.7365V31.6585H48.2243ZM48.2243 31.1707V31.6585H47.7365V31.1707H48.2243ZM48.2243 30.6829V31.1707H47.7365V30.6829H48.2243ZM48.2243 30.1951V30.6829H47.7365V30.1951H48.2243ZM47.7365 29.7073V30.1951H47.2487V29.7073H47.7365ZM47.7365 29.2195V29.7073H47.2487V29.2195H47.7365ZM48.2243 29.2195V29.7073H47.7365V29.2195H48.2243ZM48.2243 29.7073V30.1951H47.7365V29.7073H48.2243ZM47.2487 29.7073V30.1951H46.7609V29.7073H47.2487ZM46.7609 29.7073V30.1951H46.2731V29.7073H46.7609ZM46.7609 29.2195V29.7073H46.2731V29.2195H46.7609ZM47.2487 29.2195V29.7073H46.7609V29.2195H47.2487ZM47.2487 30.1951V30.6829H46.7609V30.1951H47.2487ZM47.2487 30.6829V31.1707H46.7609V30.6829H47.2487ZM47.2487 31.1707V31.6585H46.7609V31.1707H47.2487ZM47.2487 31.6585V32.1463H46.7609V31.6585H47.2487ZM47.2487 32.1463V32.6341H46.7609V32.1463H47.2487ZM47.2487 32.6341V33.122H46.7609V32.6341H47.2487ZM47.2487 33.122V33.6098H46.7609V33.122H47.2487ZM47.2487 33.6098V34.0976H46.7609V33.6098H47.2487ZM47.2487 34.0976V34.5854H46.7609V34.0976H47.2487ZM46.7609 34.5854V35.0732H46.2731V34.5854H46.7609ZM46.7609 35.0732V35.561H46.2731V35.0732H46.7609ZM46.7609 35.561V36.0488H46.2731V35.561H46.7609ZM47.2487 35.561V36.0488H46.7609V35.561H47.2487ZM47.2487 35.0732V35.561H46.7609V35.0732H47.2487ZM47.2487 34.5854V35.0732H46.7609V34.5854H47.2487ZM46.7609 30.6829V31.1707H46.2731V30.6829H46.7609ZM46.7609 30.1951V30.6829H46.2731V30.1951H46.7609ZM46.7609 31.1707V31.6585H46.2731V31.1707H46.7609ZM46.7609 31.6585V32.1463H46.2731V31.6585H46.7609ZM46.7609 32.1463V32.6341H46.2731V32.1463H46.7609ZM46.7609 32.6341V33.122H46.2731V32.6341H46.7609ZM46.7609 33.122V33.6098H46.2731V33.122H46.7609ZM46.7609 33.6098V34.0976H46.2731V33.6098H46.7609ZM46.7609 34.0976V34.5854H46.2731V34.0976H46.7609ZM47.7365 35.561V36.0488H47.2487V35.561H47.7365ZM47.7365 35.0732V35.561H47.2487V35.0732H47.7365ZM47.7365 34.5854V35.0732H47.2487V34.5854H47.7365ZM47.7365 34.0976V34.5854H47.2487V34.0976H47.7365ZM47.7365 33.6098V34.0976H47.2487V33.6098H47.7365ZM47.7365 33.122V33.6098H47.2487V33.122H47.7365ZM47.7365 32.6341V33.122H47.2487V32.6341H47.7365ZM47.7365 32.1463V32.6341H47.2487V32.1463H47.7365ZM47.7365 31.6585V32.1463H47.2487V31.6585H47.7365ZM47.7365 31.1707V31.6585H47.2487V31.1707H47.7365ZM47.7365 30.6829V31.1707H47.2487V30.6829H47.7365ZM47.7365 30.1951V30.6829H47.2487V30.1951H47.7365ZM46.2731 36.0488V36.5366H45.7853V36.0488H46.2731ZM46.2731 36.5366V37.0244H45.7853V36.5366H46.2731ZM46.2731 37.0244V37.5122H45.7853V37.0244H46.2731ZM46.2731 37.5122V38H45.7853V37.5122H46.2731ZM46.2731 38V38.4878H45.7853V38H46.2731ZM46.7609 38V38.4878H46.2731V38H46.7609ZM47.2487 38V38.4878H46.7609V38H47.2487ZM47.7365 38V38.4878H47.2487V38H47.7365ZM48.2243 38V38.4878H47.7365V38H48.2243ZM48.2243 38.4878V38.9756H47.7365V38.4878H48.2243ZM47.7365 38.4878V38.9756H47.2487V38.4878H47.7365ZM47.2487 38.4878V38.9756H46.7609V38.4878H47.2487ZM46.7609 38.4878V38.9756H46.2731V38.4878H46.7609ZM46.2731 38.4878V38.9756H45.7853V38.4878H46.2731ZM45.7853 38.4878V38.9756H45.2975V38.4878H45.7853ZM46.2731 38.9756V39.4634H45.7853V38.9756H46.2731ZM46.7609 38.9756V39.4634H46.2731V38.9756H46.7609ZM47.2487 38.9756V39.4634H46.7609V38.9756H47.2487ZM47.7365 38.9756V39.4634H47.2487V38.9756H47.7365ZM47.7365 39.4634V39.9512H47.2487V39.4634H47.7365ZM47.2487 39.4634V39.9512H46.7609V39.4634H47.2487ZM47.2487 39.9512V40.439H46.7609V39.9512H47.2487ZM46.7609 39.9512V40.439H46.2731V39.9512H46.7609ZM46.2731 39.9512V40.439H45.7853V39.9512H46.2731ZM46.2731 40.439V40.9268H45.7853V40.439H46.2731ZM45.7853 40.439V40.9268H45.2975V40.439H45.7853ZM45.2975 40.439V40.9268H44.8097V40.439H45.2975ZM44.8097 40.439V40.9268H44.3219V40.439H44.8097ZM44.3219 40.439V40.9268H43.8341V40.439H44.3219ZM43.8341 40.439V40.9268H43.3463V40.439H43.8341ZM43.3463 40.439V40.9268H42.8585V40.439H43.3463ZM42.8585 40.439V40.9268H42.3707V40.439H42.8585ZM42.8585 39.9512V40.439H42.3707V39.9512H42.8585ZM42.3707 39.9512V40.439H41.8829V39.9512H42.3707ZM41.8829 39.9512V40.439H41.3951V39.9512H41.8829ZM41.8829 39.4634V39.9512H41.3951V39.4634H41.8829ZM41.3951 39.4634V39.9512H40.9072V39.4634H41.3951ZM41.3951 38.9756V39.4634H40.9072V38.9756H41.3951ZM41.3951 38.4878V38.9756H40.9072V38.4878H41.3951ZM40.9072 38.4878V38.9756H40.4194V38.4878H40.9072ZM40.9072 38V38.4878H40.4194V38H40.9072ZM41.3951 38V38.4878H40.9072V38H41.3951ZM41.8829 38V38.4878H41.3951V38H41.8829ZM42.3707 38V38.4878H41.8829V38H42.3707ZM42.8585 38V38.4878H42.3707V38H42.8585ZM42.8585 38.4878V38.9756H42.3707V38.4878H42.8585ZM43.3463 38.4878V38.9756H42.8585V38.4878H43.3463ZM43.3463 38.9756V39.4634H42.8585V38.9756H43.3463ZM43.8341 38.9756V39.4634H43.3463V38.9756H43.8341ZM44.3219 38.9756V39.4634H43.8341V38.9756H44.3219ZM44.8097 38.9756V39.4634H44.3219V38.9756H44.8097ZM45.2975 38.9756V39.4634H44.8097V38.9756H45.2975ZM45.7853 38.9756V39.4634H45.2975V38.9756H45.7853ZM46.7609 39.4634V39.9512H46.2731V39.4634H46.7609ZM46.2731 39.4634V39.9512H45.7853V39.4634H46.2731ZM45.7853 39.4634V39.9512H45.2975V39.4634H45.7853ZM45.2975 39.4634V39.9512H44.8097V39.4634H45.2975ZM44.8097 39.4634V39.9512H44.3219V39.4634H44.8097ZM44.3219 39.4634V39.9512H43.8341V39.4634H44.3219ZM44.3219 39.9512V40.439H43.8341V39.9512H44.3219ZM43.8341 39.9512V40.439H43.3463V39.9512H43.8341ZM43.3463 39.9512V40.439H42.8585V39.9512H43.3463ZM42.8585 39.4634V39.9512H42.3707V39.4634H42.8585ZM43.3463 39.4634V39.9512H42.8585V39.4634H43.3463ZM43.8341 39.4634V39.9512H43.3463V39.4634H43.8341ZM45.7853 39.9512V40.439H45.2975V39.9512H45.7853ZM45.2975 39.9512V40.439H44.8097V39.9512H45.2975ZM44.8097 39.9512V40.439H44.3219V39.9512H44.8097ZM42.3707 39.4634V39.9512H41.8829V39.4634H42.3707ZM42.3707 38.9756V39.4634H41.8829V38.9756H42.3707ZM42.8585 38.9756V39.4634H42.3707V38.9756H42.8585ZM41.8829 38.9756V39.4634H41.3951V38.9756H41.8829ZM41.8829 38.4878V38.9756H41.3951V38.4878H41.8829ZM42.3707 38.4878V38.9756H41.8829V38.4878H42.3707ZM46.7609 36.5366V37.0244H46.2731V36.5366H46.7609ZM47.2487 36.5366V37.0244H46.7609V36.5366H47.2487ZM47.7365 36.5366V37.0244H47.2487V36.5366H47.7365ZM48.2243 36.5366V37.0244H47.7365V36.5366H48.2243ZM48.2243 37.0244V37.5122H47.7365V37.0244H48.2243ZM48.2243 37.5122V38H47.7365V37.5122H48.2243ZM47.7365 37.5122V38H47.2487V37.5122H47.7365ZM47.2487 37.5122V38H46.7609V37.5122H47.2487ZM46.7609 37.5122V38H46.2731V37.5122H46.7609ZM46.7609 37.0244V37.5122H46.2731V37.0244H46.7609ZM47.2487 37.0244V37.5122H46.7609V37.0244H47.2487ZM47.7365 37.0244V37.5122H47.2487V37.0244H47.7365ZM43.8341 35.0732V35.561H43.3463V35.0732H43.8341ZM44.3219 35.0732V35.561H43.8341V35.0732H44.3219ZM44.8097 35.0732V35.561H44.3219V35.0732H44.8097ZM45.2975 35.0732V35.561H44.8097V35.0732H45.2975ZM45.7853 35.0732V35.561H45.2975V35.0732H45.7853ZM45.7853 35.561V36.0488H45.2975V35.561H45.7853ZM45.2975 36.5366V37.0244H44.8097V36.5366H45.2975ZM44.8097 36.5366V37.0244H44.3219V36.5366H44.8097ZM44.3219 36.5366V37.0244H43.8341V36.5366H44.3219ZM43.8341 36.5366V37.0244H43.3463V36.5366H43.8341ZM43.3463 36.5366V37.0244H42.8585V36.5366H43.3463ZM43.3463 36.0488V36.5366H42.8585V36.0488H43.3463ZM43.3463 35.561V36.0488H42.8585V35.561H43.3463ZM43.8341 35.561V36.0488H43.3463V35.561H43.8341ZM44.3219 35.561V36.0488H43.8341V35.561H44.3219ZM44.3219 36.0488V36.5366H43.8341V36.0488H44.3219ZM43.8341 36.0488V36.5366H43.3463V36.0488H43.8341ZM44.8097 35.561V36.0488H44.3219V35.561H44.8097ZM45.2975 35.561V36.0488H44.8097V35.561H45.2975ZM45.2975 36.0488V36.5366H44.8097V36.0488H45.2975ZM44.8097 36.0488V36.5366H44.3219V36.0488H44.8097ZM45.7853 36.0488V36.5366H45.2975V36.0488H45.7853ZM42.8585 36.5366V37.0244H42.3707V36.5366H42.8585ZM42.8585 36.0488V36.5366H42.3707V36.0488H42.8585ZM42.3707 36.0488V36.5366H41.8829V36.0488H42.3707ZM41.8829 36.0488V36.5366H41.3951V36.0488H41.8829ZM41.8829 35.561V36.0488H41.3951V35.561H41.8829ZM41.3951 35.561V36.0488H40.9072V35.561H41.3951ZM41.3951 35.0732V35.561H40.9072V35.0732H41.3951ZM41.3951 34.5854V35.0732H40.9072V34.5854H41.3951ZM41.8829 34.5854V35.0732H41.3951V34.5854H41.8829ZM40.9072 34.5854V35.0732H40.4194V34.5854H40.9072ZM40.9072 34.0976V34.5854H40.4194V34.0976H40.9072ZM41.3951 34.0976V34.5854H40.9072V34.0976H41.3951ZM42.8585 35.0732V35.561H42.3707V35.0732H42.8585ZM43.3463 35.0732V35.561H42.8585V35.0732H43.3463ZM43.3463 34.5854V35.0732H42.8585V34.5854H43.3463ZM42.8585 34.5854V35.0732H42.3707V34.5854H42.8585ZM42.3707 34.5854V35.0732H41.8829V34.5854H42.3707ZM42.3707 35.0732V35.561H41.8829V35.0732H42.3707ZM42.3707 35.561V36.0488H41.8829V35.561H42.3707ZM42.8585 35.561V36.0488H42.3707V35.561H42.8585ZM41.8829 35.0732V35.561H41.3951V35.0732H41.8829ZM42.3707 34.0976V34.5854H41.8829V34.0976H42.3707ZM42.8585 34.0976V34.5854H42.3707V34.0976H42.8585ZM42.8585 33.6098V34.0976H42.3707V33.6098H42.8585ZM42.8585 33.122V33.6098H42.3707V33.122H42.8585ZM42.8585 32.6341V33.122H42.3707V32.6341H42.8585ZM42.8585 32.1463V32.6341H42.3707V32.1463H42.8585ZM42.8585 31.6585V32.1463H42.3707V31.6585H42.8585ZM42.8585 31.1707V31.6585H42.3707V31.1707H42.8585ZM42.3707 31.1707V31.6585H41.8829V31.1707H42.3707ZM41.8829 31.1707V31.6585H41.3951V31.1707H41.8829ZM41.3951 31.1707V31.6585H40.9072V31.1707H41.3951ZM41.3951 30.6829V31.1707H40.9072V30.6829H41.3951ZM40.9072 30.6829V31.1707H40.4194V30.6829H40.9072ZM40.9072 31.1707V31.6585H40.4194V31.1707H40.9072ZM40.9072 31.6585V32.1463H40.4194V31.6585H40.9072ZM40.9072 32.1463V32.6341H40.4194V32.1463H40.9072ZM40.9072 32.6341V33.122H40.4194V32.6341H40.9072ZM40.9072 33.122V33.6098H40.4194V33.122H40.9072ZM40.9072 33.6098V34.0976H40.4194V33.6098H40.9072ZM41.8829 34.0976V34.5854H41.3951V34.0976H41.8829ZM42.3707 33.6098V34.0976H41.8829V33.6098H42.3707ZM42.3707 33.122V33.6098H41.8829V33.122H42.3707ZM42.3707 32.6341V33.122H41.8829V32.6341H42.3707ZM42.3707 32.1463V32.6341H41.8829V32.1463H42.3707ZM42.3707 31.6585V32.1463H41.8829V31.6585H42.3707ZM41.8829 31.6585V32.1463H41.3951V31.6585H41.8829ZM41.3951 31.6585V32.1463H40.9072V31.6585H41.3951ZM41.3951 32.1463V32.6341H40.9072V32.1463H41.3951ZM41.3951 33.6098V34.0976H40.9072V33.6098H41.3951ZM41.3951 33.122V33.6098H40.9072V33.122H41.3951ZM41.8829 33.122V33.6098H41.3951V33.122H41.8829ZM41.8829 32.6341V33.122H41.3951V32.6341H41.8829ZM41.8829 32.1463V32.6341H41.3951V32.1463H41.8829ZM41.3951 32.6341V33.122H40.9072V32.6341H41.3951ZM41.8829 33.6098V34.0976H41.3951V33.6098H41.8829ZM45.2975 28.7317V29.2195H44.8097V28.7317H45.2975ZM44.8097 28.7317V29.2195H44.3219V28.7317H44.8097ZM44.3219 28.7317V29.2195H43.8341V28.7317H44.3219ZM43.8341 28.7317V29.2195H43.3463V28.7317H43.8341ZM43.3463 28.7317V29.2195H42.8585V28.7317H43.3463ZM42.8585 28.7317V29.2195H42.3707V28.7317H42.8585ZM42.8585 29.2195V29.7073H42.3707V29.2195H42.8585ZM42.3707 29.2195V29.7073H41.8829V29.2195H42.3707ZM41.8829 29.2195V29.7073H41.3951V29.2195H41.8829ZM41.8829 29.7073V30.1951H41.3951V29.7073H41.8829ZM41.3951 29.7073V30.1951H40.9072V29.7073H41.3951ZM41.8829 30.1951V30.6829H41.3951V30.1951H41.8829ZM41.8829 30.6829V31.1707H41.3951V30.6829H41.8829ZM41.3951 30.1951V30.6829H40.9072V30.1951H41.3951ZM42.3707 30.1951V30.6829H41.8829V30.1951H42.3707ZM42.8585 30.1951V30.6829H42.3707V30.1951H42.8585ZM42.8585 30.6829V31.1707H42.3707V30.6829H42.8585ZM43.3463 30.6829V31.1707H42.8585V30.6829H43.3463ZM42.3707 30.6829V31.1707H41.8829V30.6829H42.3707ZM42.8585 29.7073V30.1951H42.3707V29.7073H42.8585ZM42.3707 29.7073V30.1951H41.8829V29.7073H42.3707ZM43.3463 29.7073V30.1951H42.8585V29.7073H43.3463ZM43.3463 30.1951V30.6829H42.8585V30.1951H43.3463ZM43.8341 30.1951V30.6829H43.3463V30.1951H43.8341ZM43.8341 29.7073V30.1951H43.3463V29.7073H43.8341ZM44.3219 29.7073V30.1951H43.8341V29.7073H44.3219ZM44.8097 29.7073V30.1951H44.3219V29.7073H44.8097ZM45.2975 29.7073V30.1951H44.8097V29.7073H45.2975ZM45.7853 29.7073V30.1951H45.2975V29.7073H45.7853ZM45.7853 30.1951V30.6829H45.2975V30.1951H45.7853ZM45.2975 30.1951V30.6829H44.8097V30.1951H45.2975ZM44.8097 30.1951V30.6829H44.3219V30.1951H44.8097ZM44.3219 30.1951V30.6829H43.8341V30.1951H44.3219ZM43.3463 29.2195V29.7073H42.8585V29.2195H43.3463ZM43.8341 29.2195V29.7073H43.3463V29.2195H43.8341ZM44.3219 29.2195V29.7073H43.8341V29.2195H44.3219ZM44.8097 29.2195V29.7073H44.3219V29.2195H44.8097ZM45.2975 29.2195V29.7073H44.8097V29.2195H45.2975ZM45.7853 29.2195V29.7073H45.2975V29.2195H45.7853ZM45.7853 28.7317V29.2195H45.2975V28.7317H45.7853ZM45.7853 34.5854V35.0732H45.2975V34.5854H45.7853Z" fill="#B22222"/>
<path d="M57.5017 28.7317V29.2195H57.0139V28.7317H57.5017ZM57.0139 28.7317V29.2195H56.5261V28.7317H57.0139ZM56.5261 28.7317V29.2195H56.0383V28.7317H56.5261ZM56.0383 28.7317V29.2195H55.5504V28.7317H56.0383ZM55.5504 28.7317V29.2195H55.0626V28.7317H55.5504ZM55.5504 29.2195V29.7073H55.0626V29.2195H55.5504ZM55.5504 29.7073V30.1951H55.0626V29.7073H55.5504ZM55.5504 30.1951V30.6829H55.0626V30.1951H55.5504ZM55.5504 30.6829V31.1707H55.0626V30.6829H55.5504ZM55.5504 31.1707V31.6585H55.0626V31.1707H55.5504ZM55.5504 31.6585V32.1463H55.0626V31.6585H55.5504ZM55.5504 32.1463V32.6341H55.0626V32.1463H55.5504ZM55.5504 32.6341V33.122H55.0626V32.6341H55.5504ZM55.5504 33.122V33.6098H55.0626V33.122H55.5504ZM55.5504 33.6098V34.0976H55.0626V33.6098H55.5504ZM55.5504 34.0976V34.5854H55.0626V34.0976H55.5504ZM55.5504 34.5854V35.0732H55.0626V34.5854H55.5504ZM55.5504 35.0732V35.561H55.0626V35.0732H55.5504ZM55.5504 35.561V36.0488H55.0626V35.561H55.5504ZM56.0383 36.0488V36.5366H55.5504V36.0488H56.0383ZM56.5261 36.0488V36.5366H56.0383V36.0488H56.5261ZM57.0139 36.0488V36.5366H56.5261V36.0488H57.0139ZM57.5017 36.0488V36.5366H57.0139V36.0488H57.5017ZM57.5017 35.561V36.0488H57.0139V35.561H57.5017ZM57.5017 35.0732V35.561H57.0139V35.0732H57.5017ZM57.5017 34.5854V35.0732H57.0139V34.5854H57.5017ZM57.5017 34.0976V34.5854H57.0139V34.0976H57.5017ZM57.5017 33.6098V34.0976H57.0139V33.6098H57.5017ZM57.5017 33.122V33.6098H57.0139V33.122H57.5017ZM57.5017 32.6341V33.122H57.0139V32.6341H57.5017ZM57.5017 32.1463V32.6341H57.0139V32.1463H57.5017ZM57.5017 31.6585V32.1463H57.0139V31.6585H57.5017ZM57.5017 31.1707V31.6585H57.0139V31.1707H57.5017ZM57.5017 30.6829V31.1707H57.0139V30.6829H57.5017ZM57.5017 30.1951V30.6829H57.0139V30.1951H57.5017ZM57.0139 29.7073V30.1951H56.5261V29.7073H57.0139ZM57.0139 29.2195V29.7073H56.5261V29.2195H57.0139ZM57.5017 29.2195V29.7073H57.0139V29.2195H57.5017ZM57.5017 29.7073V30.1951H57.0139V29.7073H57.5017ZM56.5261 29.7073V30.1951H56.0383V29.7073H56.5261ZM56.0383 29.7073V30.1951H55.5504V29.7073H56.0383ZM56.0383 29.2195V29.7073H55.5504V29.2195H56.0383ZM56.5261 29.2195V29.7073H56.0383V29.2195H56.5261ZM56.5261 30.1951V30.6829H56.0383V30.1951H56.5261ZM56.5261 30.6829V31.1707H56.0383V30.6829H56.5261ZM56.5261 31.1707V31.6585H56.0383V31.1707H56.5261ZM56.5261 31.6585V32.1463H56.0383V31.6585H56.5261ZM56.5261 32.1463V32.6341H56.0383V32.1463H56.5261ZM56.5261 32.6341V33.122H56.0383V32.6341H56.5261ZM56.5261 33.122V33.6098H56.0383V33.122H56.5261ZM56.5261 33.6098V34.0976H56.0383V33.6098H56.5261ZM56.5261 34.0976V34.5854H56.0383V34.0976H56.5261ZM56.0383 34.5854V35.0732H55.5504V34.5854H56.0383ZM56.0383 35.0732V35.561H55.5504V35.0732H56.0383ZM56.0383 35.561V36.0488H55.5504V35.561H56.0383ZM56.5261 35.561V36.0488H56.0383V35.561H56.5261ZM56.5261 35.0732V35.561H56.0383V35.0732H56.5261ZM56.5261 34.5854V35.0732H56.0383V34.5854H56.5261ZM56.0383 30.6829V31.1707H55.5504V30.6829H56.0383ZM56.0383 30.1951V30.6829H55.5504V30.1951H56.0383ZM56.0383 31.1707V31.6585H55.5504V31.1707H56.0383ZM56.0383 31.6585V32.1463H55.5504V31.6585H56.0383ZM56.0383 32.1463V32.6341H55.5504V32.1463H56.0383ZM56.0383 32.6341V33.122H55.5504V32.6341H56.0383ZM56.0383 33.122V33.6098H55.5504V33.122H56.0383ZM56.0383 33.6098V34.0976H55.5504V33.6098H56.0383ZM56.0383 34.0976V34.5854H55.5504V34.0976H56.0383ZM57.0139 35.561V36.0488H56.5261V35.561H57.0139ZM57.0139 35.0732V35.561H56.5261V35.0732H57.0139ZM57.0139 34.5854V35.0732H56.5261V34.5854H57.0139ZM57.0139 34.0976V34.5854H56.5261V34.0976H57.0139ZM57.0139 33.6098V34.0976H56.5261V33.6098H57.0139ZM57.0139 33.122V33.6098H56.5261V33.122H57.0139ZM57.0139 32.6341V33.122H56.5261V32.6341H57.0139ZM57.0139 32.1463V32.6341H56.5261V32.1463H57.0139ZM57.0139 31.6585V32.1463H56.5261V31.6585H57.0139ZM57.0139 31.1707V31.6585H56.5261V31.1707H57.0139ZM57.0139 30.6829V31.1707H56.5261V30.6829H57.0139ZM57.0139 30.1951V30.6829H56.5261V30.1951H57.0139ZM55.5504 36.0488V36.5366H55.0626V36.0488H55.5504ZM55.5504 36.5366V37.0244H55.0626V36.5366H55.5504ZM55.5504 37.0244V37.5122H55.0626V37.0244H55.5504ZM55.5504 37.5122V38H55.0626V37.5122H55.5504ZM55.5504 38V38.4878H55.0626V38H55.5504ZM56.0383 38V38.4878H55.5504V38H56.0383ZM56.5261 38V38.4878H56.0383V38H56.5261ZM57.0139 38V38.4878H56.5261V38H57.0139ZM57.5017 38V38.4878H57.0139V38H57.5017ZM57.5017 38.4878V38.9756H57.0139V38.4878H57.5017ZM57.0139 38.4878V38.9756H56.5261V38.4878H57.0139ZM56.5261 38.4878V38.9756H56.0383V38.4878H56.5261ZM56.0383 38.4878V38.9756H55.5504V38.4878H56.0383ZM55.5504 38.4878V38.9756H55.0626V38.4878H55.5504ZM55.0626 38.4878V38.9756H54.5748V38.4878H55.0626ZM55.5504 38.9756V39.4634H55.0626V38.9756H55.5504ZM56.0383 38.9756V39.4634H55.5504V38.9756H56.0383ZM56.5261 38.9756V39.4634H56.0383V38.9756H56.5261ZM57.0139 38.9756V39.4634H56.5261V38.9756H57.0139ZM57.0139 39.4634V39.9512H56.5261V39.4634H57.0139ZM56.5261 39.4634V39.9512H56.0383V39.4634H56.5261ZM56.5261 39.9512V40.439H56.0383V39.9512H56.5261ZM56.0383 39.9512V40.439H55.5504V39.9512H56.0383ZM55.5504 39.9512V40.439H55.0626V39.9512H55.5504ZM55.5504 40.439V40.9268H55.0626V40.439H55.5504ZM55.0626 40.439V40.9268H54.5748V40.439H55.0626ZM54.5748 40.439V40.9268H54.087V40.439H54.5748ZM54.087 40.439V40.9268H53.5992V40.439H54.087ZM53.5992 40.439V40.9268H53.1114V40.439H53.5992ZM53.1114 40.439V40.9268H52.6236V40.439H53.1114ZM52.6236 40.439V40.9268H52.1358V40.439H52.6236ZM52.1358 40.439V40.9268H51.648V40.439H52.1358ZM52.1358 39.9512V40.439H51.648V39.9512H52.1358ZM51.648 39.9512V40.439H51.1602V39.9512H51.648ZM51.1602 39.9512V40.439H50.6724V39.9512H51.1602ZM51.1602 39.4634V39.9512H50.6724V39.4634H51.1602ZM50.6724 39.4634V39.9512H50.1846V39.4634H50.6724ZM50.6724 38.9756V39.4634H50.1846V38.9756H50.6724ZM50.6724 38.4878V38.9756H50.1846V38.4878H50.6724ZM50.1846 38.4878V38.9756H49.6968V38.4878H50.1846ZM50.1846 38V38.4878H49.6968V38H50.1846ZM50.6724 38V38.4878H50.1846V38H50.6724ZM51.1602 38V38.4878H50.6724V38H51.1602ZM51.648 38V38.4878H51.1602V38H51.648ZM52.1358 38V38.4878H51.648V38H52.1358ZM52.1358 38.4878V38.9756H51.648V38.4878H52.1358ZM52.6236 38.4878V38.9756H52.1358V38.4878H52.6236ZM52.6236 38.9756V39.4634H52.1358V38.9756H52.6236ZM53.1114 38.9756V39.4634H52.6236V38.9756H53.1114ZM53.5992 38.9756V39.4634H53.1114V38.9756H53.5992ZM54.087 38.9756V39.4634H53.5992V38.9756H54.087ZM54.5748 38.9756V39.4634H54.087V38.9756H54.5748ZM55.0626 38.9756V39.4634H54.5748V38.9756H55.0626ZM56.0383 39.4634V39.9512H55.5504V39.4634H56.0383ZM55.5504 39.4634V39.9512H55.0626V39.4634H55.5504ZM55.0626 39.4634V39.9512H54.5748V39.4634H55.0626ZM54.5748 39.4634V39.9512H54.087V39.4634H54.5748ZM54.087 39.4634V39.9512H53.5992V39.4634H54.087ZM53.5992 39.4634V39.9512H53.1114V39.4634H53.5992ZM53.5992 39.9512V40.439H53.1114V39.9512H53.5992ZM53.1114 39.9512V40.439H52.6236V39.9512H53.1114ZM52.6236 39.9512V40.439H52.1358V39.9512H52.6236ZM52.1358 39.4634V39.9512H51.648V39.4634H52.1358ZM52.6236 39.4634V39.9512H52.1358V39.4634H52.6236ZM53.1114 39.4634V39.9512H52.6236V39.4634H53.1114ZM55.0626 39.9512V40.439H54.5748V39.9512H55.0626ZM54.5748 39.9512V40.439H54.087V39.9512H54.5748ZM54.087 39.9512V40.439H53.5992V39.9512H54.087ZM51.648 39.4634V39.9512H51.1602V39.4634H51.648ZM51.648 38.9756V39.4634H51.1602V38.9756H51.648ZM52.1358 38.9756V39.4634H51.648V38.9756H52.1358ZM51.1602 38.9756V39.4634H50.6724V38.9756H51.1602ZM51.1602 38.4878V38.9756H50.6724V38.4878H51.1602ZM51.648 38.4878V38.9756H51.1602V38.4878H51.648ZM56.0383 36.5366V37.0244H55.5504V36.5366H56.0383ZM56.5261 36.5366V37.0244H56.0383V36.5366H56.5261ZM57.0139 36.5366V37.0244H56.5261V36.5366H57.0139ZM57.5017 36.5366V37.0244H57.0139V36.5366H57.5017ZM57.5017 37.0244V37.5122H57.0139V37.0244H57.5017ZM57.5017 37.5122V38H57.0139V37.5122H57.5017ZM57.0139 37.5122V38H56.5261V37.5122H57.0139ZM56.5261 37.5122V38H56.0383V37.5122H56.5261ZM56.0383 37.5122V38H55.5504V37.5122H56.0383ZM56.0383 37.0244V37.5122H55.5504V37.0244H56.0383ZM56.5261 37.0244V37.5122H56.0383V37.0244H56.5261ZM57.0139 37.0244V37.5122H56.5261V37.0244H57.0139ZM53.1114 35.0732V35.561H52.6236V35.0732H53.1114ZM53.5992 35.0732V35.561H53.1114V35.0732H53.5992ZM54.087 35.0732V35.561H53.5992V35.0732H54.087ZM54.5748 35.0732V35.561H54.087V35.0732H54.5748ZM55.0626 35.0732V35.561H54.5748V35.0732H55.0626ZM55.0626 35.561V36.0488H54.5748V35.561H55.0626ZM54.5748 36.5366V37.0244H54.087V36.5366H54.5748ZM54.087 36.5366V37.0244H53.5992V36.5366H54.087ZM53.5992 36.5366V37.0244H53.1114V36.5366H53.5992ZM53.1114 36.5366V37.0244H52.6236V36.5366H53.1114ZM52.6236 36.5366V37.0244H52.1358V36.5366H52.6236ZM52.6236 36.0488V36.5366H52.1358V36.0488H52.6236ZM52.6236 35.561V36.0488H52.1358V35.561H52.6236ZM53.1114 35.561V36.0488H52.6236V35.561H53.1114ZM53.5992 35.561V36.0488H53.1114V35.561H53.5992ZM53.5992 36.0488V36.5366H53.1114V36.0488H53.5992ZM53.1114 36.0488V36.5366H52.6236V36.0488H53.1114ZM54.087 35.561V36.0488H53.5992V35.561H54.087ZM54.5748 35.561V36.0488H54.087V35.561H54.5748ZM54.5748 36.0488V36.5366H54.087V36.0488H54.5748ZM54.087 36.0488V36.5366H53.5992V36.0488H54.087ZM55.0626 36.0488V36.5366H54.5748V36.0488H55.0626ZM52.1358 36.5366V37.0244H51.648V36.5366H52.1358ZM52.1358 36.0488V36.5366H51.648V36.0488H52.1358ZM51.648 36.0488V36.5366H51.1602V36.0488H51.648ZM51.1602 36.0488V36.5366H50.6724V36.0488H51.1602ZM51.1602 35.561V36.0488H50.6724V35.561H51.1602ZM50.6724 35.561V36.0488H50.1846V35.561H50.6724ZM50.6724 35.0732V35.561H50.1846V35.0732H50.6724ZM50.6724 34.5854V35.0732H50.1846V34.5854H50.6724ZM51.1602 34.5854V35.0732H50.6724V34.5854H51.1602ZM50.1846 34.5854V35.0732H49.6968V34.5854H50.1846ZM50.1846 34.0976V34.5854H49.6968V34.0976H50.1846ZM50.6724 34.0976V34.5854H50.1846V34.0976H50.6724ZM52.1358 35.0732V35.561H51.648V35.0732H52.1358ZM52.6236 35.0732V35.561H52.1358V35.0732H52.6236ZM52.6236 34.5854V35.0732H52.1358V34.5854H52.6236ZM52.1358 34.5854V35.0732H51.648V34.5854H52.1358ZM51.648 34.5854V35.0732H51.1602V34.5854H51.648ZM51.648 35.0732V35.561H51.1602V35.0732H51.648ZM51.648 35.561V36.0488H51.1602V35.561H51.648ZM52.1358 35.561V36.0488H51.648V35.561H52.1358ZM51.1602 35.0732V35.561H50.6724V35.0732H51.1602ZM51.648 34.0976V34.5854H51.1602V34.0976H51.648ZM52.1358 34.0976V34.5854H51.648V34.0976H52.1358ZM52.1358 33.6098V34.0976H51.648V33.6098H52.1358ZM52.1358 33.122V33.6098H51.648V33.122H52.1358ZM52.1358 32.6341V33.122H51.648V32.6341H52.1358ZM52.1358 32.1463V32.6341H51.648V32.1463H52.1358ZM52.1358 31.6585V32.1463H51.648V31.6585H52.1358ZM52.1358 31.1707V31.6585H51.648V31.1707H52.1358ZM51.648 31.1707V31.6585H51.1602V31.1707H51.648ZM51.1602 31.1707V31.6585H50.6724V31.1707H51.1602ZM50.6724 31.1707V31.6585H50.1846V31.1707H50.6724ZM50.6724 30.6829V31.1707H50.1846V30.6829H50.6724ZM50.1846 30.6829V31.1707H49.6968V30.6829H50.1846ZM50.1846 31.1707V31.6585H49.6968V31.1707H50.1846ZM50.1846 31.6585V32.1463H49.6968V31.6585H50.1846ZM50.1846 32.1463V32.6341H49.6968V32.1463H50.1846ZM50.1846 32.6341V33.122H49.6968V32.6341H50.1846ZM50.1846 33.122V33.6098H49.6968V33.122H50.1846ZM50.1846 33.6098V34.0976H49.6968V33.6098H50.1846ZM51.1602 34.0976V34.5854H50.6724V34.0976H51.1602ZM51.648 33.6098V34.0976H51.1602V33.6098H51.648ZM51.648 33.122V33.6098H51.1602V33.122H51.648ZM51.648 32.6341V33.122H51.1602V32.6341H51.648ZM51.648 32.1463V32.6341H51.1602V32.1463H51.648ZM51.648 31.6585V32.1463H51.1602V31.6585H51.648ZM51.1602 31.6585V32.1463H50.6724V31.6585H51.1602ZM50.6724 31.6585V32.1463H50.1846V31.6585H50.6724ZM50.6724 32.1463V32.6341H50.1846V32.1463H50.6724ZM50.6724 33.6098V34.0976H50.1846V33.6098H50.6724ZM50.6724 33.122V33.6098H50.1846V33.122H50.6724ZM51.1602 33.122V33.6098H50.6724V33.122H51.1602ZM51.1602 32.6341V33.122H50.6724V32.6341H51.1602ZM51.1602 32.1463V32.6341H50.6724V32.1463H51.1602ZM50.6724 32.6341V33.122H50.1846V32.6341H50.6724ZM51.1602 33.6098V34.0976H50.6724V33.6098H51.1602ZM54.5748 28.7317V29.2195H54.087V28.7317H54.5748ZM54.087 28.7317V29.2195H53.5992V28.7317H54.087ZM53.5992 28.7317V29.2195H53.1114V28.7317H53.5992ZM53.1114 28.7317V29.2195H52.6236V28.7317H53.1114ZM52.6236 28.7317V29.2195H52.1358V28.7317H52.6236ZM52.1358 28.7317V29.2195H51.648V28.7317H52.1358ZM52.1358 29.2195V29.7073H51.648V29.2195H52.1358ZM51.648 29.2195V29.7073H51.1602V29.2195H51.648ZM51.1602 29.2195V29.7073H50.6724V29.2195H51.1602ZM51.1602 29.7073V30.1951H50.6724V29.7073H51.1602ZM50.6724 29.7073V30.1951H50.1846V29.7073H50.6724ZM51.1602 30.1951V30.6829H50.6724V30.1951H51.1602ZM51.1602 30.6829V31.1707H50.6724V30.6829H51.1602ZM50.6724 30.1951V30.6829H50.1846V30.1951H50.6724ZM51.648 30.1951V30.6829H51.1602V30.1951H51.648ZM52.1358 30.1951V30.6829H51.648V30.1951H52.1358ZM52.1358 30.6829V31.1707H51.648V30.6829H52.1358ZM52.6236 30.6829V31.1707H52.1358V30.6829H52.6236ZM51.648 30.6829V31.1707H51.1602V30.6829H51.648ZM52.1358 29.7073V30.1951H51.648V29.7073H52.1358ZM51.648 29.7073V30.1951H51.1602V29.7073H51.648ZM52.6236 29.7073V30.1951H52.1358V29.7073H52.6236ZM52.6236 30.1951V30.6829H52.1358V30.1951H52.6236ZM53.1114 30.1951V30.6829H52.6236V30.1951H53.1114ZM53.1114 29.7073V30.1951H52.6236V29.7073H53.1114ZM53.5992 29.7073V30.1951H53.1114V29.7073H53.5992ZM54.087 29.7073V30.1951H53.5992V29.7073H54.087ZM54.5748 29.7073V30.1951H54.087V29.7073H54.5748ZM55.0626 29.7073V30.1951H54.5748V29.7073H55.0626ZM55.0626 30.1951V30.6829H54.5748V30.1951H55.0626ZM54.5748 30.1951V30.6829H54.087V30.1951H54.5748ZM54.087 30.1951V30.6829H53.5992V30.1951H54.087ZM53.5992 30.1951V30.6829H53.1114V30.1951H53.5992ZM52.6236 29.2195V29.7073H52.1358V29.2195H52.6236ZM53.1114 29.2195V29.7073H52.6236V29.2195H53.1114ZM53.5992 29.2195V29.7073H53.1114V29.2195H53.5992ZM54.087 29.2195V29.7073H53.5992V29.2195H54.087ZM54.5748 29.2195V29.7073H54.087V29.2195H54.5748ZM55.0626 29.2195V29.7073H54.5748V29.2195H55.0626ZM55.0626 28.7317V29.2195H54.5748V28.7317H55.0626ZM55.0626 34.5854V35.0732H54.5748V34.5854H55.0626Z" fill="#B22222"/>
<path d="M60.9254 35.0732V34.5854H61.4132V35.0732H60.9254ZM60.4375 35.0732V34.5854H60.9254V35.0732H60.4375ZM59.9497 35.0732V34.5854H60.4375V35.0732H59.9497ZM59.4619 35.0732V34.5854H59.9497V35.0732H59.4619ZM58.9741 35.0732V34.5854H59.4619V35.0732H58.9741ZM58.9741 35.561V35.0732H59.4619V35.561H58.9741ZM58.9741 36.0488V35.561H59.4619V36.0488H58.9741ZM59.4619 36.0488V35.561H59.9497V36.0488H59.4619ZM59.9497 36.0488V35.561H60.4375V36.0488H59.9497ZM60.4375 36.0488V35.561H60.9254V36.0488H60.4375ZM60.4375 35.561V35.0732H60.9254V35.561H60.4375ZM60.9254 35.561V35.0732H61.4132V35.561H60.9254ZM59.9497 35.561V35.0732H60.4375V35.561H59.9497ZM59.4619 35.561V35.0732H59.9497V35.561H59.4619ZM60.9254 36.0488V35.561H61.4132V36.0488H60.9254ZM61.4132 36.0488V35.561H61.901V36.0488H61.4132ZM61.4132 36.5366V36.0488H61.901V36.5366H61.4132ZM60.9254 36.5366V36.0488H61.4132V36.5366H60.9254ZM60.4375 36.5366V36.0488H60.9254V36.5366H60.4375ZM59.9497 36.5366V36.0488H60.4375V36.5366H59.9497ZM59.4619 36.5366V36.0488H59.9497V36.5366H59.4619ZM59.4619 37.0244V36.5366H59.9497V37.0244H59.4619ZM59.9497 37.0244V36.5366H60.4375V37.0244H59.9497ZM60.4375 37.0244V36.5366H60.9254V37.0244H60.4375ZM60.9254 37.0244V36.5366H61.4132V37.0244H60.9254ZM61.4132 37.0244V36.5366H61.901V37.0244H61.4132ZM60.4375 37.5122V37.0244H60.9254V37.5122H60.4375ZM59.9497 37.5122V37.0244H60.4375V37.5122H59.9497ZM60.9254 37.5122V37.0244H61.4132V37.5122H60.9254ZM60.9254 38V37.5122H61.4132V38H60.9254ZM61.4132 38V37.5122H61.901V38H61.4132ZM61.4132 37.5122V37.0244H61.901V37.5122H61.4132ZM61.901 37.5122V37.0244H62.3888V37.5122H61.901ZM61.901 38V37.5122H62.3888V38H61.901ZM61.901 37.0244V36.5366H62.3888V37.0244H61.901ZM62.3888 37.0244V36.5366H62.8766V37.0244H62.3888ZM62.3888 36.5366V36.0488H62.8766V36.5366H62.3888ZM61.901 36.5366V36.0488H62.3888V36.5366H61.901ZM62.8766 36.5366V36.0488H63.3644V36.5366H62.8766ZM62.8766 37.0244V36.5366H63.3644V37.0244H62.8766ZM62.8766 37.5122V37.0244H63.3644V37.5122H62.8766ZM62.8766 38V37.5122H63.3644V38H62.8766ZM62.3888 38V37.5122H62.8766V38H62.3888ZM62.3888 37.5122V37.0244H62.8766V37.5122H62.3888ZM63.3644 38V37.5122H63.8522V38H63.3644ZM64.34 37.5122V37.0244H64.8278V37.5122H64.34ZM64.34 37.0244V36.5366H64.8278V37.0244H64.34ZM64.34 36.5366V36.0488H64.8278V36.5366H64.34ZM63.8522 36.5366V36.0488H64.34V36.5366H63.8522ZM63.3644 36.5366V36.0488H63.8522V36.5366H63.3644ZM63.3644 37.0244V36.5366H63.8522V37.0244H63.3644ZM63.3644 37.5122V37.0244H63.8522V37.5122H63.3644ZM63.8522 37.5122V37.0244H64.34V37.5122H63.8522ZM63.8522 37.0244V36.5366H64.34V37.0244H63.8522ZM64.8278 37.0244V36.5366H65.3156V37.0244H64.8278ZM64.8278 37.5122V37.0244H65.3156V37.5122H64.8278ZM65.3156 37.5122V37.0244H65.8034V37.5122H65.3156ZM65.3156 37.0244V36.5366H65.8034V37.0244H65.3156ZM65.8034 37.0244V36.5366H66.2912V37.0244H65.8034ZM65.8034 36.5366V36.0488H66.2912V36.5366H65.8034ZM65.8034 36.0488V35.561H66.2912V36.0488H65.8034ZM65.3156 36.0488V35.561H65.8034V36.0488H65.3156ZM65.3156 36.5366V36.0488H65.8034V36.5366H65.3156ZM64.8278 36.5366V36.0488H65.3156V36.5366H64.8278ZM64.8278 36.0488V35.561H65.3156V36.0488H64.8278ZM64.34 36.0488V35.561H64.8278V36.0488H64.34ZM66.2912 36.0488V35.561H66.779V36.0488H66.2912ZM66.2912 35.561V35.0732H66.779V35.561H66.2912ZM66.2912 35.0732V34.5854H66.779V35.0732H66.2912ZM66.2912 34.5854V34.0976H66.779V34.5854H66.2912ZM66.2912 34.0976V33.6098H66.779V34.0976H66.2912ZM66.2912 33.6098V33.122H66.779V33.6098H66.2912ZM66.2912 33.122V32.6341H66.779V33.122H66.2912ZM66.2912 32.6341V32.1463H66.779V32.6341H66.2912ZM66.2912 32.1463V31.6585H66.779V32.1463H66.2912ZM66.2912 31.6585V31.1707H66.779V31.6585H66.2912ZM65.8034 31.6585V31.1707H66.2912V31.6585H65.8034ZM65.8034 31.1707V30.6829H66.2912V31.1707H65.8034ZM66.2912 31.1707V30.6829H66.779V31.1707H66.2912ZM65.3156 31.1707V30.6829H65.8034V31.1707H65.3156ZM64.8278 31.1707V30.6829H65.3156V31.1707H64.8278ZM64.34 31.1707V30.6829H64.8278V31.1707H64.34ZM63.8522 31.1707V30.6829H64.34V31.1707H63.8522ZM64.34 31.6585V31.1707H64.8278V31.6585H64.34ZM64.34 32.1463V31.6585H64.8278V32.1463H64.34ZM64.34 32.6341V32.1463H64.8278V32.6341H64.34ZM64.34 33.122V32.6341H64.8278V33.122H64.34ZM64.34 33.6098V33.122H64.8278V33.6098H64.34ZM64.34 34.0976V33.6098H64.8278V34.0976H64.34ZM64.34 34.5854V34.0976H64.8278V34.5854H64.34ZM64.34 35.0732V34.5854H64.8278V35.0732H64.34ZM64.34 35.561V35.0732H64.8278V35.561H64.34ZM64.8278 35.561V35.0732H65.3156V35.561H64.8278ZM65.3156 35.561V35.0732H65.8034V35.561H65.3156ZM65.8034 35.561V35.0732H66.2912V35.561H65.8034ZM65.8034 35.0732V34.5854H66.2912V35.0732H65.8034ZM65.8034 34.5854V34.0976H66.2912V34.5854H65.8034ZM65.8034 34.0976V33.6098H66.2912V34.0976H65.8034ZM65.8034 33.6098V33.122H66.2912V33.6098H65.8034ZM65.8034 33.122V32.6341H66.2912V33.122H65.8034ZM65.8034 32.6341V32.1463H66.2912V32.6341H65.8034ZM65.8034 32.1463V31.6585H66.2912V32.1463H65.8034ZM65.3156 31.6585V31.1707H65.8034V31.6585H65.3156ZM64.8278 31.6585V31.1707H65.3156V31.6585H64.8278ZM64.8278 32.1463V31.6585H65.3156V32.1463H64.8278ZM64.8278 32.6341V32.1463H65.3156V32.6341H64.8278ZM64.8278 33.122V32.6341H65.3156V33.122H64.8278ZM64.8278 33.6098V33.122H65.3156V33.6098H64.8278ZM65.3156 33.6098V33.122H65.8034V33.6098H65.3156ZM65.3156 34.0976V33.6098H65.8034V34.0976H65.3156ZM65.3156 34.5854V34.0976H65.8034V34.5854H65.3156ZM65.3156 35.0732V34.5854H65.8034V35.0732H65.3156ZM64.8278 35.0732V34.5854H65.3156V35.0732H64.8278ZM64.8278 34.5854V34.0976H65.3156V34.5854H64.8278ZM64.8278 34.0976V33.6098H65.3156V34.0976H64.8278ZM65.3156 32.6341V32.1463H65.8034V32.6341H65.3156ZM65.3156 32.1463V31.6585H65.8034V32.1463H65.3156ZM65.3156 33.122V32.6341H65.8034V33.122H65.3156ZM60.9254 31.6585V31.1707H61.4132V31.6585H60.9254ZM60.4375 31.6585V31.1707H60.9254V31.6585H60.4375ZM59.9497 31.6585V31.1707H60.4375V31.6585H59.9497ZM59.4619 31.6585V31.1707H59.9497V31.6585H59.4619ZM58.9741 31.6585V31.1707H59.4619V31.6585H58.9741ZM58.9741 31.1707V30.6829H59.4619V31.1707H58.9741ZM59.4619 31.1707V30.6829H59.9497V31.1707H59.4619ZM59.9497 31.1707V30.6829H60.4375V31.1707H59.9497ZM60.4375 31.1707V30.6829H60.9254V31.1707H60.4375ZM60.9254 31.1707V30.6829H61.4132V31.1707H60.9254ZM61.4132 31.1707V30.6829H61.901V31.1707H61.4132ZM61.4132 30.6829V30.1951H61.901V30.6829H61.4132ZM60.9254 30.6829V30.1951H61.4132V30.6829H60.9254ZM60.4375 30.6829V30.1951H60.9254V30.6829H60.4375ZM59.9497 30.6829V30.1951H60.4375V30.6829H59.9497ZM59.9497 30.1951V29.7073H60.4375V30.1951H59.9497ZM59.4619 30.1951V29.7073H59.9497V30.1951H59.4619ZM59.4619 30.6829V30.1951H59.9497V30.6829H59.4619ZM59.9497 29.7073V29.2195H60.4375V29.7073H59.9497ZM60.4375 29.7073V29.2195H60.9254V29.7073H60.4375ZM60.4375 30.1951V29.7073H60.9254V30.1951H60.4375ZM60.9254 30.1951V29.7073H61.4132V30.1951H60.9254ZM60.9254 29.7073V29.2195H61.4132V29.7073H60.9254ZM60.9254 29.2195V28.7317H61.4132V29.2195H60.9254ZM61.4132 29.2195V28.7317H61.901V29.2195H61.4132ZM61.901 29.2195V28.7317H62.3888V29.2195H61.901ZM62.3888 29.2195V28.7317H62.8766V29.2195H62.3888ZM62.8766 29.2195V28.7317H63.3644V29.2195H62.8766ZM63.3644 29.2195V28.7317H63.8522V29.2195H63.3644ZM63.8522 29.2195V28.7317H64.34V29.2195H63.8522ZM64.34 29.2195V28.7317H64.8278V29.2195H64.34ZM63.8522 29.7073V29.2195H64.34V29.7073H63.8522ZM63.3644 29.7073V29.2195H63.8522V29.7073H63.3644ZM62.8766 29.7073V29.2195H63.3644V29.7073H62.8766ZM62.3888 29.7073V29.2195H62.8766V29.7073H62.3888ZM61.901 29.7073V29.2195H62.3888V29.7073H61.901ZM61.4132 29.7073V29.2195H61.901V29.7073H61.4132ZM61.4132 30.1951V29.7073H61.901V30.1951H61.4132ZM61.901 30.1951V29.7073H62.3888V30.1951H61.901ZM62.3888 30.1951V29.7073H62.8766V30.1951H62.3888ZM62.8766 30.1951V29.7073H63.3644V30.1951H62.8766ZM63.3644 30.1951V29.7073H63.8522V30.1951H63.3644ZM63.8522 30.1951V29.7073H64.34V30.1951H63.8522ZM64.34 29.7073V29.2195H64.8278V29.7073H64.34ZM64.8278 29.7073V29.2195H65.3156V29.7073H64.8278ZM65.3156 29.7073V29.2195H65.8034V29.7073H65.3156ZM65.3156 30.1951V29.7073H65.8034V30.1951H65.3156ZM65.8034 30.1951V29.7073H66.2912V30.1951H65.8034ZM65.8034 30.6829V30.1951H66.2912V30.6829H65.8034ZM65.3156 30.6829V30.1951H65.8034V30.6829H65.3156ZM64.8278 30.6829V30.1951H65.3156V30.6829H64.8278ZM64.34 30.6829V30.1951H64.8278V30.6829H64.34ZM63.8522 30.6829V30.1951H64.34V30.6829H63.8522ZM63.3644 30.6829V30.1951H63.8522V30.6829H63.3644ZM62.8766 30.6829V30.1951H63.3644V30.6829H62.8766ZM62.3888 30.6829V30.1951H62.8766V30.6829H62.3888ZM61.901 30.6829V30.1951H62.3888V30.6829H61.901ZM64.34 30.1951V29.7073H64.8278V30.1951H64.34ZM64.8278 30.1951V29.7073H65.3156V30.1951H64.8278ZM59.4619 34.5854V34.0976H59.9497V34.5854H59.4619ZM59.9497 34.5854V34.0976H60.4375V34.5854H59.9497ZM60.4375 34.5854V34.0976H60.9254V34.5854H60.4375ZM60.9254 34.5854V34.0976H61.4132V34.5854H60.9254ZM59.9497 34.0976V33.6098H60.4375V34.0976H59.9497ZM60.4375 34.0976V33.6098H60.9254V34.0976H60.4375ZM61.4132 34.0976V33.6098H61.901V34.0976H61.4132ZM61.901 34.0976V33.6098H62.3888V34.0976H61.901ZM62.3888 34.0976V33.6098H62.8766V34.0976H62.3888ZM62.8766 34.0976V33.6098H63.3644V34.0976H62.8766ZM63.3644 34.0976V33.6098H63.8522V34.0976H63.3644ZM63.8522 34.0976V33.6098H64.34V34.0976H63.8522ZM60.9254 34.0976V33.6098H61.4132V34.0976H60.9254ZM59.4619 34.0976V33.6098H59.9497V34.0976H59.4619ZM59.9497 33.6098V33.122H60.4375V33.6098H59.9497ZM60.4375 33.6098V33.122H60.9254V33.6098H60.4375ZM60.9254 33.6098V33.122H61.4132V33.6098H60.9254ZM61.4132 33.6098V33.122H61.901V33.6098H61.4132ZM61.901 33.6098V33.122H62.3888V33.6098H61.901ZM62.3888 33.6098V33.122H62.8766V33.6098H62.3888ZM62.8766 33.6098V33.122H63.3644V33.6098H62.8766ZM63.3644 33.6098V33.122H63.8522V33.6098H63.3644ZM63.8522 33.6098V33.122H64.34V33.6098H63.8522ZM63.8522 33.122V32.6341H64.34V33.122H63.8522ZM63.3644 33.122V32.6341H63.8522V33.122H63.3644ZM62.8766 33.122V32.6341H63.3644V33.122H62.8766ZM61.901 33.122V32.6341H62.3888V33.122H61.901ZM61.4132 33.122V32.6341H61.901V33.122H61.4132ZM60.9254 33.122V32.6341H61.4132V33.122H60.9254ZM62.3888 33.122V32.6341H62.8766V33.122H62.3888ZM66.779 36.0488V36.5366H66.2912V36.0488H66.779ZM66.779 36.5366V37.0244H66.2912V36.5366H66.779ZM66.779 37.0244V37.5122H66.2912V37.0244H66.779ZM66.779 37.5122V38H66.2912V37.5122H66.779ZM66.2912 37.5122V38H65.8034V37.5122H66.2912ZM66.2912 37.0244V37.5122H65.8034V37.0244H66.2912ZM65.8034 37.5122V38H65.3156V37.5122H65.8034ZM65.3156 37.5122V38H64.8278V37.5122H65.3156ZM64.8278 37.5122V38H64.34V37.5122H64.8278ZM64.34 35.561V36.0488H63.8522V35.561H64.34ZM60.9254 37.5122V38H60.4375V37.5122H60.9254ZM61.901 34.0976V34.5854H61.4132V34.0976H61.901Z" fill="#B22222"/>
<path d="M69.2271 37.5122V38H68.7393V37.5122H69.2271ZM69.2271 37.0244V37.5122H68.7393V37.0244H69.2271ZM69.2271 36.5366V37.0244H68.7393V36.5366H69.2271ZM69.2271 36.0488V36.5366H68.7393V36.0488H69.2271ZM69.2271 35.561V36.0488H68.7393V35.561H69.2271ZM69.2271 35.0732V35.561H68.7393V35.0732H69.2271ZM69.2271 34.5854V35.0732H68.7393V34.5854H69.2271ZM69.2271 34.0976V34.5854H68.7393V34.0976H69.2271ZM69.2271 33.6098V34.0976H68.7393V33.6098H69.2271ZM69.2271 33.122V33.6098H68.7393V33.122H69.2271ZM69.2271 32.6341V33.122H68.7393V32.6341H69.2271ZM69.2271 32.1463V32.6341H68.7393V32.1463H69.2271ZM69.2271 31.6585V32.1463H68.7393V31.6585H69.2271ZM69.2271 31.1707V31.6585H68.7393V31.1707H69.2271ZM69.2271 30.6829V31.1707H68.7393V30.6829H69.2271ZM69.7149 30.6829V31.1707H69.2271V30.6829H69.7149ZM69.7149 31.1707V31.6585H69.2271V31.1707H69.7149ZM69.7149 31.6585V32.1463H69.2271V31.6585H69.7149ZM69.7149 32.1463V32.6341H69.2271V32.1463H69.7149ZM69.7149 32.6341V33.122H69.2271V32.6341H69.7149ZM69.7149 33.122V33.6098H69.2271V33.122H69.7149ZM69.7149 33.6098V34.0976H69.2271V33.6098H69.7149ZM70.2027 34.0976V34.5854H69.7149V34.0976H70.2027ZM70.2027 34.5854V35.0732H69.7149V34.5854H70.2027ZM70.2027 35.0732V35.561H69.7149V35.0732H70.2027ZM70.2027 35.561V36.0488H69.7149V35.561H70.2027ZM70.2027 36.0488V36.5366H69.7149V36.0488H70.2027ZM70.2027 36.5366V37.0244H69.7149V36.5366H70.2027ZM70.2027 37.0244V37.5122H69.7149V37.0244H70.2027ZM70.2027 37.5122V38H69.7149V37.5122H70.2027ZM70.6905 37.5122V38H70.2027V37.5122H70.6905ZM71.1783 37.5122V38H70.6905V37.5122H71.1783ZM71.1783 37.0244V37.5122H70.6905V37.0244H71.1783ZM71.1783 36.5366V37.0244H70.6905V36.5366H71.1783ZM71.1783 36.0488V36.5366H70.6905V36.0488H71.1783ZM71.1783 35.561V36.0488H70.6905V35.561H71.1783ZM71.1783 35.0732V35.561H70.6905V35.0732H71.1783ZM71.1783 34.5854V35.0732H70.6905V34.5854H71.1783ZM71.1783 34.0976V34.5854H70.6905V34.0976H71.1783ZM70.6905 34.0976V34.5854H70.2027V34.0976H70.6905ZM70.6905 33.6098V34.0976H70.2027V33.6098H70.6905ZM70.6905 34.5854V35.0732H70.2027V34.5854H70.6905ZM70.6905 35.0732V35.561H70.2027V35.0732H70.6905ZM70.6905 35.561V36.0488H70.2027V35.561H70.6905ZM70.6905 36.0488V36.5366H70.2027V36.0488H70.6905ZM70.6905 36.5366V37.0244H70.2027V36.5366H70.6905ZM70.6905 37.0244V37.5122H70.2027V37.0244H70.6905ZM69.7149 37.5122V38H69.2271V37.5122H69.7149ZM69.7149 37.0244V37.5122H69.2271V37.0244H69.7149ZM69.7149 36.5366V37.0244H69.2271V36.5366H69.7149ZM69.7149 36.0488V36.5366H69.2271V36.0488H69.7149ZM69.7149 35.561V36.0488H69.2271V35.561H69.7149ZM69.7149 35.0732V35.561H69.2271V35.0732H69.7149ZM69.7149 34.5854V35.0732H69.2271V34.5854H69.7149ZM69.7149 34.0976V34.5854H69.2271V34.0976H69.7149ZM69.2271 28.7317V29.2195H68.7393V28.7317H69.2271ZM69.2271 29.2195V29.7073H68.7393V29.2195H69.2271ZM69.2271 29.7073V30.1951H68.7393V29.7073H69.2271ZM69.2271 30.1951V30.6829H68.7393V30.1951H69.2271ZM70.6905 29.2195V29.7073H70.2027V29.2195H70.6905ZM70.6905 29.7073V30.1951H70.2027V29.7073H70.6905ZM70.6905 30.1951V30.6829H70.2027V30.1951H70.6905ZM70.6905 30.6829V31.1707H70.2027V30.6829H70.6905ZM70.6905 31.1707V31.6585H70.2027V31.1707H70.6905ZM70.6905 31.6585V32.1463H70.2027V31.6585H70.6905ZM70.6905 32.1463V32.6341H70.2027V32.1463H70.6905ZM71.1783 32.6341V33.122H70.6905V32.6341H71.1783ZM71.1783 33.122V33.6098H70.6905V33.122H71.1783ZM71.1783 33.6098V34.0976H70.6905V33.6098H71.1783ZM71.1783 32.1463V32.6341H70.6905V32.1463H71.1783ZM71.1783 31.6585V32.1463H70.6905V31.6585H71.1783ZM71.1783 31.1707V31.6585H70.6905V31.1707H71.1783ZM71.1783 30.6829V31.1707H70.6905V30.6829H71.1783ZM71.1783 30.1951V30.6829H70.6905V30.1951H71.1783ZM71.1783 29.7073V30.1951H70.6905V29.7073H71.1783ZM71.1783 29.2195V29.7073H70.6905V29.2195H71.1783ZM71.1783 28.7317V29.2195H70.6905V28.7317H71.1783ZM70.6905 28.7317V29.2195H70.2027V28.7317H70.6905ZM70.2027 28.7317V29.2195H69.7149V28.7317H70.2027ZM70.2027 29.2195V29.7073H69.7149V29.2195H70.2027ZM69.7149 29.7073V30.1951H69.2271V29.7073H69.7149ZM69.7149 30.1951V30.6829H69.2271V30.1951H69.7149ZM69.7149 29.2195V29.7073H69.2271V29.2195H69.7149ZM69.7149 28.7317V29.2195H69.2271V28.7317H69.7149ZM70.2027 29.7073V30.1951H69.7149V29.7073H70.2027ZM70.2027 30.1951V30.6829H69.7149V30.1951H70.2027ZM70.2027 30.6829V31.1707H69.7149V30.6829H70.2027ZM70.2027 31.1707V31.6585H69.7149V31.1707H70.2027ZM70.2027 31.6585V32.1463H69.7149V31.6585H70.2027ZM70.2027 32.1463V32.6341H69.7149V32.1463H70.2027ZM70.2027 32.6341V33.122H69.7149V32.6341H70.2027ZM70.2027 33.122V33.6098H69.7149V33.122H70.2027ZM70.2027 33.6098V34.0976H69.7149V33.6098H70.2027ZM70.6905 33.122V33.6098H70.2027V33.122H70.6905ZM70.6905 32.6341V33.122H70.2027V32.6341H70.6905ZM74.5929 30.6829V31.1707H74.1051V30.6829H74.5929ZM74.5929 28.7317V29.2195H74.1051V28.7317H74.5929ZM74.5929 29.2195V29.7073H74.1051V29.2195H74.5929ZM75.0807 29.2195V29.7073H74.5929V29.2195H75.0807ZM75.5686 29.7073V30.1951H75.0807V29.7073H75.5686ZM75.0807 30.1951V30.6829H74.5929V30.1951H75.0807ZM75.0807 29.7073V30.1951H74.5929V29.7073H75.0807ZM74.5929 29.7073V30.1951H74.1051V29.7073H74.5929ZM74.1051 29.7073V30.1951H73.6173V29.7073H74.1051ZM74.1051 30.1951V30.6829H73.6173V30.1951H74.1051ZM74.5929 30.1951V30.6829H74.1051V30.1951H74.5929ZM74.1051 30.6829V31.1707H73.6173V30.6829H74.1051ZM73.6173 30.1951V30.6829H73.1295V30.1951H73.6173ZM73.6173 29.7073V30.1951H73.1295V29.7073H73.6173ZM73.6173 29.2195V29.7073H73.1295V29.2195H73.6173ZM73.6173 28.7317V29.2195H73.1295V28.7317H73.6173ZM74.1051 28.7317V29.2195H73.6173V28.7317H74.1051ZM74.1051 29.2195V29.7073H73.6173V29.2195H74.1051ZM73.1295 28.7317V29.2195H72.6417V28.7317H73.1295ZM73.1295 29.2195V29.7073H72.6417V29.2195H73.1295ZM73.1295 29.7073V30.1951H72.6417V29.7073H73.1295ZM73.1295 30.1951V30.6829H72.6417V30.1951H73.1295ZM72.6417 28.7317V29.2195H72.1539V28.7317H72.6417ZM72.6417 29.2195V29.7073H72.1539V29.2195H72.6417ZM72.1539 29.2195V29.7073H71.6661V29.2195H72.1539ZM72.1539 29.7073V30.1951H71.6661V29.7073H72.1539ZM71.6661 29.7073V30.1951H71.1783V29.7073H71.6661ZM71.6661 30.1951V30.6829H71.1783V30.1951H71.6661ZM72.1539 30.1951V30.6829H71.6661V30.1951H72.1539ZM72.6417 30.1951V30.6829H72.1539V30.1951H72.6417ZM72.6417 29.7073V30.1951H72.1539V29.7073H72.6417ZM71.6661 30.6829V31.1707H71.1783V30.6829H71.6661ZM72.1539 28.7317V29.2195H71.6661V28.7317H72.1539ZM71.6661 29.2195V29.7073H71.1783V29.2195H71.6661ZM73.6173 30.6829V31.1707H73.1295V30.6829H73.6173ZM74.1051 31.1707V31.6585H73.6173V31.1707H74.1051Z" fill="#B22222"/>
<path d="M78.9908 26.7805V27.2683H78.503V26.7805H78.9908ZM78.9908 27.2683V27.7561H78.503V27.2683H78.9908ZM78.9908 27.7561V28.2439H78.503V27.7561H78.9908ZM78.9908 28.2439V28.7317H78.503V28.2439H78.9908ZM78.9908 28.7317V29.2195H78.503V28.7317H78.9908ZM78.9908 29.2195V29.7073H78.503V29.2195H78.9908ZM78.9908 29.7073V30.1951H78.503V29.7073H78.9908ZM78.9908 30.1951V30.6829H78.503V30.1951H78.9908ZM79.4786 30.1951V30.6829H78.9908V30.1951H79.4786ZM79.9664 30.1951V30.6829H79.4786V30.1951H79.9664ZM80.4542 30.1951V30.6829H79.9664V30.1951H80.4542ZM80.942 30.1951V30.6829H80.4542V30.1951H80.942ZM78.9908 31.1707V31.6585H78.503V31.1707H78.9908ZM78.503 31.1707V31.6585H78.0152V31.1707H78.503ZM78.503 30.6829V31.1707H78.0152V30.6829H78.503ZM78.9908 30.6829V31.1707H78.503V30.6829H78.9908ZM78.9908 31.6585V32.1463H78.503V31.6585H78.9908ZM78.503 31.6585V32.1463H78.0152V31.6585H78.503ZM78.0152 31.6585V32.1463H77.5274V31.6585H78.0152ZM77.5274 31.6585V32.1463H77.0396V31.6585H77.5274ZM77.0396 31.6585V32.1463H76.5518V31.6585H77.0396ZM76.064 30.1951V30.6829H75.5762V30.1951H76.064ZM76.5518 30.1951V30.6829H76.064V30.1951H76.5518ZM77.0396 30.1951V30.6829H76.5518V30.1951H77.0396ZM77.5274 30.1951V30.6829H77.0396V30.1951H77.5274ZM78.0152 30.1951V30.6829H77.5274V30.1951H78.0152ZM78.503 30.1951V30.6829H78.0152V30.1951H78.503ZM78.0152 31.1707V31.6585H77.5274V31.1707H78.0152ZM78.0152 30.6829V31.1707H77.5274V30.6829H78.0152ZM77.5274 30.6829V31.1707H77.0396V30.6829H77.5274ZM77.0396 30.6829V31.1707H76.5518V30.6829H77.0396ZM77.0396 31.1707V31.6585H76.5518V31.1707H77.0396ZM77.5274 31.1707V31.6585H77.0396V31.1707H77.5274ZM78.503 27.2683V27.7561H78.0152V27.2683H78.503ZM78.503 27.7561V28.2439H78.0152V27.7561H78.503ZM78.0152 27.7561V28.2439H77.5274V27.7561H78.0152ZM78.0152 28.2439V28.7317H77.5274V28.2439H78.0152ZM78.0152 28.7317V29.2195H77.5274V28.7317H78.0152ZM77.5274 28.2439V28.7317H77.0396V28.2439H77.5274ZM77.5274 28.7317V29.2195H77.0396V28.7317H77.5274ZM77.0396 28.7317V29.2195H76.5518V28.7317H77.0396ZM77.0396 29.2195V29.7073H76.5518V29.2195H77.0396ZM77.0396 29.7073V30.1951H76.5518V29.7073H77.0396ZM78.0152 29.7073V30.1951H77.5274V29.7073H78.0152ZM78.503 29.7073V30.1951H78.0152V29.7073H78.503ZM78.503 29.2195V29.7073H78.0152V29.2195H78.503ZM78.503 28.7317V29.2195H78.0152V28.7317H78.503ZM78.503 28.2439V28.7317H78.0152V28.2439H78.503ZM78.0152 29.2195V29.7073H77.5274V29.2195H78.0152ZM77.5274 29.7073V30.1951H77.0396V29.7073H77.5274ZM77.5274 29.2195V29.7073H77.0396V29.2195H77.5274ZM80.942 36.0488V36.5366H80.4542V36.0488H80.942ZM80.942 36.5366V37.0244H80.4542V36.5366H80.942ZM80.942 37.5122V38H80.4542V37.5122H80.942ZM80.4542 37.5122V38H79.9664V37.5122H80.4542ZM79.9664 37.5122V38H79.4786V37.5122H79.9664ZM79.4786 37.5122V38H78.9908V37.5122H79.4786ZM78.9908 37.5122V38H78.503V37.5122H78.9908ZM78.9908 37.0244V37.5122H78.503V37.0244H78.9908ZM78.503 37.0244V37.5122H78.0152V37.0244H78.503ZM78.0152 37.0244V37.5122H77.5274V37.0244H78.0152ZM78.0152 36.5366V37.0244H77.5274V36.5366H78.0152ZM77.5274 36.5366V37.0244H77.0396V36.5366H77.5274ZM77.5274 36.0488V36.5366H77.0396V36.0488H77.5274ZM77.5274 35.561V36.0488H77.0396V35.561H77.5274ZM77.0396 35.561V36.0488H76.5518V35.561H77.0396ZM77.0396 35.0732V35.561H76.5518V35.0732H77.0396ZM77.0396 34.5854V35.0732H76.5518V34.5854H77.0396ZM77.0396 34.0976V34.5854H76.5518V34.0976H77.0396ZM77.0396 33.6098V34.0976H76.5518V33.6098H77.0396ZM77.0396 33.122V33.6098H76.5518V33.122H77.0396ZM77.0396 32.6341V33.122H76.5518V32.6341H77.0396ZM77.0396 32.1463V32.6341H76.5518V32.1463H77.0396ZM77.5274 32.1463V32.6341H77.0396V32.1463H77.5274ZM78.0152 32.1463V32.6341H77.5274V32.1463H78.0152ZM78.503 32.1463V32.6341H78.0152V32.1463H78.503ZM78.9908 32.1463V32.6341H78.503V32.1463H78.9908ZM78.9908 32.6341V33.122H78.503V32.6341H78.9908ZM78.9908 33.122V33.6098H78.503V33.122H78.9908ZM78.9908 33.6098V34.0976H78.503V33.6098H78.9908ZM78.9908 34.0976V34.5854H78.503V34.0976H78.9908ZM78.9908 34.5854V35.0732H78.503V34.5854H78.9908ZM78.9908 35.0732V35.561H78.503V35.0732H78.9908ZM78.9908 35.561V36.0488H78.503V35.561H78.9908ZM79.4786 35.561V36.0488H78.9908V35.561H79.4786ZM79.4786 36.0488V36.5366H78.9908V36.0488H79.4786ZM79.9664 36.0488V36.5366H79.4786V36.0488H79.9664ZM79.9664 36.5366V37.0244H79.4786V36.5366H79.9664ZM80.4542 36.5366V37.0244H79.9664V36.5366H80.4542ZM80.4542 36.0488V36.5366H79.9664V36.0488H80.4542ZM80.942 37.0244V37.5122H80.4542V37.0244H80.942ZM80.4542 37.0244V37.5122H79.9664V37.0244H80.4542ZM79.9664 37.0244V37.5122H79.4786V37.0244H79.9664ZM79.4786 37.0244V37.5122H78.9908V37.0244H79.4786ZM79.4786 36.5366V37.0244H78.9908V36.5366H79.4786ZM78.9908 36.5366V37.0244H78.503V36.5366H78.9908ZM78.9908 36.0488V36.5366H78.503V36.0488H78.9908ZM78.503 36.0488V36.5366H78.0152V36.0488H78.503ZM78.503 36.5366V37.0244H78.0152V36.5366H78.503ZM78.0152 36.0488V36.5366H77.5274V36.0488H78.0152ZM78.503 35.561V36.0488H78.0152V35.561H78.503ZM78.503 35.0732V35.561H78.0152V35.0732H78.503ZM78.0152 35.561V36.0488H77.5274V35.561H78.0152ZM78.0152 35.0732V35.561H77.5274V35.0732H78.0152ZM78.503 34.5854V35.0732H78.0152V34.5854H78.503ZM78.503 34.0976V34.5854H78.0152V34.0976H78.503ZM78.503 33.6098V34.0976H78.0152V33.6098H78.503ZM78.503 33.122V33.6098H78.0152V33.122H78.503ZM78.503 32.6341V33.122H78.0152V32.6341H78.503ZM78.0152 32.6341V33.122H77.5274V32.6341H78.0152ZM77.5274 32.6341V33.122H77.0396V32.6341H77.5274ZM77.5274 33.122V33.6098H77.0396V33.122H77.5274ZM77.5274 33.6098V34.0976H77.0396V33.6098H77.5274ZM77.5274 34.0976V34.5854H77.0396V34.0976H77.5274ZM77.5274 34.5854V35.0732H77.0396V34.5854H77.5274ZM77.5274 35.0732V35.561H77.0396V35.0732H77.5274ZM78.0152 34.5854V35.0732H77.5274V34.5854H78.0152ZM78.0152 34.0976V34.5854H77.5274V34.0976H78.0152ZM78.0152 33.6098V34.0976H77.5274V33.6098H78.0152ZM78.0152 33.122V33.6098H77.5274V33.122H78.0152ZM80.942 29.2195V29.7073H80.4542V29.2195H80.942ZM80.4542 29.2195V29.7073H79.9664V29.2195H80.4542ZM80.4542 29.7073V30.1951H79.9664V29.7073H80.4542ZM80.942 29.7073V30.1951H80.4542V29.7073H80.942ZM79.9664 29.7073V30.1951H79.4786V29.7073H79.9664ZM79.4786 29.7073V30.1951H78.9908V29.7073H79.4786ZM79.4786 29.2195V29.7073H78.9908V29.2195H79.4786ZM79.9664 29.2195V29.7073H79.4786V29.2195H79.9664ZM77.0396 28.2439V28.7317H76.5518V28.2439H77.0396ZM77.5274 27.7561V28.2439H77.0396V27.7561H77.5274ZM78.0152 27.2683V27.7561H77.5274V27.2683H78.0152ZM78.503 26.7805V27.2683H78.0152V26.7805H78.503ZM76.5518 29.2195V29.7073H76.064V29.2195H76.5518ZM76.5518 29.7073V30.1951H76.064V29.7073H76.5518ZM76.064 29.7073V30.1951H75.5762V29.7073H76.064ZM76.064 29.2195V29.7073H75.5762V29.2195H76.064ZM78.9908 26.2927V26.7805H78.503V26.2927H78.9908ZM76.064 30.6829V31.1707H75.5762V30.6829H76.064ZM76.5518 30.6829V31.1707H76.064V30.6829H76.5518ZM79.4786 30.6829V31.1707H78.9908V30.6829H79.4786ZM79.9664 30.6829V31.1707H79.4786V30.6829H79.9664ZM80.4542 30.6829V31.1707H79.9664V30.6829H80.4542ZM80.942 30.6829V31.1707H80.4542V30.6829H80.942Z" fill="#B22222"/>
</svg>
