<svg width="95" height="65" viewBox="0 0 95 65" fill="none" xmlns="http://www.w3.org/2000/svg">
<rect width="95" height="65" rx="5" fill="white"/>
<path d="M66.2734 61V46.7266H61.1758V43.8203H74.8281V46.7266H69.7422V61H66.2734ZM76.1992 55.4102L79.5742 55.082C79.7773 56.2148 80.1875 57.0469 80.8047 57.5781C81.4297 58.1094 82.2695 58.375 83.3242 58.375C84.4414 58.375 85.2812 58.1406 85.8438 57.6719C86.4141 57.1953 86.6992 56.6406 86.6992 56.0078C86.6992 55.6016 86.5781 55.2578 86.3359 54.9766C86.1016 54.6875 85.6875 54.4375 85.0938 54.2266C84.6875 54.0859 83.7617 53.8359 82.3164 53.4766C80.457 53.0156 79.1523 52.4492 78.4023 51.7773C77.3477 50.832 76.8203 49.6797 76.8203 48.3203C76.8203 47.4453 77.0664 46.6289 77.5586 45.8711C78.0586 45.1055 78.7734 44.5234 79.7031 44.125C80.6406 43.7266 81.7695 43.5273 83.0898 43.5273C85.2461 43.5273 86.8672 44 87.9531 44.9453C89.0469 45.8906 89.6211 47.1523 89.6758 48.7305L86.207 48.8828C86.0586 48 85.7383 47.3672 85.2461 46.9844C84.7617 46.5938 84.0312 46.3984 83.0547 46.3984C82.0469 46.3984 81.2578 46.6055 80.6875 47.0195C80.3203 47.2852 80.1367 47.6406 80.1367 48.0859C80.1367 48.4922 80.3086 48.8398 80.6523 49.1289C81.0898 49.4961 82.1523 49.8789 83.8398 50.2773C85.5273 50.6758 86.7734 51.0898 87.5781 51.5195C88.3906 51.9414 89.0234 52.5234 89.4766 53.2656C89.9375 54 90.168 54.9102 90.168 55.9961C90.168 56.9805 89.8945 57.9023 89.3477 58.7617C88.8008 59.6211 88.0273 60.2617 87.0273 60.6836C86.0273 61.0977 84.7812 61.3047 83.2891 61.3047C81.1172 61.3047 79.4492 60.8047 78.2852 59.8047C77.1211 58.7969 76.4258 57.332 76.1992 55.4102Z" fill="#0080FD"/>
<path fill-rule="evenodd" clip-rule="evenodd" d="M41.0007 4C31.1332 4 24.9676 8.88921 22.4996 18.6676C26.2001 13.7784 30.5169 11.9453 35.45 13.1669C38.2645 13.8637 40.2772 15.8876 42.503 18.1284C46.131 21.7772 50.3303 26 59.5004 26C69.3665 26 75.5335 21.1108 78 11.3338C74.3009 16.223 69.9842 18.0561 65.0511 16.8331C62.2351 16.1363 60.2225 14.1124 57.9967 11.873C54.3687 8.22132 50.1708 4 41.0007 4ZM22.4996 26C12.6336 26 6.46652 30.8892 4 40.6676C7.70051 35.7784 12.0173 33.9453 16.9489 35.1669C19.7649 35.8637 21.7775 37.8876 24.0033 40.1284C27.6313 43.7772 31.8292 48 41.0007 48C50.8668 48 57.0338 43.1122 59.5004 33.3338C55.7999 38.223 51.4831 40.0561 46.55 38.8345C43.7355 38.1363 41.7228 36.1124 39.497 33.873C35.869 30.2242 31.6697 26 22.4996 26Z" fill="#38BDF8"/>
</svg>
