<svg width="95" height="65" viewBox="0 0 95 65" fill="none" xmlns="http://www.w3.org/2000/svg">
<rect width="95" height="65" fill="white"/>
<path d="M28.4713 42.68C28.2579 42.68 28.0446 42.64 27.8313 42.56L11.8713 35.4C11.4179 35.1867 11.0579 34.9067 10.7913 34.56C10.5513 34.1867 10.4313 33.7733 10.4313 33.32V33C10.4313 32.5467 10.5513 32.1467 10.7913 31.8C11.0579 31.4267 11.4179 31.1333 11.8713 30.92L27.8313 23.76C28.0446 23.68 28.2579 23.64 28.4713 23.64C28.9246 23.64 29.2979 23.8 29.5912 24.12C29.9113 24.4133 30.0713 24.7867 30.0713 25.24C30.0713 25.56 29.9646 25.8667 29.7513 26.16C29.5646 26.4267 29.3113 26.6267 28.9913 26.76L14.5913 33.16L28.9913 39.56C29.3113 39.6933 29.5646 39.9067 29.7513 40.2C29.9646 40.4667 30.0713 40.76 30.0713 41.08C30.0713 41.5333 29.9113 41.92 29.5912 42.24C29.2979 42.5333 28.9246 42.68 28.4713 42.68ZM65.5256 42.68C65.0723 42.68 64.6856 42.5333 64.3656 42.24C64.0723 41.92 63.9256 41.5333 63.9256 41.08C63.9256 40.76 64.019 40.4667 64.2056 40.2C64.419 39.9067 64.6856 39.6933 65.0056 39.56L79.4056 33.16L65.0056 26.76C64.6856 26.6267 64.419 26.4267 64.2056 26.16C64.019 25.8667 63.9256 25.56 63.9256 25.24C63.9256 24.7867 64.0723 24.4133 64.3656 24.12C64.6856 23.8 65.0723 23.64 65.5256 23.64C65.7656 23.64 65.979 23.68 66.1656 23.76L82.1256 30.92C82.579 31.1333 82.9256 31.4267 83.1656 31.8C83.4323 32.1467 83.5656 32.5467 83.5656 33V33.32C83.5656 33.7733 83.4323 34.1867 83.1656 34.56C82.9256 34.9067 82.579 35.1867 82.1256 35.4L66.1656 42.56C65.979 42.64 65.7656 42.68 65.5256 42.68Z" fill="black"/>
<path d="M35.7944 48.8C35.3144 48.8 34.9144 48.64 34.5944 48.32C34.301 48 34.1544 47.6133 34.1544 47.16C34.1544 47 34.1944 46.8 34.2744 46.56L44.8744 15.56C44.981 15.24 45.1677 14.9733 45.4344 14.76C45.701 14.5467 46.0344 14.44 46.4344 14.44C46.9144 14.44 47.301 14.6 47.5944 14.92C47.9144 15.24 48.0744 15.6267 48.0744 16.08C48.0744 16.24 48.0344 16.44 47.9544 16.68L37.3544 47.68C37.2477 48 37.061 48.2667 36.7944 48.48C36.5277 48.6933 36.1944 48.8 35.7944 48.8ZM47.5913 48.8C47.1113 48.8 46.7113 48.64 46.3913 48.32C46.0979 48 45.9513 47.6133 45.9513 47.16C45.9513 47 45.9913 46.8 46.0713 46.56L56.6713 15.56C56.7779 15.24 56.9646 14.9733 57.2313 14.76C57.4979 14.5467 57.8313 14.44 58.2313 14.44C58.7113 14.44 59.0979 14.6 59.3913 14.92C59.7113 15.24 59.8713 15.6267 59.8713 16.08C59.8713 16.24 59.8313 16.44 59.7513 16.68L49.1513 47.68C49.0446 48 48.8579 48.2667 48.5913 48.48C48.3246 48.6933 47.9913 48.8 47.5913 48.8Z" fill="#34983D"/>
</svg>
