<svg width="233" height="178" viewBox="0 0 233 178" fill="none" xmlns="http://www.w3.org/2000/svg">
<path d="M232.707 159.577C233.098 159.187 233.098 158.554 232.707 158.163L226.343 151.799C225.953 151.409 225.319 151.409 224.929 151.799C224.538 152.19 224.538 152.823 224.929 153.213L230.586 158.87L224.929 164.527C224.538 164.917 224.538 165.551 224.929 165.941C225.319 166.332 225.953 166.332 226.343 165.941L232.707 159.577ZM0 158.87L0 159.87H232V158.87V157.87H0L0 158.87Z" fill="black"/>
<path d="M37 46.5368C42.891 46.5368 47.6667 41.7612 47.6667 35.8701C47.6667 29.9791 42.891 25.2034 37 25.2034C31.109 25.2034 26.3333 29.9791 26.3333 35.8701C26.3333 41.7612 31.109 46.5368 37 46.5368ZM37 67.8701L39 67.8701L39 35.8701L37 35.8701L35 35.8701L35 67.8701L37 67.8701Z" fill="black"/>
<path d="M198 46.5368C203.891 46.5368 208.667 41.7612 208.667 35.8701C208.667 29.9791 203.891 25.2034 198 25.2034C192.109 25.2034 187.333 29.9791 187.333 35.8701C187.333 41.7612 192.109 46.5368 198 46.5368ZM198 67.8701L200 67.8701L200 35.8701L198 35.8701L196 35.8701L196 67.8701L198 67.8701Z" fill="black"/>
<path d="M3 177.87V170.238H0.048V169.47H6.84V170.238H3.888V177.87H3ZM8.07863 177.87V171.57H8.93063V177.87H8.07863ZM8.51063 170.178C8.33463 170.178 8.18663 170.118 8.06663 169.998C7.94663 169.878 7.88663 169.734 7.88663 169.566C7.88663 169.398 7.94663 169.258 8.06663 169.146C8.18663 169.026 8.33463 168.966 8.51063 168.966C8.68663 168.966 8.83463 169.022 8.95463 169.134C9.07463 169.246 9.13463 169.386 9.13463 169.554C9.13463 169.73 9.07463 169.878 8.95463 169.998C8.84263 170.118 8.69463 170.178 8.51063 170.178ZM11.3013 177.87V171.57H12.1173V173.274L11.9853 172.974C12.1773 172.518 12.4853 172.162 12.9093 171.906C13.3413 171.642 13.8493 171.51 14.4333 171.51C15.0493 171.51 15.5733 171.666 16.0053 171.978C16.4373 172.282 16.7173 172.742 16.8453 173.358L16.5093 173.226C16.6933 172.714 17.0173 172.302 17.4813 171.99C17.9533 171.67 18.5173 171.51 19.1733 171.51C19.6853 171.51 20.1293 171.61 20.5053 171.81C20.8893 172.002 21.1853 172.298 21.3933 172.698C21.6093 173.098 21.7173 173.602 21.7173 174.21V177.87H20.8653V174.294C20.8653 173.63 20.7053 173.13 20.3853 172.794C20.0733 172.45 19.6293 172.278 19.0533 172.278C18.6213 172.278 18.2453 172.37 17.9253 172.554C17.6133 172.73 17.3693 172.99 17.1933 173.334C17.0253 173.67 16.9413 174.078 16.9413 174.558V177.87H16.0893V174.294C16.0893 173.63 15.9293 173.13 15.6093 172.794C15.2893 172.45 14.8413 172.278 14.2653 172.278C13.8413 172.278 13.4693 172.37 13.1493 172.554C12.8293 172.73 12.5813 172.99 12.4053 173.334C12.2373 173.67 12.1533 174.078 12.1533 174.558V177.87H11.3013ZM26.7038 177.93C26.0478 177.93 25.4718 177.794 24.9758 177.522C24.4798 177.242 24.0918 176.862 23.8118 176.382C23.5318 175.894 23.3918 175.338 23.3918 174.714C23.3918 174.09 23.5238 173.538 23.7878 173.058C24.0598 172.578 24.4278 172.202 24.8918 171.93C25.3638 171.65 25.8918 171.51 26.4758 171.51C27.0678 171.51 27.5918 171.646 28.0478 171.918C28.5118 172.182 28.8758 172.558 29.1398 173.046C29.4038 173.526 29.5358 174.082 29.5358 174.714C29.5358 174.754 29.5318 174.798 29.5238 174.846C29.5238 174.886 29.5238 174.93 29.5238 174.978H24.0398V174.342H29.0678L28.7318 174.594C28.7318 174.138 28.6318 173.734 28.4318 173.382C28.2398 173.022 27.9758 172.742 27.6398 172.542C27.3038 172.342 26.9158 172.242 26.4758 172.242C26.0438 172.242 25.6558 172.342 25.3118 172.542C24.9678 172.742 24.6998 173.022 24.5078 173.382C24.3158 173.742 24.2198 174.154 24.2198 174.618V174.75C24.2198 175.23 24.3238 175.654 24.5318 176.022C24.7478 176.382 25.0438 176.666 25.4198 176.874C25.8038 177.074 26.2398 177.174 26.7278 177.174C27.1118 177.174 27.4678 177.106 27.7958 176.97C28.1318 176.834 28.4198 176.626 28.6598 176.346L29.1398 176.898C28.8598 177.234 28.5078 177.49 28.0838 177.666C27.6678 177.842 27.2078 177.93 26.7038 177.93Z" fill="black"/>
<path d="M21.4844 89.9901C20.9311 89.9901 20.4211 89.9035 19.9544 89.7301C19.4944 89.5501 19.0911 89.2968 18.7444 88.9701C18.4044 88.6435 18.1377 88.2601 17.9444 87.8201C17.7577 87.3801 17.6644 86.8968 17.6644 86.3701C17.6644 85.8435 17.7577 85.3601 17.9444 84.9201C18.1377 84.4801 18.4077 84.0968 18.7544 83.7701C19.1011 83.4435 19.5077 83.1935 19.9744 83.0201C20.4411 82.8401 20.9544 82.7501 21.5144 82.7501C22.1344 82.7501 22.6911 82.8535 23.1844 83.0601C23.6844 83.2668 24.1044 83.5668 24.4444 83.9601L23.4044 84.9201C23.1511 84.6535 22.8744 84.4568 22.5744 84.3301C22.2744 84.1968 21.9477 84.1301 21.5944 84.1301C21.2544 84.1301 20.9444 84.1835 20.6644 84.2901C20.3844 84.3968 20.1411 84.5501 19.9344 84.7501C19.7344 84.9501 19.5777 85.1868 19.4644 85.4601C19.3577 85.7335 19.3044 86.0368 19.3044 86.3701C19.3044 86.6968 19.3577 86.9968 19.4644 87.2701C19.5777 87.5435 19.7344 87.7835 19.9344 87.9901C20.1411 88.1901 20.3811 88.3435 20.6544 88.4501C20.9344 88.5568 21.2411 88.6101 21.5744 88.6101C21.8944 88.6101 22.2044 88.5601 22.5044 88.4601C22.8111 88.3535 23.1077 88.1768 23.3944 87.9301L24.3144 89.1001C23.9344 89.3868 23.4911 89.6068 22.9844 89.7601C22.4844 89.9135 21.9844 89.9901 21.4844 89.9901ZM24.3144 89.1001L22.8344 88.8901V86.2601H24.3144V89.1001ZM28.1193 89.9901C27.5593 89.9901 27.0226 89.9168 26.5093 89.7701C25.9959 89.6168 25.5826 89.4201 25.2693 89.1801L25.8193 87.9601C26.1193 88.1735 26.4726 88.3501 26.8793 88.4901C27.2926 88.6235 27.7093 88.6901 28.1293 88.6901C28.4493 88.6901 28.7059 88.6601 28.8993 88.6001C29.0993 88.5335 29.2459 88.4435 29.3393 88.3301C29.4326 88.2168 29.4793 88.0868 29.4793 87.9401C29.4793 87.7535 29.4059 87.6068 29.2593 87.5001C29.1126 87.3868 28.9193 87.2968 28.6793 87.2301C28.4393 87.1568 28.1726 87.0901 27.8793 87.0301C27.5926 86.9635 27.3026 86.8835 27.0093 86.7901C26.7226 86.6968 26.4593 86.5768 26.2193 86.4301C25.9793 86.2835 25.7826 86.0901 25.6293 85.8501C25.4826 85.6101 25.4093 85.3035 25.4093 84.9301C25.4093 84.5301 25.5159 84.1668 25.7293 83.8401C25.9493 83.5068 26.2759 83.2435 26.7093 83.0501C27.1493 82.8501 27.6993 82.7501 28.3593 82.7501C28.7993 82.7501 29.2326 82.8035 29.6593 82.9101C30.0859 83.0101 30.4626 83.1635 30.7893 83.3701L30.2893 84.6001C29.9626 84.4135 29.6359 84.2768 29.3093 84.1901C28.9826 84.0968 28.6626 84.0501 28.3493 84.0501C28.0359 84.0501 27.7793 84.0868 27.5793 84.1601C27.3793 84.2335 27.2359 84.3301 27.1493 84.4501C27.0626 84.5635 27.0193 84.6968 27.0193 84.8501C27.0193 85.0301 27.0926 85.1768 27.2393 85.2901C27.3859 85.3968 27.5793 85.4835 27.8193 85.5501C28.0593 85.6168 28.3226 85.6835 28.6093 85.7501C28.9026 85.8168 29.1926 85.8935 29.4793 85.9801C29.7726 86.0668 30.0393 86.1835 30.2793 86.3301C30.5193 86.4768 30.7126 86.6701 30.8593 86.9101C31.0126 87.1501 31.0893 87.4535 31.0893 87.8201C31.0893 88.2135 30.9793 88.5735 30.7593 88.9001C30.5393 89.2268 30.2093 89.4901 29.7693 89.6901C29.3359 89.8901 28.7859 89.9901 28.1193 89.9901ZM32.1962 89.8701V82.8701H33.8162V89.8701H32.1962ZM38.8775 89.9901C38.3241 89.9901 37.8108 89.9001 37.3375 89.7201C36.8708 89.5401 36.4641 89.2868 36.1175 88.9601C35.7775 88.6335 35.5108 88.2501 35.3175 87.8101C35.1308 87.3701 35.0375 86.8901 35.0375 86.3701C35.0375 85.8501 35.1308 85.3701 35.3175 84.9301C35.5108 84.4901 35.7808 84.1068 36.1275 83.7801C36.4741 83.4535 36.8808 83.2001 37.3475 83.0201C37.8141 82.8401 38.3208 82.7501 38.8675 82.7501C39.4208 82.7501 39.9275 82.8401 40.3875 83.0201C40.8541 83.2001 41.2575 83.4535 41.5975 83.7801C41.9441 84.1068 42.2141 84.4901 42.4075 84.9301C42.6008 85.3635 42.6975 85.8435 42.6975 86.3701C42.6975 86.8901 42.6008 87.3735 42.4075 87.8201C42.2141 88.2601 41.9441 88.6435 41.5975 88.9701C41.2575 89.2901 40.8541 89.5401 40.3875 89.7201C39.9275 89.9001 39.4241 89.9901 38.8775 89.9901ZM38.8675 88.6101C39.1808 88.6101 39.4675 88.5568 39.7275 88.4501C39.9941 88.3435 40.2275 88.1901 40.4275 87.9901C40.6275 87.7901 40.7808 87.5535 40.8875 87.2801C41.0008 87.0068 41.0575 86.7035 41.0575 86.3701C41.0575 86.0368 41.0008 85.7335 40.8875 85.4601C40.7808 85.1868 40.6275 84.9501 40.4275 84.7501C40.2341 84.5501 40.0041 84.3968 39.7375 84.2901C39.4708 84.1835 39.1808 84.1301 38.8675 84.1301C38.5541 84.1301 38.2641 84.1835 37.9975 84.2901C37.7375 84.3968 37.5075 84.5501 37.3075 84.7501C37.1075 84.9501 36.9508 85.1868 36.8375 85.4601C36.7308 85.7335 36.6775 86.0368 36.6775 86.3701C36.6775 86.6968 36.7308 87.0001 36.8375 87.2801C36.9508 87.5535 37.1041 87.7901 37.2975 87.9901C37.4975 88.1901 37.7308 88.3435 37.9975 88.4501C38.2641 88.5568 38.5541 88.6101 38.8675 88.6101ZM45.618 89.9901C45.1313 89.9901 44.648 89.9268 44.168 89.8001C43.688 89.6668 43.2813 89.4801 42.948 89.2401L43.578 88.0001C43.8447 88.1935 44.1547 88.3468 44.508 88.4601C44.8613 88.5735 45.218 88.6301 45.578 88.6301C45.9847 88.6301 46.3047 88.5501 46.538 88.3901C46.7713 88.2301 46.888 88.0101 46.888 87.7301C46.888 87.4635 46.7847 87.2535 46.578 87.1001C46.3713 86.9468 46.038 86.8701 45.578 86.8701H44.838V85.8001L46.788 83.5901L46.968 84.1701H43.298V82.8701H48.198V83.9201L46.258 86.1301L45.438 85.6601H45.908C46.768 85.6601 47.418 85.8535 47.858 86.2401C48.298 86.6268 48.518 87.1235 48.518 87.7301C48.518 88.1235 48.4147 88.4935 48.208 88.8401C48.0013 89.1801 47.6847 89.4568 47.258 89.6701C46.8313 89.8835 46.2847 89.9901 45.618 89.9901ZM51.5483 89.9901C51.0617 89.9901 50.5783 89.9268 50.0983 89.8001C49.625 89.6668 49.2183 89.4801 48.8783 89.2401L49.5183 88.0001C49.785 88.1935 50.0917 88.3468 50.4383 88.4601C50.7917 88.5735 51.1483 88.6301 51.5083 88.6301C51.915 88.6301 52.235 88.5501 52.4683 88.3901C52.7017 88.2301 52.8183 88.0068 52.8183 87.7201C52.8183 87.5401 52.7717 87.3801 52.6783 87.2401C52.585 87.1001 52.4183 86.9935 52.1783 86.9201C51.945 86.8468 51.615 86.8101 51.1883 86.8101H49.3983L49.7583 82.8701H54.0283V84.1701H50.3383L51.1783 83.4301L50.9283 86.2401L50.0883 85.5001H51.5683C52.2617 85.5001 52.8183 85.5968 53.2383 85.7901C53.665 85.9768 53.975 86.2335 54.1683 86.5601C54.3617 86.8868 54.4583 87.2568 54.4583 87.6701C54.4583 88.0835 54.355 88.4668 54.1483 88.8201C53.9417 89.1668 53.6217 89.4501 53.1883 89.6701C52.7617 89.8835 52.215 89.9901 51.5483 89.9901Z" fill="black"/>
<path d="M181.464 89.9901C180.911 89.9901 180.401 89.9035 179.934 89.7301C179.474 89.5501 179.071 89.2968 178.724 88.9701C178.384 88.6435 178.117 88.2601 177.924 87.8201C177.737 87.3801 177.644 86.8968 177.644 86.3701C177.644 85.8435 177.737 85.3601 177.924 84.9201C178.117 84.4801 178.387 84.0968 178.734 83.7701C179.081 83.4435 179.487 83.1935 179.954 83.0201C180.421 82.8401 180.934 82.7501 181.494 82.7501C182.114 82.7501 182.671 82.8535 183.164 83.0601C183.664 83.2668 184.084 83.5668 184.424 83.9601L183.384 84.9201C183.131 84.6535 182.854 84.4568 182.554 84.3301C182.254 84.1968 181.927 84.1301 181.574 84.1301C181.234 84.1301 180.924 84.1835 180.644 84.2901C180.364 84.3968 180.121 84.5501 179.914 84.7501C179.714 84.9501 179.557 85.1868 179.444 85.4601C179.337 85.7335 179.284 86.0368 179.284 86.3701C179.284 86.6968 179.337 86.9968 179.444 87.2701C179.557 87.5435 179.714 87.7835 179.914 87.9901C180.121 88.1901 180.361 88.3435 180.634 88.4501C180.914 88.5568 181.221 88.6101 181.554 88.6101C181.874 88.6101 182.184 88.5601 182.484 88.4601C182.791 88.3535 183.087 88.1768 183.374 87.9301L184.294 89.1001C183.914 89.3868 183.471 89.6068 182.964 89.7601C182.464 89.9135 181.964 89.9901 181.464 89.9901ZM184.294 89.1001L182.814 88.8901V86.2601H184.294V89.1001ZM188.099 89.9901C187.539 89.9901 187.002 89.9168 186.489 89.7701C185.975 89.6168 185.562 89.4201 185.249 89.1801L185.799 87.9601C186.099 88.1735 186.452 88.3501 186.859 88.4901C187.272 88.6235 187.689 88.6901 188.109 88.6901C188.429 88.6901 188.685 88.6601 188.879 88.6001C189.079 88.5335 189.225 88.4435 189.319 88.3301C189.412 88.2168 189.459 88.0868 189.459 87.9401C189.459 87.7535 189.385 87.6068 189.239 87.5001C189.092 87.3868 188.899 87.2968 188.659 87.2301C188.419 87.1568 188.152 87.0901 187.859 87.0301C187.572 86.9635 187.282 86.8835 186.989 86.7901C186.702 86.6968 186.439 86.5768 186.199 86.4301C185.959 86.2835 185.762 86.0901 185.609 85.8501C185.462 85.6101 185.389 85.3035 185.389 84.9301C185.389 84.5301 185.495 84.1668 185.709 83.8401C185.929 83.5068 186.255 83.2435 186.689 83.0501C187.129 82.8501 187.679 82.7501 188.339 82.7501C188.779 82.7501 189.212 82.8035 189.639 82.9101C190.065 83.0101 190.442 83.1635 190.769 83.3701L190.269 84.6001C189.942 84.4135 189.615 84.2768 189.289 84.1901C188.962 84.0968 188.642 84.0501 188.329 84.0501C188.015 84.0501 187.759 84.0868 187.559 84.1601C187.359 84.2335 187.215 84.3301 187.129 84.4501C187.042 84.5635 186.999 84.6968 186.999 84.8501C186.999 85.0301 187.072 85.1768 187.219 85.2901C187.365 85.3968 187.559 85.4835 187.799 85.5501C188.039 85.6168 188.302 85.6835 188.589 85.7501C188.882 85.8168 189.172 85.8935 189.459 85.9801C189.752 86.0668 190.019 86.1835 190.259 86.3301C190.499 86.4768 190.692 86.6701 190.839 86.9101C190.992 87.1501 191.069 87.4535 191.069 87.8201C191.069 88.2135 190.959 88.5735 190.739 88.9001C190.519 89.2268 190.189 89.4901 189.749 89.6901C189.315 89.8901 188.765 89.9901 188.099 89.9901ZM192.176 89.8701V82.8701H193.796V89.8701H192.176ZM198.857 89.9901C198.304 89.9901 197.79 89.9001 197.317 89.7201C196.85 89.5401 196.444 89.2868 196.097 88.9601C195.757 88.6335 195.49 88.2501 195.297 87.8101C195.11 87.3701 195.017 86.8901 195.017 86.3701C195.017 85.8501 195.11 85.3701 195.297 84.9301C195.49 84.4901 195.76 84.1068 196.107 83.7801C196.454 83.4535 196.86 83.2001 197.327 83.0201C197.794 82.8401 198.3 82.7501 198.847 82.7501C199.4 82.7501 199.907 82.8401 200.367 83.0201C200.834 83.2001 201.237 83.4535 201.577 83.7801C201.924 84.1068 202.194 84.4901 202.387 84.9301C202.58 85.3635 202.677 85.8435 202.677 86.3701C202.677 86.8901 202.58 87.3735 202.387 87.8201C202.194 88.2601 201.924 88.6435 201.577 88.9701C201.237 89.2901 200.834 89.5401 200.367 89.7201C199.907 89.9001 199.404 89.9901 198.857 89.9901ZM198.847 88.6101C199.16 88.6101 199.447 88.5568 199.707 88.4501C199.974 88.3435 200.207 88.1901 200.407 87.9901C200.607 87.7901 200.76 87.5535 200.867 87.2801C200.98 87.0068 201.037 86.7035 201.037 86.3701C201.037 86.0368 200.98 85.7335 200.867 85.4601C200.76 85.1868 200.607 84.9501 200.407 84.7501C200.214 84.5501 199.984 84.3968 199.717 84.2901C199.45 84.1835 199.16 84.1301 198.847 84.1301C198.534 84.1301 198.244 84.1835 197.977 84.2901C197.717 84.3968 197.487 84.5501 197.287 84.7501C197.087 84.9501 196.93 85.1868 196.817 85.4601C196.71 85.7335 196.657 86.0368 196.657 86.3701C196.657 86.6968 196.71 87.0001 196.817 87.2801C196.93 87.5535 197.084 87.7901 197.277 87.9901C197.477 88.1901 197.71 88.3435 197.977 88.4501C198.244 88.5568 198.534 88.6101 198.847 88.6101ZM203.374 88.4001V87.3101L206.674 82.8701H208.374L205.144 87.3101L204.354 87.0801H209.864V88.4001H203.374ZM207.144 89.8701V88.4001L207.194 87.0801V85.7701H208.724V89.8701H207.144ZM213.349 89.9901C212.776 89.9901 212.262 89.8501 211.809 89.5701C211.356 89.2835 210.999 88.8701 210.739 88.3301C210.479 87.7901 210.349 87.1368 210.349 86.3701C210.349 85.6035 210.479 84.9501 210.739 84.4101C210.999 83.8701 211.356 83.4601 211.809 83.1801C212.262 82.8935 212.776 82.7501 213.349 82.7501C213.929 82.7501 214.442 82.8935 214.889 83.1801C215.342 83.4601 215.699 83.8701 215.959 84.4101C216.219 84.9501 216.349 85.6035 216.349 86.3701C216.349 87.1368 216.219 87.7901 215.959 88.3301C215.699 88.8701 215.342 89.2835 214.889 89.5701C214.442 89.8501 213.929 89.9901 213.349 89.9901ZM213.349 88.6201C213.622 88.6201 213.859 88.5435 214.059 88.3901C214.266 88.2368 214.426 87.9935 214.539 87.6601C214.659 87.3268 214.719 86.8968 214.719 86.3701C214.719 85.8435 214.659 85.4135 214.539 85.0801C214.426 84.7468 214.266 84.5035 214.059 84.3501C213.859 84.1968 213.622 84.1201 213.349 84.1201C213.082 84.1201 212.846 84.1968 212.639 84.3501C212.439 84.5035 212.279 84.7468 212.159 85.0801C212.046 85.4135 211.989 85.8435 211.989 86.3701C211.989 86.8968 212.046 87.3268 212.159 87.6601C212.279 87.9935 212.439 88.2368 212.639 88.3901C212.846 88.5435 213.082 88.6201 213.349 88.6201Z" fill="black"/>
<path d="M108.077 140.014C107.413 140.014 106.801 139.91 106.241 139.702C105.689 139.486 105.205 139.182 104.789 138.79C104.381 138.398 104.061 137.938 103.829 137.41C103.605 136.882 103.493 136.302 103.493 135.67C103.493 135.038 103.605 134.458 103.829 133.93C104.061 133.402 104.385 132.942 104.801 132.55C105.217 132.158 105.705 131.858 106.265 131.65C106.825 131.434 107.441 131.326 108.113 131.326C108.857 131.326 109.525 131.45 110.117 131.698C110.717 131.946 111.221 132.306 111.629 132.778L110.381 133.93C110.077 133.61 109.745 133.374 109.385 133.222C109.025 133.062 108.633 132.982 108.209 132.982C107.801 132.982 107.429 133.046 107.093 133.174C106.757 133.302 106.465 133.486 106.217 133.726C105.977 133.966 105.789 134.25 105.653 134.578C105.525 134.906 105.461 135.27 105.461 135.67C105.461 136.062 105.525 136.422 105.653 136.75C105.789 137.078 105.977 137.366 106.217 137.614C106.465 137.854 106.753 138.038 107.081 138.166C107.417 138.294 107.785 138.358 108.185 138.358C108.569 138.358 108.941 138.298 109.301 138.178C109.669 138.05 110.025 137.838 110.369 137.542L111.473 138.946C111.017 139.29 110.485 139.554 109.877 139.738C109.277 139.922 108.677 140.014 108.077 140.014ZM111.473 138.946L109.697 138.694V135.538H111.473V138.946ZM117.107 139.87V138.61L116.987 138.334V136.078C116.987 135.678 116.863 135.366 116.615 135.142C116.375 134.918 116.003 134.806 115.499 134.806C115.155 134.806 114.815 134.862 114.479 134.974C114.151 135.078 113.871 135.222 113.639 135.406L112.967 134.098C113.319 133.85 113.743 133.658 114.239 133.522C114.735 133.386 115.239 133.318 115.751 133.318C116.735 133.318 117.499 133.55 118.043 134.014C118.587 134.478 118.859 135.202 118.859 136.186V139.87H117.107ZM115.139 139.966C114.635 139.966 114.203 139.882 113.843 139.714C113.483 139.538 113.207 139.302 113.015 139.006C112.823 138.71 112.727 138.378 112.727 138.01C112.727 137.626 112.819 137.29 113.003 137.002C113.195 136.714 113.495 136.49 113.903 136.33C114.311 136.162 114.843 136.078 115.499 136.078H117.215V137.17H115.703C115.263 137.17 114.959 137.242 114.791 137.386C114.631 137.53 114.551 137.71 114.551 137.926C114.551 138.166 114.643 138.358 114.827 138.502C115.019 138.638 115.279 138.706 115.607 138.706C115.919 138.706 116.199 138.634 116.447 138.49C116.695 138.338 116.875 138.118 116.987 137.83L117.275 138.694C117.139 139.11 116.891 139.426 116.531 139.642C116.171 139.858 115.707 139.966 115.139 139.966ZM124.369 139.966C123.825 139.966 123.349 139.846 122.941 139.606C122.533 139.366 122.213 139.002 121.981 138.514C121.757 138.018 121.645 137.394 121.645 136.642C121.645 135.882 121.753 135.258 121.969 134.77C122.185 134.282 122.497 133.918 122.905 133.678C123.313 133.438 123.801 133.318 124.369 133.318C124.977 133.318 125.521 133.458 126.001 133.738C126.489 134.01 126.873 134.394 127.153 134.89C127.441 135.386 127.585 135.97 127.585 136.642C127.585 137.322 127.441 137.91 127.153 138.406C126.873 138.902 126.489 139.286 126.001 139.558C125.521 139.83 124.977 139.966 124.369 139.966ZM120.553 142.198V133.414H122.341V134.734L122.305 136.654L122.425 138.562V142.198H120.553ZM124.045 138.43C124.357 138.43 124.633 138.358 124.873 138.214C125.121 138.07 125.317 137.866 125.461 137.602C125.613 137.33 125.689 137.01 125.689 136.642C125.689 136.266 125.613 135.946 125.461 135.682C125.317 135.418 125.121 135.214 124.873 135.07C124.633 134.926 124.357 134.854 124.045 134.854C123.733 134.854 123.453 134.926 123.205 135.07C122.957 135.214 122.761 135.418 122.617 135.682C122.473 135.946 122.401 136.266 122.401 136.642C122.401 137.01 122.473 137.33 122.617 137.602C122.761 137.866 122.957 138.07 123.205 138.214C123.453 138.358 123.733 138.43 124.045 138.43Z" fill="#DC0019"/>
<path d="M74.9996 109.87L77.5956 109.87L77.5956 111.058C77.5956 112.202 77.9036 113.038 78.5196 113.566C79.1356 114.123 80.0009 114.402 81.1156 114.402L111.984 114.402C112.864 114.402 113.553 114.505 114.052 114.71C114.55 114.915 114.932 115.238 115.196 115.678C115.489 116.118 115.694 116.661 115.812 117.306L115.372 117.306C115.518 116.661 115.724 116.118 115.988 115.678C116.252 115.238 116.633 114.915 117.132 114.71C117.63 114.505 118.32 114.402 119.2 114.402L150.068 114.402C151.182 114.402 152.048 114.123 152.664 113.566C153.28 113.038 153.588 112.202 153.588 111.058L153.588 109.87L156.184 109.87L156.184 111.498C156.184 113.493 155.7 114.989 154.732 115.986C153.764 117.013 152.297 117.526 150.332 117.526L119.156 117.526C118.364 117.526 117.792 117.702 117.44 118.054C117.088 118.406 116.912 118.89 116.912 119.506L116.912 121.002L114.272 121.002L114.272 119.506C114.272 118.89 114.096 118.406 113.744 118.054C113.392 117.702 112.82 117.526 112.028 117.526L80.8516 117.526C78.9156 117.526 77.4636 117.013 76.4956 115.986C75.4983 114.989 74.9996 113.493 74.9996 111.498L74.9996 109.87Z" fill="#DC0019"/>
<path d="M14.1816 7.87012V0.870117H15.5216L18.5016 5.81012H17.7916L20.7216 0.870117H22.0516L22.0716 7.87012H20.5516L20.5416 3.20012H20.8216L18.4816 7.13012H17.7516L15.3616 3.20012H15.7016V7.87012H14.1816ZM26.9223 7.87012V6.82012L26.8223 6.59012V4.71012C26.8223 4.37678 26.719 4.11678 26.5123 3.93012C26.3123 3.74345 26.0023 3.65012 25.5823 3.65012C25.2957 3.65012 25.0123 3.69678 24.7323 3.79012C24.459 3.87678 24.2257 3.99678 24.0323 4.15012L23.4723 3.06012C23.7657 2.85345 24.119 2.69345 24.5323 2.58012C24.9457 2.46678 25.3657 2.41012 25.7923 2.41012C26.6123 2.41012 27.249 2.60345 27.7023 2.99012C28.1557 3.37678 28.3823 3.98012 28.3823 4.80012V7.87012H26.9223ZM25.2823 7.95012C24.8623 7.95012 24.5023 7.88012 24.2023 7.74012C23.9023 7.59345 23.6723 7.39678 23.5123 7.15012C23.3523 6.90345 23.2723 6.62678 23.2723 6.32012C23.2723 6.00012 23.349 5.72012 23.5023 5.48012C23.6623 5.24012 23.9123 5.05345 24.2523 4.92012C24.5923 4.78012 25.0357 4.71012 25.5823 4.71012H27.0123V5.62012H25.7523C25.3857 5.62012 25.1323 5.68012 24.9923 5.80012C24.859 5.92012 24.7923 6.07012 24.7923 6.25012C24.7923 6.45012 24.869 6.61012 25.0223 6.73012C25.1823 6.84345 25.399 6.90012 25.6723 6.90012C25.9323 6.90012 26.1657 6.84012 26.3723 6.72012C26.579 6.59345 26.729 6.41012 26.8223 6.17012L27.0623 6.89012C26.949 7.23678 26.7423 7.50012 26.4423 7.68012C26.1423 7.86012 25.7557 7.95012 25.2823 7.95012ZM31.9942 7.95012C31.3609 7.95012 30.8676 7.79012 30.5142 7.47012C30.1609 7.14345 29.9842 6.66012 29.9842 6.02012V1.30012H31.5442V6.00012C31.5442 6.22678 31.6042 6.40345 31.7242 6.53012C31.8442 6.65012 32.0076 6.71012 32.2142 6.71012C32.4609 6.71012 32.6709 6.64345 32.8442 6.51012L33.2642 7.61012C33.1042 7.72345 32.9109 7.81012 32.6842 7.87012C32.4642 7.92345 32.2342 7.95012 31.9942 7.95012ZM29.1542 3.69012V2.49012H32.8842V3.69012H29.1542ZM36.4099 7.95012C35.9633 7.95012 35.5633 7.86345 35.2099 7.69012C34.8633 7.51678 34.5933 7.25345 34.3999 6.90012C34.2066 6.54012 34.1099 6.08345 34.1099 5.53012V2.49012H35.6699V5.30012C35.6699 5.74678 35.7633 6.07678 35.9499 6.29012C36.1433 6.49678 36.4133 6.60012 36.7599 6.60012C36.9999 6.60012 37.2133 6.55012 37.3999 6.45012C37.5866 6.34345 37.7333 6.18345 37.8399 5.97012C37.9466 5.75012 37.9999 5.47678 37.9999 5.15012V2.49012H39.5599V7.87012H38.0799V6.39012L38.3499 6.82012C38.1699 7.19345 37.9033 7.47678 37.5499 7.67012C37.2033 7.85678 36.8233 7.95012 36.4099 7.95012ZM41.0052 7.87012V2.49012H42.4952V4.01012L42.2852 3.57012C42.4452 3.19012 42.7018 2.90345 43.0552 2.71012C43.4085 2.51012 43.8385 2.41012 44.3452 2.41012V3.85012C44.2785 3.84345 44.2185 3.84012 44.1652 3.84012C44.1118 3.83345 44.0552 3.83012 43.9952 3.83012C43.5685 3.83012 43.2218 3.95345 42.9552 4.20012C42.6952 4.44012 42.5652 4.81678 42.5652 5.33012V7.87012H41.0052ZM45.2825 7.87012V2.49012H46.8425V7.87012H45.2825ZM46.0625 1.74012C45.7758 1.74012 45.5425 1.65678 45.3625 1.49012C45.1825 1.32345 45.0925 1.11678 45.0925 0.870117C45.0925 0.62345 45.1825 0.416783 45.3625 0.250117C45.5425 0.08345 45.7758 0.000116587 46.0625 0.000116587C46.3492 0.000116587 46.5825 0.0801167 46.7625 0.240117C46.9425 0.39345 47.0325 0.59345 47.0325 0.840117C47.0325 1.10012 46.9425 1.31678 46.7625 1.49012C46.5892 1.65678 46.3558 1.74012 46.0625 1.74012ZM50.4903 7.95012C49.857 7.95012 49.3636 7.79012 49.0103 7.47012C48.657 7.14345 48.4803 6.66012 48.4803 6.02012V1.30012H50.0403V6.00012C50.0403 6.22678 50.1003 6.40345 50.2203 6.53012C50.3403 6.65012 50.5036 6.71012 50.7103 6.71012C50.957 6.71012 51.167 6.64345 51.3403 6.51012L51.7603 7.61012C51.6003 7.72345 51.407 7.81012 51.1803 7.87012C50.9603 7.92345 50.7303 7.95012 50.4903 7.95012ZM47.6503 3.69012V2.49012H51.3803V3.69012H47.6503ZM53.0719 9.89012C52.7919 9.89012 52.5152 9.84678 52.2419 9.76012C51.9685 9.67345 51.7452 9.55345 51.5719 9.40012L52.1419 8.29012C52.2619 8.39678 52.3985 8.48012 52.5519 8.54012C52.7119 8.60012 52.8685 8.63012 53.0219 8.63012C53.2419 8.63012 53.4152 8.57678 53.5419 8.47012C53.6752 8.37012 53.7952 8.20012 53.9019 7.96012L54.1819 7.30012L54.3019 7.13012L56.2319 2.49012H57.7319L55.3019 8.20012C55.1285 8.63345 54.9285 8.97345 54.7019 9.22012C54.4819 9.46678 54.2352 9.64012 53.9619 9.74012C53.6952 9.84012 53.3985 9.89012 53.0719 9.89012ZM53.9919 8.08012L51.5919 2.49012H53.2019L55.0619 6.99012L53.9919 8.08012ZM15.9186 19.9501C15.4652 19.9501 15.0686 19.8501 14.7286 19.6501C14.3886 19.4501 14.1219 19.1468 13.9286 18.7401C13.7419 18.3268 13.6486 17.8068 13.6486 17.1801C13.6486 16.5468 13.7386 16.0268 13.9186 15.6201C14.0986 15.2135 14.3586 14.9101 14.6986 14.7101C15.0386 14.5101 15.4452 14.4101 15.9186 14.4101C16.4252 14.4101 16.8786 14.5268 17.2786 14.7601C17.6852 14.9868 18.0052 15.3068 18.2386 15.7201C18.4786 16.1335 18.5986 16.6201 18.5986 17.1801C18.5986 17.7468 18.4786 18.2368 18.2386 18.6501C18.0052 19.0635 17.6852 19.3835 17.2786 19.6101C16.8786 19.8368 16.4252 19.9501 15.9186 19.9501ZM12.7386 21.8101V14.4901H14.2286V15.5901L14.1986 17.1901L14.2986 18.7801V21.8101H12.7386ZM15.6486 18.6701C15.9086 18.6701 16.1386 18.6101 16.3386 18.4901C16.5452 18.3701 16.7086 18.2001 16.8286 17.9801C16.9552 17.7535 17.0186 17.4868 17.0186 17.1801C17.0186 16.8668 16.9552 16.6001 16.8286 16.3801C16.7086 16.1601 16.5452 15.9901 16.3386 15.8701C16.1386 15.7501 15.9086 15.6901 15.6486 15.6901C15.3886 15.6901 15.1552 15.7501 14.9486 15.8701C14.7419 15.9901 14.5786 16.1601 14.4586 16.3801C14.3386 16.6001 14.2786 16.8668 14.2786 17.1801C14.2786 17.4868 14.3386 17.7535 14.4586 17.9801C14.5786 18.2001 14.7419 18.3701 14.9486 18.4901C15.1552 18.6101 15.3886 18.6701 15.6486 18.6701ZM22.855 19.8701V18.8201L22.755 18.5901V16.7101C22.755 16.3768 22.6516 16.1168 22.445 15.9301C22.245 15.7435 21.935 15.6501 21.515 15.6501C21.2283 15.6501 20.945 15.6968 20.665 15.7901C20.3916 15.8768 20.1583 15.9968 19.965 16.1501L19.405 15.0601C19.6983 14.8535 20.0516 14.6935 20.465 14.5801C20.8783 14.4668 21.2983 14.4101 21.725 14.4101C22.545 14.4101 23.1816 14.6035 23.635 14.9901C24.0883 15.3768 24.315 15.9801 24.315 16.8001V19.8701H22.855ZM21.215 19.9501C20.795 19.9501 20.435 19.8801 20.135 19.7401C19.835 19.5935 19.605 19.3968 19.445 19.1501C19.285 18.9035 19.205 18.6268 19.205 18.3201C19.205 18.0001 19.2816 17.7201 19.435 17.4801C19.595 17.2401 19.845 17.0535 20.185 16.9201C20.525 16.7801 20.9683 16.7101 21.515 16.7101H22.945V17.6201H21.685C21.3183 17.6201 21.065 17.6801 20.925 17.8001C20.7916 17.9201 20.725 18.0701 20.725 18.2501C20.725 18.4501 20.8016 18.6101 20.955 18.7301C21.115 18.8435 21.3316 18.9001 21.605 18.9001C21.865 18.9001 22.0983 18.8401 22.305 18.7201C22.5116 18.5935 22.6616 18.4101 22.755 18.1701L22.995 18.8901C22.8816 19.2368 22.675 19.5001 22.375 19.6801C22.075 19.8601 21.6883 19.9501 21.215 19.9501ZM26.3092 21.8901C26.0292 21.8901 25.7525 21.8468 25.4792 21.7601C25.2058 21.6735 24.9825 21.5535 24.8092 21.4001L25.3792 20.2901C25.4992 20.3968 25.6358 20.4801 25.7892 20.5401C25.9492 20.6001 26.1058 20.6301 26.2592 20.6301C26.4792 20.6301 26.6525 20.5768 26.7792 20.4701C26.9125 20.3701 27.0325 20.2001 27.1392 19.9601L27.4192 19.3001L27.5392 19.1301L29.4692 14.4901H30.9692L28.5392 20.2001C28.3658 20.6335 28.1658 20.9735 27.9392 21.2201C27.7192 21.4668 27.4725 21.6401 27.1992 21.7401C26.9325 21.8401 26.6358 21.8901 26.3092 21.8901ZM27.2292 20.0801L24.8292 14.4901H26.4392L28.2992 18.9901L27.2292 20.0801ZM31.6057 19.8701V14.4901H33.0957V15.9601L32.8157 15.5301C33.0024 15.1635 33.2657 14.8868 33.6057 14.7001C33.9524 14.5068 34.3457 14.4101 34.7857 14.4101C35.2791 14.4101 35.7091 14.5368 36.0757 14.7901C36.4491 15.0368 36.6957 15.4168 36.8157 15.9301L36.2657 15.7801C36.4457 15.3601 36.7324 15.0268 37.1257 14.7801C37.5257 14.5335 37.9824 14.4101 38.4957 14.4101C38.9224 14.4101 39.2991 14.4968 39.6257 14.6701C39.9591 14.8368 40.2191 15.0968 40.4057 15.4501C40.5991 15.7968 40.6957 16.2435 40.6957 16.7901V19.8701H39.1357V17.0301C39.1357 16.5968 39.0457 16.2768 38.8657 16.0701C38.6857 15.8635 38.4324 15.7601 38.1057 15.7601C37.8791 15.7601 37.6757 15.8135 37.4957 15.9201C37.3157 16.0201 37.1757 16.1735 37.0757 16.3801C36.9757 16.5868 36.9257 16.8501 36.9257 17.1701V19.8701H35.3657V17.0301C35.3657 16.5968 35.2757 16.2768 35.0957 16.0701C34.9224 15.8635 34.6724 15.7601 34.3457 15.7601C34.1191 15.7601 33.9157 15.8135 33.7357 15.9201C33.5557 16.0201 33.4157 16.1735 33.3157 16.3801C33.2157 16.5868 33.1657 16.8501 33.1657 17.1701V19.8701H31.6057ZM44.8031 19.9501C44.1898 19.9501 43.6498 19.8301 43.1831 19.5901C42.7231 19.3501 42.3664 19.0235 42.1131 18.6101C41.8598 18.1901 41.7331 17.7135 41.7331 17.1801C41.7331 16.6401 41.8564 16.1635 42.1031 15.7501C42.3564 15.3301 42.6998 15.0035 43.1331 14.7701C43.5664 14.5301 44.0564 14.4101 44.6031 14.4101C45.1298 14.4101 45.6031 14.5235 46.0231 14.7501C46.4498 14.9701 46.7864 15.2901 47.0331 15.7101C47.2798 16.1235 47.4031 16.6201 47.4031 17.2001C47.4031 17.2601 47.3998 17.3301 47.3931 17.4101C47.3864 17.4835 47.3798 17.5535 47.3731 17.6201H43.0031V16.7101H46.5531L45.9531 16.9801C45.9531 16.7001 45.8964 16.4568 45.7831 16.2501C45.6698 16.0435 45.5131 15.8835 45.3131 15.7701C45.1131 15.6501 44.8798 15.5901 44.6131 15.5901C44.3464 15.5901 44.1098 15.6501 43.9031 15.7701C43.7031 15.8835 43.5464 16.0468 43.4331 16.2601C43.3198 16.4668 43.2631 16.7135 43.2631 17.0001V17.2401C43.2631 17.5335 43.3264 17.7935 43.4531 18.0201C43.5864 18.2401 43.7698 18.4101 44.0031 18.5301C44.2431 18.6435 44.5231 18.7001 44.8431 18.7001C45.1298 18.7001 45.3798 18.6568 45.5931 18.5701C45.8131 18.4835 46.0131 18.3535 46.1931 18.1801L47.0231 19.0801C46.7764 19.3601 46.4664 19.5768 46.0931 19.7301C45.7198 19.8768 45.2898 19.9501 44.8031 19.9501ZM48.4417 19.8701V14.4901H49.9317V15.9801L49.6517 15.5301C49.845 15.1701 50.1217 14.8935 50.4817 14.7001C50.8417 14.5068 51.2517 14.4101 51.7117 14.4101C52.1383 14.4101 52.5183 14.4968 52.8517 14.6701C53.1917 14.8368 53.4583 15.0968 53.6517 15.4501C53.845 15.7968 53.9417 16.2435 53.9417 16.7901V19.8701H52.3817V17.0301C52.3817 16.5968 52.285 16.2768 52.0917 16.0701C51.905 15.8635 51.6383 15.7601 51.2917 15.7601C51.045 15.7601 50.8217 15.8135 50.6217 15.9201C50.4283 16.0201 50.275 16.1768 50.1617 16.3901C50.055 16.6035 50.0017 16.8768 50.0017 17.2101V19.8701H48.4417ZM57.5557 19.9501C56.9224 19.9501 56.4291 19.7901 56.0757 19.4701C55.7224 19.1435 55.5457 18.6601 55.5457 18.0201V13.3001H57.1057V18.0001C57.1057 18.2268 57.1657 18.4035 57.2857 18.5301C57.4057 18.6501 57.5691 18.7101 57.7757 18.7101C58.0224 18.7101 58.2324 18.6435 58.4057 18.5101L58.8257 19.6101C58.6657 19.7235 58.4724 19.8101 58.2457 19.8701C58.0257 19.9235 57.7957 19.9501 57.5557 19.9501ZM54.7157 15.6901V14.4901H58.4457V15.6901H54.7157Z" fill="black"/>
<path d="M175.182 7.87012V0.870117H176.522L179.502 5.81012H178.792L181.722 0.870117H183.052L183.072 7.87012H181.552L181.542 3.20012H181.822L179.482 7.13012H178.752L176.362 3.20012H176.702V7.87012H175.182ZM187.922 7.87012V6.82012L187.822 6.59012V4.71012C187.822 4.37678 187.719 4.11678 187.512 3.93012C187.312 3.74345 187.002 3.65012 186.582 3.65012C186.296 3.65012 186.012 3.69678 185.732 3.79012C185.459 3.87678 185.226 3.99678 185.032 4.15012L184.472 3.06012C184.766 2.85345 185.119 2.69345 185.532 2.58012C185.946 2.46678 186.366 2.41012 186.792 2.41012C187.612 2.41012 188.249 2.60345 188.702 2.99012C189.156 3.37678 189.382 3.98012 189.382 4.80012V7.87012H187.922ZM186.282 7.95012C185.862 7.95012 185.502 7.88012 185.202 7.74012C184.902 7.59345 184.672 7.39678 184.512 7.15012C184.352 6.90345 184.272 6.62678 184.272 6.32012C184.272 6.00012 184.349 5.72012 184.502 5.48012C184.662 5.24012 184.912 5.05345 185.252 4.92012C185.592 4.78012 186.036 4.71012 186.582 4.71012H188.012V5.62012H186.752C186.386 5.62012 186.132 5.68012 185.992 5.80012C185.859 5.92012 185.792 6.07012 185.792 6.25012C185.792 6.45012 185.869 6.61012 186.022 6.73012C186.182 6.84345 186.399 6.90012 186.672 6.90012C186.932 6.90012 187.166 6.84012 187.372 6.72012C187.579 6.59345 187.729 6.41012 187.822 6.17012L188.062 6.89012C187.949 7.23678 187.742 7.50012 187.442 7.68012C187.142 7.86012 186.756 7.95012 186.282 7.95012ZM192.994 7.95012C192.361 7.95012 191.868 7.79012 191.514 7.47012C191.161 7.14345 190.984 6.66012 190.984 6.02012V1.30012H192.544V6.00012C192.544 6.22678 192.604 6.40345 192.724 6.53012C192.844 6.65012 193.008 6.71012 193.214 6.71012C193.461 6.71012 193.671 6.64345 193.844 6.51012L194.264 7.61012C194.104 7.72345 193.911 7.81012 193.684 7.87012C193.464 7.92345 193.234 7.95012 192.994 7.95012ZM190.154 3.69012V2.49012H193.884V3.69012H190.154ZM197.41 7.95012C196.963 7.95012 196.563 7.86345 196.21 7.69012C195.863 7.51678 195.593 7.25345 195.4 6.90012C195.207 6.54012 195.11 6.08345 195.11 5.53012V2.49012H196.67V5.30012C196.67 5.74678 196.763 6.07678 196.95 6.29012C197.143 6.49678 197.413 6.60012 197.76 6.60012C198 6.60012 198.213 6.55012 198.4 6.45012C198.587 6.34345 198.733 6.18345 198.84 5.97012C198.947 5.75012 199 5.47678 199 5.15012V2.49012H200.56V7.87012H199.08V6.39012L199.35 6.82012C199.17 7.19345 198.903 7.47678 198.55 7.67012C198.203 7.85678 197.823 7.95012 197.41 7.95012ZM202.005 7.87012V2.49012H203.495V4.01012L203.285 3.57012C203.445 3.19012 203.702 2.90345 204.055 2.71012C204.408 2.51012 204.838 2.41012 205.345 2.41012V3.85012C205.278 3.84345 205.218 3.84012 205.165 3.84012C205.112 3.83345 205.055 3.83012 204.995 3.83012C204.568 3.83012 204.222 3.95345 203.955 4.20012C203.695 4.44012 203.565 4.81678 203.565 5.33012V7.87012H202.005ZM206.283 7.87012V2.49012H207.843V7.87012H206.283ZM207.063 1.74012C206.776 1.74012 206.543 1.65678 206.363 1.49012C206.183 1.32345 206.093 1.11678 206.093 0.870117C206.093 0.62345 206.183 0.416783 206.363 0.250117C206.543 0.08345 206.776 0.000116587 207.063 0.000116587C207.349 0.000116587 207.583 0.0801167 207.763 0.240117C207.943 0.39345 208.033 0.59345 208.033 0.840117C208.033 1.10012 207.943 1.31678 207.763 1.49012C207.589 1.65678 207.356 1.74012 207.063 1.74012ZM211.49 7.95012C210.857 7.95012 210.364 7.79012 210.01 7.47012C209.657 7.14345 209.48 6.66012 209.48 6.02012V1.30012H211.04V6.00012C211.04 6.22678 211.1 6.40345 211.22 6.53012C211.34 6.65012 211.504 6.71012 211.71 6.71012C211.957 6.71012 212.167 6.64345 212.34 6.51012L212.76 7.61012C212.6 7.72345 212.407 7.81012 212.18 7.87012C211.96 7.92345 211.73 7.95012 211.49 7.95012ZM208.65 3.69012V2.49012H212.38V3.69012H208.65ZM214.072 9.89012C213.792 9.89012 213.515 9.84678 213.242 9.76012C212.969 9.67345 212.745 9.55345 212.572 9.40012L213.142 8.29012C213.262 8.39678 213.399 8.48012 213.552 8.54012C213.712 8.60012 213.869 8.63012 214.022 8.63012C214.242 8.63012 214.415 8.57678 214.542 8.47012C214.675 8.37012 214.795 8.20012 214.902 7.96012L215.182 7.30012L215.302 7.13012L217.232 2.49012H218.732L216.302 8.20012C216.129 8.63345 215.929 8.97345 215.702 9.22012C215.482 9.46678 215.235 9.64012 214.962 9.74012C214.695 9.84012 214.399 9.89012 214.072 9.89012ZM214.992 8.08012L212.592 2.49012H214.202L216.062 6.99012L214.992 8.08012ZM176.919 19.9501C176.465 19.9501 176.069 19.8501 175.729 19.6501C175.389 19.4501 175.122 19.1468 174.929 18.7401C174.742 18.3268 174.649 17.8068 174.649 17.1801C174.649 16.5468 174.739 16.0268 174.919 15.6201C175.099 15.2135 175.359 14.9101 175.699 14.7101C176.039 14.5101 176.445 14.4101 176.919 14.4101C177.425 14.4101 177.879 14.5268 178.279 14.7601C178.685 14.9868 179.005 15.3068 179.239 15.7201C179.479 16.1335 179.599 16.6201 179.599 17.1801C179.599 17.7468 179.479 18.2368 179.239 18.6501C179.005 19.0635 178.685 19.3835 178.279 19.6101C177.879 19.8368 177.425 19.9501 176.919 19.9501ZM173.739 21.8101V14.4901H175.229V15.5901L175.199 17.1901L175.299 18.7801V21.8101H173.739ZM176.649 18.6701C176.909 18.6701 177.139 18.6101 177.339 18.4901C177.545 18.3701 177.709 18.2001 177.829 17.9801C177.955 17.7535 178.019 17.4868 178.019 17.1801C178.019 16.8668 177.955 16.6001 177.829 16.3801C177.709 16.1601 177.545 15.9901 177.339 15.8701C177.139 15.7501 176.909 15.6901 176.649 15.6901C176.389 15.6901 176.155 15.7501 175.949 15.8701C175.742 15.9901 175.579 16.1601 175.459 16.3801C175.339 16.6001 175.279 16.8668 175.279 17.1801C175.279 17.4868 175.339 17.7535 175.459 17.9801C175.579 18.2001 175.742 18.3701 175.949 18.4901C176.155 18.6101 176.389 18.6701 176.649 18.6701ZM183.855 19.8701V18.8201L183.755 18.5901V16.7101C183.755 16.3768 183.652 16.1168 183.445 15.9301C183.245 15.7435 182.935 15.6501 182.515 15.6501C182.228 15.6501 181.945 15.6968 181.665 15.7901C181.392 15.8768 181.158 15.9968 180.965 16.1501L180.405 15.0601C180.698 14.8535 181.052 14.6935 181.465 14.5801C181.878 14.4668 182.298 14.4101 182.725 14.4101C183.545 14.4101 184.182 14.6035 184.635 14.9901C185.088 15.3768 185.315 15.9801 185.315 16.8001V19.8701H183.855ZM182.215 19.9501C181.795 19.9501 181.435 19.8801 181.135 19.7401C180.835 19.5935 180.605 19.3968 180.445 19.1501C180.285 18.9035 180.205 18.6268 180.205 18.3201C180.205 18.0001 180.282 17.7201 180.435 17.4801C180.595 17.2401 180.845 17.0535 181.185 16.9201C181.525 16.7801 181.968 16.7101 182.515 16.7101H183.945V17.6201H182.685C182.318 17.6201 182.065 17.6801 181.925 17.8001C181.792 17.9201 181.725 18.0701 181.725 18.2501C181.725 18.4501 181.802 18.6101 181.955 18.7301C182.115 18.8435 182.332 18.9001 182.605 18.9001C182.865 18.9001 183.098 18.8401 183.305 18.7201C183.512 18.5935 183.662 18.4101 183.755 18.1701L183.995 18.8901C183.882 19.2368 183.675 19.5001 183.375 19.6801C183.075 19.8601 182.688 19.9501 182.215 19.9501ZM187.309 21.8901C187.029 21.8901 186.753 21.8468 186.479 21.7601C186.206 21.6735 185.983 21.5535 185.809 21.4001L186.379 20.2901C186.499 20.3968 186.636 20.4801 186.789 20.5401C186.949 20.6001 187.106 20.6301 187.259 20.6301C187.479 20.6301 187.653 20.5768 187.779 20.4701C187.913 20.3701 188.033 20.2001 188.139 19.9601L188.419 19.3001L188.539 19.1301L190.469 14.4901H191.969L189.539 20.2001C189.366 20.6335 189.166 20.9735 188.939 21.2201C188.719 21.4668 188.473 21.6401 188.199 21.7401C187.933 21.8401 187.636 21.8901 187.309 21.8901ZM188.229 20.0801L185.829 14.4901H187.439L189.299 18.9901L188.229 20.0801ZM192.606 19.8701V14.4901H194.096V15.9601L193.816 15.5301C194.002 15.1635 194.266 14.8868 194.606 14.7001C194.952 14.5068 195.346 14.4101 195.786 14.4101C196.279 14.4101 196.709 14.5368 197.076 14.7901C197.449 15.0368 197.696 15.4168 197.816 15.9301L197.266 15.7801C197.446 15.3601 197.732 15.0268 198.126 14.7801C198.526 14.5335 198.982 14.4101 199.496 14.4101C199.922 14.4101 200.299 14.4968 200.626 14.6701C200.959 14.8368 201.219 15.0968 201.406 15.4501C201.599 15.7968 201.696 16.2435 201.696 16.7901V19.8701H200.136V17.0301C200.136 16.5968 200.046 16.2768 199.866 16.0701C199.686 15.8635 199.432 15.7601 199.106 15.7601C198.879 15.7601 198.676 15.8135 198.496 15.9201C198.316 16.0201 198.176 16.1735 198.076 16.3801C197.976 16.5868 197.926 16.8501 197.926 17.1701V19.8701H196.366V17.0301C196.366 16.5968 196.276 16.2768 196.096 16.0701C195.922 15.8635 195.672 15.7601 195.346 15.7601C195.119 15.7601 194.916 15.8135 194.736 15.9201C194.556 16.0201 194.416 16.1735 194.316 16.3801C194.216 16.5868 194.166 16.8501 194.166 17.1701V19.8701H192.606ZM205.803 19.9501C205.19 19.9501 204.65 19.8301 204.183 19.5901C203.723 19.3501 203.366 19.0235 203.113 18.6101C202.86 18.1901 202.733 17.7135 202.733 17.1801C202.733 16.6401 202.856 16.1635 203.103 15.7501C203.356 15.3301 203.7 15.0035 204.133 14.7701C204.566 14.5301 205.056 14.4101 205.603 14.4101C206.13 14.4101 206.603 14.5235 207.023 14.7501C207.45 14.9701 207.786 15.2901 208.033 15.7101C208.28 16.1235 208.403 16.6201 208.403 17.2001C208.403 17.2601 208.4 17.3301 208.393 17.4101C208.386 17.4835 208.38 17.5535 208.373 17.6201H204.003V16.7101H207.553L206.953 16.9801C206.953 16.7001 206.896 16.4568 206.783 16.2501C206.67 16.0435 206.513 15.8835 206.313 15.7701C206.113 15.6501 205.88 15.5901 205.613 15.5901C205.346 15.5901 205.11 15.6501 204.903 15.7701C204.703 15.8835 204.546 16.0468 204.433 16.2601C204.32 16.4668 204.263 16.7135 204.263 17.0001V17.2401C204.263 17.5335 204.326 17.7935 204.453 18.0201C204.586 18.2401 204.77 18.4101 205.003 18.5301C205.243 18.6435 205.523 18.7001 205.843 18.7001C206.13 18.7001 206.38 18.6568 206.593 18.5701C206.813 18.4835 207.013 18.3535 207.193 18.1801L208.023 19.0801C207.776 19.3601 207.466 19.5768 207.093 19.7301C206.72 19.8768 206.29 19.9501 205.803 19.9501ZM209.442 19.8701V14.4901H210.932V15.9801L210.652 15.5301C210.845 15.1701 211.122 14.8935 211.482 14.7001C211.842 14.5068 212.252 14.4101 212.712 14.4101C213.138 14.4101 213.518 14.4968 213.852 14.6701C214.192 14.8368 214.458 15.0968 214.652 15.4501C214.845 15.7968 214.942 16.2435 214.942 16.7901V19.8701H213.382V17.0301C213.382 16.5968 213.285 16.2768 213.092 16.0701C212.905 15.8635 212.638 15.7601 212.292 15.7601C212.045 15.7601 211.822 15.8135 211.622 15.9201C211.428 16.0201 211.275 16.1768 211.162 16.3901C211.055 16.6035 211.002 16.8768 211.002 17.2101V19.8701H209.442ZM218.556 19.9501C217.922 19.9501 217.429 19.7901 217.076 19.4701C216.722 19.1435 216.546 18.6601 216.546 18.0201V13.3001H218.106V18.0001C218.106 18.2268 218.166 18.4035 218.286 18.5301C218.406 18.6501 218.569 18.7101 218.776 18.7101C219.022 18.7101 219.232 18.6435 219.406 18.5101L219.826 19.6101C219.666 19.7235 219.472 19.8101 219.246 19.8701C219.026 19.9235 218.796 19.9501 218.556 19.9501ZM215.716 15.6901V14.4901H219.446V15.6901H215.716Z" fill="black"/>
<rect x="1.5" y="69.3701" width="68" height="33" stroke="black" stroke-width="3"/>
<rect x="162.5" y="69.3701" width="68" height="33" stroke="black" stroke-width="3"/>
</svg>
