<svg width="95" height="65" viewBox="0 0 95 65" fill="none" xmlns="http://www.w3.org/2000/svg">
<rect width="95" height="65" fill="white"/>
<path d="M77.677 39.5171L77.7716 39.7401L78.0053 39.804L80.3202 40.4376C80.434 40.4753 80.4999 40.5796 80.4999 40.6675V42.894C80.4999 42.9819 80.434 43.0862 80.3202 43.1239L78.0053 43.7574L77.7608 43.8243L77.6703 44.0611C77.3682 44.8511 77.2235 45.1921 76.9098 45.9315L76.8696 46.0262L76.7729 46.254L76.8954 46.469L78.0943 48.5732L78.1004 48.5838L78.1069 48.5941C78.1402 48.6464 78.1485 48.7573 78.0529 48.8529L76.487 50.4188L76.4777 50.4281L76.4689 50.4379C76.4177 50.4947 76.3145 50.5228 76.2116 50.4628L76.2117 50.4628L76.2072 50.4603L74.1031 49.2614L73.8977 49.1444L73.677 49.2288C72.87 49.5374 72.5156 49.6877 71.7736 50.0026L71.6784 50.043L71.4554 50.1376L71.3914 50.3713L70.7553 52.6956L70.7526 52.7054L70.7504 52.7152C70.734 52.7863 70.659 52.8659 70.528 52.8659H68.3015C68.2136 52.8659 68.1093 52.8 68.0716 52.6861L67.4381 50.3713L67.3712 50.1268L67.1344 50.0362C66.3443 49.7341 66.0033 49.5894 65.2638 49.2756L65.1693 49.2355L64.9415 49.1389L64.7265 49.2614L62.6223 50.4603L62.6117 50.4663L62.6014 50.4729C62.5491 50.5061 62.4381 50.5144 62.3425 50.4188L60.7767 48.8529L60.7674 48.8436L60.7576 48.8348C60.7008 48.7837 60.6727 48.6805 60.7327 48.5776L60.7327 48.5776L60.7352 48.5732L61.9341 46.469L62.0511 46.2637L61.9667 46.0429C61.6581 45.2359 61.5078 44.8816 61.1929 44.1395L61.1525 44.0444L61.0579 43.8214L60.8242 43.7574L58.4999 43.1213L58.4901 43.1186L58.4803 43.1163C58.4092 43.0999 58.3296 43.025 58.3296 42.894V40.6675C58.3296 40.5796 58.3955 40.4753 58.5093 40.4376L60.8242 39.804L61.0687 39.7371L61.1593 39.5004C61.4614 38.7102 61.606 38.3693 61.9198 37.6297C61.9329 37.5989 61.9463 37.5675 61.9599 37.5352L62.0566 37.3074L61.9341 37.0924L60.7352 34.9883L60.7292 34.9776L60.7226 34.9673C60.6894 34.9151 60.6811 34.8041 60.7767 34.7085L62.3425 33.1426L62.3518 33.1333L62.3606 33.1236C62.4118 33.0667 62.515 33.0386 62.6179 33.0986L62.6179 33.0986L62.6223 33.1012L64.7265 34.3001L64.9318 34.4171L65.1526 34.3326C65.9595 34.0241 66.3139 33.8737 67.0559 33.5589C67.0869 33.5457 67.1186 33.5323 67.1511 33.5185L67.3741 33.4239L67.4381 33.1902L68.0742 30.8658L68.0769 30.8561L68.0792 30.8463C68.0956 30.7752 68.1705 30.6956 68.3015 30.6956H70.528C70.6159 30.6956 70.7202 30.7615 70.7579 30.8753L71.3914 33.1902L71.4584 33.4347L71.6951 33.5252C72.4852 33.8273 72.8262 33.972 73.5657 34.2858L73.6603 34.3259L73.8881 34.4226L74.1031 34.3001L76.2072 33.1012L76.2178 33.0951L76.2281 33.0886C76.2804 33.0553 76.3914 33.047 76.487 33.1426L78.0529 34.7085L78.0622 34.7178L78.0719 34.7266C78.1288 34.7778 78.1569 34.881 78.0969 34.9838L78.0968 34.9838L78.0943 34.9883L76.8954 37.0924L76.7784 37.2978L76.8628 37.5185C77.1714 38.3255 77.3217 38.6798 77.6366 39.4218L77.677 39.5171ZM63.74 41.793C63.74 44.9073 66.2637 47.4311 69.3781 47.4311C72.4924 47.4311 75.0161 44.9073 75.0161 41.793C75.0161 38.6786 72.4924 36.1549 69.3781 36.1549C66.2637 36.1549 63.74 38.6786 63.74 41.793Z" fill="#44BC4F" stroke="black"/>
<path d="M26.5549 55.4677C24.8329 55.4689 23.1493 54.9591 21.7171 54.003C20.2849 53.047 19.1686 51.6875 18.5093 50.0967C17.85 48.5059 17.6775 46.7553 18.0135 45.0665C18.3495 43.3776 19.179 41.8263 20.397 40.6091L26.9156 34.0916H51.5338L32.7072 52.9193C31.901 53.7295 30.9421 54.3719 29.8861 54.8093C28.8301 55.2467 27.6979 55.4705 26.5549 55.4677Z" fill="#44BC4F"/>
<g opacity="0.14">
<path d="M65.6275 19.5268L62.558 16.4573L28.7937 50.2216C27.2513 51.7618 25.2534 52.7635 23.0965 53.078C20.9396 53.3925 18.7387 53.003 16.8208 51.9673C16.9396 52.19 17.0672 52.4064 17.2038 52.6164C17.2728 52.7277 17.3496 52.8302 17.4265 52.9371C17.5322 53.0885 17.6413 53.2388 17.7605 53.3824C17.8273 53.4681 17.8941 53.5538 17.9642 53.6385C18.1568 53.8689 18.3561 54.0949 18.5721 54.3065C20.4719 56.2053 23.0481 57.272 25.7342 57.272C28.4203 57.272 30.9965 56.2053 32.8964 54.3065L60.6865 26.5074L66.4759 20.7281C66.2638 20.2821 65.9768 19.8758 65.6275 19.5268Z" fill="#17292D"/>
</g>
<path d="M62.7775 26.9566C63.6358 26.9562 64.4747 26.7012 65.1882 26.2242C65.9018 25.7471 66.4579 25.0693 66.7864 24.2763C67.1148 23.4833 67.2008 22.6108 67.0336 21.7689C66.8665 20.927 66.4536 20.1536 65.847 19.5463L53.5702 7.26612C52.8456 6.54416 51.8893 6.1012 50.87 6.01533C49.8507 5.92946 48.8339 6.2062 47.9987 6.79676C47.1635 7.38732 46.5636 8.25378 46.3048 9.24338C46.046 10.233 46.1449 11.2822 46.5839 12.206L18.7838 40.0095C16.9651 41.9251 15.9666 44.4755 16.0009 47.1167C16.0352 49.7579 17.0997 52.2812 18.9675 54.149C20.8352 56.0168 23.3586 57.0812 25.9999 57.1156C28.6411 57.1499 31.1913 56.1513 33.1069 54.3327L60.907 26.5326C61.4914 26.8117 62.131 26.9566 62.7787 26.9566H62.7775ZM20.544 52.0503L20.4916 51.9903C20.4271 51.9166 20.3625 51.8432 20.3013 51.7676L20.2834 51.7442C19.2378 50.446 18.6684 48.829 18.6703 47.162C18.6721 45.4952 19.245 43.8794 20.2935 42.5835L20.3002 42.5747C20.3692 42.49 20.4404 42.4076 20.5128 42.3264L20.5417 42.2919C20.6241 42.2007 20.7095 42.1109 20.7978 42.0225L20.8134 42.0069L21.8677 43.0613C21.9993 43.1968 22.1566 43.3047 22.3303 43.3789C22.504 43.4531 22.6907 43.4921 22.8796 43.4933C23.0685 43.4947 23.2558 43.4586 23.4306 43.3869C23.6054 43.3153 23.7642 43.2095 23.8977 43.076C24.0313 42.9425 24.137 42.7836 24.2086 42.6089C24.2803 42.434 24.3165 42.2468 24.3151 42.058C24.3137 41.8691 24.2748 41.6823 24.2006 41.5086C24.1264 41.335 24.0184 41.1777 23.8829 41.0461L22.8308 39.9985L24.7958 38.0278L24.9072 37.9164L28.0078 41.0171C28.1394 41.1527 28.2966 41.2605 28.4704 41.3348C28.6441 41.409 28.8308 41.448 29.0197 41.4494C29.2086 41.4506 29.3959 41.4145 29.5707 41.3428C29.7455 41.2712 29.9042 41.1656 30.0378 41.0319C30.1714 40.8984 30.2771 40.7395 30.3487 40.5648C30.4204 40.3901 30.4566 40.2027 30.4552 40.0139C30.4538 39.825 30.4149 39.6382 30.3407 39.4645C30.2665 39.2909 30.1585 39.1336 30.023 39.0019L26.9501 35.9236H47.4914L31.0918 52.3175C29.7267 53.6823 27.8756 54.449 25.9454 54.449C24.0151 54.449 22.164 53.6823 20.7989 52.3175L20.7511 52.2662C20.6798 52.1951 20.6108 52.1237 20.544 52.0503ZM33.0925 29.7311L36.1909 32.8319C36.2868 32.9274 36.3959 33.0086 36.5148 33.0734H32.2419C32.1908 32.998 32.1327 32.9274 32.0682 32.863L31.0139 31.8087L33.0925 29.7311ZM37.8798 33.0712C38.0742 32.9651 38.2411 32.8155 38.3674 32.6336C38.4937 32.4519 38.576 32.2432 38.6073 32.024C38.6389 31.8048 38.6188 31.5815 38.5487 31.3715C38.4786 31.1616 38.3605 30.9709 38.2038 30.8144L35.1032 27.7137L37.1851 25.6363L38.2395 26.6907C38.3711 26.826 38.5282 26.9341 38.7021 27.0083C38.8757 27.0825 39.0625 27.1215 39.2514 27.1227C39.4402 27.1242 39.6274 27.0881 39.8023 27.0163C39.977 26.9448 40.136 26.839 40.2694 26.7055C40.4029 26.5718 40.5087 26.4131 40.5803 26.2383C40.6521 26.0635 40.6881 25.8762 40.6867 25.6873C40.6855 25.4985 40.6465 25.3117 40.5723 25.138C40.4981 24.9643 40.39 24.8071 40.2547 24.6755L39.1968 23.6234L41.2744 21.5459L44.3751 24.6465C44.5067 24.782 44.6638 24.89 44.8377 24.9642C45.0114 25.0384 45.1982 25.0773 45.387 25.0787C45.5759 25.0801 45.7631 25.0439 45.938 24.9722C46.1127 24.9006 46.2716 24.7949 46.4051 24.6614C46.5386 24.5278 46.6444 24.369 46.7159 24.1942C46.7877 24.0194 46.8238 23.8321 46.8223 23.6432C46.8211 23.4544 46.7821 23.2676 46.7079 23.0939C46.6337 22.9202 46.5256 22.763 46.3903 22.6314L43.2896 19.5307L48.4209 14.3993L58.7138 24.6922L50.3358 33.0734L37.8798 33.0712ZM49.4463 9.2835C49.5847 9.14501 49.7492 9.03515 49.93 8.96019C50.1109 8.88524 50.3049 8.84665 50.5007 8.84665C50.6965 8.84665 50.8905 8.88524 51.0713 8.96019C51.2522 9.03515 51.4166 9.14501 51.555 9.2835L63.8329 21.5614C64.1125 21.8411 64.2696 22.2203 64.2696 22.6158C64.2696 23.0112 64.1125 23.3905 63.8329 23.6701C63.5534 23.9497 63.174 24.1068 62.7787 24.1068C62.3832 24.1068 62.0038 23.9497 61.7244 23.6701L49.4463 11.3922C49.3079 11.2537 49.198 11.0894 49.123 10.9085C49.0481 10.7275 49.0096 10.5337 49.0096 10.3378C49.0096 10.142 49.0481 9.94812 49.123 9.76721C49.198 9.5863 49.3079 9.42193 49.4463 9.2835Z" fill="#141F38"/>
</svg>
