<?xml version="1.0" encoding="UTF-8" standalone="no"?>
<!DOCTYPE svg PUBLIC "-//W3C//DTD SVG 1.1//EN" "http://www.w3.org/Graphics/SVG/1.1/DTD/svg11.dtd">
<svg width="100%" height="100%" viewBox="0 0 67 67" version="1.1" xmlns="http://www.w3.org/2000/svg" xmlns:xlink="http://www.w3.org/1999/xlink" xml:space="preserve" xmlns:serif="http://www.serif.com/" style="fill-rule:evenodd;clip-rule:evenodd;stroke-linejoin:round;stroke-miterlimit:2;">
    <g transform="matrix(0.112233,0,0,0.112233,0,5.18552)">
        <path d="M439.666,216.755C430.192,216.755 422.511,209.071 422.511,199.592C422.511,190.113 430.192,182.429 439.666,182.429C449.14,182.429 456.821,190.113 456.821,199.592C456.821,209.071 449.14,216.755 439.666,216.755ZM590.629,355.776C587.435,354.711 563.084,343.061 536.867,327.4C537.062,327.132 537.258,326.863 537.449,326.599C543.937,317.584 570.171,289.21 516.863,151.536C479.98,56.28 389.917,60.571 389.917,60.571C389.917,60.571 266.401,0.5 254.393,7.366C242.384,14.231 240.669,184.145 249.247,199.592C257.824,215.039 345.314,259.663 350.46,261.379C355.607,263.095 352.176,269.961 348.745,273.393C345.314,276.826 225.229,227.053 216.652,220.188C208.075,213.322 206.359,86.316 206.359,86.316C125.731,101.762 0.5,206.339 0.5,256.23C0.5,257.409 0.52,258.634 0.556,259.894C0.573,260.564 0.599,261.232 0.625,261.9C0.645,262.36 0.666,262.826 0.689,263.296C0.731,264.147 0.775,264.997 0.832,265.844C5.169,334.508 50.823,494.797 62.258,494.797L148.032,494.797C152.134,494.797 160.596,443.551 163.861,422.75C177.04,424.974 190.677,426.145 204.644,426.145C211.901,426.145 219.067,425.824 226.129,425.209C228.369,451.47 232.803,494.797 237.238,494.797L324.728,494.797C333.305,494.797 403.641,297.422 403.641,297.422C419.08,302.57 429.373,316.301 429.373,343.762C431.088,360.925 401.925,400.4 407.072,419.279C412.218,438.159 467.114,481.067 475.691,481.067C484.269,481.067 499.708,460.471 499.708,451.889C499.708,443.308 462.04,426.729 467.114,414.131C471.786,402.53 500.823,371.777 522.791,345.293C554.903,358.096 587.108,369.596 588.914,367.79C592.345,364.358 595.776,357.492 590.629,355.776" style="fill:rgb(3,4,4);"/>
    </g>
</svg>
