<svg width="550" height="620" viewBox="0 0 550 620" fill="none" xmlns="http://www.w3.org/2000/svg">
<g clip-path="url(#clip0_1957_64598)">
<path fill-rule="evenodd" clip-rule="evenodd" d="M71.2736 487.692L71.2258 698H485.083L484.931 487.692H71.2736Z" fill="#F4BE35"/>
<path fill-rule="evenodd" clip-rule="evenodd" d="M485.173 487.351H71.6154L71.6067 537.767C108.539 549.104 184.597 558.191 273.863 560.462C368.702 562.872 449.913 556.923 485.203 546.382L485.169 487.351H485.173Z" fill="#D8A228"/>
<path fill-rule="evenodd" clip-rule="evenodd" d="M278.985 486.496C154.256 486.443 53.412 498.158 53.5597 515.837C53.6814 533.478 154.46 547.814 278.868 547.871C403.31 547.91 504.319 533.682 504.519 516.041C504.71 498.357 403.749 486.552 278.985 486.496Z" fill="#F4BE35"/>
<path fill-rule="evenodd" clip-rule="evenodd" d="M53.5554 436.717V515.85L504.519 516.045V436.899L53.5554 436.717Z" fill="#F4BE35"/>
<path fill-rule="evenodd" clip-rule="evenodd" d="M279.085 403.455C403.793 403.507 504.71 418.503 504.519 436.943C504.289 455.33 403.323 470.175 278.968 470.118C154.625 470.066 53.7032 455.135 53.5555 436.734C53.4512 418.308 154.429 403.403 279.085 403.455Z" fill="#FFDB65"/>
<path fill-rule="evenodd" clip-rule="evenodd" d="M278.707 412.017C378.195 412.069 458.724 422.407 458.615 435.098C458.511 447.771 377.912 458.005 278.616 457.957C179.314 457.922 98.7593 447.611 98.6985 434.924C98.6464 422.237 179.232 411.978 278.707 412.017Z" fill="#382D23"/>
<path d="M505.909 411.839C505.661 406.268 501.338 401.553 496.416 399.386C494.209 387.989 483.226 379.206 471.514 380.439C462.942 364.305 429.112 364.722 419.597 379.119C419.511 379.149 419.428 379.18 419.345 379.21C394.334 365.807 379.728 405.734 406.946 412.312C411.139 416.189 417.395 418.134 423.234 417.843C431.619 420.974 442.341 420.505 449.961 415.603C453.454 419.979 458.767 423.231 464.506 422.884C468.677 425.489 472.978 426.388 477.027 426.001C487.992 436.825 508.42 427.113 505.913 411.839H505.909ZM165.429 378.824C156.979 361.591 130.235 370.205 126.651 387.012C116.007 380.647 101.301 386.3 95.8224 396.898C85.7302 391.949 74.0871 395.639 66.1758 402.729C55.3711 413.493 63.8124 433.309 79.1701 432.562C90.0399 431.007 98.681 433.035 105.185 421.946C109.798 424.569 115.868 424.681 120.499 422.046C127.059 424.087 135.179 421.347 138.589 415.29C144.233 417.687 150.793 417.175 156.193 414.352C171.976 410.154 180.4 394.749 168.566 381.411C167.588 380.404 166.537 379.549 165.429 378.815V378.824Z" fill="#D0D8D6"/>
<path d="M409.492 161.605C409.106 160.394 408.441 159.256 407.585 158.292C411.356 154.537 411.96 147.781 407.959 143.978C405.956 142.241 403.471 140.66 400.716 140.73C401.69 132.932 392.084 128.095 386.545 133.827C385.467 134.886 368.12 160.468 367.451 164.18C366.634 168.691 369.193 173.245 373.811 174.309C374.98 186.305 391.45 186.518 393.661 174.986C397.871 177.331 404.14 177.548 407.502 173.384C410.865 169.221 410.613 165.235 409.492 161.605Z" fill="#7C807F"/>
<path d="M267.515 84.3301C267.515 84.3301 274.006 67.2062 317.768 71.9778C356.008 76.1502 389.808 110.168 394.434 139.913C397.997 162.803 383.495 174.252 375.445 173.484C367.394 172.715 267.515 84.3301 267.515 84.3301Z" fill="#B5C4C6"/>
<path opacity="0.5" d="M339.846 77.7395C336.948 76.5411 333.986 75.4948 330.975 74.6221C324.575 74.8609 319.436 76.1634 319.128 76.2459C318.432 76.4239 318.011 77.136 318.193 77.8306C318.341 78.4081 318.858 78.7989 319.432 78.8075C319.549 78.8075 319.666 78.7945 319.784 78.7641C319.888 78.7381 330.345 76.0983 339.659 77.7221C339.725 77.7351 339.785 77.7351 339.851 77.7351L339.846 77.7395ZM393.248 150.877C392.644 150.486 391.836 150.655 391.445 151.259C382.474 165.065 369.197 165.847 369.002 165.856C368.285 165.886 367.725 166.494 367.755 167.21C367.781 167.901 368.346 168.448 369.032 168.461C369.058 168.461 369.084 168.461 369.11 168.461C369.71 168.435 383.877 167.688 393.631 152.678C394.022 152.075 393.852 151.267 393.248 150.877ZM368.311 154.914C368.454 155.501 368.976 155.896 369.549 155.904C369.662 155.904 369.775 155.896 369.888 155.865C370.066 155.822 374.389 154.723 381.831 150.06C382.439 149.678 382.626 148.875 382.244 148.263C381.861 147.655 381.058 147.468 380.445 147.85C373.438 152.24 369.336 153.312 369.263 153.334C368.563 153.508 368.137 154.211 368.311 154.91V154.914ZM368.515 96.1789C367.573 95.3149 366.608 94.4639 365.631 93.6303C359.97 93.9864 355.143 95.6189 354.891 95.7057C354.209 95.9402 353.848 96.6783 354.083 97.3599C354.265 97.8939 354.761 98.2283 355.291 98.2413C355.438 98.2413 355.591 98.2196 355.738 98.1718C355.808 98.1501 362.155 96.0053 368.52 96.1833L368.515 96.1789ZM336.701 80.0102C335.988 80.1187 335.497 80.783 335.606 81.4907C335.715 82.2028 336.384 82.6934 337.087 82.5849C337.161 82.5718 344.238 81.5385 350.664 83.0711C348.535 81.8468 346.354 80.7005 344.134 79.6412C340.063 79.5152 336.914 79.9755 336.701 80.0059V80.0102Z" fill="#7C807F"/>
<path d="M377.578 160.012C377 157.884 375.64 155.982 373.924 154.602C377.552 150.781 376.857 143.582 372.273 140.817C371.2 138.103 369.232 135.767 366.739 134.434C367.416 130.357 365.109 126.046 361.564 124.322C363.571 118.088 364.562 110.012 358.441 105.687C355.691 103.59 352.011 102.722 348.5 103.017C348.001 100.208 345.525 98.6711 342.132 101.233C343.205 91.5419 331.14 86.3883 323.22 88.4897C321.639 78.8944 307.458 75.1127 300.816 81.7903C298.374 74.3572 288.173 71.9345 282.721 77.6222C275.913 70.619 260.556 75.4166 257.984 84.5126C256.698 89.8313 259.118 94.0775 263.032 96.7347C266.946 99.3919 352.593 179.84 355.934 181.282C357.633 185.467 362.716 187.751 367.069 187.109C371.843 186.596 375.601 182.25 375.957 177.496C376.401 175.629 375.666 172.664 374.502 170.996C377.378 168.274 378.721 163.863 377.574 160.016L377.578 160.012Z" fill="#E4EAE7"/>
<path fill-rule="evenodd" clip-rule="evenodd" d="M364.857 221.561C369.906 227.782 379.281 240.547 380.65 243.157C378.877 242.019 377.022 241.468 376.123 241.785C380.215 245.896 381.623 250.633 382.083 251.58C378.208 248.61 373.216 247.39 373.216 247.39L366.239 233.466L364.862 221.565L364.857 221.561Z" fill="#B37F3D"/>
<path fill-rule="evenodd" clip-rule="evenodd" d="M218.11 233.622C211.828 235.91 194.768 243.274 192.674 244.554C194.433 244.502 195.993 244.906 196.501 245.518C191.805 246.704 188.764 249.495 188.029 249.977C192.078 249.517 196.175 250.789 196.175 250.789L210.412 246.4L218.115 233.622H218.11Z" fill="#B37F3D"/>
<path d="M401.577 458.747C400.999 451.392 401.638 454.522 401.351 446.711C400.087 412.029 403.249 387.286 395.707 360.744C383.161 316.584 386.749 299.743 377.747 261.848C373.564 244.224 376.783 229.723 368.124 202.739C360.326 178.429 356.812 143.747 343.061 124.756C328.468 104.602 293.378 90.6778 276.326 92.4709C247.301 95.5232 234.576 99.0791 228.437 111.154C219.157 129.406 214.696 145.002 210.342 176.918C206.028 208.544 202.158 217.08 196.796 240.985C191.431 264.891 186.948 310.493 180.266 335.462C174.097 358.521 171.629 396.499 170.556 416.58C170.169 423.843 169.253 441.51 168.653 460.418L299.1 464.704L401.572 458.751L401.577 458.747Z" fill="#B37F3D"/>
<path fill-rule="evenodd" clip-rule="evenodd" d="M289.168 109.117C289.764 111.327 293.118 110.003 292.622 107.81C292.11 105.518 290.398 102.704 287.196 102.005C283.994 101.306 280.406 102.127 279.276 104.363C278.151 106.599 279.971 106.946 281.114 105.913C282.817 104.372 288.738 106.482 289.164 109.122L289.168 109.117Z" fill="#996D35"/>
<path fill-rule="evenodd" clip-rule="evenodd" d="M285.071 104.641C287.965 105.171 290.007 107.511 289.742 109.877C289.477 112.235 287.122 113.411 284.229 113.073C281.209 112.717 278.933 110.442 279.193 107.893C279.458 105.331 282.052 104.09 285.071 104.641Z" fill="black"/>
<path fill-rule="evenodd" clip-rule="evenodd" d="M285.949 106.747C285.68 107.19 285.927 107.815 286.492 108.136C287.053 108.457 287.717 108.362 287.982 107.928C288.247 107.494 288.013 106.873 287.457 106.547C286.896 106.217 286.219 106.304 285.949 106.747Z" fill="#DDDDDD"/>
<path d="M350.06 120.297C350.03 116.729 347.801 113.555 344.478 112.56C344.538 111.853 344.53 111.106 344.439 110.311C344.295 106.191 341.541 102.839 338.022 101.324C335.163 100.091 280.323 79.7931 277.251 79.3372C270.235 78.2995 261.824 82.9886 263.662 90.9775C265.209 100.256 279.02 104.858 284.52 96.3266C287.813 101.771 295.446 102.965 301.098 101.124C303.157 111.136 314.357 115.165 323.259 111.288C323.259 118.005 329.055 121.188 334.594 120.94C335.146 124.635 338.052 127.661 341.997 127.8C345.942 127.939 350.099 124.509 350.065 120.302L350.06 120.297Z" fill="#E4EAE7"/>
<path d="M274.901 116.563C279.554 124.835 276.895 146.43 267.073 170.584C261.077 185.333 256.481 191.363 247.249 190.69C235.254 189.822 231.266 187.156 237.217 162.03C238.803 151.002 243.4 121.969 255.699 123.384C268.519 124.861 273.837 102.136 274.906 116.559L274.901 116.563Z" fill="#996D35"/>
<path d="M231.231 169.898C230.883 173.323 231.861 178.685 236.57 179.727C240.871 180.678 246.892 182.771 251.949 178.651C257.536 174.1 264.162 171.864 270.274 162.035C276.317 152.322 279.05 141.429 279.198 134.478C279.454 122.568 278.807 110.954 275.422 104.246C272.19 97.8373 260.308 85.8193 254.13 85.0335C247.952 84.2476 241.718 83.44 239.298 84.3388C236.883 85.2332 235.006 84.8554 232.099 88.3506C229.38 91.6199 229.032 95.1889 227.929 98.6623C226.46 103.299 224.623 110.455 225.852 114.818C227.616 121.066 231.487 125.985 234.215 130.887C237.439 136.683 239.355 142.236 238.49 146.713C236.444 157.315 232.369 158.613 231.222 169.893L231.231 169.898Z" fill="#EABE8A"/>
<path d="M233.629 107.164C241.966 105.275 247.696 103.412 254.308 109.486C259.643 114.388 272.021 132.042 268.854 146.669C267.033 155.079 265.595 160.25 257.958 168.148C248.013 178.434 242.431 177.4 237.569 176.154C232.995 174.978 231.974 170.202 234.976 162.161C237.639 155.027 239.272 151.845 240.146 145.562C240.81 140.751 237.7 133.705 234.937 128.425C232.695 124.144 229.814 121.561 228.946 118.648C227.247 112.947 227.799 108.488 233.629 107.168V107.164Z" fill="black"/>
<path d="M232.803 112.504C234.063 111.375 236.809 110.294 240.897 110.185C248.504 109.986 256.68 112.287 257.232 116.108C257.832 120.276 254.365 126.424 252.731 126.041C250.75 125.577 251.867 116.837 249.408 115.552C246.949 114.267 245.033 114.023 240.549 114.145C236.826 114.245 235.718 115.361 235.614 116.077C235.232 118.713 234.211 121.331 233.933 122.312C233.511 123.801 232.443 124.756 231.391 118.917C230.505 114.783 231.391 113.68 232.803 112.504Z" fill="white"/>
<path d="M241.319 82.7757C231.878 84.1433 231.513 88.4547 232.4 90.339C233.221 92.0801 235.627 94.0773 237.026 94.7112C238.695 95.471 240.085 95.1497 241.94 94.6851C247.375 93.3305 249.682 90.339 254.76 87.1999C257.871 85.2765 250.885 81.3863 241.314 82.7713L241.319 82.7757Z" fill="black"/>
<path d="M257.619 146.565C257.619 146.565 252.94 144.82 248.526 148.284C245.32 150.803 243.882 156.108 246.727 157.146C250.203 158.414 252.097 155.335 255.859 154.094C258.722 153.152 263.927 152.526 265.235 150.329C266.686 147.898 261.889 144.963 257.623 146.565H257.619Z" fill="#59283B"/>
<path d="M237.004 167.566C238.064 168.461 240.732 169.742 243.964 170.028C249.495 170.514 255.612 169.655 256.142 165.643C256.654 160.715 255.525 157.823 254.204 158.04C252.827 158.271 252.071 164.28 250.737 165.109C250.007 165.565 247.105 166.572 244.042 166.112C241.518 165.734 239.82 164.566 239.633 164.132C238.833 162.265 238.938 160.276 238.721 159.508C238.39 158.349 237.717 156.747 236.878 160.889C236.04 165.035 235.94 166.672 237 167.562L237.004 167.566Z" fill="white"/>
<path d="M362.581 371.516C362.581 371.516 364.758 429.323 378.964 440.481C395.721 453.641 401.581 451.058 401.581 451.058L400.856 409.186L362.585 371.516H362.581Z" fill="#996D35"/>
<path fill-rule="evenodd" clip-rule="evenodd" d="M126.225 373.817C130.413 380.643 139.341 393.733 141.344 395.887C140.862 393.837 140.957 391.905 141.557 391.163C144.072 396.39 148.073 399.29 148.816 400.037C147.304 395.396 147.813 390.286 147.813 390.286L136.995 379.075L126.225 373.813V373.817Z" fill="#B37F3D"/>
<path d="M202.305 245.388C202.305 245.388 160.642 274.478 156.897 271.13C153.152 267.783 109.955 231.29 102.231 221.951C96.105 214.548 78.41 202.435 63.9386 209.981C49.4673 217.527 37.1855 240.968 54.7545 261.769C69.8601 279.653 79.4353 281.954 83.4974 290.269C87.529 298.527 115.312 370.947 136.852 387.047C152.209 398.526 192.856 396.021 204.747 395.457C221.269 394.675 238.117 359.464 236.096 318.273C234.076 277.083 222.568 242.865 202.31 245.388H202.305Z" fill="#B37F3D"/>
<path opacity="0.5" d="M98.0816 233.882C101.032 238.81 91.4563 250.958 86.4819 254.475C81.5075 257.992 75.2472 263.91 69.4299 261.366C63.6127 258.821 53.438 257.753 55.771 244.172C57.4349 234.468 59.8287 231.898 68.8087 226.579C77.7887 221.265 89.9314 220.253 98.086 233.878L98.0816 233.882Z" fill="#382D23"/>
<path d="M368.051 246.326C372.16 242.218 396.437 272.672 403.197 270.983C409.957 269.294 421.036 249.539 419.685 242.106C418.333 234.677 415.761 223.692 416.04 205.795C416.174 197.246 431.249 186.544 444.092 190.595C456.934 194.646 475.176 207.38 478.556 221.565C481.936 235.749 479.716 274.704 479.716 292.266C479.716 309.828 476.28 357.063 463.833 375.906C447.081 401.266 405.569 420.261 397.797 423.301C390.025 426.34 366.704 427.69 360.96 403.71C355.217 379.731 345.751 268.612 368.059 246.321L368.051 246.326Z" fill="#B37F3D"/>
<path opacity="0.5" d="M462.469 242.444C457.799 244.928 444.153 241.723 440.86 239.244C437.571 236.765 430.072 229.436 428.395 226.419C426.718 223.397 419.402 213.228 427.544 209.803C434.651 206.811 442.845 206.03 449.418 212.582C455.991 219.133 460.722 222.511 463.746 227.196C466.561 231.559 467.435 239.804 462.469 242.449V242.444Z" fill="#382D23"/>
<path d="M481.662 251.319C481.662 251.319 485.551 220.44 478.608 201.602C471.666 182.763 451.89 174.908 433.617 176.919C420.84 178.325 410.565 186.371 410.565 209.877C410.565 209.877 405.356 202.956 401.572 207.571C397.788 212.187 411.825 244.103 423.768 249.93C435.711 255.756 487.771 270.188 481.658 251.319H481.662Z" fill="#B5C4C6"/>
<path opacity="0.5" d="M435.086 188.125C436.093 188.177 437.106 188.229 438.127 188.281C451.442 188.963 466.344 189.731 475.506 195.189C474.525 193.582 473.434 192.08 472.248 190.686C462.877 186.944 450.413 186.301 438.257 185.68C437.236 185.628 436.224 185.576 435.22 185.524C427.092 185.09 420.532 185.975 415.926 187C415.297 187.96 414.719 189.002 414.189 190.126C418.568 188.954 425.793 187.63 435.081 188.125H435.086ZM449.809 204.775C450.508 204.945 451.212 204.515 451.382 203.816C451.551 203.117 451.121 202.413 450.421 202.244C435.407 198.623 418.003 201.272 410.939 202.648C410.843 203.525 410.765 204.428 410.704 205.361C417.021 204.107 434.92 201.189 449.809 204.78V204.775ZM435.516 229.732C434.916 229.662 421.57 228.225 408.571 231.799C408.997 232.589 409.44 233.37 409.888 234.147C422.239 230.926 435.081 232.302 435.22 232.32C435.933 232.398 436.58 231.885 436.663 231.169C436.745 230.453 436.228 229.81 435.516 229.727V229.732ZM482.527 223.671C475.863 221.4 464.528 218.157 452.776 217.588C435.524 216.754 431.775 218.856 431.401 219.099C431.401 219.099 430.142 219.88 430.637 220.823C431.132 221.765 432.831 221.278 432.831 221.278C432.831 221.278 436.45 219.411 452.65 220.189C464.55 220.762 476.284 224.266 482.653 226.484C482.623 225.551 482.579 224.613 482.527 223.666V223.671Z" fill="#7C807F"/>
<path d="M69.5168 277.973C69.5168 277.973 44.7578 256.955 37.9152 239.631C31.0727 222.307 43.1025 206.299 60.5977 198.254C72.8273 192.627 87.429 193.139 103.608 210.25C103.608 210.25 103.438 202.504 109.951 203.894C116.463 205.283 125.195 235.146 118.909 245.744C112.623 256.342 77.4933 294.724 69.5168 277.977V277.973Z" fill="#B5C4C6"/>
<path opacity="0.5" d="M54.6501 211.796C54.9846 211.796 55.3191 211.67 55.5711 211.414C55.7014 211.284 66.4149 200.659 77.0023 195.171C75.2167 195.011 73.4616 195.015 71.7412 195.171C62.3962 200.968 54.2069 209.095 53.7291 209.573C53.2208 210.081 53.2208 210.906 53.7291 211.414C53.9854 211.67 54.3156 211.796 54.6501 211.796ZM93.0551 201.18C92.1645 200.59 91.2782 200.043 90.3963 199.544C83.2062 202.978 74.791 208.405 66.7668 214.857C56.4096 223.189 49.3585 231.017 47.9118 235.802C47.7033 236.492 48.0943 237.217 48.7807 237.425C48.9067 237.465 49.0327 237.482 49.1587 237.482C49.7191 237.482 50.2361 237.117 50.4055 236.557C51.6698 232.385 58.7295 224.665 68.4003 216.889C76.872 210.077 85.7477 204.45 93.0551 201.185V201.18ZM98.6942 238.763C98.4248 238.094 97.6646 237.773 96.9955 238.042C88.1676 241.602 70.099 260.953 61.4796 270.562C62.1356 271.2 62.7655 271.808 63.3651 272.377C71.8454 262.938 89.7055 243.795 97.973 240.456C98.6421 240.187 98.9636 239.427 98.6942 238.758V238.763ZM90.9306 225.816C71.5761 236.366 62.9741 247.655 62.6178 248.128C62.1877 248.701 62.3007 249.517 62.8785 249.951C63.1131 250.129 63.3868 250.212 63.6605 250.212C64.0558 250.212 64.4468 250.034 64.7032 249.691C64.7857 249.578 73.366 238.359 92.1819 228.099C92.8118 227.756 93.0464 226.962 92.7032 226.332C92.36 225.698 91.5649 225.468 90.935 225.811L90.9306 225.816Z" fill="#7C807F"/>
<path d="M491.294 259.972C490.442 256.612 487.467 253.959 484.169 253.156C482.001 244.155 468.447 243.009 463.098 249.752C460.561 246.139 455.387 244.411 451.368 246.465C447.763 240.182 439.751 241.142 434.555 244.767C431.718 234.894 416.904 235.146 414.397 245.215C410.2 246.309 407.759 250.676 406.325 254.467C404.005 262.647 413.042 268.855 420.366 265.812C423.898 272.754 433.743 275.325 440.577 271.725C446.329 276.454 453.71 277.374 459.649 272.377C463.894 276.297 471.149 277.743 476.119 274.283C485.112 278.65 493.927 268.847 491.303 259.968L491.294 259.972Z" fill="#E4EAE7"/>
<path d="M140.31 248.241C140.792 241.437 134.831 236.731 128.319 237.86C123.592 229.237 110.633 230.67 108.195 240.274C104.364 241.85 101.362 245.627 101.105 249.752C92.247 248.827 82.9151 257.011 84.201 266.224C76.9328 264.032 69.7601 269.368 69.7123 276.957C69.8252 277.787 69.9338 278.611 70.0468 279.441C70.4378 280.83 71.1025 282.054 72.0409 283.123C70.3162 284.968 69.2518 287.451 69.1084 290.282C68.8303 295.783 73.5441 300.307 78.714 301.002C84.0316 301.77 89.3449 298.992 91.8386 294.207C100.853 295.006 108.352 289.666 108.439 280.27C116.645 281.95 125.456 275.498 125.121 266.897C125.417 265.569 125.395 264.179 125.1 262.846C128.823 263.836 133.046 262.742 135.626 259.773C139.58 257.658 141.943 252.522 140.314 248.249L140.31 248.241Z" fill="#E4EAE7"/>
<path d="M297.896 419.028C295.82 424.265 293.93 433.99 293.43 436.656C293.356 437.06 293.573 437.459 293.956 437.616L298.378 439.422C298.856 439.617 299.399 439.352 299.538 438.857L304.43 421.612L310.404 424.356L307.55 440.828C307.467 441.302 307.789 441.753 308.262 441.831L314.64 442.891C315.139 442.973 315.6 442.613 315.643 442.114L317.19 424.36L323.433 425.684V442.604C323.433 443.104 323.854 443.499 324.354 443.468L330.232 443.099C330.684 443.069 331.036 442.704 331.044 442.253C331.092 438.849 331.27 425.606 331.031 423.249L339.447 424.369C339.447 424.369 338.956 438.158 339.373 442.86C339.407 443.26 339.712 443.581 340.107 443.638C341.475 443.837 344.643 444.224 346.328 443.785C346.706 443.685 346.976 443.36 346.984 442.973C347.062 440.26 347.38 428.467 346.967 424.369L353.562 424.877C353.562 424.877 354.296 437.607 354.37 443.069C354.374 443.525 354.73 443.898 355.182 443.924C356.738 444.015 360.165 444.137 362.107 443.581C362.507 443.468 362.768 443.082 362.729 442.669C362.429 439.543 361.165 426.249 361.165 424.334L367.951 423.522C367.951 423.522 368.654 438.08 369.189 442.947C369.245 443.447 369.71 443.794 370.21 443.703L375.936 442.643C376.344 442.57 376.639 442.218 376.644 441.801C376.687 437.355 376.883 413.384 376.392 408.712L297.892 419.041L297.896 419.028Z" fill="#E4EAE7"/>
<path d="M306.072 280.04C306.072 280.04 311.147 380.552 297.466 420.123C294.073 429.939 362.077 431.003 376.757 422.915C376.757 422.915 377.056 412.677 376.896 406.494C382.404 366.28 376.6 272.72 376.6 272.72L306.068 280.044L306.072 280.04Z" fill="#B5C4C6"/>
<path d="M377.747 294.915C377.148 281.534 376.6 272.72 376.6 272.72L306.068 280.044C306.068 280.044 306.62 290.955 306.867 306.998C331.24 309.403 372.456 305.596 377.743 294.915H377.747Z" fill="#7C807F"/>
<path d="M202.34 218.404C238.599 233.092 284.941 223.649 322.016 224.253C359.092 224.856 371.461 214.84 371.461 214.84L370.692 211.648C373.016 208.397 392.497 207.624 391.954 233.618C391.51 254.884 402.919 257.063 398.866 269.65C387.275 305.643 302.18 290.252 268.71 290.764C235.24 291.281 181.786 298.006 168.653 266.867C162.827 253.056 179.127 246.63 182.768 237.651C185.774 230.24 190.853 210.025 203.517 213.667C204.912 214.067 202.335 218.391 202.335 218.391L202.34 218.404Z" fill="#B5C4C6"/>
<path opacity="0.5" d="M212.006 234.134C211.311 233.961 210.598 234.386 210.425 235.081C210.39 235.224 206.775 249.652 203.995 258.774C203.361 260.862 202.24 263.35 201.058 265.981C198.017 272.741 194.428 280.73 196.053 287.938C197.018 288.202 197.991 288.45 198.981 288.68C196.701 282.028 200.237 274.161 203.434 267.049C204.655 264.34 205.807 261.783 206.489 259.534C209.286 250.347 212.914 235.862 212.953 235.715C213.127 235.016 212.701 234.308 212.006 234.134ZM364.071 242.605C363.745 231.586 361.399 224.292 357.067 220.796C355.916 221.096 354.682 221.387 353.37 221.669C358.397 223.766 361.117 230.804 361.464 242.683C361.846 255.643 364.162 276.658 368.115 282.806C368.363 283.192 368.785 283.405 369.215 283.405C369.458 283.405 369.701 283.34 369.918 283.196C370.522 282.806 370.7 282.002 370.309 281.395C367.742 277.4 364.622 261.435 364.071 242.605ZM385.276 253.72C384.942 253.082 384.16 252.834 383.517 253.164C382.878 253.494 382.63 254.285 382.96 254.923C384.216 257.337 388.469 265.89 390.45 274.591C390.889 276.527 391.263 278.677 391.397 280.808C392.236 280.079 393.027 279.306 393.756 278.499C392.379 267.735 386.301 255.7 385.272 253.72H385.276ZM350.494 246.799C349.03 236.023 347.888 227.622 345.164 223.067C344.199 223.193 343.204 223.315 342.183 223.423C345.155 226.853 346.367 235.78 347.914 247.147C348.644 252.517 349.469 258.605 350.607 265.013C350.72 265.643 351.268 266.09 351.889 266.09C351.963 266.09 352.041 266.081 352.119 266.068C352.827 265.942 353.301 265.265 353.175 264.557C352.045 258.201 351.224 252.14 350.499 246.795L350.494 246.799ZM199.69 233.127C200.489 225.946 202.348 220.896 204.72 219.329C203.921 219.034 203.13 218.73 202.34 218.408C202.34 218.408 202.57 218.018 202.857 217.466C199.038 220.484 197.617 228.19 197.1 232.841C196.653 236.874 193.568 241.546 190.305 246.487C185.105 254.363 179.214 263.294 180.995 273.471C181.104 274.105 181.656 274.548 182.277 274.548C182.351 274.548 182.429 274.543 182.503 274.526C183.211 274.4 183.685 273.727 183.563 273.019C181.96 263.862 187.551 255.392 192.482 247.919C195.923 242.705 199.173 237.781 199.69 233.123V233.127ZM297.305 254.241C296.593 254.35 296.102 255.014 296.21 255.722C296.241 255.934 299.408 276.996 299.017 283.227C298.808 286.557 297.561 289.31 295.593 290.777C294.872 291.315 294.073 291.645 293.221 291.784C294.803 291.884 296.415 291.988 298.048 292.097C300.107 290.091 301.393 286.987 301.619 283.387C302.028 276.883 298.921 256.208 298.787 255.331C298.678 254.619 298.009 254.128 297.305 254.237V254.241ZM309.274 231.686C309.226 230.969 308.596 230.422 307.888 230.474C307.171 230.522 306.628 231.143 306.676 231.859C306.806 233.804 307.636 236.891 308.692 240.795C311.06 249.569 314.635 262.829 313.527 275.546C313.467 276.263 313.997 276.892 314.713 276.957C314.752 276.957 314.792 276.962 314.826 276.962C315.495 276.962 316.064 276.449 316.121 275.772C317.268 262.599 313.619 249.07 311.203 240.117C310.186 236.349 309.387 233.375 309.274 231.686ZM261.737 262.286L259.721 232.089C259.673 231.373 259.052 230.826 258.335 230.878C257.619 230.926 257.075 231.547 257.123 232.263L259.139 262.46C259.313 265.048 259.487 267.288 259.639 269.268C260.199 276.54 260.482 280.187 259.565 285.085C259.43 285.793 259.899 286.474 260.608 286.605C260.69 286.618 260.768 286.626 260.851 286.626C261.468 286.626 262.011 286.188 262.132 285.563C263.114 280.331 262.806 276.328 262.245 269.064C262.093 267.093 261.92 264.861 261.75 262.286H261.737ZM249.49 226.636C248.491 226.614 247.492 226.588 246.492 226.558C247.235 227.748 247.843 229.328 248.291 231.264C249.69 237.326 248.517 247.485 247.483 256.447C246.762 262.699 246.08 268.604 246.245 272.893C246.271 273.597 246.849 274.144 247.548 274.144C247.565 274.144 247.583 274.144 247.6 274.144C248.321 274.118 248.882 273.51 248.851 272.793C248.695 268.708 249.364 262.899 250.077 256.746C251.189 247.125 252.336 237.178 250.837 230.678C250.485 229.146 250.033 227.8 249.494 226.636H249.49Z" fill="#7C807F"/>
<path opacity="0.5" d="M321.269 322.368C330.471 322.368 339.824 321.504 347.127 320.827C351.663 320.405 355.577 320.045 357.932 320.045C358.653 320.045 359.235 319.463 359.235 318.742C359.235 318.022 358.653 317.44 357.932 317.44C355.456 317.44 351.676 317.792 346.889 318.234C335.697 319.272 319.64 320.757 306.989 318.834C306.989 319.702 306.993 320.579 306.993 321.465C311.49 322.12 316.36 322.368 321.269 322.368ZM332.678 364.552C331.965 364.483 331.322 365.004 331.253 365.72C331.183 366.437 331.705 367.075 332.421 367.144C335.919 367.487 340.237 367.631 344.942 367.631C356.147 367.631 369.541 366.815 379.211 365.894C379.22 365.03 379.229 364.162 379.237 363.293C365.735 364.592 344.477 365.703 332.673 364.552H332.678ZM315.43 333.965C314.722 333.847 314.053 334.338 313.94 335.05C313.827 335.762 314.314 336.426 315.026 336.539C317.242 336.891 319.927 337.039 322.964 337.039C330.836 337.039 341.084 336.049 351.759 335.015C361.395 334.082 371.261 333.127 379.02 333.01C379.003 332.141 378.981 331.273 378.964 330.409C371.078 330.53 361.182 331.486 351.511 332.423C337.531 333.778 323.072 335.176 315.435 333.969L315.43 333.965ZM353.662 409.368C332.352 412.872 311.342 409.82 300.794 407.714C300.611 408.578 300.425 409.425 300.233 410.258C307.437 411.7 319.427 413.571 333.095 413.571C339.811 413.571 346.932 413.119 354.083 411.943C354.791 411.826 355.273 411.157 355.156 410.445C355.039 409.733 354.37 409.255 353.657 409.373L353.662 409.368ZM310.721 376.488C310.591 377.196 311.06 377.873 311.768 378.003C320.748 379.636 344.834 379.636 353.9 379.636C354.622 379.636 355.204 379.054 355.204 378.333C355.204 377.612 354.622 377.031 353.9 377.031C345.759 377.031 320.983 377.031 312.237 375.442C311.529 375.311 310.851 375.78 310.721 376.488ZM370.857 394.797C359.974 398.019 336.249 397.485 327.538 395.969C326.83 395.844 326.152 396.321 326.031 397.029C325.909 397.737 326.383 398.414 327.091 398.535C331.579 399.313 338.808 399.795 346.402 399.795C355.721 399.795 365.591 399.07 371.6 397.294C372.291 397.09 372.682 396.365 372.477 395.674C372.273 394.984 371.548 394.589 370.857 394.797Z" fill="#7C807F"/>
<path fill-rule="evenodd" clip-rule="evenodd" d="M458.037 436.921C450.656 448.739 373.103 458.004 278.615 457.957C184.132 457.926 106.627 448.587 99.2719 436.751L53.5508 436.73C53.6985 455.134 154.62 470.061 278.963 470.114C403.319 470.17 504.284 455.326 504.514 436.938L458.037 436.916V436.921Z" fill="#FFDB65"/>
<path d="M305.89 449.182C296.306 441.389 278.307 436.899 270.148 448.791C265.396 456.238 270.257 466.845 279.228 467.522C282.313 467.934 285.51 467.661 288.621 467.617C293.682 467.153 299.639 468.816 303.827 465.212C309.848 468.777 320.192 465.203 319.953 457.345C319.927 449.851 312.172 447.016 305.89 449.187V449.182ZM504.323 415.568C501.234 408.808 493.362 404.788 485.99 405.743C477.157 381.077 443.727 385.189 441.459 411.557C438.079 410.488 434.638 410.449 431.15 410.996C427.092 412.156 422.778 413.706 419.055 418.759C408.007 414.005 393.8 418.664 389.473 430.226C381.836 427.96 374.667 432.406 368.741 436.7C358.945 428.693 340.676 442.639 345.125 454.549C348.288 463.983 365.062 467.122 372.743 462.407C380.163 467.392 390.777 466.085 396.833 459.559C405.348 466.606 419.059 465.898 426.214 457.188C442.293 465.273 459.619 459.025 474.738 451.961C480.755 450.328 487.024 450.385 492.719 447.385C504.15 441.554 509.776 427.369 504.319 415.564L504.323 415.568ZM233.012 439.205C227.412 427.834 208.935 424.577 199.694 433.087C193.278 427.282 184.159 429.21 176.147 428.789C174.579 424.274 170.439 420.796 165.638 420.14C164.652 417.744 163.227 415.607 161.354 413.736C157.922 409.347 153.13 405.938 147.743 404.375C139.198 401.9 130.513 404.375 124.092 410.323C123.271 411.088 122.528 411.982 121.872 412.955C118.961 409.577 114.725 407.427 110.307 406.811C101.366 388.411 76.5811 396.803 70.6639 413.211C46.6217 414.465 53.6858 449.53 76.5506 443.173C90.0576 455.829 106.254 455.33 123.041 451.232C132.538 460.988 155.893 462.941 168.14 457.927C175.961 463.432 186.943 465.143 195.702 461.014C199.077 464.083 204.703 465.056 209.044 463.067C210.29 463.545 211.581 463.914 212.928 464.135C217.858 468.36 225.692 469.059 231.109 465.355C244.646 472.728 257.363 463.189 254.447 448.153C252.736 438.575 241.04 435.106 233.012 439.209V439.205Z" fill="white"/>
<g filter="url(#filter0_f_1957_64598)">
<path d="M149.424 105.288C148.625 105.175 148.151 105.861 148.429 106.812C149.316 109.877 149.985 111.401 151.501 114.44C150.046 117.484 149.346 119.073 147.756 122.455C145.075 119.038 142.482 115.291 140.431 111.458C140.966 108.666 141.287 107.307 142.186 104.637C142.456 103.834 142.108 102.709 141.413 102.106C140.718 101.502 139.871 101.658 139.523 102.47C138.867 103.994 138.585 104.767 138.081 106.326C137.421 104.559 137.156 103.669 136.799 101.884C136.595 100.868 135.896 100.156 135.14 100.299C134.384 100.443 133.858 101.402 134.058 102.431C134.41 104.229 134.675 105.127 135.322 106.912C133.823 105.792 133.106 105.223 131.764 104.064C131.043 103.447 130.157 103.634 129.779 104.502C129.401 105.371 129.74 106.586 130.53 107.198C133.159 109.226 134.597 110.216 137.642 112.126C139.662 116.03 142.195 119.846 144.823 123.363C140.735 122.347 136.656 121.222 132.624 119.998C129.987 116.824 128.745 115.209 126.668 111.931C126.042 110.945 125.034 110.533 124.352 111.028C123.675 111.523 123.601 112.747 124.244 113.746C125.452 115.621 126.112 116.551 127.498 118.396C125.969 117.897 125.208 117.645 123.709 117.132C122.741 116.798 121.963 117.415 121.976 118.517C121.989 119.625 122.819 120.788 123.822 121.105C125.378 121.591 126.164 121.835 127.75 122.303C126.499 123.345 125.86 123.879 124.561 124.974C123.866 125.56 123.914 126.862 124.687 127.865C125.46 128.868 126.685 129.181 127.394 128.577C129.748 126.58 130.869 125.629 133.041 123.81C137.186 124.956 141.378 126.003 145.575 126.94C143.929 130.227 143.029 131.951 140.796 135.62C137.003 135.893 135.105 136.028 131.312 136.297C130.248 136.375 129.609 137.387 129.844 138.559C130.078 139.736 131.121 140.608 132.212 140.504C134.527 140.283 135.683 140.17 137.998 139.948C136.938 141.507 136.369 142.302 135.14 143.93C134.453 144.837 134.566 146.183 135.422 146.895C136.278 147.607 137.603 147.416 138.346 146.504C139.419 145.185 139.919 144.538 140.866 143.265C141.178 145.076 141.296 145.988 141.4 147.807C141.465 148.923 142.408 149.687 143.581 149.5C144.754 149.318 145.684 148.289 145.584 147.203C145.28 143.86 144.897 142.197 143.942 138.88C146.579 134.882 147.595 133.01 149.403 129.467C152.183 133.114 154.994 136.744 157.566 140.539C156.719 143.517 156.145 145.054 154.486 148.237C153.977 149.214 154.347 150.295 155.389 150.62C156.432 150.946 157.783 150.403 158.335 149.444C159.33 147.707 159.747 146.856 160.459 145.18C161.241 146.557 161.593 147.238 162.21 148.584C162.61 149.461 163.826 149.791 164.977 149.34C166.124 148.888 166.715 147.855 166.25 147.004C165.49 145.619 165.06 144.92 164.13 143.5C166.333 144.147 167.436 144.455 169.643 145.028C170.782 145.323 172.02 144.85 172.35 143.999C172.68 143.148 171.95 142.232 170.782 141.92C166.824 140.86 164.851 140.27 160.937 138.993C158.222 135.394 155.35 131.899 152.483 128.417C156.897 129.315 161.354 130.114 165.807 130.8C169.231 133.297 170.955 134.495 174.279 136.77C175.278 137.456 176.655 137.569 177.346 137.052C178.037 136.536 177.741 135.598 176.699 134.925C174.744 133.661 173.753 133.01 171.772 131.677C173.588 131.925 174.505 132.046 176.343 132.272C177.529 132.415 178.215 131.877 177.846 131.074C177.476 130.271 176.199 129.489 175.031 129.32C173.219 129.055 172.315 128.916 170.525 128.629C171.577 127.765 172.085 127.344 173.067 126.524C173.592 126.089 173.106 125.169 172.007 124.448C170.912 123.728 169.63 123.467 169.122 123.893C167.423 125.312 166.537 126.055 164.652 127.626C160.277 126.849 155.902 125.964 151.57 124.974C153.082 121.704 153.717 120.167 154.99 117.224C158.157 117.38 159.738 117.458 162.909 117.614C163.831 117.662 164.065 116.993 163.466 116.121C162.862 115.248 161.68 114.484 160.789 114.414C159.021 114.284 158.135 114.215 156.367 114.084C156.779 113.16 156.984 112.704 157.401 111.805C157.67 111.223 157.131 110.19 156.241 109.482C155.35 108.774 154.407 108.657 154.095 109.239C153.664 110.047 153.452 110.455 153.03 111.284C152.27 109.643 151.931 108.822 151.375 107.172C151.058 106.235 150.206 105.384 149.411 105.271L149.424 105.288Z" fill="#B5C4C6"/>
</g>
<path d="M438.335 146.348C440.16 144.186 441.02 143.114 442.601 140.93C443.566 142.671 444.057 143.548 445.065 145.315C445.595 146.248 447.054 147.043 448.31 147.095C449.565 147.147 450.108 146.413 449.535 145.454C447.615 142.25 446.689 140.669 444.908 137.543C446.142 135.598 446.707 134.608 447.715 132.559C450.1 135.207 451.347 136.558 453.945 139.306C453.862 142.171 453.766 143.574 453.475 146.327C453.389 147.151 454.431 148.246 455.834 148.793C457.238 149.335 458.445 149.101 458.493 148.254C458.589 146.652 458.619 145.84 458.65 144.199C461.804 147.416 463.446 149.053 466.865 152.336C467.89 153.321 469.572 153.899 470.575 153.586C471.579 153.273 471.505 152.201 470.462 151.233C467 148.024 465.331 146.413 462.125 143.231C464.602 144.082 465.853 144.494 468.36 145.245C469.711 145.649 470.719 145.167 470.593 144.195C470.467 143.222 469.289 142.158 467.986 141.794C463.672 140.587 461.517 139.844 457.299 138.342C454.605 135.563 453.31 134.187 450.821 131.482C454.31 132.06 456.06 132.35 459.506 132.719C463.146 135.368 465.04 136.697 468.955 139.241C470.132 140.005 471.505 140.035 471.965 139.276C472.426 138.52 471.809 137.3 470.64 136.579C468.451 135.229 467.373 134.53 465.266 133.119C468.833 133.21 470.588 133.141 473.942 132.515C474.989 132.32 475.324 131.226 474.707 130.14C474.094 129.055 472.804 128.399 471.805 128.608C468.603 129.285 466.93 129.385 463.515 129.363C464.28 127.996 464.628 127.275 465.24 125.755C465.566 124.943 464.927 123.719 463.867 123.042C462.807 122.364 461.717 122.456 461.378 123.224C460.257 125.781 459.575 126.941 457.998 129.072C454.696 128.773 453.015 128.521 449.665 128.013C450.469 125.825 450.808 124.696 451.347 122.347C454.279 121.83 455.691 121.518 458.332 120.567C459.132 120.28 459.162 119.204 458.437 118.205C457.711 117.211 456.534 116.672 455.769 116.963C454.353 117.502 453.619 117.727 452.111 118.122C452.494 115.318 452.598 113.854 452.607 110.798C452.607 109.873 451.816 108.744 450.873 108.275C449.93 107.806 449.179 108.158 449.144 109.048C449.04 112.027 448.888 113.451 448.41 116.19C447.254 114.349 446.689 113.438 445.577 111.614C444.991 110.655 443.926 110.055 443.17 110.255C442.414 110.459 442.228 111.375 442.775 112.317C444.604 115.474 445.551 117.067 447.51 120.289C446.907 122.56 446.542 123.65 445.686 125.777C443.401 123.185 442.31 121.913 440.233 119.434C440.29 116.555 440.273 115.092 440.125 112.118C440.081 111.228 439.278 110.255 438.361 109.964C437.444 109.673 436.732 110.16 436.736 111.037C436.754 112.695 436.745 113.516 436.693 115.144C434.473 112.4 433.43 111.067 431.479 108.505C430.897 107.737 429.933 107.502 429.294 107.976C428.655 108.449 428.564 109.435 429.12 110.168C430.962 112.613 431.949 113.885 434.056 116.52C432.261 116.004 431.388 115.769 429.681 115.383C428.76 115.174 427.943 115.721 427.817 116.564C427.691 117.406 428.325 118.222 429.272 118.431C432.396 119.108 434.043 119.599 437.444 120.693C439.456 123.128 440.516 124.383 442.745 126.954C439.421 126.459 437.766 126.22 434.542 125.955C431.675 123.689 430.337 122.638 427.839 120.732C427.087 120.159 426.018 120.246 425.41 120.919C424.802 121.592 424.871 122.555 425.606 123.085C426.979 124.079 427.695 124.609 429.194 125.734C425.905 125.76 424.307 125.89 421.287 126.615C420.345 126.841 419.615 127.757 419.623 128.59C419.632 129.424 420.405 129.867 421.379 129.641C424.498 128.925 426.153 128.808 429.559 128.825C428.282 129.949 427.63 130.527 426.309 131.738C425.606 132.385 425.658 133.345 426.466 133.892C427.274 134.439 428.551 134.413 429.277 133.818C431.692 131.838 432.874 130.931 435.107 129.12C438.448 129.437 440.164 129.706 443.622 130.271C442.558 132.324 441.967 133.323 440.69 135.303C437.027 135.455 435.185 135.559 431.575 136.097C430.485 136.262 429.907 137.096 430.289 137.921C430.671 138.75 431.901 139.284 433.035 139.154C435.142 138.911 436.202 138.837 438.335 138.737C436.736 140.951 435.876 142.046 434.069 144.286C433.521 144.963 433.995 145.931 435.172 146.487C436.35 147.043 437.783 147 438.331 146.353L438.335 146.348Z" fill="#E4EAE7"/>
<g filter="url(#filter1_f_1957_64598)">
<path d="M271.742 300.364C271.356 301.011 271.873 301.553 272.898 301.575C274.345 301.605 275.066 301.618 276.513 301.636C274.649 302.574 273.719 303.008 271.877 303.807C270.895 304.232 270.487 304.975 270.969 305.522C271.451 306.069 272.629 306.212 273.593 305.786C276.808 304.362 278.45 303.533 281.752 301.684C286.192 301.697 288.408 301.684 292.843 301.605C289.268 304.093 285.471 306.429 281.622 308.47C278.216 308.083 276.508 307.875 273.098 307.432C272.073 307.297 270.978 307.74 270.687 308.422C270.391 309.104 271.013 309.811 272.038 310.002C274.988 310.545 276.461 310.806 279.406 311.301C279.415 311.314 279.423 311.331 279.436 311.344C279.445 311.357 279.458 311.37 279.471 311.383C278.733 313.736 278.437 314.917 278.137 317.288C278.033 318.113 278.837 319.046 279.88 319.359C280.922 319.671 281.8 319.203 281.895 318.317C282.213 315.373 282.582 313.91 283.494 311.001C287.27 308.913 290.988 306.555 294.512 304.063C292.978 308.188 292.222 310.272 291.275 314.487C288.334 316.454 286.922 317.336 284.272 318.86C283.472 319.32 283.403 320.349 284.128 321.226C284.854 322.103 286.053 322.489 286.796 322.025C288.191 321.148 288.916 320.674 290.424 319.658C290.267 321.23 290.224 322.02 290.25 323.609C290.267 324.634 291.184 325.741 292.231 326.076C293.278 326.41 294.043 325.798 294.016 324.712C293.977 323.032 294.012 322.198 294.16 320.535C295.398 322.272 296.05 323.18 297.444 325.06C298.187 326.063 299.378 326.414 300.094 325.78C300.811 325.146 300.833 323.77 300.151 322.78C297.883 319.476 296.879 317.943 294.994 315.078C295.932 310.632 296.688 308.439 298.222 304.098C300.368 307.488 301.454 309.364 303.917 313.541C303.031 317.449 302.679 319.424 302.488 323.427C302.432 324.634 303.274 325.828 304.304 326.084C305.334 326.34 306.159 325.52 306.211 324.256C306.363 320.64 306.628 318.851 307.328 315.317C307.345 315.304 307.363 315.291 307.38 315.273C307.397 315.256 307.415 315.239 307.432 315.225C310.365 315.551 311.829 315.703 314.761 315.985C315.782 316.085 316.808 315.052 317.09 313.693C317.372 312.334 316.794 311.209 315.774 311.162C312.376 311.01 310.677 310.918 307.276 310.71C304.947 306.581 303.9 304.723 301.789 301.371C306.081 301.223 308.227 301.128 312.515 300.893C314.044 303.594 314.805 305.044 316.412 308.157C316.894 309.095 318.067 309.13 319.032 308.183C319.992 307.237 320.396 305.674 319.927 304.749C319.045 303.016 318.615 302.183 317.75 300.576C319.332 300.472 320.127 300.42 321.708 300.307C322.729 300.233 323.854 299.074 324.219 297.733C324.58 296.391 324.041 295.414 323.02 295.536C321.443 295.722 320.652 295.813 319.071 295.991C320.896 294.172 321.804 293.234 323.576 291.315C324.519 290.291 324.866 288.802 324.354 288.037C323.841 287.273 322.694 287.516 321.773 288.528C318.719 291.897 317.099 293.508 313.849 296.552C309.57 296.99 307.428 297.185 303.144 297.537C306.989 294.272 310.578 290.981 314.157 287.425C317.494 286.752 319.162 286.405 322.486 285.68C323.485 285.463 324.502 284.264 324.701 283.014C324.906 281.764 324.228 280.973 323.242 281.234C320.418 281.976 319.001 282.341 316.165 283.053C316.156 283.04 316.147 283.027 316.134 283.014C316.121 283.001 316.112 282.992 316.099 282.979C316.668 279.723 316.851 278.112 316.825 274.921C316.816 273.809 315.999 273.193 315.065 273.54C314.136 273.888 313.414 275.029 313.397 276.106C313.332 279.675 313.045 281.481 312.255 285.124C308.762 288.676 305.269 291.915 301.48 295.145C303.109 290.603 303.909 288.359 304.847 283.913C307.662 280.986 308.983 279.441 311.251 276.21C311.933 275.238 311.89 274.022 311.19 273.536C310.491 273.05 309.444 273.471 308.822 274.435C307.649 276.245 307.002 277.126 305.621 278.841C305.729 277.587 305.755 276.962 305.742 275.715C305.733 274.734 304.93 274.239 304.013 274.595C303.096 274.956 302.384 276.006 302.362 276.948C302.336 278.147 302.288 278.746 302.149 279.949C301.024 279.098 300.442 278.698 299.26 277.938C298.63 277.535 297.566 277.938 296.853 278.789C296.141 279.645 296.011 280.63 296.597 281.038C298.543 282.393 299.477 283.144 301.267 284.803C300.251 289.058 299.434 291.203 297.787 295.536C295.667 292.726 294.59 291.498 292.318 289.336C293.339 286.487 293.782 285.068 294.312 282.232C294.473 281.377 293.791 280.939 292.839 281.251C291.883 281.559 290.993 282.467 290.81 283.279C290.285 285.61 289.902 286.774 289.033 289.101C289.016 289.114 288.999 289.127 288.977 289.14C288.96 289.153 288.942 289.166 288.925 289.184C286.053 289.761 284.611 290.039 281.73 290.577C280.727 290.764 279.641 291.485 279.293 292.184C278.946 292.883 279.467 293.334 280.483 293.191C283.855 292.713 285.536 292.466 288.899 291.941C291.08 294.116 292.122 295.358 294.212 298.197C289.781 298.488 287.565 298.614 283.134 298.814C281.639 297.064 280.896 296.278 279.389 294.863C278.933 294.437 277.768 294.589 276.782 295.145C275.796 295.705 275.353 296.46 275.8 296.89C276.639 297.693 277.06 298.119 277.899 299.026C276.456 299.078 275.731 299.1 274.288 299.144C273.267 299.174 272.12 299.721 271.729 300.368L271.742 300.364Z" fill="white"/>
</g>
<g filter="url(#filter2_f_1957_64598)">
<path d="M361.051 444.693C360.069 445.257 359.466 446.321 359.748 447.068C360.148 448.123 360.356 448.652 360.778 449.707C359.009 449.451 358.119 449.321 356.325 449.065C355.369 448.926 354.113 449.555 353.518 450.467C352.923 451.379 353.24 452.23 354.235 452.369C357.537 452.838 359.17 453.072 362.398 453.537C363.836 456.776 364.627 458.395 366.43 461.647C363.449 461.231 361.942 461.022 358.905 460.601C358.062 458.947 357.671 458.126 356.933 456.476C356.598 455.729 355.447 455.569 354.317 456.112C353.188 456.654 352.514 457.696 352.853 458.439C353.457 459.772 353.779 460.436 354.461 461.773C352.441 462.741 351.415 463.228 349.339 464.2C348.174 464.747 347.557 465.802 347.992 466.558C348.426 467.313 349.734 467.483 350.872 466.931C353.396 465.716 354.643 465.116 357.098 463.909C360.23 464.335 361.785 464.543 364.866 464.964C361.099 466.927 357.306 468.837 353.514 470.739C349.721 470.253 347.805 470.014 343.943 469.528C342.783 469.38 341.427 470.023 340.954 470.965C340.48 471.907 341.093 472.797 342.279 472.94C344.508 473.209 345.62 473.344 347.827 473.618C346.102 474.499 345.237 474.942 343.517 475.841C342.409 476.422 342.005 477.534 342.648 478.324C343.291 479.114 344.699 479.275 345.767 478.684C347.423 477.768 348.257 477.317 349.925 476.427C349.304 478.224 349.03 479.132 348.591 480.977C348.357 481.958 349.208 482.879 350.438 483.017C351.667 483.156 352.792 482.462 353.001 481.481C353.7 478.22 354.222 476.635 355.438 473.509C359.148 471.573 362.859 469.649 366.556 467.691C365.435 470.37 364.9 471.716 363.997 474.442C361.738 475.68 360.595 476.305 358.327 477.573C357.298 478.146 356.994 479.249 357.676 480.03C358.358 480.816 359.735 480.977 360.721 480.395C362.489 479.357 363.376 478.845 365.148 477.829C366.299 479.21 366.899 479.904 368.167 481.294C368.876 482.075 370.231 482.236 371.165 481.659C372.095 481.081 372.282 479.987 371.608 479.214C370.118 477.503 369.419 476.657 368.098 474.964C368.919 472.237 369.406 470.895 370.435 468.212C372.551 471.382 373.72 472.975 376.366 476.188C375.631 479.301 375.336 480.873 375.045 484.081C374.958 485.045 375.879 485.953 377.061 486.091C378.242 486.235 379.215 485.557 379.276 484.594C379.394 482.787 379.498 481.893 379.767 480.117C380.849 481.311 381.414 481.91 382.582 483.117C383.338 483.895 384.659 484.06 385.506 483.486C386.353 482.913 386.432 481.828 385.71 481.055C384.594 479.861 384.055 479.266 383.017 478.077C385.089 478.35 386.119 478.485 388.169 478.758C389.264 478.901 390.229 478.259 390.355 477.325C390.481 476.392 389.738 475.519 388.678 475.372C385.146 474.89 383.36 474.651 379.763 474.169C377.221 470.973 376.092 469.384 374.037 466.224C377.052 466.64 378.542 466.853 381.501 467.266C382.656 468.933 383.264 469.771 384.546 471.447C385.124 472.206 386.336 472.371 387.209 471.816C388.082 471.26 388.304 470.196 387.739 469.441C386.727 468.09 386.245 467.413 385.306 466.063C386.875 465.073 387.639 464.574 389.116 463.571C389.946 463.011 390.172 461.934 389.664 461.174C389.156 460.414 388.109 460.258 387.283 460.822C385.454 462.068 384.498 462.685 382.517 463.914C379.659 463.506 378.216 463.297 375.301 462.885C379.593 460.419 381.622 459.181 385.263 456.62C388.261 457.062 389.738 457.284 392.662 457.718C393.539 457.848 394.365 457.184 394.491 456.224C394.617 455.265 394.021 454.379 393.183 454.249C391.606 454.01 390.815 453.893 389.212 453.65C390.137 452.903 390.585 452.525 391.436 451.761C392.105 451.162 392.21 450.037 391.71 449.26C391.21 448.479 390.32 448.344 389.668 448.952C388.843 449.725 388.408 450.107 387.5 450.862C387.826 449.052 387.965 448.136 388.161 446.282C388.265 445.292 387.705 444.389 386.94 444.272C386.175 444.154 385.463 444.866 385.319 445.852C384.837 449.121 384.464 450.71 383.621 453.858C380.028 456.437 378.003 457.683 373.694 460.154C374.788 457.475 375.345 456.133 376.344 453.415C378.303 452.165 379.237 451.531 380.984 450.241C381.774 449.66 382.039 448.557 381.614 447.788C381.188 447.02 380.254 446.877 379.48 447.467C378.099 448.522 377.369 449.039 375.84 450.068C375.149 448.713 374.81 448.032 374.145 446.673C373.772 445.908 372.812 445.765 371.947 446.347C371.087 446.924 370.639 448.005 370.996 448.761C371.778 450.433 372.182 451.266 373.025 452.933C371.917 455.643 371.309 456.98 370.105 459.65C368.324 456.398 367.533 454.774 366.069 451.522C367.598 448.448 368.328 446.903 369.549 443.738C369.914 442.787 369.519 441.905 368.689 441.784C367.859 441.662 366.873 442.335 366.469 443.282C365.704 445.057 365.287 445.934 364.414 447.68C363.971 446.616 363.758 446.086 363.336 445.023C363.037 444.272 362.037 444.12 361.056 444.688L361.051 444.693Z" fill="#B5C4C6"/>
</g>
<g filter="url(#filter3_f_1957_64598)">
<path d="M190.975 404.475C190.992 404.397 191.001 404.31 191.001 404.223C192.66 404.071 193.481 403.989 195.115 403.824C196.071 403.728 196.205 402.782 195.393 401.722C194.58 400.663 193.164 399.903 192.252 400.016C190.153 400.276 189.089 400.402 186.947 400.641C186.135 400.198 185.731 399.981 184.923 399.547C186.652 399.343 187.508 399.239 189.211 399.026C190.114 398.909 190.175 397.971 189.337 396.938C188.494 395.9 187.104 395.175 186.239 395.305C183.359 395.744 181.895 395.948 178.923 396.343C174.865 394.207 170.808 392.079 166.737 389.969C170.621 389.318 172.519 388.975 176.234 388.25C179.996 390.199 181.951 391.202 185.944 393.278C187.147 393.903 188.125 393.746 188.09 392.909C188.055 392.075 187.025 390.885 185.826 390.264C182.394 388.493 180.722 387.633 177.489 385.957C177.472 385.94 177.459 385.918 177.446 385.901C177.429 385.884 177.411 385.862 177.398 385.844C177.333 383.483 177.259 382.28 177.142 379.853C177.098 379.006 176.212 377.851 175.187 377.291C174.161 376.731 173.349 376.97 173.353 377.812C173.366 380.608 173.406 381.989 173.393 384.69C169.817 385.484 167.988 385.862 164.256 386.583C164.656 383.352 164.751 381.689 165.047 378.298C167.488 377.652 168.692 377.317 171.064 376.636C171.776 376.431 171.785 375.463 171.138 374.482C170.486 373.501 169.443 372.889 168.744 373.106C167.436 373.514 166.78 373.718 165.455 374.117C165.542 373.344 165.59 372.954 165.694 372.172C167.262 371.677 168.036 371.425 169.578 370.913C170.264 370.687 170.351 369.706 169.843 368.725C169.335 367.748 168.435 367.153 167.762 367.388C166.559 367.813 165.955 368.026 164.734 368.443C163.961 366.736 163.639 365.89 163.153 364.196C162.883 363.25 162.179 362.69 161.506 362.942C160.828 363.193 160.433 364.149 160.702 365.086C161.28 367.114 161.689 368.134 162.67 370.179C162.501 371.004 162.427 371.417 162.279 372.233C161.35 370.466 160.937 369.589 160.277 367.835C159.925 366.901 159.138 366.341 158.456 366.576C157.77 366.814 157.44 367.748 157.783 368.673C158.93 371.738 159.751 373.284 161.636 376.388C161.167 379.762 161.011 381.411 160.524 384.62C158.196 381.329 155.95 377.764 154.194 374.126C154.863 371.517 155.228 370.188 156.18 367.487C156.467 366.676 156.188 365.62 155.563 365.147C154.942 364.674 154.151 364.956 153.799 365.764C152.787 368.082 152.374 369.224 151.627 371.473C151.614 371.473 151.596 371.478 151.583 371.482C151.57 371.486 151.557 371.491 151.544 371.499C149.411 370.127 148.425 369.463 146.644 368.156C146.022 367.7 145.214 367.965 144.832 368.738C144.45 369.506 144.68 370.492 145.358 370.948C147.617 372.472 148.864 373.253 151.566 374.868C153.504 378.971 154.842 381.038 157.622 385.202C153.443 382.992 151.462 381.933 147.817 379.892C146.296 377.013 145.627 375.581 144.684 372.724C144.402 371.864 143.633 371.343 142.907 371.556C142.182 371.768 141.769 372.624 142.039 373.47C142.543 375.059 142.851 375.854 143.546 377.447C142.79 377.005 142.421 376.788 141.7 376.353C140.987 374.525 140.683 373.614 140.253 371.786C140.053 370.948 139.354 370.44 138.628 370.657C137.903 370.874 137.42 371.716 137.603 372.541C137.924 373.983 138.137 374.699 138.637 376.141C138.637 376.141 138.637 376.145 138.633 376.149C138.615 376.184 138.602 376.219 138.593 376.253C137.273 376.583 136.612 376.748 135.274 377.07C134.505 377.252 134.084 378.055 134.371 378.859C134.657 379.662 135.561 380.178 136.347 380.009C138.12 379.627 138.997 379.432 140.74 379.028C141.456 379.44 141.821 379.649 142.564 380.07C141.1 380.396 140.362 380.556 138.876 380.869C138.085 381.038 137.72 381.828 138.098 382.645C138.476 383.461 139.471 383.999 140.288 383.847C143.012 383.339 144.354 383.074 147 382.532C150.771 384.59 152.8 385.658 157.053 387.889C153.199 388.554 151.231 388.866 147.213 389.452C144.011 387.764 142.464 386.947 139.532 385.367C138.65 384.889 137.698 385.063 137.377 385.732C137.055 386.4 137.494 387.316 138.394 387.794C140.97 389.166 142.312 389.874 145.067 391.328C145.075 391.345 145.08 391.358 145.088 391.376C145.097 391.393 145.11 391.406 145.119 391.424C144.228 393.338 143.729 394.272 142.547 396.082C142.134 396.712 142.547 397.632 143.503 398.158C144.463 398.683 145.623 398.609 146.044 397.975C147.452 395.865 148.017 394.771 148.994 392.518C153.173 392.005 155.224 391.732 159.234 391.141C158.4 394.393 157.87 395.965 156.271 398.978C153.017 399.243 151.366 399.36 148.017 399.577C147.009 399.643 146.479 400.359 146.813 401.184C147.143 402.009 148.242 402.643 149.294 402.595C151.262 402.508 152.239 402.46 154.177 402.356C153.838 402.825 153.664 403.06 153.299 403.524C150.949 403.628 149.763 403.672 147.365 403.754C146.292 403.789 145.627 404.479 145.84 405.296C146.053 406.112 147.1 406.763 148.221 406.746C150.215 406.715 151.205 406.694 153.169 406.65C153.617 408.17 153.795 408.934 154.029 410.462C154.16 411.318 155.176 412.021 156.349 412.03C157.522 412.034 158.374 411.322 158.2 410.449C157.813 408.535 157.522 407.579 156.827 405.678C157.235 405.191 157.431 404.944 157.805 404.449C158.482 406.09 158.782 406.911 159.26 408.565C159.512 409.446 160.598 410.154 161.728 410.137C162.857 410.119 163.57 409.372 163.27 408.474C162.275 405.482 161.571 403.997 160.016 401.045C161.697 398.01 162.245 396.425 163.066 393.152C165.451 396.564 167.775 400.133 169.748 403.806C168.54 406.155 167.788 407.297 165.868 409.503C165.29 410.167 165.564 411.205 166.524 411.843C167.484 412.481 168.813 412.477 169.435 411.808C171.22 409.889 171.954 408.899 173.167 406.872C173.188 406.872 173.21 406.872 173.227 406.872C173.249 406.872 173.267 406.872 173.288 406.867C176.342 408.686 177.867 409.62 180.874 411.543C181.921 412.216 183.198 412.182 183.671 411.448C184.145 410.714 183.598 409.564 182.507 408.899C178.875 406.689 177.038 405.626 173.397 403.559C171.251 399.821 168.779 396.195 166.246 392.709C170.312 394.832 174.361 396.985 178.402 399.152C180.704 402.408 181.808 404.054 183.628 407.371C184.175 408.37 185.435 409.138 186.482 409.082C187.529 409.025 187.933 408.148 187.338 407.132C186.226 405.226 185.613 404.28 184.328 402.395C185.275 402.921 185.748 403.185 186.695 403.719C188.133 405.869 188.807 406.95 189.997 409.129C190.557 410.158 191.835 410.953 192.89 410.896C193.946 410.84 194.346 409.941 193.738 408.895C192.708 407.123 192.139 406.242 190.948 404.484L190.975 404.475Z" fill="#7C807F"/>
</g>
<g filter="url(#filter4_f_1957_64598)">
<path d="M180.452 205.631L182.299 199.539L184.254 204.888C184.536 205.657 185.296 205.9 185.957 205.431C186.613 204.962 186.921 203.955 186.639 203.186L184.684 197.837L189.298 199.309C189.962 199.522 190.718 198.983 190.983 198.106C191.248 197.229 190.927 196.348 190.262 196.135L185.648 194.663L190.219 191.398C190.875 190.929 191.183 189.922 190.901 189.154C190.618 188.385 189.858 188.142 189.198 188.611L184.627 191.876L186.474 185.784C186.739 184.907 186.417 184.026 185.753 183.813C185.088 183.601 184.332 184.139 184.067 185.016L182.221 191.107L180.266 185.758C179.983 184.99 179.223 184.747 178.563 185.216C178.232 185.45 177.993 185.819 177.872 186.227C177.75 186.635 177.741 187.078 177.885 187.46L179.84 192.809L175.226 191.338C174.561 191.125 173.805 191.663 173.54 192.54C173.275 193.417 173.597 194.299 174.262 194.511L178.875 195.983L174.305 199.248C173.975 199.483 173.736 199.852 173.614 200.26C173.493 200.668 173.484 201.111 173.627 201.493C173.91 202.261 174.67 202.505 175.33 202.036L179.901 198.771L178.054 204.862C177.789 205.739 178.111 206.621 178.775 206.833C179.44 207.046 180.196 206.508 180.461 205.631H180.452Z" fill="#7C807F"/>
</g>
<g filter="url(#filter5_f_1957_64598)">
<path d="M433.569 391.011L438.531 395.001L432.835 394.814C432.014 394.788 431.506 395.401 431.697 396.186C431.888 396.972 432.705 397.632 433.526 397.658L439.221 397.845L436.128 401.57C435.685 402.109 435.902 403.007 436.615 403.58C437.327 404.154 438.27 404.184 438.713 403.65L441.806 399.925L443.127 405.382C443.318 406.168 444.135 406.828 444.956 406.854C445.777 406.88 446.285 406.268 446.094 405.482L444.774 400.025L449.735 404.015C450.447 404.588 451.39 404.618 451.833 404.084C452.276 403.55 452.059 402.647 451.347 402.074L446.385 398.084L452.081 398.27C452.902 398.297 453.41 397.684 453.219 396.899C453.124 396.508 452.872 396.143 452.541 395.878C452.211 395.613 451.803 395.44 451.39 395.427L445.695 395.24L448.788 391.515C449.231 390.976 449.014 390.078 448.301 389.504C447.589 388.931 446.646 388.901 446.203 389.435L443.11 393.16L441.789 387.703C441.693 387.312 441.441 386.947 441.111 386.682C440.781 386.417 440.373 386.244 439.96 386.231C439.139 386.205 438.63 386.817 438.822 387.603L440.142 393.06L435.181 389.07C434.468 388.497 433.526 388.467 433.083 389.001C432.639 389.535 432.857 390.438 433.569 391.011Z" fill="#7C807F"/>
</g>
<path d="M250.233 317.349C248.252 317.548 247.253 317.657 245.241 317.891C245.693 316.224 245.897 315.43 246.466 313.888C246.671 313.333 246.254 312.49 245.55 311.978C244.85 311.466 244.068 311.487 243.79 312.047C243.017 313.61 242.735 314.418 242.196 316.103C240.975 313.914 240.419 312.811 239.919 310.588C239.741 309.79 239.129 309.147 238.442 309.164C237.756 309.182 237.239 309.868 237.408 310.688C237.877 312.972 238.42 314.11 239.593 316.372C237.343 314.926 236.274 314.17 234.384 312.599C233.702 312.034 232.894 312.082 232.56 312.738C232.23 313.393 232.56 314.401 233.307 314.965C235.384 316.524 236.518 317.275 238.846 318.703C236.796 318.985 235.762 319.137 233.681 319.459C232.933 319.576 232.642 320.397 233.033 321.295C233.424 322.19 234.358 322.798 235.132 322.65C237.287 322.246 238.351 322.055 240.471 321.695C239.845 323.566 239.498 324.543 238.447 326.588C238.069 327.326 238.316 328.325 239.05 328.785C239.415 329.015 239.845 329.067 240.241 328.972C240.64 328.876 241.005 328.633 241.231 328.268C242.47 326.241 242.878 325.277 243.564 323.423C244.759 325.637 245.315 326.74 245.854 328.911C246.049 329.692 246.849 330.144 247.735 329.922C248.621 329.701 249.212 328.928 248.96 328.177C248.269 326.097 247.657 325.042 246.371 322.906C248.795 324.143 250.016 324.721 252.384 325.789C252.809 325.98 253.257 326.023 253.635 325.945C254.013 325.867 254.321 325.663 254.456 325.364C254.725 324.76 254.178 323.979 253.283 323.583C250.793 322.489 249.529 321.894 247.066 320.635C249.138 320.323 250.168 320.179 252.21 319.906C252.944 319.806 253.074 319.177 252.514 318.482C251.953 317.787 250.941 317.275 250.224 317.344L250.233 317.349Z" fill="#B5C4C6"/>
<g filter="url(#filter6_f_1957_64598)">
<path d="M370.527 74.5005L375.988 77.2576L370.596 78.5253C369.818 78.7077 369.462 79.4588 369.797 80.2013C370.131 80.9437 371.035 81.3996 371.813 81.2172L377.204 79.9494L375.04 84.4996C374.728 85.1552 375.114 86.0062 375.901 86.4057C376.687 86.8051 377.578 86.5924 377.89 85.9367L380.054 81.3866L382.387 86.5533C382.721 87.2957 383.625 87.7516 384.403 87.5693C385.18 87.3869 385.537 86.6358 385.202 85.8933L382.869 80.7266L388.33 83.4836C389.117 83.8787 390.007 83.6703 390.32 83.0147C390.633 82.3591 390.246 81.5081 389.46 81.1087L383.999 78.3517L389.39 77.0839C390.168 76.9015 390.524 76.1504 390.19 75.408C390.02 75.0346 389.712 74.735 389.347 74.5526C388.982 74.3703 388.565 74.3008 388.174 74.392L382.782 75.6598L384.946 71.1096C385.259 70.454 384.872 69.603 384.086 69.2036C383.299 68.8041 382.409 69.0169 382.096 69.6725L379.932 74.2227L377.599 69.056C377.43 68.6826 377.121 68.383 376.757 68.2006C376.392 68.0183 375.975 67.9488 375.584 68.04C374.806 68.2223 374.45 68.9735 374.784 69.7159L377.117 74.8826L371.656 72.1256C370.87 71.7305 369.979 71.9389 369.666 72.5945C369.354 73.2501 369.74 74.1011 370.527 74.5005Z" fill="#B5C4C6"/>
</g>
<g filter="url(#filter7_f_1957_64598)">
<path d="M282.799 513.761L277.625 518.155L279.519 512.333C279.793 511.495 279.38 510.861 278.598 510.918C277.816 510.974 276.965 511.699 276.691 512.537L274.797 518.359L272.303 514.521C271.942 513.97 271.047 514.035 270.304 514.665C269.562 515.294 269.249 516.258 269.605 516.809L272.099 520.647L266.677 521.043C265.895 521.099 265.043 521.824 264.77 522.662C264.496 523.5 264.909 524.134 265.691 524.077L271.113 523.682L265.938 528.076C265.195 528.71 264.883 529.67 265.239 530.221C265.595 530.772 266.494 530.707 267.237 530.078L272.407 525.684L270.513 531.506C270.239 532.344 270.652 532.978 271.434 532.922C271.825 532.891 272.233 532.696 272.577 532.405C272.92 532.114 273.202 531.719 273.341 531.302L275.235 525.48L277.729 529.318C278.09 529.869 278.985 529.804 279.728 529.175C280.471 528.545 280.783 527.581 280.427 527.03L277.933 523.192L283.355 522.797C283.746 522.766 284.155 522.571 284.498 522.28C284.841 521.989 285.123 521.594 285.262 521.177C285.536 520.339 285.123 519.705 284.341 519.762L278.92 520.157L284.094 515.763C284.837 515.129 285.149 514.17 284.793 513.618C284.437 513.067 283.538 513.132 282.795 513.761H282.799Z" fill="white"/>
</g>
</g>
<defs>
<filter id="filter0_f_1957_64598" x="117.885" y="96.1901" width="64.1518" height="58.6161" filterUnits="userSpaceOnUse" color-interpolation-filters="sRGB">
<feFlood flood-opacity="0" result="BackgroundImageFix"/>
<feBlend mode="normal" in="SourceGraphic" in2="BackgroundImageFix" result="shape"/>
<feGaussianBlur stdDeviation="2.04545" result="effect1_foregroundBlur_1957_64598"/>
</filter>
<filter id="filter1_f_1957_64598" x="266.522" y="269.242" width="62.3066" height="61.016" filterUnits="userSpaceOnUse" color-interpolation-filters="sRGB">
<feFlood flood-opacity="0" result="BackgroundImageFix"/>
<feBlend mode="normal" in="SourceGraphic" in2="BackgroundImageFix" result="shape"/>
<feGaussianBlur stdDeviation="2.04545" result="effect1_foregroundBlur_1957_64598"/>
</filter>
<filter id="filter2_f_1957_64598" x="337.52" y="438.497" width="60.2596" height="50.8865" filterUnits="userSpaceOnUse" color-interpolation-filters="sRGB">
<feFlood flood-opacity="0" result="BackgroundImageFix"/>
<feBlend mode="normal" in="SourceGraphic" in2="BackgroundImageFix" result="shape"/>
<feGaussianBlur stdDeviation="1.63636" result="effect1_foregroundBlur_1957_64598"/>
</filter>
<filter id="filter3_f_1957_64598" x="130.189" y="358.79" width="69.8273" height="57.6161" filterUnits="userSpaceOnUse" color-interpolation-filters="sRGB">
<feFlood flood-opacity="0" result="BackgroundImageFix"/>
<feBlend mode="normal" in="SourceGraphic" in2="BackgroundImageFix" result="shape"/>
<feGaussianBlur stdDeviation="2.04545" result="effect1_foregroundBlur_1957_64598"/>
</filter>
<filter id="filter4_f_1957_64598" x="169.357" y="179.676" width="25.8105" height="31.2949" filterUnits="userSpaceOnUse" color-interpolation-filters="sRGB">
<feFlood flood-opacity="0" result="BackgroundImageFix"/>
<feBlend mode="normal" in="SourceGraphic" in2="BackgroundImageFix" result="shape"/>
<feGaussianBlur stdDeviation="2.04545" result="effect1_foregroundBlur_1957_64598"/>
</filter>
<filter id="filter5_f_1957_64598" x="429.202" y="383.775" width="26.5119" height="25.5341" filterUnits="userSpaceOnUse" color-interpolation-filters="sRGB">
<feFlood flood-opacity="0" result="BackgroundImageFix"/>
<feBlend mode="normal" in="SourceGraphic" in2="BackgroundImageFix" result="shape"/>
<feGaussianBlur stdDeviation="1.22727" result="effect1_foregroundBlur_1957_64598"/>
</filter>
<filter id="filter6_f_1957_64598" x="366.285" y="64.7273" width="27.4161" height="26.1548" filterUnits="userSpaceOnUse" color-interpolation-filters="sRGB">
<feFlood flood-opacity="0" result="BackgroundImageFix"/>
<feBlend mode="normal" in="SourceGraphic" in2="BackgroundImageFix" result="shape"/>
<feGaussianBlur stdDeviation="1.63636" result="effect1_foregroundBlur_1957_64598"/>
</filter>
<filter id="filter7_f_1957_64598" x="262.231" y="508.46" width="25.571" height="26.9201" filterUnits="userSpaceOnUse" color-interpolation-filters="sRGB">
<feFlood flood-opacity="0" result="BackgroundImageFix"/>
<feBlend mode="normal" in="SourceGraphic" in2="BackgroundImageFix" result="shape"/>
<feGaussianBlur stdDeviation="1.22727" result="effect1_foregroundBlur_1957_64598"/>
</filter>
<clipPath id="clip0_1957_64598">
<rect width="550" height="620" fill="white"/>
</clipPath>
</defs>
</svg>
